<?xml version="1.0" encoding="UTF-8"?><svg id="b" xmlns="http://www.w3.org/2000/svg" xmlns:xlink="http://www.w3.org/1999/xlink" viewBox="0 0 128 64"><defs><style>.i{fill:url(#g);}.j{fill:url(#h);}.k{fill:url(#f);}.l{fill:url(#d);}.m{fill:url(#e);}</style><linearGradient id="d" x1="65.71" y1="454.71" x2="65.71" y2="302.85" gradientTransform="translate(0 445.26) scale(1 -1)" gradientUnits="userSpaceOnUse"><stop offset="0" stop-color="#e2a854"/><stop offset="1" stop-color="#c2223e"/></linearGradient><linearGradient id="e" x1="165.48" y1="272.74" x2="165.48" y2="126.65" gradientTransform="translate(-93.89 240.73) rotate(10.66) scale(1 -1)" xlink:href="#d"/><linearGradient id="f" x1="-2.31" y1="583.45" x2="-2.31" y2="437.38" gradientTransform="translate(95.51 577.88) rotate(-8.15) scale(1 -1)" xlink:href="#d"/><linearGradient id="g" x1="11.59" y1="636.08" x2="11.59" y2="495.77" gradientTransform="translate(141.04 627.35) rotate(-11.28) scale(1 -1)" xlink:href="#d"/><linearGradient id="h" x1="161.83" y1="253.24" x2="161.83" y2="112.89" gradientTransform="translate(-107.31 215.07) rotate(12.05) scale(1 -1)" xlink:href="#d"/></defs><g id="c"><path class="l" d="m59.16,29.04c-.12.02-.11.08-.12.13-.02.12,0,.24-.12.38-.01-.06-.03-.09-.02-.12.01-.09.03-.19.06-.28.01-.04.05-.08.07-.12.03-.06.09-.13.1-.2.03-.21.01-.42.05-.62.05-.28.03-.55.06-.84.04-.28,0-.57.15-.86,0-.01.02-.02.02-.04-.04-.34.07-.69-.03-1.05-.06-.2-.01-.42-.02-.63,0-.12-.04-.24-.05-.36,0-.07.01-.14.01-.21,0-.12-.01-.24-.02-.36,0-.02-.02-.05-.04-.07-.23-.17-.23-.35-.16-.55.01-.04.08-9.48.08-9.53v-.24c0-.16.06-.33.03-.49-.04-.2-.08-.41-.23-.61-.09-.11-.02-.26-.02-.39,0-.04.02-.09.04-.15-.28,0-.25-.16-.39-.25.18-.16.2-.34.11-.51-.02-.05-.06-.11-.11-.15-.11-.1-.15-.2-.1-.31.05-.1.03-.19-.03-.29-.06-.1-.06-.21-.03-.31.06-.22-.01-.44-.08-.66-.03-.08-.03-.15.03-.23.08-.12.14-.23.33-.31.06-.03.09-.1.08-.16,0-.13-.04-.25-.06-.38-.03-.16-.06-.33.04-.49.03-.05.03-.11.03-.17-.02-.25-.04-.51-.07-.77.14-.14.02-.27-.02-.4,0-.02.04-.05.06-.08.16.03.02.09.06.13.02.02.07.04.11.05.03-.02.08-.04.07-.05-.14-.2.02-.39.01-.58,0-.16-.11-.31-.02-.47.02-.03-.07-.09-.12-.14.16-.09.04-.23.17-.34.02-.02-.01-.06-.02-.09-.1-.3.02-.6.04-.91.03.03.07.06.07.1,0,.13.04.27,0,.4-.07.19.02.36.11.54.02.03.07.06.13.1.03-.02.07-.04.06-.05-.03-.18-.06-.36-.09-.54v-.06c.21-.17.04-.38.17-.55.02-.03-.02-.09-.03-.13-.04-.14.06-.25.33-.32.03.09.11.19.09.27-.05.18.03.35.06.52.02.14,0,.3.06.43.07.13.03.25,0,.38-.02-.04-.05-.08-.08-.12-.11.08-.01.15,0,.22,0,.05.06.1.04.15-.1.26.02.52.09.78.04.12.04.25.05.38,0,.03-.08.06-.13.1.13.04.14.12.13.21,0,.07-.04.15.12.21.18-.12.37-.23.35-.4,0-.08-.02-.15-.2-.17-.04,0-.06-.04-.13-.08h.34c.04-.16.04-.32,0-.48,0-.04-.05-.08-.04-.11.11-.23.02-.46-.01-.68-.04-.25.1-.49-.01-.73-.02-.04.05-.09.1-.13.08.12.12.24.11.36,0,.17-.01.34,0,.52,0,.1.05.21.07.31h.06s.03-.08.02-.12c-.02-.19,0-.38-.06-.57-.05-.15-.03-.32.02-.47.07-.24.01-.47-.04-.7,0-.04-.02-.09-.03-.13-.02-.18-.05-.37-.07-.55v-.27c.18.06.26.13.28.22.02.08,0,.16.03.25.15-.11.23-.23.21-.4.1.02.18.04.28.06.15-.13.3-.26.45-.4.23.04.28.09.27.2-.02.27-.04.55-.03.83,0,.1.09.2.11.3.03.16.04.32.06.47.01.09,0,.19.16.28.05-.08.09-.15.14-.23.14.12.29.05.41.04.29-.15.28-.37.47-.55-.02.1-.04.19-.06.34.42-.19.42-.46.57-.7.08.04.14.06.2.09.23-.11.46-.22.69-.33.08-.04.13-.08.07-.15-.06-.07.05-.16-.12-.22-.07-.03.02-.13.14-.14.27-.03.35-.14.38-.27,0,0,.03-.02.04-.03h.05c.08.06.02.13,0,.19-.02.06,0,.1.14.12.03-.07.07-.13.09-.2.03-.15.04-.3.07-.45,0-.05.04-.1.07-.15.01-.02.07-.04.07-.06.01-.2.25-.26.53-.3.03,0,.06-.01.12-.03.16.07.32.15.52.25.07-.08.12-.14.2-.22.14.19.41.2.69.2.15,0,.27.04.38.1.08.04.16.09.25.13v.17c.14.03.23-.01.34-.05-.03-.05-.06-.1-.08-.14,0-.02,0-.03.02-.04.07-.03.15-.05.15-.11s.02-.12.14-.13c.16-.01.16.07.2.12.01.02.04.03.08.07.1-.13.13-.25.12-.37-.04-.3.2-.39.34.1.06.22.1.44.27.64.03.04.06.07.09.11.1-.11.19-.22.28-.32.15,0,.18.05.21.09.11.18.21.37.14.57-.04.11.11.21.3.25.1.02.18.06.26.11.13.07.23.16.4.21.16.05.26.14.23.26-.04.18.09.35,0,.53-.02.05.04.11.06.16.05.17.1.35.15.52.21.04.26-.2.53-.08,0,.03.03.08.02.13-.05.18.03.35.02.53-.02.37.02.74.04,1.11.01.17-.05.34.03.51.04.08-.06.19-.06.28,0,.25.02.5.02.74,0,.05.02.11-.01.15-.13.18-.1.37-.1.56v.67c0,.11-.02.22-.07.32-.12.26-.11.51-.11.78,0,.14-.04.28-.07.42,0,.04-.05.07-.09.1-.22.15-.2.31-.12.49.06.13.14.26.16.39.02.16.03.32-.02.47-.09.33-.07.65-.04.99.04.32-.09,10.04-.08,10.36,0,.11.02.23.04.34.04.18.09.36.13.54,0,.02.02.04.02.05-.01.24-.03.48-.04.72,0,.15.02.3.16.44.06.06.08.14.07.2,0,.12-.07.23-.08.35,0,.13.03.25.06.38.04.23.07.45,0,.68v.07c.01.14.05.28.04.41,0,.18-.03.35-.06.53-.02.08-.05.16-.23.19-.05,0-.12.05-.12.08-.01.17-.14.31-.21.47-.09.2-.15.41-.2.61-.04.15-.07.3.1.44.05.05.04.12.04.19.01.15.02.29.03.44,0,.01.01.03,0,.04-.19.35-.06.71-.09,1.07-.01.14.03.28,0,.42-.03.23-.08.46-.14.69-.03.12-.08.24-.19.36-.1.12-.12.11-.25-.04-.14-.16-.14-.31-.06-.47-.21-.14-.43-.02-.67-.05-.03.11-.06.2-.09.3-.1.37-.19.76-.3,1.13-.08.29-.17.57-.26.87-.04.12-.09.23-.13.35-.16.41-.32.84-.47,1.25-.04.11-.02.22-.04.38-.14.1-.28.25-.28.44,0,.09-.03.19-.22.23-.08-.17-.07-.34.03-.52-.07-.07-.2-.15-.03-.26-.18-.01-.26.01-.32.08-.06.07-.14.12-.23.2-.13-.06-.24-.09-.37-.04-.04.02-.13,0-.19,0-.18-.02-.25-.08-.2-.18.05-.08.05-.16.02-.24.03-.02.07-.03.07-.05.06-.19.12-.37.18-.56.01-.04.02-.09.05-.17-.15.08-.21.14-.23.22-.03.1-.07.2-.11.3s-.05.19.05.27c-.11,0-.15.03-.16.1-.02.1-.06.21-.1.35l-.42-.21c-.22.17-.55.09-.84.1-.11-.1-.16-.19-.07-.29.02-.02-.02-.07-.05-.14-.09.09-.14.14-.2.21-.13-.02-.25-.03-.39-.05.04-.11.07-.21.11-.32-.13.02-.23.04-.34.06,0-.03-.03-.06-.01-.08.15-.16.22-.33.24-.5,0-.04.03-.09.06-.13.1-.16.07-.3-.17-.44-.01.18-.03.34-.04.52-.1.01-.18-.01-.16-.07.04-.16-.05-.3-.07-.45-.02-.14.07-.29.23-.41.04.02.08.04.15.08.03-.13.07-.24-.17-.3-.15-.04-.13-.12-.1-.2.05-.12.13-.23.08-.35-.25.05-.36.03-.56-.09-.06-.03-.12-.09-.19-.09-.2,0-.27-.06-.28-.17,0-.02-.03-.03-.05-.06-.05.02-.09.04-.13.05-.05.02-.09.03-.16.05-.02-.03-.04-.05-.05-.07v-.06h-.24s-.04.03-.04.04c-.04.23-.08.45-.13.68-.05.24-.11.49-.16.73-.04.23-.07.46-.12.69-.04.16-.1.31-.17.46-.05.1-.13.2-.1.31,0,.02-.02.05-.04.07-.12-.01-.22-.03-.23-.09-.03-.1-.18-.18-.11-.29.02-.03-.02-.09-.07-.12-.18-.12-.37-.22-.58-.35-.03-.06.05-.17-.1-.24-.02-.01,0-.06,0-.09,0-.07.02-.14-.13-.19-.05-.02-.1-.09-.08-.13.09-.17,0-.33-.04-.54-.14.11-.25.2-.36.29-.29-.11-.18-.29-.24-.47v.46c-.15.06-.18-.09-.34-.07-.07.21-.13.42-.21.64-.01.04-.04.07-.07.1-.05.07-.1.14-.17.23-.02-.01-.09-.03-.09-.05,0-.07-.04-.12-.18-.13.05-.24-.09-.44-.23-.63-.05,0-.09,0-.14.01-.09-.12-.06-.25-.05-.38.01-.15-.07-.28-.27-.42-.01.05-.03.08-.03.1.03.09.07.19.1.28.02.07.05.15-.07.21-.27-.07-.28-.07-.22-.2.11-.29.09-.58.12-.88.01-.11.03-.21.05-.33.06.02.11.02.11.03,0,.14.03.28,0,.42-.04.17-.06.17.25.27.02-.17.04-.33.05-.49,0-.08-.03-.14-.25-.11.12-.2.15-.38.1-.55-.05-.17.12-.37-.12-.55-.05.04-.11.07-.12.1-.05.17-.09.35-.13.52-.02.12-.03.24-.04.36,0,.03-.03.06-.02.09.09.32-.1.64-.11.97,0,.06-.08.13-.15.19-.06-.15-.09-.31-.07-.46.02-.12.02-.24.03-.36.02-.18.05-.37.07-.55,0-.08-.02-.16-.03-.25-.01-.08-.04-.17-.02-.25.03-.14.07-.28,0-.42-.01-.03.02-.06.03-.09.05-.15.09-.3.14-.44.04-.09.14-.17.15-.26.01-.09-.07-.18-.07-.27,0-.13.03-.26.04-.39.02-.3.03-.59.14-.89.03-.08,0-.16-.02-.24-.02-.13-.07-.26.18-.35.05-.02.05-.1.03-.14-.02-.05-.08-.1-.12-.15.02-.01.04-.03.06-.04h.03s-.02,0-.03.01c-.02.01-.04.03-.06.04l-.02-.05Zm9.69,6.12c-.1.03-.14.08-.16.14-.06.18-.12.36-.19.54-.03.09-.07.17.07.25.04.02.04.07.05.08-.1.08-.23.14-.25.21-.04.12-.01.25-.01.4.17-.12.24-.26.49-.31.04,0,.08-.07.08-.11v-.44c0-.07.02-.15.05-.22.04-.09.07-.17,0-.26-.15.07.03.2-.18.26-.18-.18.14-.34.03-.52l.02-.02Zm.46-33.36c-.12.12.07.17.14.26.2-.15-.13-.17-.14-.26Zm-8.22,1.7c-.12.13-.06.25-.03.36-.03-.11.16-.22.03-.36Zm-.16,2.06h-.07c-.03.05-.04.1.1.14,0-.06-.02-.1-.02-.15h-.01Zm4.39,29.54s.06-.06.05-.07c-.01-.02-.05-.03-.07-.04-.01.02-.03.03-.03.05s.03.03.06.06h-.01Zm-5.89-27.99s.04-.03.05-.04c0,0-.01-.02-.02-.03-.02.01-.05.03-.07.04,0,0,.02.01.04.03Zm6.19,28.12s.02-.02.02-.03c0,0-.01,0-.02-.01-.01,0-.03.01-.03.02,0,0,.02.02.03.03h0Zm-6.67-28.66s-.02,0-.02.01.01.02.02.03c0,0,.02,0,.02-.01s-.01-.02-.02-.03Z"/><path class="m" d="m98.7,49.68c-.06-.11-.11-.08-.16-.07-.11.02-.21.08-.38,0,.05-.03.07-.05.1-.06.09-.02.18-.03.27-.03.04,0,.09.02.13.03.07.01.14.04.2.03.19-.04.37-.12.57-.14.26-.04.5-.14.75-.2.26-.05.5-.18.8-.12.01,0,.03.01.04,0,.29-.14.63-.15.91-.35.16-.12.37-.14.55-.21.1-.04.2-.11.3-.16.06-.03.13-.03.19-.05.11-.04.21-.08.32-.13.02,0,.04-.03.05-.06.07-.27.24-.32.43-.32.04,0,8.39-2.83,8.43-2.85.07-.03.14-.05.22-.07.15-.04.31-.05.45-.13.17-.1.34-.2.46-.4.07-.11.22-.1.34-.14.04-.01.08,0,.14-.01-.09-.26.06-.28.09-.44.2.12.36.08.49-.05.04-.04.07-.09.1-.15.05-.13.12-.2.24-.19.11.02.18-.03.25-.12.07-.08.17-.12.27-.13.22,0,.38-.15.55-.28.06-.05.12-.07.21-.05.13.03.25.07.39.21.05.05.12.05.17.03.11-.05.21-.11.31-.18.13-.08.27-.16.45-.11.06.01.11,0,.16-.03.22-.1.43-.2.65-.29.17.09.25-.06.35-.14.02-.02.06.02.09.03.03.16-.07.05-.09.09-.01.02,0,.08-.01.11.02.02.06.06.07.05.13-.19.35-.1.52-.17.14-.06.24-.2.41-.16.04,0,.05-.09.09-.16.13.12.22-.03.35.05.02.01.05-.03.07-.05.23-.18.54-.16.81-.24-.02.03-.03.09-.06.1-.11.05-.22.12-.35.12-.19,0-.31.13-.44.27-.02.03-.03.09-.04.15.03.02.06.05.07.04.15-.08.3-.17.45-.25.02,0,.04-.02.05-.01.22.15.34-.08.55-.01.04.01.07-.04.1-.07.11-.08.24-.02.39.21-.07.06-.13.16-.21.17-.18.01-.3.14-.44.22-.12.06-.26.09-.36.19-.09.1-.21.1-.33.12.03-.03.05-.07.08-.11-.11-.07-.14.04-.2.07-.04.02-.07.09-.11.09-.27-.01-.45.18-.65.32-.1.07-.21.12-.32.16-.03,0-.08-.05-.13-.09,0,.13-.06.17-.15.19-.07.02-.15,0-.14.18.16.13.32.27.47.2.07-.03.13-.07.08-.24,0-.04.01-.07.03-.15.05.13.08.21.11.32.16,0,.3-.06.42-.14.03-.02.05-.07.09-.07.24.04.41-.12.6-.22.21-.11.47-.06.65-.24.03-.03.09.02.15.05-.08.11-.17.19-.28.22-.16.04-.31.09-.46.15-.09.04-.17.11-.25.16,0,.02.01.04.02.06.04,0,.08,0,.11-.01.16-.07.34-.11.48-.23.12-.09.27-.12.43-.12.23,0,.42-.13.61-.25.04-.02.07-.05.11-.07.15-.08.31-.16.46-.23.07-.03.14-.05.24-.08,0,.19-.03.29-.1.33s-.14.05-.21.1c.15.1.28.15.42.07.01.1.02.18.04.28.16.1.33.2.5.3.04.23.01.29-.09.32-.25.06-.5.13-.73.22-.09.03-.14.15-.22.2-.13.08-.27.13-.4.2-.08.04-.16.07-.19.24.09.02.16.04.25.06-.06.17.06.29.1.39.23.23.42.15.64.27-.09.01-.19.02-.32.04.31.34.55.25.81.32,0,.09,0,.15-.01.21.17.18.34.37.52.54.06.06.12.1.16.02.04-.08.16,0,.16-.18,0-.07.12-.02.17.08.11.24.23.28.37.28,0,0,.03.02.04.03,0,0,0,.02.02.04-.03.09-.11.06-.17.06s-.09.03-.06.16c.07,0,.14.03.2.02.14-.02.28-.05.43-.07.05,0,.1,0,.15.02.03,0,.06.05.08.04.18-.05.31.15.44.4.01.03.03.05.07.1-.01.17-.03.35-.05.56.09.04.17.07.26.12-.12.18-.05.44.05.71.05.14.06.27.04.38-.01.09-.02.17-.04.27-.04.02-.09.03-.15.05.02.14.09.21.16.3.03-.04.07-.08.09-.12.02,0,.03,0,.04.01.05.06.09.13.15.11.05-.02.11-.02.16.09.06.14,0,.17-.04.23-.01.02-.02.04-.03.09.14.05.26.05.36,0,.25-.13.42.07.03.35-.17.12-.36.23-.48.45-.02.04-.04.08-.06.12.14.06.26.11.38.16.05.14.02.18-.01.22-.13.16-.26.31-.46.31-.11,0-.15.16-.12.35.01.1,0,.19,0,.27-.02.14-.06.27-.06.44s-.04.29-.15.29c-.17.01-.28.19-.47.16-.05,0-.08.07-.12.11-.14.1-.27.2-.41.3.03.21.26.18.24.47-.03.02-.06.06-.11.06-.17,0-.3.13-.46.18-.33.09-.65.24-.96.38-.15.06-.32.06-.44.18-.06.06-.18,0-.27.03-.22.07-.43.17-.65.25-.04.02-.09.05-.14.03-.21-.06-.36.02-.53.08-.2.07-.39.15-.59.21-.1.03-.2.04-.3.03-.26-.03-.49.06-.72.13-.12.04-.26.05-.39.06-.03,0-.08-.02-.12-.05-.2-.16-.34-.09-.47.04-.09.1-.18.21-.29.27-.13.07-.27.12-.42.13-.32.02-.6.13-.88.27-.27.13-8.88,2.99-9.16,3.1-.1.04-.19.09-.29.15-.15.09-.29.19-.44.29-.01,0-.03.03-.04.03-.22.06-.43.12-.65.18-.14.04-.26.11-.34.28-.03.07-.09.11-.16.13-.11.03-.23,0-.34.04-.11.03-.21.11-.31.17-.19.11-.38.21-.61.2-.02,0-.05,0-.07.02-.12.06-.23.13-.35.17-.16.05-.32.08-.49.1-.08,0-.16,0-.24-.15-.02-.04-.08-.09-.11-.09-.15.04-.32-.03-.49-.05-.21-.03-.41-.02-.61,0-.14.01-.29.03-.36.23-.02.06-.1.07-.15.09-.13.06-.25.11-.38.16-.01,0-.02.02-.03.02-.37-.07-.65.16-.97.24-.13.03-.24.11-.37.14-.22.04-.44.06-.66.09-.12.01-.24,0-.38-.07-.14-.06-.13-.09-.04-.25.1-.18.23-.23.4-.2.05-.24-.13-.41-.18-.64h-.29c-.37.02-.73.05-1.09.07-.28.01-.56.02-.85.02-.12,0-.24-.01-.36-.02-.42-.02-.84-.05-1.25-.06-.11,0-.21.05-.35.08-.14-.1-.32-.18-.48-.13-.08.03-.18.04-.28-.13.12-.13.28-.17.47-.13.04-.09.07-.24.22-.11-.05-.17-.09-.24-.18-.28-.08-.03-.16-.09-.25-.15.01-.14,0-.25-.09-.36-.03-.03-.05-.12-.06-.18-.04-.17-.02-.26.09-.24.09.02.16,0,.22-.06.02.02.05.05.07.05h.55s.09,0,.17-.01c-.12-.11-.19-.15-.27-.14-.1,0-.2,0-.3-.01-.1-.01-.18,0-.23.13-.04-.1-.08-.13-.14-.12-.1.01-.2,0-.34,0,.02-.18.03-.31.05-.46-.23-.16-.26-.48-.37-.77.05-.13.11-.21.24-.16.03.01.05-.04.1-.09-.1-.05-.17-.09-.25-.13-.03-.13-.06-.25-.09-.38h.32c-.06-.12-.11-.2-.17-.3.03-.01.04-.04.07-.03.19.09.36.1.52.07.04,0,.09,0,.13.02.17.04.29-.03.33-.3-.16.04-.31.08-.47.12-.04-.09-.05-.17,0-.18.15-.01.25-.13.38-.2.12-.07.28-.02.44.09,0,.05-.01.09-.02.16.13-.01.24,0,.21-.25-.01-.15.06-.16.14-.15.12.01.25.05.34-.03-.13-.22-.15-.33-.1-.55.01-.06.03-.14.01-.2-.06-.19-.03-.27.06-.31.01,0,.02-.03.04-.06-.03-.04-.06-.07-.09-.11s-.06-.08-.1-.14c.02-.03.03-.05.05-.06.01-.01.03-.01.06-.02-.03-.08-.05-.15-.08-.22-.02-.01-.04-.03-.05-.02-.22.03-.43.06-.64.09-.23.03-.47.05-.7.08-.22.03-.43.08-.66.1-.15.01-.31,0-.47-.02-.11-.01-.22-.06-.31,0-.02.01-.05,0-.08-.01-.03-.11-.04-.21,0-.25.08-.06.1-.22.22-.19.04,0,.07-.05.09-.1.04-.2.08-.41.12-.65.04-.05.17,0,.18-.17,0-.03.05-.02.08-.02.07-.02.14-.02.13-.18,0-.06.05-.13.08-.12.18.04.29-.11.46-.2-.15-.1-.26-.17-.38-.25,0-.31.2-.25.34-.37-.16.05-.28.1-.41.14-.1-.12.02-.2-.06-.34h-.63s-.08-.02-.11-.03c-.08-.03-.16-.05-.25-.09,0-.03,0-.1.02-.1.06-.02.09-.08.05-.21.23-.03.36-.22.48-.41-.02-.04-.04-.08-.06-.13.08-.12.2-.14.32-.17.14-.04.23-.15.29-.38h-.1c-.07.06-.14.12-.21.18-.06.04-.12.09-.21,0-.03-.27-.03-.28.11-.27.29.02.54-.1.81-.15.1-.02.2-.03.31-.05,0,.06.01.11,0,.11-.12.05-.24.12-.37.13-.16.01-.17,0-.15.31.16-.03.31-.06.45-.1.07-.02.12-.07.01-.26.22.05.39.02.52-.08.14-.1.36,0,.44-.28-.05-.03-.1-.08-.13-.08-.17,0-.34.02-.51.04-.11.01-.22.05-.33.07h-.09c-.26.18-.6.1-.88.19-.06.02-.14-.03-.21-.08.12-.1.24-.17.39-.2.11-.02.22-.06.33-.08.17-.04.34-.06.51-.1.07-.02.14-.07.21-.11s.13-.09.21-.1c.13-.02.27-.02.37-.12.02-.02.06,0,.09,0,.15,0,.29-.01.44,0,.09,0,.2.08.28.06.08-.01.14-.12.22-.15.11-.04.24-.05.36-.08.27-.07.53-.15.83-.14.08,0,.14-.05.21-.09.11-.06.21-.15.37.06.03.04.1.02.14-.01s.06-.11.1-.16c.02.02.04.03.06.05,0,0,0,.02.01.02h.01s-.02-.01-.03-.02c-.02-.02-.04-.03-.06-.05l-.04.04Zm19.26-5.67c-.18-.12-.19.16-.31.16-.05,0-.06.14-.1.23.23.07.27.03.4-.39h.01Zm-.41.6c-.23-.2-.37-.19-.43-.01.11.15.12-.04.19-.03.08.01.16.03.24.04Zm8.51,6.25c-.14-.07-.12.12-.18.21.2.14.11-.18.18-.21Zm-8.19-8.01q-.19-.14-.19.08c.12.13.13-.03.19-.08Zm3.97.84c-.16-.07-.24.02-.33.08.09-.06.24.08.33-.08Zm-3.77.44c.07.04.14.13.22.06-.1-.1-.17-.15-.22-.06Zm1.9.04s-.02-.04-.03-.07c-.05-.01-.1,0-.09.13.05-.03.08-.05.12-.07h0Zm-24.58,13.19s.07.04.07.03c.01-.02,0-.05.01-.08-.02,0-.04-.02-.05-.02s-.02.03-.03.07Zm22.72-14.11s.04.03.06.04c0,0,.01-.02.02-.03-.02-.02-.04-.04-.06-.05,0,0,0,.02-.01.05h-.01Zm-22.74,14.44h.04v-.02s-.02-.02-.03-.02c0,0-.01.02-.01.03h0Zm23.07-15.06s-.01-.02-.02-.02c0,0-.02.02-.02.03,0,0,.01.02.02.01,0,0,.02-.02.02-.02Z"/><path class="k" d="m29.09,49.93s-.02.01-.03.02h.01s0-.02.01-.02c.02-.02.04-.03.06-.05.03.06.05.13.09.17.03.03.1.06.13.02.17-.2.27-.1.37-.04.07.04.13.1.21.1.29,0,.55.1.82.18.12.04.24.05.35.1.08.03.13.14.21.16s.19-.05.29-.05c.15,0,.29.01.44.02.03,0,.07-.01.09,0,.1.11.23.12.36.14.08.01.14.07.21.11s.13.09.2.11c.16.05.34.08.5.13.11.03.22.07.33.09.14.03.26.11.38.22-.08.04-.16.09-.22.07-.28-.1-.63-.04-.87-.23-.02-.02-.06,0-.09-.01-.11-.03-.22-.06-.33-.08-.17-.03-.33-.05-.5-.06-.03,0-.07.04-.13.07.07.29.3.2.43.3s.3.14.52.1c-.12.19-.07.24,0,.26.15.04.3.08.45.12.03-.32.02-.3-.14-.32-.13-.02-.24-.09-.36-.14,0,0,0-.05.01-.11.11.02.21.04.31.07.27.07.51.19.8.19q.14,0,.09.27c-.09.09-.15.04-.21,0-.07-.06-.14-.13-.21-.19-.02-.02-.05,0-.1-.01.05.23.13.35.27.39.11.03.23.06.31.18-.02.04-.04.08-.06.13.12.2.24.4.47.43-.05.13-.02.18.04.21.02,0,0,.08.01.1-.1.03-.18.05-.26.08-.04.01-.08.03-.11.02-.21,0-.43-.02-.63-.03-.08.14.03.22-.07.34-.13-.05-.25-.1-.4-.16.13.12.33.08.32.38-.12.07-.24.14-.39.23.17.1.27.25.45.22.04,0,.09.07.08.12-.02.16.05.16.12.19.03,0,.08,0,.08.03,0,.17.13.13.17.18.03.24.06.45.09.66,0,.05.05.11.08.1.12-.02.14.14.21.2.05.04.03.14,0,.25-.03,0-.06.02-.08,0-.09-.06-.2-.03-.31-.02-.16.01-.32.02-.47,0-.22-.03-.43-.09-.65-.13-.23-.04-.46-.07-.7-.11-.21-.04-.43-.08-.64-.12-.01,0-.03.01-.05.02-.03.07-.06.14-.09.22.02,0,.04.01.05.02.02.01.03.04.04.07-.04.06-.07.1-.1.13-.03.03-.06.06-.09.1.02.03.02.06.04.07.09.04.11.13.04.31-.02.06,0,.14,0,.2.03.22.01.33-.13.54.09.09.22.05.34.04.08,0,.16,0,.14.16-.03.24.07.24.2.26,0-.08-.01-.12-.01-.16.16-.1.33-.14.44-.07.12.07.22.2.37.22.06,0,.05.09,0,.18-.16-.05-.3-.09-.47-.14.03.27.14.34.32.31.05,0,.09-.02.13,0,.16.04.33.03.53-.05.02,0,.04.02.06.04-.06.1-.11.18-.18.29.12,0,.21,0,.32.01-.04.13-.07.25-.1.38-.08.04-.15.07-.25.12.05.05.07.11.1.1.12-.04.18.03.23.17-.11.27-.16.59-.4.74,0,.15.02.28.03.46-.14,0-.24,0-.34-.02-.06-.01-.1.01-.14.11-.04-.12-.12-.14-.22-.14s-.2.01-.3,0c-.08,0-.15.02-.28.13.08,0,.12.02.17.02.18,0,.37.02.55.02.02,0,.05-.03.07-.05.06.05.13.08.22.06.11-.02.13.07.08.24-.02.06-.04.14-.07.18-.1.1-.11.21-.1.35-.1.05-.18.11-.25.14-.09.03-.14.1-.19.27.16-.12.18.02.22.12.19-.03.35.02.47.15-.11.16-.21.15-.28.12-.16-.07-.35.01-.49.1-.14-.04-.23-.09-.34-.1h-1.62c-.28-.02-.57-.03-.85-.06-.36-.03-.73-.08-1.09-.11-.09,0-.18-.01-.29-.02-.06.22-.25.39-.21.63.17-.02.48.4.34.46-.14.05-.26.07-.38.05-.22-.03-.44-.06-.65-.11-.13-.03-.24-.12-.36-.15-.32-.09-.58-.34-.96-.28-.01,0-.02-.01-.03-.02-.12-.06-.25-.11-.37-.17-.05-.03-.13-.04-.15-.1-.06-.2-.21-.22-.35-.24-.2-.03-.4-.04-.61-.03-.16.01-.34.08-.49.03-.03,0-.09.04-.11.08-.09.15-.17.16-.25.14-.17-.03-.33-.07-.48-.12-.12-.04-.23-.12-.35-.18-.02-.01-.04-.02-.07-.02-.23,0-.42-.11-.6-.23-.1-.07-.2-.14-.31-.18-.1-.04-.23-.02-.33-.05-.06-.02-.12-.06-.15-.14-.07-.18-.19-.25-.32-.29-.21-.07-.43-.14-.64-.21-.02,0-.03-.02-.04-.03-.14-.1-.28-.21-.43-.31-.09-.06-.18-.12-.28-.16-.27-.12-8.75-3.35-9.02-3.49-.27-.15-.55-.27-.87-.31-.15-.01-.29-.07-.42-.15-.11-.06-.19-.18-.28-.28-.12-.14-.26-.21-.47-.06-.04.03-.09.05-.12.05-.13-.02-.27-.03-.39-.08-.23-.09-.45-.18-.72-.16-.11,0-.21-.01-.3-.04-.2-.07-.39-.15-.58-.23-.17-.07-.32-.16-.53-.11-.05.01-.09-.02-.14-.04-.21-.09-.42-.19-.64-.28-.08-.03-.21.02-.27-.04-.12-.13-.29-.14-.44-.2-.31-.15-.62-.31-.95-.42-.16-.05-.28-.19-.45-.2-.05,0-.08-.05-.11-.06,0-.29.22-.25.26-.46-.13-.11-.27-.21-.4-.32-.04-.03-.07-.12-.12-.11-.19.02-.29-.16-.46-.18-.11-.01-.15-.13-.14-.3.02-.17-.02-.3-.04-.44-.01-.08-.01-.18,0-.27.03-.19,0-.35-.11-.36-.2-.01-.32-.16-.44-.33-.03-.04-.06-.09,0-.22.12-.04.24-.09.38-.15-.02-.04-.04-.08-.06-.12-.11-.23-.67-.96-.43-.83.1.06.21.07.36.02-.01-.05-.02-.08-.03-.09-.03-.06-.1-.09-.03-.23.06-.11.11-.11.17-.09.05.02.1-.05.15-.1.01-.01.03,0,.04,0,.03.04.06.08.09.12.08-.09.15-.16.17-.3-.06-.02-.1-.04-.15-.06,0-.1-.01-.19-.03-.27-.01-.12,0-.24.06-.38.11-.26.19-.52.08-.71.1-.04.18-.07.27-.11,0-.21-.02-.39-.02-.56.03-.05.05-.07.07-.1.14-.24.28-.44.46-.38.02,0,.06-.04.08-.04.05-.01.11-.02.15-.01.14.03.28.07.42.09.06.01.13,0,.2-.01.04-.14,0-.17-.05-.17-.06,0-.14.03-.17-.06l.02-.04s.03-.03.04-.03c.13.01.25-.03.38-.26.05-.1.18-.15.18-.08,0,.18.11.11.15.19.04.07.1.04.16-.02.18-.17.36-.34.54-.52v-.21c.26-.05.5.04.82-.28-.13-.02-.22-.04-.32-.06.22-.11.41-.02.65-.24.05-.1.18-.21.12-.39.09-.02.17-.03.26-.05-.02-.17-.11-.2-.18-.24-.13-.07-.27-.13-.39-.22-.08-.05-.13-.17-.21-.21-.23-.1-.48-.18-.72-.25-.1-.03-.13-.09-.08-.32.17-.09.34-.19.51-.28.02-.1.03-.17.05-.28.13.08.27.04.42-.05-.06-.05-.14-.07-.21-.11-.07-.05-.1-.14-.09-.33.1.04.17.06.24.1.15.08.3.17.45.25.04.02.07.05.1.07.19.12.36.26.6.27.15,0,.31.04.42.14.14.13.31.17.47.25.03.02.07.01.11.02,0-.02.02-.04.02-.06-.08-.06-.16-.13-.25-.17-.15-.07-.3-.12-.45-.17-.11-.04-.2-.11-.27-.23.06-.03.12-.07.15-.04.17.18.43.15.64.27.18.11.35.27.59.25.03,0,.05.05.08.07.12.09.26.15.42.16.04-.11.08-.19.13-.32.01.07.03.11.02.15-.05.17,0,.2.07.24.15.08.31-.05.48-.18.01-.17-.07-.17-.14-.19-.08-.02-.15-.06-.14-.2-.05.03-.11.09-.13.08-.11-.04-.22-.1-.31-.17-.2-.16-.37-.35-.64-.35-.04,0-.07-.07-.11-.09-.06-.04-.08-.15-.19-.08.03.05.05.08.08.12-.12-.03-.24-.03-.33-.13-.09-.11-.23-.14-.35-.21-.14-.08-.26-.22-.43-.24-.08,0-.14-.11-.21-.17.16-.22.3-.28.4-.19.03.03.06.09.1.08.2-.06.32.17.54.04.02-.01.04,0,.05.01.15.09.29.19.44.27.01,0,.04-.02.07-.04-.02-.06-.02-.13-.04-.15-.12-.14-.23-.28-.43-.29-.13,0-.23-.08-.35-.13-.03-.01-.04-.07-.06-.1.27.09.58.08.8.27.02.02.05.07.07.05.14-.08.22.08.35-.04.03.07.04.17.08.16.17-.03.27.12.4.18.17.08.4,0,.51.19,0,.01.05-.03.07-.05v-.12s-.12.06-.09-.1c.03-.01.08-.04.09-.03.1.09.17.23.34.16.21.11.42.22.64.32.05.02.1.04.16.03.18-.03.31.05.44.13.1.07.2.14.31.19.04.02.12.02.17-.02.14-.14.26-.16.39-.19.09-.02.15,0,.21.06.16.14.32.28.54.3.1,0,.2.06.26.14.07.09.13.14.24.13.12-.01.19.06.23.2.02.06.05.11.09.15.12.14.28.19.49.07.03.16.18.19.07.44.06,0,.1,0,.14.02.12.04.27.04.34.16.12.21.28.32.44.42.13.08.29.1.44.15.07.02.14.05.21.08.04.02,8.26,3.21,8.3,3.21.2,0,.36.07.42.34,0,.03.03.05.05.06.1.05.2.1.31.15.06.03.13.03.19.06.1.05.19.12.29.17.18.08.38.11.54.24.26.21.6.23.89.39h.04c.3-.04.53.09.79.16.25.06.48.18.74.23.19.04.37.12.56.17.06.02.14-.01.21-.02.04,0,.09-.03.13-.02.09,0,.18.03.27.05.03,0,.05.03.1.06-.17.07-.27,0-.38-.02-.05-.01-.1-.04-.16.07-.02.02-.04.03-.06.05l.1-.04Zm2.23,11.16c-.13.17-.18-.03-.29.08.05.09.14.09.23.08.07,0,.15,0,.21.03.13.04.25.1.38.14.04.01.1,0,.13-.03.14-.21.29-.23.46-.34-.13-.05-.23-.12-.35-.13-.07,0-.16.09-.27.16,0-.01-.05-.03-.05-.07-.01-.16-.1-.15-.19-.15-.18,0-.36,0-.54-.01-.06,0-.11.02-.18.1.11.16.37-.08.46.15h0Zm-20.77-17.31c-.03-.09-.04-.23-.08-.23-.12,0-.11-.28-.3-.17.12.43.15.46.39.4h-.01Zm.24.18c.07,0,.07.18.19.04-.05-.18-.19-.2-.43,0,.08-.01.16-.02.25-.03h-.01Zm-.31-1.66c0-.21,0-.22-.19-.09.06.05.06.21.19.09Zm-3.86.66c-.09-.07-.16-.16-.33-.1.08.17.24.03.33.1Zm3.19.56c.07.07.15-.02.22-.05-.05-.09-.12-.04-.22.05Zm-1.55-.03c.02-.14-.03-.15-.09-.14-.01.02-.02.04-.03.07.04.02.07.04.12.07Zm23.83,14.1s-.03,0-.05.01v.08s.03,0,.08-.02c-.01-.04-.02-.06-.03-.07Zm-22.06-15.07s-.04.03-.07.05c0,.01,0,.03.02.03s.04-.02.06-.03c0-.03,0-.05-.01-.05Zm22.09,15.43s-.02.01-.03.02v.02h.04s0-.03-.01-.03h0Zm-22.35-16s.01,0,.02-.01c0,0-.01-.02-.02-.03,0,0-.01,0-.02.02,0,0,.01.02.02.03h0Z"/><path class="i" d="m50.07,41.83c-.2-.23-.24-.5-.24-.71-.15-.19-.28-.32-.36-.48-.32-.59-.62-1.2-.92-1.8-.08-.15-.15-.31-.24-.46.09-.36.15-.72.18-1.1.14-1.75-.39-3.55-1.63-4.99l-13.41-15.7c-.37-.43-.78-.8-1.22-1.11-.01-.03-.03-.05-.04-.08-.02-.07-.09-.13-.15-.19-.26-.29-.53-.58-.79-.89-.1-.11-.13-.3-.24-.37-.24-.16-.37-.4-.55-.59-.4-.43-.81-.85-1.17-1.31-.17-.22-.42-.37-.56-.62-.04-.07-.11-.11-.15-.14-.33.02-.11.35-.32.43-.22-.18-.43-.35-.65-.53-.07-.05-.18-.08-.21-.15-.11-.27-.39-.39-.54-.63-.09-.15-.26-.2-.44-.16s-.35.01-.53,0c-.1,0-.21,0-.3.04-.19.07-.4.05-.48-.11-.16-.28-.42-.44-.7-.59-.07-.04-.15-.08-.26.02.04.17.07.36.12.56-.05-.02-.12-.04-.18-.07-.34-.13-.6-.37-.87-.59-.61-.51-.69-.24-.36.09.14.14.23.3.29.51-.07-.01-.1-.02-.13-.03-.09-.04-.17-.13-.28-.02-.08.09-.04.18.03.25.06.07.02.15,0,.23,0,.02.01.04.02.06.06.03.13.07.21.11-.05.12-.07.23-.2.28-.07-.08-.12-.14-.17-.2h-.33c-.14,0-.27.03-.39.13-.22.18-.44.34-.74.2.03.15.05.26.08.4-.24.01-.45.02-.65.04-.03.05-.04.09-.06.11-.17.23-.29.45-.09.7.02.03,0,.08.01.12.03.08.05.15.1.22.13.2.28.39.42.59.06.09.09.19.14.29-.13.07-.18.03-.22-.05-.05-.09-.07-.21-.2-.23-.02.02-.03.03-.03.04,0,.02-.02.05,0,.06.11.18.16.36-.01.57-.07.09-.03.27.05.26.2-.04.21.15.32.19s.12.13.1.23c-.06.28-.12.55-.18.84-.07,0-.14.01-.24.02.13.38.42.7.29,1.22-.12-.19-.21-.32-.3-.44.04.33.27.58.21.96-.08.09-.11.28-.35.22.05.14.09.24.13.37-.21,0-.3-.13-.41-.23-.18-.18-.35-.36-.53-.53-.12-.11-.29-.16-.39-.28-.29-.32-.56-.66-.82-1.01-.11-.14-.2-.17-.42-.07.02.26.04.51.06.77-.1.04-.17.06-.28.1.19.18.25.38.25.61-.1-.09-.18-.19-.27-.28-.1-.09-.24-.13-.44-.08.11.13.19.23.28.32.2.21.41.41.62.61.05.05.11.09.16.14.28.25.56.48.75.83.12.22.28.43.47.58.25.19.42.43.63.64.04.04.07.1.1.15-.02.01-.03.03-.05.04-.13-.11-.27-.21-.38-.33-.19-.2-.36-.41-.53-.62-.12-.15-.28-.27-.46-.36,0,.08,0,.19.06.22.34.22.49.6.77.88.25.24.56.46.71.81.02.05.1.07.14.11.19.16.36.35.49.57-.09.07-.15.13-.26.22.09,0,.15.03.18.01.1-.06.17-.05.24,0,.03.26.06.52.12.79-.1-.02-.14-.11-.19-.17-.09-.12-.18-.21-.32-.17,0-.08.02-.16,0-.2-.13-.15-.27-.3-.43-.42-.32-.26-.67-.49-.87-.88-.03-.06-.13-.09-.18-.15-.08-.07-.23-.1-.23-.26.08.04.13.07.19.1-.12-.17-.21-.33-.39-.45-.19-.12-.33-.32-.49-.47-.2-.19-.44-.34-.59-.59-.07-.12-.23-.18-.35-.27-.13.26-.09.46.08.59.05.04.14.08.16.13.08.3.43.43.44.78,0,.03.03.05.05.07.21.2.42.39.63.59.02.02,0,.06,0,.11-.08-.01-.15,0-.2-.04-.25-.15-.49-.3-.64-.57-.1-.18-.26-.32-.41-.48-.04-.04-.1-.05-.16-.07.3.38.52.82.9,1.12.04.03.11.06.11.09.01.21.25.3.22.51.1.03.22.04.24.09.09.25.33.37.5.55.21.23.28.56.59.71.02,0,0,.07,0,.11-.05,0-.1.02-.13,0-.06-.02-.02-.18-.17-.12.01.05,0,.11.04.14.17.13.39.22.43.47.28.29.56.58.84.88.06.06.12.14.15.22.09.26.28.44.48.61.15.13.3.27.44.41.06.06.12.17.1.24-.05.22,0,.39.08.59.05.14.12.21.22.29.27.22.55.42.74.74.08.14.21.27.35.35.15.08.26.17.32.33.07.17.21.26.39.31.08.02.17.06.24.11.25.16.42.38.44.69.2.02.34.23.55.05.05.08.08.15.12.2.14.16.25.38.43.46.32.14.56.36.8.58.19.18.33.41.49.61.08.1.16.2.25.3.05.05.12.09.15.14.14.26.32.47.63.54l4.21,4.92c.11.14.23.28.33.42.18.27.41.52.61.79.06.08.09.2.13.3.03.06.04.14.07.19.08.13.16.25.25.37.03.04.07.06.14.13-.04-.25-.19-.38-.3-.53-.05-.07-.11-.14-.05-.24.02,0,.04.02.07.02l.29.34c-.04.22.1.34.24.47.09.09.21.17.26.28.22.42.52.79.81,1.15.13.16.24.34.37.49.1.11.25.17.34.28.08.12.09.28.16.41.11.21.23.42.35.62.02.04.04.1.08.13.19.12.3.31.43.5.07.11.18.19.27.28s.2.17.28.27c.18.23.34.47.52.7.11.15.24.3.35.45.14.2.32.36.52.51,0-.12-.02-.24-.08-.32-.32-.39-.51-.9-.91-1.23-.04-.03-.05-.09-.08-.13-.11-.15-.23-.3-.34-.46-.15-.23-.3-.47-.44-.71-.03-.04-.01-.11-.02-.2.37.06.44.4.66.58.21.18.38.41.49.73.13-.19.22-.13.3-.03.16.2.31.41.47.63-.34.08-.32.07-.46-.16-.11-.18-.28-.34-.43-.5,0,0-.05.01-.12.03.11.16.2.29.3.43.27.37.59.7.8,1.13.1.2.11.19.38.1.03-.15-.07-.22-.16-.3-.12-.1-.24-.18-.36-.27-.03-.02-.04-.07-.08-.14.3.04.49.14.64.34.12.16.24.32.43.42.03-.04.06-.07.09-.11.31.15.62.29.83.61.11-.08.19-.05.27.03.02.02.09,0,.13,0-.04-.14-.07-.26-.11-.38-.02-.06-.03-.12-.06-.17-.17-.3-.34-.61-.5-.91.09-.14.28.02.33-.14-.15-.18-.3-.34-.48-.56.24.18.33.46.67.41,0-.16-.01-.31-.02-.5h.1c.2.17.39.3.48.53.02.05.14.11.2.1.16-.04.22.05.3.14.03.04.06.11.09.11.2-.01.24.17.33.23.3.02.55.02.81.05.07,0,.16.05.17.1.07.18.26.18.38.28.08.06.18.02.27-.04-.02-.04-.02-.09-.05-.11-.14-.12-.18-.29-.25-.44-.1-.23-.21-.46-.35-.67-.12-.18-.24-.36-.37-.54.63-.18,1.24-.45,1.81-.82.05.06.13.05.19-.03-.02-.02-.03-.04-.05-.06.05-.03.1-.07.15-.11.02.04.03.09.06.12.16.23.29.47.34.76,0,.03.05.05.09.09.06-.1.12-.18.19-.29.09.17.17.3.25.46.12-.07.23-.13.35-.19-.02-.12-.03-.22-.06-.38.09.06.17.09.18.13.04.18.17.26.36.31.22-.19.55-.31.54-.66.18,0,.33-.01.54-.02-.11-.2-.19-.35-.28-.48-.05-.08-.05-.14.02-.21.1.08.18.17.23.3.06.16.17.18.33.08.06-.03.13-.07.15-.12.04-.16.16-.18.32-.19,0-.14,0-.27-.03-.38-.03-.13.01-.21.16-.31-.02.24.16.25.29.29.11.28.28.5.51.65.1-.17.02-.31-.08-.42v.08Zm-31.34-23.96c.25.09.21.34.35.45-.14-.12-.3-.21-.35-.45Zm1.94,2.62l.05-.05c.05.05.1.1.17.16-.15.04-.19-.03-.22-.11Zm-.38,2.49s-.03-.02-.05-.03v-.03s.03.02.05.03v.03Zm.83.18s.04.01.05.02v.09h-.06v-.1h.01Zm-.18.51c.09.08.29.06.24.26-.23.04-.24.03-.24-.26Zm2.65-12.93c-.15-.07-.34,0-.37-.22.1.1.37-.09.37.22Zm24.28,30.89c-.07-.14-.14-.29-.22-.43-.07-.11-.09-.22-.06-.41.07.11.11.17.14.24.15.26.29.52.44.8.01.03,0,.07,0,.1-.16-.04-.24-.15-.31-.29h.01Zm.57-.41c-.05-.1-.02-.25-.02-.41-.02,0-.07-.06-.12-.06-.19,0-.24-.13-.31-.25-.1-.18-.19-.36-.29-.54.03-.06.06-.11.09-.16.06.14.12.27.28.32.09-.21-.17-.25-.13-.43.14.06.2.19.26.31.05.11.12.21.19.3.14.18.3.35.44.53.04.05.08.15.06.19-.14.22-.04.44-.05.69-.15-.18-.31-.31-.4-.48h0Z"/><path class="j" d="m81.14,41.87c.23-.15.41-.36.52-.64.13-.04.31-.05.29-.29.15.1.19.18.15.31-.03.11-.02.24-.03.38.16.01.28.04.32.2.01.05.09.09.14.12.15.09.27.08.33-.08.05-.13.13-.22.23-.29.07.07.07.13.01.21-.1.14-.17.29-.29.48.21.01.36.02.54.03-.01.35.32.47.53.67.19-.05.32-.12.36-.3,0-.04.09-.06.18-.13-.03.16-.04.26-.06.38.12.07.22.13.35.2.09-.15.17-.29.26-.45.07.11.13.2.19.3.04-.03.08-.05.09-.08.05-.28.18-.53.35-.76.03-.04.04-.08.06-.12.05.04.1.07.15.11-.02.02-.03.04-.05.06.06.07.13.09.19.03.57.37,1.17.65,1.8.84-.13.18-.26.35-.38.53-.14.21-.25.43-.36.66-.07.16-.11.32-.25.44-.03.02-.03.07-.05.11.1.06.2.1.27.04.12-.1.32-.09.39-.27.02-.05.11-.1.18-.1.25-.02.51-.03.81-.04.09-.05.14-.23.33-.22.03,0,.06-.07.09-.11.07-.09.13-.19.3-.14.06.02.17-.04.2-.09.09-.23.29-.35.49-.52h.1c-.01.18-.02.34-.03.5.33.06.43-.23.67-.4-.19.21-.33.38-.49.55.05.16.24,0,.33.15-.17.29-.34.59-.52.9-.03.05-.04.11-.06.17-.04.12-.07.23-.11.38.03,0,.1.02.12,0,.08-.09.16-.12.27-.03.21-.31.53-.46.84-.6.03.04.06.07.09.11.2-.09.31-.26.44-.41.15-.19.35-.29.64-.33-.04.07-.06.11-.09.14-.12.09-.25.17-.37.27-.09.07-.2.15-.16.29.27.1.28.1.38-.09.21-.41.54-.74.82-1.12.1-.13.2-.27.31-.43-.07-.02-.11-.04-.12-.03-.15.16-.32.31-.44.49-.14.23-.13.24-.47.15.16-.21.32-.42.48-.62.08-.1.17-.15.3.03.12-.31.29-.55.5-.72.22-.18.3-.51.67-.57,0,.08,0,.15-.02.2-.14.24-.29.47-.45.7-.11.16-.23.3-.34.45-.03.04-.04.09-.08.12-.41.33-.59.83-.92,1.21-.07.08-.07.2-.08.32.21-.14.38-.31.53-.5.11-.15.24-.3.35-.45.18-.23.34-.47.52-.7.08-.1.19-.18.28-.27s.2-.17.27-.28c.12-.18.24-.37.43-.5.04-.02.05-.08.08-.13.12-.21.25-.41.35-.62.07-.13.08-.3.16-.41s.24-.17.34-.28c.14-.15.25-.33.38-.49.3-.36.6-.72.82-1.14.06-.11.17-.19.27-.28.14-.13.29-.25.25-.47l.29-.33s.04-.01.07-.02c.07.1,0,.16-.05.24-.11.15-.26.28-.3.53.07-.07.12-.09.14-.13.09-.12.17-.24.25-.37.04-.06.05-.13.08-.19.04-.1.07-.21.13-.29.2-.26.43-.5.62-.79.1-.15.22-.28.33-.42l4.27-4.86c.31-.06.49-.27.64-.53.03-.06.11-.09.15-.14.09-.09.17-.19.25-.29.17-.2.3-.43.5-.6.24-.22.49-.43.81-.57.18-.08.29-.29.43-.45.05-.05.08-.12.13-.2.21.18.35-.03.55-.04.03-.31.21-.53.45-.68.07-.05.16-.08.24-.1.18-.04.32-.13.4-.3.07-.15.18-.24.33-.32.14-.08.27-.21.35-.35.19-.31.47-.51.75-.73.1-.08.17-.16.22-.29.07-.19.13-.37.08-.58-.02-.07.04-.18.1-.24.14-.15.29-.27.45-.41.2-.17.39-.35.48-.6.03-.08.1-.15.16-.22.28-.29.56-.57.85-.87.04-.25.26-.33.44-.46.03-.02.03-.09.04-.14-.15-.07-.11.09-.17.11-.04.01-.09,0-.13,0,0-.04-.01-.1,0-.11.31-.14.39-.48.6-.7.17-.18.41-.29.51-.55.02-.05.14-.06.24-.09-.03-.21.21-.3.23-.51,0-.03.07-.06.11-.09.39-.29.61-.72.91-1.11-.05.02-.12.03-.16.07-.15.15-.31.29-.41.47-.15.27-.4.41-.65.56-.05.03-.12.02-.2.03v-.1c.21-.2.43-.39.64-.58.02-.02.05-.05.05-.07.02-.34.37-.47.45-.78.02-.06.1-.09.16-.13.18-.13.22-.34.09-.59-.12.09-.28.15-.35.27-.15.25-.39.39-.59.58-.17.16-.31.35-.5.47-.19.11-.28.28-.4.44.06-.03.12-.06.19-.09,0,.17-.15.19-.23.26-.06.05-.15.08-.19.14-.2.38-.56.6-.88.87-.16.12-.3.27-.43.42-.03.04,0,.12-.01.2-.14-.04-.23.05-.32.17-.05.07-.1.15-.2.17.06-.26.1-.52.13-.79.07-.05.14-.06.24,0,.03.02.09,0,.18,0-.11-.09-.17-.15-.26-.22.14-.22.31-.4.5-.57.05-.04.12-.06.14-.11.15-.34.47-.55.72-.8.29-.27.44-.64.78-.87.05-.03.06-.13.07-.22-.18.09-.34.2-.46.35-.17.21-.35.42-.54.61-.12.12-.25.22-.38.32-.02-.01-.03-.03-.05-.04.03-.05.06-.11.1-.15.21-.21.39-.45.64-.63.2-.15.35-.36.48-.57.19-.33.48-.56.76-.82.05-.05.11-.09.16-.14.21-.2.42-.4.63-.61.09-.09.17-.19.29-.32-.2-.05-.34-.01-.44.08-.1.08-.17.19-.28.27,0-.23.07-.43.26-.6-.1-.04-.17-.07-.28-.11.02-.25.05-.51.07-.77-.22-.1-.3-.08-.42.06-.27.34-.54.67-.84,1-.1.12-.27.17-.39.28-.19.16-.36.35-.54.52-.11.1-.2.22-.41.22.05-.13.09-.23.14-.37-.24.05-.27-.14-.34-.22-.06-.37.18-.62.22-.96-.09.13-.18.26-.3.44-.12-.51.17-.83.31-1.21-.1-.01-.17-.02-.24-.02-.06-.28-.12-.56-.17-.84-.02-.09,0-.19.1-.23.12-.04.13-.22.33-.19.08.02.12-.17.05-.26-.17-.21-.12-.39,0-.57v-.06s-.01-.02-.03-.04c-.13.02-.15.14-.2.23-.04.08-.1.12-.22.05.05-.1.08-.2.14-.29.14-.2.29-.39.42-.58.04-.06.07-.14.1-.22.01-.04,0-.09.02-.12.2-.24.09-.47-.08-.7-.02-.03-.03-.06-.06-.11-.2-.01-.4-.03-.65-.04.03-.13.05-.25.09-.39-.3.14-.52-.02-.74-.21-.11-.1-.24-.14-.39-.13h-.33c-.05.06-.11.13-.18.2-.14-.05-.16-.17-.2-.29.08-.04.14-.08.21-.11.01-.03.03-.05.02-.06-.02-.08-.06-.16,0-.23s.11-.15.03-.25c-.1-.12-.19-.03-.28.01-.03.01-.06.01-.13.03.06-.21.16-.38.3-.51.34-.33.25-.61-.36-.11-.27.22-.54.46-.88.58-.06.02-.13.05-.18.07.04-.2.09-.39.12-.56-.11-.1-.19-.06-.26-.03-.28.15-.54.3-.71.58-.09.16-.3.18-.49.1-.09-.04-.2-.05-.3-.04-.17,0-.34.04-.53-.01-.18-.05-.35,0-.44.15-.15.24-.43.36-.55.63-.03.07-.14.1-.21.15-.22.17-.44.35-.66.52-.21-.09.02-.41-.31-.44-.04.03-.11.08-.15.14-.14.24-.39.4-.57.61-.37.45-.79.87-1.19,1.29-.19.19-.32.43-.56.59-.12.08-.15.26-.25.37-.26.3-.53.58-.8.88-.05.06-.13.11-.15.19,0,.03-.03.06-.04.08-.44.31-.86.67-1.23,1.1l-13.62,15.51c-1.25,1.43-1.81,3.22-1.7,4.97.02.37.09.73.17,1.1-.08.15-.16.3-.24.46-.31.59-.62,1.2-.95,1.79-.09.15-.22.28-.37.47,0,.21-.05.48-.25.71-.09.1-.18.24-.08.42l.06-.06Zm31.38-23.51c.14-.11.11-.36.36-.45-.05.24-.21.34-.36.45Zm-1.84,2.25c.07-.06.12-.11.17-.16.02.02.03.04.05.05-.03.08-.07.15-.22.1h0Zm.56,2.36s.03-.02.05-.03v.03s-.03.02-.05.03v-.03Zm-.82.29h-.06v-.09s.03-.01.05-.02v.1h.01Zm-.08.67c-.05-.2.15-.18.24-.26,0,.29,0,.3-.24.26Zm-27.23,17.63s-.01-.08,0-.1c.15-.26.3-.52.45-.79.04-.06.08-.12.15-.23.03.19,0,.3-.06.41-.08.14-.16.28-.23.42s-.15.25-.31.29h0Zm-.67-.23c0-.25.1-.47-.04-.69-.02-.04.02-.14.06-.19.14-.18.31-.34.45-.52.08-.09.14-.19.19-.3.06-.13.12-.25.27-.31.04.18-.23.21-.14.43.17-.05.23-.18.29-.32.03.06.06.11.09.17-.1.18-.2.36-.3.54-.07.12-.13.25-.31.25-.05,0-.1.05-.12.06,0,.16.03.31-.03.41-.1.17-.25.3-.41.48h0Z"/></g></svg>