<?xml version="1.0" encoding="utf-8"?>
<!-- Generator: Adobe Illustrator 27.5.0, SVG Export Plug-In . SVG Version: 6.00 Build 0)  -->
<svg version="1.1" id="b" xmlns="http://www.w3.org/2000/svg" xmlns:xlink="http://www.w3.org/1999/xlink" x="0px" y="0px"
	 viewBox="0 0 70.3 199.2" style="enable-background:new 0 0 70.3 199.2;" xml:space="preserve">
<g id="c">
	<path d="M57.5,93.1c0.1-0.3,0.2-0.7,0.1-1c-0.3-2.1-0.6-4.3-1-6.4c-0.5-2.5-1-4.9-1.6-7.4c-0.8-2.9-1.9-5.8-2.7-8.8
		c-0.8-3.2-2.4-6.4-3.7-9.6c-0.2-0.5-0.5-1-0.8-1.5c-0.5-1.1-1-2.3-1.5-3.4c-0.1-0.2-0.1-0.4-0.2-0.6c-2.1-3.7-3.3-7.5-5.6-11.1
		c-2.2-3.5-4.3-7-6.4-10.6c0-0.1-0.1-0.2-0.1-0.2c-2.2-2.5-3.8-5.2-5.5-7.9c-0.3-0.5-1-1-1.5-1.5c-0.2-0.2-0.7-0.4-0.9-0.3
		c-0.8,0.2-1-0.2-1.3-0.7c-0.4-0.6-0.7-1.3-1.1-1.9c-0.3-0.4-0.8-0.8-1.2-1.2c-0.3-0.3-0.6-0.7-0.9-1c-0.7-0.9-0.9-1.9-2.2-2.5
		c-0.4-0.2-0.5-0.9-0.8-1.3c-0.3-0.5-0.5-1.1-1.3-1.2c-0.1,0-0.2-0.1-0.3-0.2c-0.5-0.8-1.1-1.6-2-2.3C13,8.8,11.4,7,9.7,5.4
		C8.9,4.7,8.2,4,7.4,3.4C7.2,3.2,6.9,1.7,8.1,1.6C8.4,1.6,8.8,1.3,9,1c1-1.2,4.1-1.4,5.8-0.1c1.4,0.9,6,2.6,7.2,3.7
		c1.6,1.4,3.1,2.8,4.7,4.2c0,0,0,0,0.1,0.1c0.9,1,1.7,1.9,2.6,2.9c0.2,0.3,0.7,0.4,1,0.7c1,1.2,2,2.3,3,3.5c0.4,0.5,0.8,1,1.3,1.4
		c0.1,0.1,0.3,0.2,0.4,0.4c1.2,1.5,2.4,3,3.6,4.5c0.5,0.6,0.9,1.2,1.4,1.8c0.6,0.7,1.1,1.4,1.7,2.1c0.6,0.8,1.2,1.6,1.8,2.4
		c1.2,1.8,2.4,3.5,3.6,5.3c0.9,1.3,1.9,2.6,2.8,3.9c1.2,1.9,2.4,3.7,3.4,5.6c1.5,2.7,2.9,5.5,4.3,8.2c0.5,0.9,0.9,1.8,1.3,2.7
		c0.6,1.3,1.2,2.5,1.8,3.8c0.9,2.1,1.7,4.3,2.5,6.4c0.5,1.2,0.8,2.3,1.3,3.5c1.1,2.7,2.1,5.4,2.7,8.2c2.9,14.1,2.9,22.9,2.7,26.7
		c-0.5,8.2-0.1-2.4-1.3,4.7c-0.4,2.5-0.9,5.1-1.5,7.6c-0.6,2.4-1.5,4.7-2,7.1c-0.8,3.2-2,6.2-3.2,9.2c-1.1,2.7-2.3,5.2-3.6,7.8
		c-0.9,1.9-1.9,3.7-3,5.6c-0.7,1.2-1.5,2.3-2.3,3.5c-0.2,0.3-0.4,0.7-0.5,1c-0.1,0.2-0.1,0.4-0.3,0.6c-1,1.4-2.1,2.8-3.1,4.2
		c-1.1,1.5-2.1,3-3.2,4.5c-8.7,11.2-19.8,19-19.9,19.6c0.1,0.1,0.1,0.1,0.2,0.2c0.5-0.1,0.9-0.3,1.4-0.5c3.7-0.4,10.3-1.5,13.9-3.2
		c2.1-1,4.4-1.8,6.8-1.7c0.3,0,0.8-0.1,1-0.3c0.8-0.7,1.7-0.8,2.7-0.8c1.3,0,2.7-0.3,4,0.1c2.2,0.7,3.9,1.9,5.1,3.8
		c0.1,0.2,0.1,0.5,0,0.7c-0.4,0.6-0.7,1.2-1.2,1.6c-2,1.8-4,3.7-6.2,5.2c-2.6,1.8-5.3,3.4-8.4,4.4c-1.4,0.5-2.6,1.3-4,1.7
		c-2.9,0.9-25.4,8.9-26.6,9.4c-1.4,0.4-2.9,0.2-4-0.3c-1.7-0.8-3.1-2-4.6-3.1c-1-0.7-2-1.4-2.9-2.3c-0.8-0.9-1.4-2-2-3
		c-0.2-0.2-0.2-0.6-0.4-0.8c-0.8-1.5-0.9-2.7-0.8-4.3c0.9-4.5,1.9-8.9,2.9-13.4c0.2-0.9,0.2-1.9,0.3-2.9c0-0.4,0.1-0.7,0.2-1
		c0.1-0.5,0.3-0.9,0.3-1.4c0.1-3.9,0.2-7.8,0.1-11.6c-0.1-4.4-0.3-8.9-0.8-13.3c-0.4-3.5-1.2-6.9-1.9-10.4c-0.3-1.5-0.6-3.1-0.9-4.6
		c0-0.2,0-0.6,0.2-0.7c0.4-0.2,1-0.3,1.4-0.4c0.6-0.2,0.9,0.1,1.2,0.6c0.4,0.6,1,1,1.6,1.4c0.9,0.6,2,1.1,2.8,1.8
		c1.8,1.7,4,3.1,4.5,5.9c0.3,1.8,1,3.5,1.5,5.2c0.4,1.4,0.7,2.8,1,4.2c0.6,3.2,1.3,6.4,1.7,9.6c0.5,4,0.7,8.1,1,12.1
		c0,0.4,0,0.9,0.1,1.2c0.1,0.4,0.4,0.8,0.8,1c0.3,0.1,0.9-0.1,1.1-0.4c1.3-1.5,16.3-11.8,26.5-31c2.2-4.1,4-8.4,5.5-12.8
		c1-3.1,1.8-6.2,2.7-9.3c1.5-5.2,2.1-10.7,2.8-16.1C57.1,96.1,57.3,93.3,57.5,93.1L57.5,93.1z"/>
</g>
</svg>
