<?xml version="1.0" encoding="UTF-8"?><svg id="b" xmlns="http://www.w3.org/2000/svg" viewBox="0 0 64 128"><defs><style>.e{fill:#c4c5c6;}</style></defs><g id="c"><g id="d"><path class="e" d="m48.72,51.21c-.88-1.95-5.2-11.79-5.47-12.13-.58-.76-2.33-2.66-2.88-3.43-.1-.13-1.44-2-4-4.43-2.45-2.34-3.48-3.57-5.81-5.93-.04-.05-.09-.1-.15-.15-2.4-1.69-4.21-3.49-6-5.29-.35-.36-1.08-.67-1.69-.98-.24-.12-.73-.25-.94-.22-.86.14-1.14-.15-1.46-.5-.38-.42-.75-.84-1.23-1.24-.36-.29-.9-.56-1.33-.84-.34-.22-.66-.46-.97-.69-.76-.58-.98-1.28-2.42-1.7-.43-.13-.59-.58-.92-.86-.35-.32-.5-.74-1.46-.8-.09,0-.24-.1-.3-.16-.54-.56-1.23-1.05-2.15-1.54-2-1.04-3.8-2.19-5.68-3.29-.79-.46-1.59-2.06-2.44-2.5-.24-.13-.13-3.49,1.17-3.55.41-.01.79-.2,1.03-.37,1.12-.79,3.97-.84,5.91-.02,2.2.93,6.63,1.8,7.91,2.46,1.77.91,3.42,1.87,5.13,2.8.02.01.05.03.08.04.93.65,1.84,1.3,2.82,1.95.27.18.81.27,1.08.46,1.14.78,2.23,1.57,3.35,2.36.45.32.92.64,1.38.95.13.09.33.16.45.25,1.33,1.01,1.43,2.02,2.74,3.03.52.39,1.03.78,1.54,1.17.61.47,1.23.93,1.82,1.41.67.54,1.34,1.08,1.95,1.63,1.33,1.18,2.61,2.38,3.95,3.56.99.88,2.1,1.73,3.03,2.61,1.32,1.24,2.61,2.5,3.76,3.77,1.66,1.83.77,1.39,2.34,3.22.52.61.99,2.36,1.46,2.97.66.85,1.36,1.69,1.94,2.54.98,1.43,2.81,7.7,3.9,11.15,1.72,5.46,2.15,9.26,1.9,11.99-.54,5.89,1.8-.74.48,4.36-.47,1.83-.97,3.67-1.62,5.47-.64,1.74-1.62,5.41-2.24,7.15-.82,2.32-5.63,11.01-6.46,11.85-.23.23-.41.48-.59.73-.11.14-2.57,2.56-3.69,3.58-1.18,1.07-4.68,4.46-5.91,5.51-5.67,4.79-14.26,12.55-14.17,12.6.52-.13,10.8-1.82,14.54-3.81,2.14-1.14,4.45-2.08,7.11-2.3.36-.03.83-.14,1.04-.35.73-.73,1.73-.92,2.81-1.05,1.46-.18,2.85-.56,4.39-.37,2.48.3,4.49,1.19,6.09,2.68.14.14.2.44.11.61-.3.53-.59,1.1-1.05,1.54-1.92,1.76-3.75,4.64-5.92,6.19-2.56,1.83-5.25,3.59-8.4,4.83-1.43.56-2.68,1.4-4.1,1.95-2.97,1.14-7.02,3.15-10.03,4.25-5.1,1.86-15.95,1.8-19.11,1.57-1.62-.11-3.14.22-4.42-.25-1.82-.66-2.38-.75-4.02-1.7-1.09-.63-2.24-1.22-3.14-1.98-.89-.76-1.5-1.71-2.22-2.58-.18-.21-.23-.5-.44-.67-1.37-1.09-1.21-2.41-.86-3.73,1.03-3.87,2.15-7.73,3.18-11.6.22-.82.22-1.67.34-2.5.04-.3.13-.6.21-.89.11-.41.33-.82.34-1.22.09-3.37.27-6.74.15-10.1-.13-3.85-.37-7.7-.91-11.53-.43-3.04-1.36-5.03-2.08-8.03-.32-1.33-.68-2.65-.99-3.97-.04-.19.03-.54.18-.59.49-.18,1.05-.27,1.59-.39.67-.16.94.12,1.32.54.43.49,1.12.84,1.76,1.19,1,.55,2.18.94,3.06,1.58,2,1.46,4.34,2.7,4.89,5.12.35,1.54,1.14,2.01,1.67,3.53.42,1.22.78,2.45,1.06,3.69.66,2.78,1.43,5.56,1.84,8.36.53,3.48.76,7,1.11,10.5.03.36-.03.76.13,1.09.16.33.48.73.86.85.31.1.93-.1,1.17-.33,1.4-1.3,9.47-6.79,20.67-20.61,2.4-2.96,1.11-1.04,2.68-4.24,1.09-2.21,1.99-4.46,2.97-6.69,1.65-3.76,1.27-5.72,2.06-9.66.42-2.11-.05-8.2-.78-9.85Z"/></g></g></svg>