<?xml version="1.0" encoding="UTF-8"?><svg id="b" xmlns="http://www.w3.org/2000/svg" xmlns:xlink="http://www.w3.org/1999/xlink" viewBox="0 0 144 80"><defs><style>.r{fill:url(#j);}.s{fill:url(#g);}.t{fill:url(#m);}.u{fill:url(#h);}.v{fill:url(#i);}.w{fill:url(#q);}.x{fill:url(#o);}.y{fill:url(#p);}.z{fill:url(#k);}.aa{fill:url(#n);}.ab{fill:url(#l);}.ac{fill:url(#f);}.ad{fill:url(#d);}.ae{fill:url(#e);}.af{fill:#c3243f;}.ag{fill:#c5c5c7;}.ah{fill:#2a4d95;}</style><linearGradient id="d" x1="48.93" y1="-2.68" x2="48.93" y2="53.29" gradientUnits="userSpaceOnUse"><stop offset="0" stop-color="#e3a955"/><stop offset="1" stop-color="#c3243f"/></linearGradient><linearGradient id="e" x1="67.05" y1="-2.69" x2="67.05" y2="53.29" xlink:href="#d"/><linearGradient id="f" x1="69.71" y1="-2.68" x2="69.71" y2="53.29" xlink:href="#d"/><linearGradient id="g" x1="86.08" y1="-2.68" x2="86.08" y2="53.29" xlink:href="#d"/><linearGradient id="h" x1="51.96" y1="-2.68" x2="51.96" y2="53.29" xlink:href="#d"/><linearGradient id="i" x1="67.05" y1="-2.69" x2="67.05" y2="53.29" xlink:href="#d"/><linearGradient id="j" x1="58.87" y1="-2.68" x2="58.87" y2="53.29" xlink:href="#d"/><linearGradient id="k" x1="59.38" y1="-2.68" x2="59.38" y2="53.29" xlink:href="#d"/><linearGradient id="l" x1="54.53" y1="-2.69" x2="54.53" y2="53.29" xlink:href="#d"/><linearGradient id="m" x1="89.19" x2="89.19" xlink:href="#d"/><linearGradient id="n" x1="79.68" y1="-2.68" x2="79.68" y2="53.29" xlink:href="#d"/><linearGradient id="o" x1="79.9" y1="-2.68" x2="79.9" y2="53.29" xlink:href="#d"/><linearGradient id="p" x1="69.38" y1="-2.68" x2="69.38" y2="53.29" xlink:href="#d"/><linearGradient id="q" x1="63.87" y1="-2.68" x2="63.87" y2="53.29" xlink:href="#d"/></defs><g id="c"><path class="ag" d="m142.84,51.46c-1.02,1.04-2.2,1.85-3.46,2.57-1.21.7-1.31-.54-1.19-.91.25-.75.58-1.47.88-2.2.32-.76.67-1.51.96-2.28.35-.92.04-1.67-.6-2.33-.59-.62-1.28-.87-2.11-.55-.48.18-.95.37-1.41.6-1.75.89-3.3,2.07-4.8,3.34-.56.47-1.12.94-1.68,1.41.04-.4.18-.7.34-.99.43-.82.93-1.62,1.28-2.47.38-.95.74-1.93.9-2.94.25-1.64-.75-2.42-2.21-2.52-.67-.05-.84.1-1,.75-.16.66-.3,1.34-.53,1.98-.7,1.9-1.23,2.95-1.94,4.84-1.28,2.48-3.55,3.37-5.01,3.24,1.67-2.39,2.39-5.45,1.99-6.43-.4-.98-1.25-1.29-2.16-.76-.43.25-.83.62-1.12,1.03-.84,1.2-1.05,2.53-.56,3.91.17.47.11.86-.09,1.27-.63,1.28-1.47,3.12-2.79,3.61-.62.23-1.25.06-1.5-.54-.38-.92.29-9.12,7.28-10.39.6-.11.71-.28.7-.93-.05-.68-.65-1.72-1.58-1.72-.11,0-.24,0-.4.03.16-.02.33-.04.51-.03.29.01.59.15.83.37.24.22.44.52.57.85.06.17.11.35.12.54,0,.19,0,.38-.07.57-.04.09-.11.18-.2.23-.09.05-.18.08-.28.11-.19.04-.37.08-.56.13-.09.02-.19.04-.28.06l-.28.08-.28.08-.27.1c-.73.27-1.42.66-2.02,1.12-.6.46-1.12,1-1.53,1.55-.42.55-.73,1.1-.97,1.61-.24.51-.41.96-.51,1.32-.06.18-.09.34-.12.46-.03.13-.05.23-.05.3.1-.39.23-.79.38-1.18.15-.4.33-.78.53-1.17.41-.77.92-1.51,1.57-2.16.64-.65,1.42-1.2,2.29-1.59l.16-.08.17-.06c.11-.04.22-.09.34-.13.23-.08.46-.14.69-.21.24-.05.48-.11.72-.16.13-.03.26-.07.39-.16.13-.09.21-.25.23-.39.03-.14.03-.27.03-.4,0-.13-.03-.27-.06-.4-.07-.26-.18-.5-.34-.73-.15-.22-.35-.42-.58-.56-.23-.14-.5-.21-.77-.2-.13,0-.27.02-.4.03-.13.02-.26.04-.39.06-.26.05-.51.11-.76.18-.5.14-.99.32-1.47.54-.95.44-1.85,1.02-2.64,1.71-.4.35-.77.72-1.11,1.13-.18.2-.33.41-.5.62-.15.22-.31.43-.45.65-.29.44-.54.91-.78,1.37-.22.48-.43.96-.6,1.45-.19.49-.3,1-.48,1.48-.09.24-.19.47-.32.69-.06.11-.14.21-.2.32-.07.11-.14.21-.21.31-.58.83-1.27,1.57-2.02,2.21-.37.32-.77.61-1.18.86-.41.25-.85.46-1.3.56-.46.08-.95-.04-1.31-.33-.36-.29-.59-.74-.58-1.19,0-.09,0-.19,0-.28.03-.8.26-1.91,1.23-3.47.7-1.38,2.75-4.4,3.16-5.16.36-.66.25-.92-.38-1.21-1.16-.54-2.86-.36-3.71.63-.31.36-.61.76-.81,1.19-.7,1.49-.95,2.04-1.59,3.56-1.26,2.94-4.87,5.2-7.08,5.55-2.04.32-3.16-.61-2.94-2.7.29-2.66,1.95-4.74,4.2-6.35.4-.28.89-.52,1.37-.63.48-.12.7.09.66.52-.05,0-.1-.01-.16-.02l.13.2c-.05.23-.12.46-.19.7-.03,0-.05,0-.08,0l.06.09c-.05.16-.1.32-.15.51.19.03.37.07.54.11l.04.06s0-.03,0-.05c.19.04.37.07.55.05.05,0,.1-.01.15-.02l.17.27c.02-.1.05-.2.08-.32,1.3-.32,2.07-1.51,2.01-3.1-.06-1.43-.77-2.64-2.29-2.68-1.41-.04-3.19.41-4.35,1.18-1.64,1.14-3.75,3.12-4.95,6.78-1.3,2.23-2.98,4.2-3.86,4.91-.26.21-.61.32-.93.4-.6.15-.95-.09-.95-.69,0-.47.04-.98.21-1.41,0,0,0-.02,0-.02.38-.84.73-1.56,1.02-2.17,0-.07-.06.02-.15.12-.02.02-.04.05-.06.07.31-.72.63-1.44.89-2,.17-.36.33-.69.11-1.06-.47-.76-.75-1.13-1.63-1.29-.73-.13-1.11.4-1.51.87-.49.58-1.07,1.34-1.7,2.16,0-.01,0-.02.01-.03-.97,1.27-1.85,2.42-2.74,3.41-.45.5-.9.96-1.37,1.35-.24.2-.48.37-.73.53-.25.16-.51.31-.73.46-.13.11-.29.15-.43.19-.14.03-.28.05-.41.06-.26.02-.48,0-.66-.04-.37-.08-.57-.23-.68-.32-.02-.02-.04-.04-.06-.05-.33-.39-.44-1.06,0-2.2.23-.61.62-1.4,1.15-2.27,0,.03-.02.08-.04.14-.07.23-.22.61-.23.77-.01.16.08.08.53-.56-.1.17-.19.35-.29.53-.09.18-.18.36-.27.54-.09.18-.17.37-.25.56-.04.09-.07.19-.11.29l-.06.14s-.03.09-.04.13l-.04.13-.03.12c-.02.08-.04.15-.05.23-.02.16-.04.31-.03.47.01.16.05.31.13.45.08.14.21.24.35.31.28.13.61.14.91.1.08-.01.15-.03.22-.05.07-.02.14-.05.2-.1l.18-.13.26-.18c.7-.46,1.27-1.01,1.82-1.61.55-.6,1.05-1.23,1.52-1.83.47-.61.91-1.2,1.33-1.75.41-.55.79-1.07,1.15-1.53.18-.23.34-.45.51-.66.08-.1.16-.2.23-.29.05-.06.1-.12.15-.18.05-.06.1-.12.15-.18,0,0-.05.05-.13.15-.04.05-.09.11-.15.18-.04.05-.09.11-.14.18-.23.27-.53.66-.89,1.13-.72.94-1.65,2.2-2.61,3.4-.48.6-.98,1.18-1.47,1.68-.25.25-.48.47-.73.68-.24.21-.47.37-.71.53-.12.08-.23.15-.33.23-.07.05-.14.1-.2.14-.06.04-.14.06-.2.08-.06.02-.12.03-.18.03-.11.01-.2.02-.26.02-.06,0-.09,0-.09,0,.07-.01.03-.03-.07-.06-.1-.03-.26-.07-.41-.2-.08-.06-.14-.14-.19-.24-.05-.1-.07-.21-.07-.33,0-.23.06-.45.13-.63.01-.04.04-.11.07-.16.02-.06.04-.11.07-.17.06-.12.11-.22.15-.31.09-.17.15-.25.14-.21,0,.04-.07.2-.18.52-.01.04-.03.09-.04.13-.01.04-.02.08-.04.12-.03.1-.04.14-.05.21-.03.13-.05.29-.01.48-.02-.14,0-.29.03-.43,0-.04.02-.07.03-.1l.02-.05.03-.08c.02-.06.03-.1.06-.17l.08-.2c.23-.54.52-1.09.85-1.63.65-1.08,1.44-2.1,2.32-3.04.89-.94,1.88-1.79,2.97-2.5.28-.17.55-.33.83-.5.29-.14.58-.29.87-.43.3-.12.6-.25.9-.37l.97-.33.72-.25-.04-.75c-.02-.3-.04-.6-.13-.96l-.04-.14-.02-.07-.03-.07-.06-.15s-.05-.11-.08-.16c-.05-.1-.13-.22-.22-.32-.1-.11-.2-.22-.34-.31-.26-.18-.57-.27-.81-.29-.24-.02-.43,0-.59.01-.28.03-.54.08-.81.13-.54.1-1.07.25-1.6.44-.26.1-.52.21-.77.33-.13.06-.25.13-.38.19-.12.07-.25.14-.36.21-1.8,1.07-3.42,2.41-4.79,3.93-.69.76-1.32,1.56-1.87,2.41-.28.42-.54.86-.78,1.3-.24.44-.45.86-.66,1.27-.42.81-.86,1.58-1.37,2.22-.25.32-.52.62-.81.85-.07.06-.14.1-.2.16-.04.03-.06.04-.08.06l-.07.05c-.1.06-.2.12-.3.17.1-.04.2-.09.31-.15l.08-.04.04-.02h.02s.03-.03.03-.03c.07-.05.14-.1.21-.14.29-.22.55-.49.77-.73.11-.12.2-.23.29-.33.08-.1.15-.18.21-.25.11-.13.16-.18.13-.1-.2.31-.4.57-.59.81-.2.23-.39.44-.58.6-.05.04-.09.08-.14.12-.04.03-.09.07-.13.1l-.06.05-.03.02-.03.02s-.07.04-.1.06c-.13.08-.25.15-.37.2-.23.1-.44.15-.61.1-.17-.04-.27-.16-.32-.26-.05-.11-.08-.2-.08-.28,0-.08-.02-.15,0-.22,0-.07,0-.13.01-.19,0-.07.02-.14.02-.22,0-.09,0-.2-.01-.3,0-.09,0-.22,0-.33,0-.12,0-.23,0-.34,0-.11.01-.21.02-.32,0-.2.03-.39.04-.57.01-.18.03-.34.04-.5.06-.61.11-1.05.16-1.44.02-.19.05-.37.07-.56.02-.18.05-.37.09-.57.02-.1.04-.21.06-.32.03-.11.06-.23.09-.35.03-.13.06-.26.11-.4.05-.14.09-.29.15-.45.06-.13.12-.25.18-.38.06-.12.14-.24.2-.34l.04-.07s.04-.05.06-.07c.03-.04.08-.1.12-.15.09-.11.17-.22.25-.34.32-.45.59-.9.83-1.33.47-.87.8-1.69,1.07-2.45.28-.78.45-1.51.56-2.22.01-.09.02-.19.04-.29,0-.1.02-.21.03-.32,0-.21.01-.42,0-.63-.02-.2-.06-.4-.13-.59-.02-.05-.03-.09-.05-.14l-.07-.13c-.04-.09-.1-.17-.15-.25-.05-.08-.12-.15-.19-.22-.07-.07-.14-.13-.22-.19-.16-.11-.33-.21-.52-.26-.37-.12-.77-.11-1.16,0-.05.01-.1.03-.14.04l-.14.05c-.1.03-.18.09-.28.13-.09.05-.18.11-.26.17-.08.06-.15.13-.23.19-.29.26-.64.53-.87.79-.13.13-.26.26-.39.4-.13.14-.25.29-.38.44-.13.15-.25.31-.38.47-.12.17-.26.33-.38.51-.5.71-.97,1.54-1.38,2.52,0,0,.02-.03.06-.06.04-.04.09-.09.14-.14.1-.1.2-.2.2-.2-.26.54-.44,1.05-.6,1.53-.03.11-.07.22-.1.32-.02.08-.04.15-.06.23-.04.15-.08.29-.11.43-.03.14-.06.28-.09.41-.01.07-.03.13-.04.2,0,.01,0,.04-.02.04h-.05s-.03.02-.05.01l-.04-.03c-.05-.03-.11-.06-.15-.1-.05-.04-.1-.07-.15-.1-.1-.06-.21-.12-.32-.16-.08-.03-.16-.06-.25-.08l-.06-.02s-.03,0-.07-.02c-.07-.02-.14-.03-.22-.04-.29-.05-.58-.06-.87-.04-.29.02-.57.07-.86.14-.28.07-.56.16-.85.27-.58.22-1.17.54-1.78.96-.61.42-1.26.93-1.94,1.59-.07.05-.02-.02.12-.17.07-.08.16-.18.28-.29.11-.12.25-.24.4-.38.3-.27.66-.58,1.08-.88.41-.3.87-.58,1.33-.81-.67.32-1.19.67-1.63.99-.44.32-.8.62-1.12.9-.63.56-1.09,1.03-1.52,1.53-.42.5-.81,1.02-1.24,1.75-.1.18-.21.38-.31.59-.05.11-.11.21-.16.33-.05.11-.1.23-.16.35-.09.21-.2.42-.32.62-.03.05-.06.09-.09.14-.04.05-.08.11-.13.16-.08.11-.18.22-.28.34,0,0,.04-.05.1-.13.07-.08.15-.21.25-.35.03-.04.04-.06.06-.1.02-.03.04-.07.06-.11.04-.08.08-.17.13-.26.04-.1.08-.2.12-.31.02-.06.04-.12.07-.18l.08-.2c.2-.52.45-1.04.65-1.41.2-.38.35-.62.35-.62-.32.47-.63,1-.9,1.55-.07.14-.14.28-.2.42l-.18.4c-.1.23-.21.44-.32.6-.04.07-.14.18-.21.27-.08.1-.16.19-.24.28-.08.09-.17.18-.25.27-.09.08-.17.17-.26.25-.09.08-.18.16-.27.24-.09.07-.19.16-.26.21-.04.03-.07.06-.11.09-.03.02-.05.04-.08.06-.04.03-.08.06-.13.09-.33.24-.59.4-.69.45-.11.05-.06-.03.13-.23-.15.12-.29.28-.49.39-.05.02-.1.05-.16.05-.06,0-.11-.03-.13-.07-.05-.09-.04-.19-.02-.3.02-.1.06-.2.09-.31.03-.11.06-.22.09-.34.03-.12.06-.24.09-.36.02-.06.03-.13.05-.19v-.05s.03-.06.03-.06c.02-.05.03-.1.05-.16.02-.06.04-.12.06-.18l.08-.2c.06-.14.12-.28.17-.41.12-.29.25-.57.38-.87.13-.3.26-.61.38-.93l.09-.24.08-.2c.06-.15.12-.31.18-.46.06-.17.13-.35.19-.58.05-.23.1-.5.07-.82-.02-.16-.06-.33-.12-.48-.03-.08-.06-.15-.11-.23-.05-.08-.1-.17-.16-.24-.02-.02-.02-.03-.03-.04l-.02-.02-.04-.05-.02-.02-.05-.06h-.01s-.06-.07-.06-.07c-.07-.07-.16-.15-.24-.22-.17-.14-.36-.28-.59-.4-.23-.12-.47-.2-.72-.25-.25-.05-.51-.06-.76-.03-.25.03-.51.1-.73.18-.1.04-.19.08-.28.13-.08.04-.16.09-.23.13-.14.09-.27.18-.4.27-.24.18-.47.36-.68.52-.17.13-.47.35-.69.55-.22.2-.44.4-.64.6-.82.8-1.56,1.6-2.33,2.33-.19.18-.38.36-.57.53-.2.17-.37.31-.58.48-.42.32-.85.64-1.27.95-.16.12-.31.23-.46.35.05-.13.09-.25.14-.39.16-.44.32-.91.5-1.41.18-.5.37-1.02.58-1.54.03-.06.05-.12.08-.19.03-.06.05-.11.08-.17.07-.14.13-.28.2-.42.13-.29.27-.59.39-.91.12-.32.23-.67.31-1.03.04-.18.07-.37.1-.55.01-.09.02-.19.03-.28l.02-.23c.03-.29.07-.59.12-.93.02-.17.05-.36.06-.58,0-.11,0-.24-.01-.38-.02-.15-.05-.31-.13-.51-.08-.19-.23-.39-.4-.52-.17-.14-.35-.22-.5-.27-.31-.1-.53-.1-.77-.1h-.14c-.07,0-.13.01-.2.02-.14.02-.29.05-.46.12-.16.07-.34.17-.48.31-.15.14-.25.3-.33.45-.04.08-.06.14-.09.23-.01.04-.03.09-.04.12v.06s-.02.04-.02.04v.03s-.01.05-.01.05c0,.03-.01.07-.02.1,0,.06-.01.13-.02.19,0,.24,0,.44.02.6.01.16.03.31.02.36,0,.08-.01.16-.04.23-.53,1.47-1.03,2.87-1.47,4.08-.22.6-.42,1.16-.61,1.66-.09.25-.18.48-.26.7-.04.11-.08.21-.11.31-.01.03-.03.07-.04.1-.02.04-.03.07-.05.11,0,0-.02.03-.06.07-.04.04-.08.1-.13.16-.05.06-.1.12-.14.16-.04.04-.07.07-.07.07,0,0-.02.03-.06.08-.04.05-.09.13-.16.22-.15.19-.36.46-.65.77-.28.31-.63.66-1.03,1-.2.17-.41.34-.62.5l-.15.11-.11.08c-.07.05-.15.1-.23.14-.16.09-.33.17-.51.22-.18.05-.37.07-.54.02-.17-.05-.32-.17-.37-.33-.06-.15-.06-.31-.06-.45,0-.29.05-.54.08-.71.02-.09.03-.15.04-.21.02-.06.02-.1.02-.1.28-1,.57-1.64.77-2.06.2-.42.33-.61.4-.69.15-.17.08.1.12-.07.22-.51.46-1.02.69-1.53.06-.13.11-.26.17-.38l.08-.17c.03-.05.05-.11.08-.16.11-.22.24-.45.37-.68.13-.24.27-.47.4-.7l.1-.18.12-.23c.09-.17.16-.34.23-.51.13-.34.19-.71.14-1.06-.02-.18-.07-.35-.15-.51-.07-.17-.19-.28-.3-.42-.23-.2-.47-.39-.71-.56-.13-.09-.22-.15-.34-.22-.12-.07-.23-.14-.43-.2l-.53-.18-.32.47c-.42.61-.82,1.21-1.22,1.79-.2.29-.4.59-.59.85-.19.27-.39.52-.6.78-.84,1.01-1.74,1.92-2.63,2.78-.23.21-.45.42-.67.63-.13.12-.27.24-.4.36-.25.23-.49.45-.73.65-.24.2-.51.35-.75.5-.12.07-.28.1-.41.02-.03-.02-.06-.04-.08-.07-.01-.04-.02-.07-.02-.11,0-.08-.01-.15,0-.23,0-.02,0-.04,0-.05-.05-.04-.07-.17-.02-.37.05-.2.14-.48.27-.83.07-.18.14-.38.21-.59.04-.11.08-.22.12-.33.03-.07.05-.14.08-.22.04-.09.07-.18.11-.28.29-.74.61-1.55.95-2.4.17-.41.37-.84.55-1.32.04-.12.09-.25.13-.37l.05-.15s.04-.1.06-.15c.08-.21.19-.44.29-.72.05-.14.09-.29.11-.47.02-.17.03-.37-.03-.56,0-.05-.03-.1-.04-.14-.02-.05-.03-.1-.06-.14-.04-.09-.08-.16-.13-.22-.09-.13-.2-.26-.31-.38-.12-.11-.25-.22-.38-.3-.14-.09-.29-.15-.45-.21-.16-.05-.38-.1-.63-.06-.12.03-.25.08-.34.14-.1.06-.18.14-.24.21-.13.14-.21.28-.29.4-.08.14-.14.28-.2.41l-.15.36-.15.36c-.2.48-.4.96-.6,1.44-.2.48-.39.96-.58,1.44-.18.48-.35.97-.5,1.45-.34,1.05-.66,2.1-.94,3.17-.14.53-.28,1.07-.39,1.62-.03.14-.06.27-.08.42-.02.14-.05.28-.07.43-.02.14-.04.29-.05.45-.02.15,0,.34.01.51.03.14.04.24.08.36l.05.18.06.18c.09.23.2.46.36.68.16.21.35.41.58.55.22.15.47.26.72.32.5.13,1,.11,1.47.03.23-.04.46-.1.69-.18.23-.08.44-.17.68-.32.18-.12.35-.23.53-.36l.26-.19.24-.18.36-.28.35-.27c.23-.18.47-.35.69-.55l.33-.3.08-.07.04-.04.02-.02s0,.02,0,.02l-.02.22c-.03.34-.09.68-.07,1.03l.02.26.05.25c.02.08.05.16.07.25,0,.02.02.05.03.08l.04.09.08.18c.25.51.65.97,1.15,1.27.5.3,1.09.43,1.65.41.56-.01,1.09-.16,1.58-.36.24-.1.47-.21.69-.33l.17-.09.15-.09.22-.13c.15-.09.3-.17.44-.27.14-.1.27-.2.41-.31l.2-.16.05-.04s0,.04,0,.06c0,.04-.02.08-.03.13-.03.16-.1.34-.03.51.03.08.05.16.09.24.02.04.04.08.06.11.01.02.02.04.04.05.01.02.02.03.06.06.22.23.51.37.78.52.19.09.37.18.57.22.2.04.41.04.61,0,.4-.09.75-.34,1.06-.61l1.48-1.26,1.48-1.26c.49-.42.98-.83,1.48-1.24l3.01-2.46.75-.62.19-.16s.1-.08.16-.12c.12-.09.25-.17.39-.25.06-.04.13-.08.19-.12-.09.13-.18.27-.27.46-.27.59-.52,1.19-.71,1.82-.2.63-.35,1.26-.46,1.9-.06.31-.11.65-.14.99-.03.34-.04.67,0,1.04.04.39.14.79.33,1.13.19.34.48.63.84.77.36.15.76.17,1.14.1.19-.03.38-.09.57-.15.18-.07.34-.13.49-.21.3-.14.59-.32.87-.49.27-.19.54-.38.79-.59.33-.27.63-.55.93-.83.1-.07.2-.15.3-.22l.16-.12.08-.06.06-.05c.08-.06.16-.12.24-.19l.11-.09.1-.08c.07-.06.15-.12.22-.19,0,.06.01.12.02.18-.09.08-.19.17-.28.25-.08.07-.16.13-.23.19-.04.03-.08.06-.12.09-.05.04-.1.08-.15.12-.21.16-.41.32-.6.45-.38.28-.72.52-.97.73.2-.15.4-.3.6-.44.2-.15.4-.29.61-.44.1-.08.2-.16.31-.23l.15-.12.07-.05.06-.04c.07-.06.15-.12.22-.18l.06-.05.05-.04.09-.08c.05-.04.1-.09.15-.14.02.21.05.42.08.64.04.22.08.44.17.69.12.29.25.57.43.83l.07.1.07.09c.05.06.1.12.15.18.11.11.22.23.35.33.5.41,1.16.62,1.79.61.63,0,1.24-.21,1.76-.45.52-.25,1.01-.56,1.48-.89.46-.33.89-.7,1.31-1.08.21-.19.41-.39.61-.59l.29-.3.28-.3c.31-.33.59-.66.88-1l.43-.51c.08-.08.16-.16.24-.23l.06-.06s.05-.06.05-.01l.04.16c.1.39.18.79.29,1.18.06.2.12.39.2.58l.06.14.03.07.05.09c.07.12.12.24.2.35.29.46.69.86,1.17,1.15.47.28,1.02.43,1.56.46.54.03,1.08-.07,1.57-.24.5-.17.96-.41,1.39-.7.11-.08.19-.13.27-.19.08-.06.17-.13.25-.19.16-.13.32-.27.48-.41l.47-.42.24-.21s.01-.01.01,0v.02s0,.04,0,.04v.08s.02.16.02.16c.02.26.04.52.11.78.08.25.17.5.32.72l.06.1s.04.07.07.1l.15.2c.05.07.11.12.16.19.06.06.11.12.17.18.13.1.25.22.39.31.07.05.14.09.21.14l.22.11c.59.31,1.28.39,1.92.28.08,0,.16-.04.24-.06l.24-.07c.15-.05.29-.11.44-.17.29-.12.57-.26.84-.41.54-.3,1.06-.65,1.54-1.02.24-.19.48-.38.71-.58l.34-.3.31-.27c.4-.36.79-.75,1.15-1.17.18-.21.35-.43.52-.65l.25-.33.12-.17.03-.04v-.02s.01.03.01.03v.1c-.11.72-.06,1.46,0,2.19.02.18.05.36.08.55l.06.27c.02.09.05.18.08.27.13.38.33.77.64,1.06.3.29.7.47,1.1.54.4.07.8.08,1.2.02.8-.11,1.53-.48,2.14-.97.28-.21.54-.46.79-.73.24-.26.46-.54.68-.84.37-.53.72-1.13,1.01-1.79.05.31.11.64.19.97,0,0,0,0,0,0,.4,1.68,1.26,3.26,3.06,3.65,3.26.69,6.3-1.82,7.85-3.29.18-.17.47-.54.71-.85-.01.06-.02.12-.03.18l-.04.05c-.18.23-.36.46-.57.67-.8.79-.89.92-.56.66.08-.07.19-.16.32-.27.06-.06.14-.12.21-.18.04-.03.08-.07.12-.1.04-.04.09-.08.13-.12.12-.12.24-.26.36-.4,0,.1-.01.21-.01.32,0,.48.11.97.3,1.41,0,0,0,.01.02.03.01.02.03.05.06.09.02.04.05.09.09.14.03.06.07.11.12.17.18.26.48.55.8.79.33.24.69.42.98.51.14.05.27.06.35.09.08.01.13.02.13.02-.47-.1-.91-.32-1.28-.63-.37-.3-.68-.68-.92-1.1-.23-.42-.38-.89-.42-1.38-.02-.25-.01-.51.02-.76.03-.04.07-.08.1-.12-.36,1.89,1.02,3.53,2.38,3.88,3.83.99,6.03-2.34,7.36-4.44.01-.01.02-.02.03-.03h.02s0,.02,0,.03c0,.07,0,.13,0,.18,0,.1-.01.17-.02.18,0,0,0,0-.01-.03,0-.01,0-.03,0-.05,0-.05-.02.02-.04.05l.03-.05h0s0-.02,0-.02h0s0,.03,0,.03v.1s.01.19.01.19c0,.13.03.26.04.39.08.53.25,1.09.58,1.58.04.06.09.12.13.18.05.06.09.13.15.18l.16.17.18.15c.25.19.53.34.82.44.01,0,.03,0,.04.01.23.08.46.12.7.12,2.82.09,4.71-2.03,5.37-2.62.35-.31.67-.5,1.16-.52.71-.03,1.06.19,2.4-.2.69-.2,1.17-.52,1.17-.52-.61,1.37-.15,1.69.75,2.42.05.04.12.06.18.1.57.39,1.13.36,1.67-.09.69-.57,1.39-1.11,2.07-1.7,1.67-1.43,3.97-3.04,5.88-4.22-.2.45-.33.76-.47,1.06-.48,1.04-.76,1.98-.87,3.12-.16,1.8,1.45,2.47,3.19,2.09.75-.16,1.51-.45,2.17-.85,1.87-1.13,3.33-2.74,4.69-4.44.07-.09.09-.24.12-.34-.47-.46-.81-.24-1.16.12Zm-79.34-1.7c-.06-.02-.11-.05-.13-.1v.24s0,.02,0,.03c-1.33,1.81-2.7,3.39-3.98,4.62.06-.2.4-.43.29-.61-.11.29-.38.58-.62.82-.16.17-.32.33-.46.52-.87.76-1.67,1.32-2.37,1.64-.19.09-.4.07-.57-.02,0-.04.03-.1.04-.15.01-.05.03-.09.03-.13-.03.04-.07.1-.12.17-.01.02-.02.03-.03.05-.12-.09-.21-.21-.24-.36l.02-.02c-.04-.12-.04-.21.12-.45-.02-.02-.05-.02-.08,0,0,0,0,0-.01,0,.01-.07.03-.14.04-.21,0,0,0,0,0,0,.02-.02.04-.04.06-.05.17-.14.37-.3.56-.52.1,0,.16.03.21.05.05.03.13.05.22,0,0,0-.08-.03-.1-.08-.03-.05-.04-.1-.04-.1.1-.09.2-.24.29-.35.09-.12.18-.2.26-.23.09-.15.11-.25.12-.33,0-.08-.02-.14-.04-.2-.02-.05-.04-.1-.05-.16-.07.06-.12.13-.23.18-.05-.12.16-.19.29-.26-.08-.06-.36.04-.53,0,.17-.18.22-.26.28-.33.06-.07.13-.15.32-.23h-.24c.13-.08.11-.13.09-.19-.02-.06-.05-.13.06-.2.05.01.07.1.1.16,0-.08.06-.1.11-.11.05,0,.12-.04.13-.15,0,0,.04.07.07.13.03.07.07.13.07.13.07-.14.12-.41.27-.23-.02-.1-.02-.19,0-.29.02-.1.07-.2.11-.29.05-.1.09-.2.14-.3.05-.1.09-.19.11-.29l.15.13c-.09-.3.42-.56.31-.87l.08.03.06-.47c.13-.12.31.12.26.06.11-.16.22-.3.33-.41.11-.11.23-.19.35-.24-.07-.12-.04-.26.04-.41.08-.14.21-.28.32-.41.17-.11.34-.22.5-.34.17-.12.34-.23.5-.35.09-.06.16-.11.24-.17.08-.06.16-.1.23-.15.16-.08.32-.17.47-.21.15-.05.32-.08.48-.07.17,0,.34.04.5.1.16.07.34.15.49.27.16.11.31.23.46.37.04.05.11.09.17.16.07.19.04.41-.08.58-.14.2-.28.4-.43.59Zm-.04.06s-.02.03-.03.05v-.03s.02,0,.03-.01Zm3.91-7.49c.37-.27.7-.57,1.05-.9.36-.34.71-.68,1.05-1,0,0,.01-.01.02-.02-.06.3-.13.6-.21.89-.03.11-.06.22-.1.32l-.12.34c-.08.23-.16.46-.25.68-.09.24-.19.47-.3.7l-.17-.08v.24c.15.02.09-.07.16-.14-.26.57-.55,1.12-.87,1.61-.31.24-.66.47-1.06.69-.04-.03-.08-.06-.11-.07,0,.02.03.06.06.1-.08.04-.15.08-.23.12,0,0,0,0,0-.01-.02.01-.04.03-.07.04-.05-.14.1-.11.19-.13-.08-.12-.3-.13-.46-.21.22-.2.11-.26.4-.4l-.22-.03c.21-.1-.12-.18.04-.3.05,0,.09.07.14.12-.05-.14.21-.07.15-.21l.22.15c0-.1-.03-.24.16-.14-.1-.11-.11-.23-.1-.35,0-.12.05-.23.01-.36l.18.08c-.09-.09-.06-.18-.02-.26.04-.08.07-.17-.04-.28l.08.02s-.04-.08-.07-.15c-.03-.08-.06-.16-.06-.16.07-.07.3.11.24.06.03-.1.06-.19.12-.26.05-.07.11-.11.19-.14-.19-.19-.09-.4,0-.57Zm-1.51,3.42l.19.14s0,.03,0,.05c-.04.02-.07.04-.11.05-.03-.07-.05-.16-.08-.24Zm-15.07,1.72l-.03.07-.78.06s-.02-.03-.04-.04l.85-.09Zm51.22,6.98l-.07.09c.02-.07.04-.13.06-.19.03-.04.06-.06.08-.08h0s0,0,0,0c.02-.01.03-.02.03,0,0,0,0,.01,0,.02,0,0,0,0,0-.01,0,0,0,0,0,.01-.01.03-.02.07-.03.1-.02.02-.03.04-.05.06Zm10.28,2.13c-.05-.07-.07-.13-.09-.17-.02-.04-.03-.06-.03-.06-.07-.17-.13-.32-.17-.48.12.38.28.71.47.99,0-.01-.02-.02-.02-.03-.06-.09-.11-.18-.16-.25Z"/><path class="ag" d="m66.45,44.88s-.08.06-.13.04c.05.05.09.07.13-.04Z"/><path class="ag" d="m66.32,44.92s-.02-.02-.03-.03c0,0,0,.02,0,.03,0,0,.01,0,.02,0Z"/><path class="ag" d="m66.68,45.36h.04s.07-.07.14-.16c.03-.04.07-.09.09-.12.02-.04.04-.06.04-.06,0,0-.07.1-.15.17l-.16.17Z"/><path class="ag" d="m66.67,44.91l-.03.02c.09.06.04.11.1.17l-.06-.19Z"/><path class="ag" d="m67.61,43.64c0,.1.16.11.25.19-.27-.22.06-.09-.25-.19Z"/><path class="ag" d="m67.61,43.29s-.01.09.01.14c.17.03.02-.07-.01-.14Z"/><path class="ag" d="m63.52,49.11l.15.27.18-.27c.02-.15-.17-.07-.33,0Z"/><path class="ag" d="m57.2,52.98c-.05.02-.1.05-.15.03.03.06.08.07.15-.03Z"/><path class="ag" d="m57.06,53.01s-.01-.02-.02-.04c0,.01,0,.02,0,.03,0,0,.01,0,.02,0Z"/><path class="ag" d="m59.36,53.72c-.04.09-.09.18-.09.18.22,0,.18-.15.35-.27l-.18-.09s-.04.09-.08.18Z"/><path class="ag" d="m56.45,56.47c-.07.05-.13.07-.13.07v.05s.02,0,.04-.02c.02-.02.05-.04.09-.07.07-.06.16-.13.25-.21.18-.15.33-.3.33-.3,0,0-.16.15-.34.28-.09.07-.18.14-.25.19Z"/><path class="ag" d="m57.38,53.06c.08.07.02.1.07.14,0,0-.04-.15-.04-.15h-.04Z"/><path class="ag" d="m59.57,51.15c-.19-.32.15-.16-.18-.26-.07.18.13.15.18.26Z"/><path class="ag" d="m59.58,50.54c.2,0,.08-.12.09-.22-.08.07-.08.15-.09.22Z"/><polygon class="ag" points="102.07 54.27 102.07 54.27 102.07 54.27 102.07 54.27 102.07 54.27 102.07 54.27"/><path class="ag" d="m102.06,54.27s.01,0,.01,0c0,0,0,0-.01,0Z"/><polygon class="ag" points="102.07 54.27 102.07 54.27 102.07 54.26 102.07 54.27"/><path class="ag" d="m102.06,54.27s0,0,0,0c0,0,0,0,0,0Z"/><path class="ag" d="m61.28,44.82c-.19,0-.66,0-1.36.21-.7.19-1.68.61-2.75,1.42.32-.23.68-.46,1.03-.66.36-.2.71-.36,1.02-.48.62-.23,1.05-.29.92-.24.44-.13.84-.19,1.06-.21.22-.02.28-.03.08-.04Z"/><path class="ag" d="m60.14,45.06c-.34.1-.7.23-1.11.43.34-.15.63-.27,1.04-.39.11-.03.04-.02.07-.04Z"/><path class="ag" d="m115.75,52.84s.01-.07.02-.11c0-.04,0-.07.02-.12.02-.1.04-.21.06-.32.05-.22.1-.45.17-.68.13-.47.29-.96.49-1.44.2-.48.44-.94.69-1.35.12-.21.26-.39.38-.58.07-.09.13-.17.19-.25.06-.08.12-.16.19-.23.25-.29.47-.52.63-.67.17-.15.26-.23.26-.23-.66.5-1.16,1.05-1.57,1.63-.41.58-.73,1.19-1,1.86-.27.67-.5,1.41-.66,2.27-.03.18-.06.35-.08.52-.02.17-.04.36-.05.54-.01.19-.01.39,0,.59,0,.2.11.42.29.55,0,0-.05-.06-.1-.16-.05-.1-.09-.25-.08-.4,0-.15.03-.3.05-.4.02-.1.03-.17.03-.17,0,0,0-.08,0-.23,0-.15.02-.35.06-.62Z"/><path class="ag" d="m90.48,49.04c.04-.1.07-.16.07-.16,0,0,.02-.06.07-.18.05-.11.12-.28.22-.49.05-.11.1-.22.17-.34.06-.12.13-.26.2-.4.08-.14.16-.29.25-.45.09-.16.19-.31.3-.48.43-.67,1-1.4,1.7-2.1.35-.35.74-.69,1.15-1.01.1-.08.21-.16.31-.24.11-.08.21-.16.33-.23.23-.15.47-.27.71-.39.49-.23.99-.4,1.5-.53.51-.13,1.02-.21,1.52-.25.25-.02.49-.03.75-.01.06,0,.13,0,.19.01.06.01.13.02.19.03l.09.02.09.03c.06.02.12.04.18.05.48.17.88.5,1.13.86.26.36.4.74.49,1.07.08.33.11.62.13.87,0-.01,0-.03,0-.04-.01-.26-.05-.58-.15-.94-.1-.35-.27-.76-.58-1.12-.15-.19-.34-.35-.56-.49-.22-.14-.47-.23-.73-.3-.13-.02-.26-.05-.4-.06-.07,0-.14-.01-.2-.01-.06,0-.13,0-.19,0-.26,0-.53.02-.79.05-1.06.13-2.17.44-3.18,1.01-.12.07-.25.15-.37.23-.11.08-.23.16-.34.25-.22.17-.44.35-.65.53-.42.36-.81.75-1.16,1.15-.71.79-1.26,1.62-1.67,2.36-.41.74-.68,1.4-.86,1.86-.09.23-.15.42-.19.54-.04.11-.06.17-.06.17,0,0,.1-.26.2-.51.05-.13.11-.26.15-.36Z"/><path class="ag" d="m102.2,45.46s0,.05,0,.05c0,0,.01-.08.02-.22,0-.06,0-.12.01-.2,0,.08,0,.15-.01.21,0,.07,0,.12-.01.15Z"/><path class="ag" d="m102.23,45.06s0,0,0,0c0,.01,0,.03,0,.04,0-.01,0-.02,0-.03Z"/><path class="ag" d="m102.23,45.03c0-.08,0-.17,0-.27,0,.11,0,.2,0,.29,0,0,0-.01,0-.02Z"/><path class="ag" d="m102.22,44.73s0,0,0-.01c0,.01,0,.03,0,.04,0-.01,0-.02,0-.03Z"/><path class="ag" d="m57.08,46.24c.25-.18.51-.34.51-.34.62-.46,1.44-.93,2.4-1.19.47-.13,1.01-.23,1.56-.22.28,0,.56.04.84.1l.1.02s.02,0,.02,0c0,0,0,0,0,0l.06.02s.08.03.11.04c.11.04.2.1.28.16.04.02.08.07.13.04.01-.05.02-.11.03-.16l-.02.08v.04s-.01.02-.01.02h0s0,.01,0,.01c-.01,0-.02,0-.04,0-.01,0-.02-.01-.03-.02l-.06-.04c-.08-.06-.17-.11-.27-.15-.04-.02-.09-.03-.14-.05h-.03s0-.01,0-.01c0,0,0,0-.04,0-.08-.02-.16-.04-.25-.05-.33-.06-.66-.08-.99-.06-.32.02-.63.06-.93.13-.29.07-.57.15-.85.25-1.11.4-2.05,1.05-2.87,1.74,0,0,.06-.05.15-.12.09-.07.21-.16.34-.24Z"/><path class="ag" d="m62.51,44.61s0,0,0,0h0Z"/><path class="ag" d="m32.65,53.52s-.02.09-.03.14c.01-.06.02-.1.03-.14Z"/><path class="ag" d="m33.79,50.48c.13-.28.17-.36.06-.16-.11.2-.37.68-.84,1.53-.22.51-.36.9-.47,1.2-.1.29-.16.5-.19.63-.06.27-.03.25.03.15.11-.19.34-.65.28-.31.29-1.26.89-2.49,1.14-3.04Z"/><path class="ag" d="m28.4,48.15c-.44.53-.75.93-1.41,1.63.94-.91,1.61-1.65,2.13-2.3.26-.33.49-.63.68-.92.05-.07.1-.14.14-.21.05-.08.1-.16.15-.24.1-.16.2-.31.3-.47-.26.35-.5.68-.68.91-.19.24-.36.46-.53.65-.32.39-.57.68-.79.94Z"/><path class="ag" d="m31.77,32.87s-.06-.02-.11-.03c-.05-.01-.14-.03-.2-.04-.14-.02-.35-.05-.63-.07.33.07.72.13.66.18.22,0,.38,0,.28-.04Z"/><path class="ag" d="m31.49,32.91c-.07,0-.15,0-.24.01.08,0,.14,0,.22,0,.02,0,.01-.01.02-.02Z"/><path class="ag" d="m19.44,46.82c0-.1-.02-.21-.03-.31,0,0,0-.01,0-.02-.07-.49-.31-.83-.76-.99-.37-.13-.79-.23-1.18-.2-1.12.07-2.23.22-3.35.34-.91.1-1.82.23-2.74.31-.81.07-1.08-.28-.85-1.02.03-.1.05-.2.1-.29,1.13-2.04,2.26-4.09,3.4-6.13.13-.14.24-.27.34-.39-.01-.03-.07-.02-.12-.02,0-.02.02-.03.03-.05.31-.55.8-.85,1.4-.94.14-.02.28-.04.42-.06,0,0,0,0,0,.01.69-.11,1.26-.22,1.78-.21.34-.08.48-.13.52-.16.35-.06.7-.11,1.06-.16-.04.13-.39.34.03.42-.7.19-1.5.37-2.23.53-.36.08-.71.15-1,.22-.15.03-.29.06-.41.09-.07.02-.1.03-.14.04-.04.01-.07.03-.1.04,0,0,.03-.01.08-.02.02,0,.06-.01.09-.02.04,0,.11-.02.17-.03.26-.05.6-.11.94-.18.68-.13,1.36-.26,1.36-.26-.14.15,1.88-.07.46.28,1.37-.15,2.85-.39,4.32-.59,1.46-.21,2.92-.36,4.23-.47-.37-.03-.85-.03-.78-.12,1.35-.15,1.21.03,1.49.11,1-.13.88-.35,1.5-.55.8.04,1.34.04,1.8.04.46-.01.85-.04,1.35-.03h.35s.16-.42.16-.42c.03-.08.06-.16.09-.25.03-.09.06-.18.09-.29.05-.21.1-.47.06-.82,0,0-.05.06-.09.11-.05.05-.1.1-.1.1,0-.22-.06-.44-.16-.63-.1-.18-.24-.33-.37-.43-.28-.2-.53-.25-.76-.28-.12-.02-.23-.02-.34-.02-.11,0-.21,0-.32,0-.23,0-.49-.04-.83-.1-.07-.05.45-.07.88-.09-1.21-.03-1.1-.29-2.28-.28l.95-.19c-.94-.06-2.34-.05-1.84-.24-.42.05-.91.07-1.45.09-.26,0-.57.02-.86.03-.3.01-.6.03-.9.05-.6.04-1.21.1-1.78.16-.57.06-1.13.13-1.64.21l.12-.21c-.52.16-1.48.24-2.43.33-.47.04-.95.08-1.35.14-.41.05-.75.13-.96.21l-.15-.07s-.03,0-.08.02c-.05.01-.13.02-.21.04-.18.03-.4.06-.62.07-.22,0-.43-.01-.59-.04-.08-.02-.14-.03-.19-.04-.04-.01-.07-.02-.07-.02-.09-.04-.15-.09-.2-.13-.05-.04-.08-.08-.1-.11-.04-.06-.06-.13-.06-.17,0-.08.09-.08.03-.08l-.08-.06-.02-.02h0s0-.01,0-.01h0s0,0,0,0c-.02-.02.03.02.02.02l-.06-.05c-.07-.06-.16-.12-.25-.18-.18-.11-.41-.2-.66-.23-.25-.03-.5,0-.7.08-.2.07-.36.16-.49.25-.27.19-.46.37-.65.58-.09.1-.17.2-.25.31l-.04.05s-.02.02-.03.04c-.02.02-.04.05-.06.07-.08.09-.18.15-.29.19-.05.02-.11.04-.16.04-.03,0-.05,0-.08,0-.03,0-.07,0-.1,0-.38.03-.74.05-1.08.07-.15.15-.78.33-1.57.52-.79.19-1.76.38-2.62.56l-.37.07-.43.08c-.31.06-.61.12-.89.24-.28.11-.53.29-.69.56-.16.27-.19.58-.17.89,0,.15.03.31.07.46l.02.12.03.11c.02.08.04.15.07.23.11.3.26.59.45.84.05.06.1.13.15.19l.17.17c.12.1.24.21.37.29.26.17.55.29.84.36.29.07.59.1.89.09.07,0,.14-.01.21-.02h.1s.05-.02.07-.02c.09-.02.17-.04.26-.06l1.06-.24.54-.12.14-.03.07-.02h.03s0,.01,0,.02c-.03.09-.05.17-.08.26-.11.34-.23.68-.37,1.02l-.2.52-.11.26-.12.28c-.2.46-.39.92-.6,1.37-.21.45-.41.9-.63,1.33-.11.21-.22.44-.34.63-.11.19-.24.36-.4.5-.31.29-.71.46-1.15.52-.48.05-.95.11-1.43.16-.48.05-.95.11-1.42.16l-.35.04c-.12.01-.24.03-.36.05-.23.04-.46.09-.69.13l-.11.02v.1c0,.54.03,1.09.29,1.57.13.28.38.52.69.68.07.03.14.06.21.09.17.08.36.15.58.2.68.17,1.38.29,2.17.45-.14.2-.32.49-.5.76l-.04.74.69-1.47s.06.01.09.02c-.55,1.14-1.09,2.24-1.61,3.33-.08.03-.14.05-.14-.07l-.27.9s-.02.07-.03.1c-.04.09-.08.17-.12.26-.78,1.68-1.5,3.39-1.99,5.19-.3,1.11.14,1.96.79,2.71.52.61,1.07.48,1.44-.25.14-.28.23-.57.35-.86,1.5-3.59,3.17-7.09,4.99-10.52.33-.63.76-1.03,1.45-1.17,1.84-.38,3.67-.77,5.5-1.16-.02,0-.04.01-.06.02-.06.02-.12.03-.18.05-.13.03-.28.07-.43.11-.32.07-.66.16-.99.23-.65.16-1.22.31-1.27.41.7-.21,1.51-.42,2.38-.62.86-.2,1.78-.41,2.68-.61.22-.05.45-.1.67-.15.22-.05.44-.1.64-.15.41-.11.81-.21,1.19-.31.05-.01.1-.02.14-.04h.04s.01-.01.02-.01v-.02s0-.08,0-.08Zm-17.02,6.5s.02-.04.03-.06c-.02.04-.04.08-.06.13.02-.04.02-.07.02-.07Z"/><path class="ag" d="m10.85,49.23l.24.03c.12.01.24.03.24.03l2.03-.62c-.51.06-.82.13-1.18.22-.35.09-.74.21-1.33.33Z"/><polygon class="ag" points="13.11 40.6 12.96 40.81 11.31 44.12 13.11 40.6"/><path class="ag" d="m31.33,32.53c.06,0,.13,0,.19,0h.02s.03,0,.03,0h.07s.13.02.13.02c.09.01.19.03.28.05.1.02.2.05.3.08.21.07.41.16.61.29,0,0-.01,0-.03-.02-.02-.01-.05-.04-.09-.06-.08-.04-.2-.12-.33-.17-.27-.11-.6-.18-.89-.19-.08,0-.12,0-.18,0-.05,0-.11,0-.16,0-.1,0-.2,0-.28,0-.16,0-.27,0-.27,0l.25.05c.11-.02.23-.02.35-.02Z"/><path class="ag" d="m14.86,31.94s.04.05.07.08c.01.01.02.03.04.04h0c-.09-.07-.03,0-.05-.03h0s0,0,0,0h0s0,0,0,0h0c.02.05.05.1.08.15.02.02.05.04.07.05,0,0,.02,0,.02,0,.01,0,.03,0,.04,0,.02,0,.06.01.08,0,.04,0,.05-.03.05-.06,0-.06-.01-.14.07-.17-.02.01-.05.02-.07.03-.01,0-.03.02-.04.02h-.02s0,.01,0,.01c0,0,0,0-.02,0-.03-.02-.07-.04-.1-.05-.03-.02-.06-.04-.08-.05h-.02s0-.02,0-.02h0s0,0,0,0c.1.08.03.02.05.04h0s0,0,0,0h0s-.05-.04-.07-.06c-.04-.03-.08-.07-.12-.1-.04-.03-.08-.06-.11-.08-.06-.04-.1-.07-.12-.08-.02,0,0,0,.05.04.04.04.12.11.21.21Z"/><path class="ag" d="m10.97,33.12s0-.03.01-.04h0s0,0,0,0h0s.02-.05.02-.05c.02-.03.03-.05.05-.08.06-.1.13-.19.19-.29-.11.09-.19.17-.27.25-.02.02-.04.04-.05.06l-.02.03h-.01s0,.01,0,.01c0,0-.01,0-.02.01-.02.02-.02.04-.02.06,0,.05,0,.12-.03.18.08-.03.12-.09.15-.14Z"/><path class="ag" d="m119.4,39.31c-.05.03-.11.06-.16.05,0,0,.02.01.06.04.04.02.09.04.14.06,0,0,.02,0,.03,0,.14.22.4.23.82.08.29-.1.57-.24.82-.4.84-.53,1.67-1.05,2.51-1.58-.08.15-.37.26-.29.45.2-.36.69-.58.97-.88.67-.42,1.33-.85,1.99-1.28.13-.09.25-.17.35-.25.05.02.1.03.13.03-.01-.02-.05-.05-.08-.08.1-.09.18-.17.24-.25,0,0,0,0,0,0,.06-.1.08-.18.2-.23,0-.06-.02-.09-.04-.11.01-.05.02-.11.02-.16.01,0,.03,0,.04,0,.11.01.25.09.37,0,.09.18.07.42.02.61-.05.19-.12.33-.15.43,0,0,0,0,.02-.02,0-.02.02-.04.04-.07.03-.06.07-.12.11-.21.02-.04.03-.08.05-.12.01-.04.02-.09.03-.12,0-.04.02-.06.02-.08,0-.02,0-.03,0-.03.06.04.15-.08.22-.17.03-.05.06-.08.09-.07.03,0,.06.06.06.2.05-.12.06-.25.07-.39,0-.07,0-.13,0-.19,0-.07-.01-.13-.03-.19-.01-.06-.03-.12-.05-.17-.02-.05-.04-.1-.06-.15-.04-.1-.1-.18-.15-.26-.21-.31-.45-.47-.65-.62.02.08.05.17-.02.21-.22-.13-.09-.23-.07-.34-.23-.1-.36.09-.55.15-.09-.21-.19-.3-.26-.39-.08-.09-.15-.18-.28-.4l-.05.23c-.09-.14-.17-.13-.24-.11-.08.02-.15.05-.27-.04-.01-.05.09-.09.19-.12-.12,0-.17-.05-.23-.1-.05-.05-.11-.1-.24-.05,0,0,.05-.06.1-.13.05-.06.11-.12.11-.12-.22-.02-.53.13-.44-.1-.18.16-.42.28-.64.44-.23.15-.44.36-.58.57l-.09-.18s-.02.09-.05.13c-.02.04-.03.06-.06.09-.04.06-.1.11-.16.16-.12.1-.22.2-.18.36l-.07-.04-.08.42c-.13.08-.28-.18-.24-.11-.21.26-.4.44-.62.5.13.23-.08.51-.26.72-.55.38-1.04.85-1.48,1.37-.11.13-.22.26-.32.39-.05.07-.1.13-.15.2-.05.07-.11.14-.16.21-.21.31-.32.66-.36.98-.02.06,0,.13.02.2-.04.16-.07.32-.08.47,0,.24.02.43.06.57Zm.01.08s0-.02,0-.02c0,.01.01.03.02.04-.01,0-.02-.02-.02-.02Z"/><path class="ag" d="m119.28,39s0-.07-.01-.13c0-.07,0-.13,0-.13-.07-.11-.18.03-.26.16,0,0,.07.03.14.05.07.02.14.05.14.05Z"/><path class="ag" d="m125.54,32.19c.07.05.14.11.12.15.08-.03.11-.08-.12-.15Z"/><path class="ag" d="m125.65,32.36s0-.01,0-.02c-.02,0-.03.01-.05.02.02,0,.03,0,.05,0Z"/><path class="ag" d="m123.48,38.43l.18-.27c-.19-.07-.17.08-.33.14l.15.13Z"/><path class="ag" d="m126.24,36.2c.06-.06.11-.11.15-.15.04-.04.07-.07.07-.07h-.05s-.4.45-.4.45l.22-.22Z"/><path class="ag" d="m125.77,31.96c.06,0,.12.02.18,0,0,0-.1-.01-.21-.02-.05,0-.1,0-.14,0-.04,0-.06,0-.06,0l.05.04c.05-.04.12-.04.18-.03Z"/><path class="ag" d="m122.33,33.19c.08-.15-.11-.16-.15-.28.15.33-.16.13.15.28Z"/><path class="ag" d="m122.14,33.49c-.19-.04-.08.1-.09.2.08-.05.08-.13.09-.2Z"/><path class="ag" d="m109.65,42.15c-.04.09.07.16.15.24v-.29s-.04.01-.08.03c-.04.01-.07.03-.07.03Z"/><path class="ag" d="m107.37,37.9c.06-.01.12-.04.16,0,0-.08-.03-.12-.16,0Z"/><path class="ag" d="m107.53,37.9s0,.03,0,.05c0-.01,0-.02.01-.03,0,0,0,0-.01-.01Z"/><path class="ag" d="m106.46,40.53c.26.02.32.29.39.48,0,.26.08.53.25.74.17.21.42.34.67.42.26.07.53.08.78.06.26-.02.46-.07.66-.12.04,0,.08-.03.12-.07.1,0,.2.01.3.02.09-.03.22-.05.35-.08.02.06.04.11.04.16,0,0,.03-.08.06-.16,0,0,0-.01,0-.02.23-.05.48-.12.72-.23.84-.38,1.13-1.09.81-1.84.06.03.1.1.14.16.04.07.09.12.2.13-.16-.15-.24-.33-.35-.49-.07-.1-.15-.2-.26-.26-.35-.48-.8-.84-1.32-1.09,0-.05,0-.09,0-.12-.01.02-.03.06-.04.1-.07-.03-.13-.06-.2-.09,0,0,0,0,0,0-.07-.02-.13-.02-.14-.12-.04.01-.06.03-.07.05-.02,0-.03-.01-.05-.02-.02,0-.03,0-.05-.01,0-.01.01-.03.02-.04.04-.11.11-.23.11-.35.2-.11.41-.08.53-.12,0,0-.08-.01-.16-.02-.08,0-.16-.01-.16-.01.06-.12-.14-.28.07-.35-.27-.22-.79-.2-1.22-.05.07.04.14.06.13.15-.2.09-.19-.07-.26-.16-.16.12-.09.34-.12.52-.08-.02-.15-.03-.2-.03-.05,0-.1.01-.14.02-.05,0-.09.02-.14.02-.06,0-.13,0-.22,0l.16.16c-.13-.01-.14.06-.14.13,0,.07,0,.14-.1.16-.04-.02-.05-.11-.05-.19-.03.09-.08.09-.15.09-.06,0-.12,0-.13.1,0,0-.04-.06-.07-.13-.03-.06-.06-.13-.06-.13-.04.06-.07.14-.11.19-.04.04-.08.05-.15-.03.05.17,0,.32-.03.46l-.03.11s-.02.06-.02.1c-.01.07-.02.14,0,.22l-.17-.09c.05.06.05.12.04.19-.01.07-.03.15-.05.22-.02.09-.01.18.1.25h-.08s.05.07.1.13c.03.03.05.07.07.1.02.03.03.05.03.05-.04.11-.33.03-.25.05,0,.14,0,.25-.01.38-.01.12-.05.22-.1.32Zm3.57,1.46s0,0-.01-.01c0,0,.02,0,.03,0,0,.01-.01.02-.01.02Z"/><path class="ag" d="m112.2,40.28l.19-.04s-.04-.06-.08-.12c-.05-.06-.09-.11-.09-.11-.14.11.02.14-.01.28Z"/><path class="ag" d="m110.52,38.33c.1.02.21.04.21.04,0,0-.11-.03-.21-.06-.11-.03-.21-.05-.21-.05v.04s.11,0,.21.03Z"/><path class="ag" d="m107.32,37.48s-.01.02-.03.05c-.01.03-.03.06-.05.1-.02.04-.03.07-.04.1-.01.03-.02.04-.02.04h.05c-.03-.13.07-.18.08-.28Z"/><path class="ag" d="m105.92,39.73c-.03-.17-.19-.05-.29-.12.32.16-.04.21.29.12Z"/><path class="ag" d="m106.05,40.3c.02-.1-.03-.15-.07-.21-.16.13.01.14.07.21Z"/><path class="ad" d="m56.73,27.18s.01-.03.02-.05c-.04-.01-.08-.02-.11-.04-.03-.02-.06-.08-.08-.12,0,.07-.01.12-.02.18,0,.01.01.04.03.07-.04,0-.07.07-.1,0,0-.03.01-.06.02-.09-.01-.01-.02-.02-.03-.02-.07-.02-.13-.03-.2-.05.08-.25.13-.52.13-.81,0-.55-.17-1.05-.45-1.47,0-.01.02-.03.02-.05.01-.06-.03-.06-.04-.11.03-.04.06-.08.09-.12.02-.03.04-.08.02-.12-.01-.04-.04-.09-.05-.09-.06,0-.11-.04-.16-.12,0-.01-.02-.02-.03-.03-.11-.06-.21-.12-.32-.14-.1-.02-.21-.03-.31-.07-.08-.03-.16-.04-.25-.05-.34-.17-.73-.26-1.13-.26h-9.69c-.56,0-1.08.18-1.5.48-.01,0-.02,0-.03,0,0,0-.02,0-.03,0-.11,0-.23,0-.34,0-.07,0-.13,0-.2,0v.02s.05,0,.08,0c-.05.05-.07.06-.1.04-.01-.01-.02-.03-.04-.04-.1-.04-.21-.05-.31,0-.05.03-.11.08-.15.18.07.07.13.15.09.3.03.11.12.13.08.28.03.06.05.1.07.15,0,.06-.01.12-.01.16,0,0,0,0,0,0-.01.03-.03.07-.04.11-.08,0-.17,0-.25,0-.05,0-.11.01-.16,0-.06-.01-.1.02-.13.13.04.04.07.09.1.13.01.01.02.02.03.02.08.02.15.03.23.05.02,0,.05,0,.06.04-.04.18-.06.36-.06.55,0,.1,0,.19.02.29-.03.02-.07.03-.1.05-.04.02-.08.06-.1.14,0,.02.01.05.02.07-.02.02-.03.04-.04.06-.04.09-.04.17.02.24.02.02.03.05.05.08-.03.06-.03.12-.02.2.04-.03.07-.07.1-.08.04-.01.08,0,.11,0,0,.01,0,.03,0,.05.02.02.05.04.07.05.02.01.05.01.08.02,0,.07.03.08.07.08.06,0,.08.03.09.14.02,0,.03,0,.05.01.05.09.11.17.18.25-.07.02-.14.03-.21.05-.04,0-.09,0-.13.01-.07.04-.11.15-.14.26.02.02.05.03.05.06.02.11.07.15.12.18.04.03.09.02.13.06.04.04.09.05.13.06.04,0,.07,0,.11,0,.03,0,.06,0,.08-.07,0-.03.03-.06.05-.03,0,.03-.01.06-.02.1.04,0,.07-.01.09-.02.01,0,.03,0,.04,0,.11.07.23.1.35.13.03,0,.07,0,.1.06.01.03.05.03.07.03.12-.01.23.03.35,0,.03,0,.06-.01.09-.01.24.07.49.11.76.11h9.69c.35,0,.68-.07.99-.2.04,0,.07.02.11.03.03,0,.05.02.07-.04-.03-.03-.06,0-.09-.03.02-.01.04-.02.06-.03.03,0,.06.01.09.02.05.01.1.03.12-.07.06,0,.1,0,.15.01.05,0,.1.01.13.1.04-.07.09-.05.13-.02.01-.02.02-.03.03-.05.04-.07.08-.11.14-.06.02.01.04,0,.06,0,0-.03,0-.05,0-.06,0-.13,0-.13-.06-.16-.05-.03-.11-.05-.16-.12.07-.02.12-.13.19-.09.04-.15.07-.15.11-.04-.02.02-.03.03-.05.05.02.01.04.02.05.02,0,.13.06.13.09.18.03.11-.04.16-.06.26.05.07.09.14.15.2.03.03.07,0,.1,0,0-.05,0-.08,0-.1.07-.02.11.01.15.11.05-.06.13,0,.15-.16-.06-.03-.12-.07-.17-.1.02-.06.05-.05.08-.04.03,0,.06.02.08-.03-.01-.03-.02-.06-.04-.09.08,0,.16-.02.23-.02.04,0,.07,0,.09-.08.01-.04.04-.06.06-.09,0-.26,0-.53,0-.79,0-.06-.01-.13-.02-.2Zm-15.23-.51s0-.02,0-.03c0,0,0,0,.01,0,0,.01,0,.02,0,.03,0,0,0,0-.01,0Zm13.51,1.89s.03-.02.04-.02c0,0,.01,0,.02,0-.02.02-.04.02-.06.02Z"/><path class="ae" d="m67.04,11.59c-.03-.1-.03-.13,0-.21t0,.21Z"/><path class="ac" d="m67.25,11.62s-.04.03-.05.05c0,.04,0,.09-.05.14,0-.02,0-.03,0-.04,0-.03.01-.07.02-.1,0-.02.02-.03.03-.04.01-.02.03-.05.04-.07,0-.07,0-.15.02-.22.02-.1.01-.2.02-.3.01-.1,0-.2.06-.3,0,0,0,0,0-.01-.01-.12.03-.25-.01-.37-.02-.07,0-.15,0-.22,0-.04-.01-.09-.02-.13,0-.02,0-.05,0-.07,0-.04,0-.09,0-.13,0,0,0-.02-.02-.03-.09-.06-.09-.13-.06-.2,0-.01.03-3.37.03-3.39,0-.03,0-.06,0-.09,0-.06.02-.12.01-.18-.01-.07-.03-.15-.09-.22-.03-.04,0-.09,0-.14,0-.02,0-.03.01-.05-.11,0-.09-.06-.15-.09.07-.06.07-.12.04-.18,0-.02-.02-.04-.04-.05-.04-.03-.06-.07-.04-.11.02-.04,0-.07-.01-.1-.02-.03-.02-.08-.01-.11.02-.08,0-.16-.03-.23,0-.03,0-.05,0-.08.03-.04.05-.08.12-.11.02-.01.03-.04.03-.06,0-.05-.01-.09-.02-.14-.01-.06-.02-.12.01-.17.01-.02.01-.04,0-.06,0-.09-.02-.18-.02-.27.05-.05,0-.1,0-.14,0,0,.01-.02.02-.03.06.01,0,.03.02.05,0,0,.03.01.04.02,0,0,.03-.02.03-.02-.05-.07,0-.14,0-.21,0-.06-.04-.11,0-.17,0-.01-.03-.03-.05-.05.06-.03.01-.08.06-.12,0,0,0-.02,0-.03-.04-.11,0-.21.02-.32,0,.01.03.02.03.03,0,.05.02.1,0,.14-.03.07,0,.13.04.19,0,.01.03.02.05.04.01,0,.02-.01.02-.02-.01-.06-.02-.13-.04-.19,0,0,0-.02,0-.02.08-.06.01-.13.06-.2,0-.01,0-.03-.01-.05-.02-.05.02-.09.12-.11.01.03.04.07.03.1-.02.06.01.13.02.19,0,.05,0,.11.02.15.02.05,0,.09,0,.13,0-.01-.02-.03-.03-.04-.04.03,0,.05,0,.08,0,.02.02.04.02.05-.04.09,0,.18.03.28.01.04.02.09.02.14,0,.01-.03.02-.05.04.05.01.05.04.05.08,0,.03-.02.06.05.08.07-.04.14-.08.13-.14,0-.03,0-.05-.07-.06-.01,0-.02-.01-.05-.03.05,0,.09,0,.13,0,.02-.06.01-.11,0-.17,0-.01-.02-.03-.01-.04.04-.08,0-.16,0-.24-.01-.09.04-.18,0-.26,0-.01.02-.03.04-.05.03.04.05.08.04.13,0,.06,0,.12,0,.18,0,.04.02.07.03.11,0,0,.02,0,.02,0,0-.01.01-.03,0-.04,0-.07,0-.14-.02-.2-.02-.05,0-.11,0-.17.03-.08,0-.17-.01-.25,0-.02,0-.03-.01-.05,0-.07-.02-.13-.03-.2,0-.03,0-.06,0-.1.07.02.1.05.11.08,0,.03,0,.06.01.09.06-.04.09-.08.08-.14.04,0,.07.01.11.02.06-.05.11-.09.17-.14.09.01.11.03.1.07,0,.1-.01.19-.01.29,0,.04.04.07.04.11.01.06.01.11.02.17,0,.03,0,.07.06.1.02-.03.03-.05.05-.08.05.04.11.02.15.01.11-.05.11-.13.18-.19,0,.03-.01.07-.02.12.16-.07.16-.17.22-.25.03.01.05.02.07.03.09-.04.17-.08.26-.12.03-.01.05-.03.03-.05-.02-.02.02-.06-.05-.08-.03,0,0-.05.05-.05.1-.01.13-.05.15-.1,0,0,.01,0,.02,0,0,0,0,0,.02,0,.03.02,0,.05,0,.07,0,.02,0,.04.05.04.01-.02.03-.05.03-.07.01-.05.02-.11.03-.16,0-.02.02-.04.03-.05,0,0,.03-.02.03-.02,0-.07.09-.09.2-.11.01,0,.02,0,.04-.01.06.03.12.06.2.09.03-.03.05-.05.08-.08.05.07.15.07.26.07.06,0,.1.01.14.03.03.02.06.03.09.05v.06c.05.01.09,0,.13-.02-.01-.02-.02-.03-.03-.05,0,0,0-.01,0-.01.03-.01.06-.02.06-.04,0-.02,0-.04.05-.05.06,0,.06.02.08.04,0,0,.01.01.03.02.04-.05.05-.09.04-.13-.01-.11-.02-.21-.05-.32-.03-.08,0-.17-.04-.25,0,0,0,0,.01-.02.05.02.05.06.06.08.05.18.1.35.15.53.02.08.04.16.1.23.01.01.02.03.03.04.04-.04.07-.08.11-.11.06,0,.07.02.08.03.04.07.08.13.05.2-.01.04.04.07.11.09.04,0,.07.02.1.04.05.03.09.06.15.08.06.02.1.05.09.09-.02.06.03.12,0,.19,0,.02.02.04.02.06.02.06.04.12.06.19.08.02.1-.07.2-.03,0,.01.01.03,0,.05-.02.06.01.13,0,.19,0,.13,0,.26.02.39,0,.06-.02.12.01.18.01.03-.02.07-.02.1,0,.09,0,.18,0,.27,0,.02,0,.04,0,.05-.05.07-.04.13-.04.2,0,.08,0,.16,0,.24,0,.04,0,.08-.03.11-.04.09-.04.18-.04.28,0,.05-.02.1-.03.15,0,.01-.02.03-.03.04-.08.05-.08.11-.04.17.02.05.05.09.06.14,0,.06,0,.11,0,.17-.03.12-.03.23-.01.35.01.11-.03,3.57-.03,3.68,0,.04,0,.08.02.12.01.07.03.13.05.19,0,0,0,.01,0,.02,0,.09-.01.17-.01.26,0,.05,0,.11.06.16.02.02.03.05.03.07,0,.04-.03.08-.03.13,0,.04.01.09.02.13.02.08.03.16,0,.24,0,0,0,.02,0,.03,0,.05.02.1.02.15,0,.06-.01.13-.02.19,0,.03-.02.06-.09.07-.02,0-.04.02-.05.03,0,.06-.05.11-.08.17-.04.07-.06.15-.08.22-.01.05-.03.11.04.16.02.02.01.04.02.07,0,.05,0,.1,0,.16,0,0,0,0,0,.01-.07.12-.02.25-.03.38,0,.05.01.1,0,.15-.01.08-.03.17-.05.25-.01.04-.03.09-.07.13-.04.04-.03.1-.04.15-.04.02-.08.04-.13.06-.04.02-.07.02-.11,0-.04-.02-.05-.06-.02-.07.05-.02.07,0,.1.02.09-.04.15-.12.1-.17-.05-.06-.05-.11-.02-.17-.08-.05-.16,0-.25-.02-.01.04-.02.07-.03.11-.04.13-.07.27-.11.4-.03.1-.06.21-.1.31-.01.04-.03.08-.05.13-.06.15-.12.3-.18.44-.01.04,0,.08-.01.13-.05.04-.11.09-.11.16,0,.03,0,.07-.08.08q-.04-.09.01-.19s-.08-.05-.01-.09c-.07,0-.1,0-.12.03-.02.02-.05.04-.09.07-.05-.02-.09-.03-.14-.01-.02,0-.05,0-.07,0-.07,0-.1-.03-.07-.06.02-.03.02-.06,0-.09,0,0,.02-.01.03-.02.02-.07.05-.13.07-.2,0-.02,0-.03.02-.06-.06.03-.08.05-.09.08-.01.04-.03.07-.04.11-.02.03-.02.07.02.1-.04,0-.06.01-.06.03,0,.04-.02.07-.04.12-.06-.03-.11-.05-.16-.08-.08.06-.21.03-.32.04-.04-.04-.06-.07-.03-.1,0,0,0-.02-.02-.05-.03.03-.05.05-.08.07-.05,0-.1-.01-.15-.02.01-.04.03-.07.04-.12-.05,0-.09.01-.13.02,0-.01-.01-.02,0-.03.06-.06.08-.12.09-.18,0-.02.01-.03.02-.05.04-.06.03-.11-.07-.16,0,.06,0,.12-.01.19-.04,0-.07,0-.06-.03.02-.06-.02-.11-.03-.16,0-.05.03-.1.09-.15.02,0,.03.02.06.03.01-.05.03-.09-.06-.11-.06-.01-.05-.04-.04-.07.02-.04.05-.08.03-.13-.09.02-.14.01-.21-.03-.02-.01-.05-.03-.07-.03-.08,0-.1-.02-.1-.06,0,0,0-.01-.02-.02-.02,0-.03.01-.05.02-.02,0-.04.01-.06.02,0-.01-.01-.02-.02-.02,0,0,0-.01,0-.02h-.09s-.01.01-.02.02c-.02.08-.03.16-.05.24-.02.09-.04.17-.06.26-.02.08-.03.17-.05.25-.01.06-.04.11-.07.17-.02.04-.05.07-.04.11,0,0,0,.02-.01.03-.04,0-.08-.01-.09-.03-.01-.03-.07-.06-.04-.1,0-.01,0-.03-.02-.04-.07-.04-.14-.08-.22-.13-.01-.02.02-.06-.04-.09,0,0,0-.02,0-.03,0-.03,0-.05-.05-.07-.02,0-.04-.03-.03-.05.04-.06,0-.12-.01-.19-.05.04-.09.07-.14.1-.11-.04-.07-.1-.09-.17v.17c-.06.02-.07-.03-.13-.02-.03.07-.05.15-.08.23,0,.01-.02.02-.02.04-.02.03-.04.05-.06.08,0,0-.03-.01-.04-.02,0-.03-.02-.04-.07-.05.02-.08-.03-.16-.09-.23-.02,0-.03,0-.05,0-.03-.04-.02-.09-.02-.13,0-.05-.03-.1-.1-.15,0,.02-.01.03-.01.04.01.03.03.07.04.1,0,.03.02.05-.03.07-.1-.02-.1-.02-.08-.07.04-.1.03-.21.05-.31,0-.04.01-.08.02-.12.02,0,.04,0,.04.01,0,.05.01.1,0,.15-.02.06-.02.06.09.1,0-.06.02-.12.02-.18,0-.03-.01-.05-.09-.04.05-.07.06-.14.04-.2-.02-.06.04-.13-.05-.2-.02.02-.04.02-.04.04-.02.06-.04.12-.05.19,0,.04-.01.09-.02.13,0,.01-.01.02,0,.03.03.12-.04.23-.04.34,0,.02-.03.04-.06.07-.02-.06-.03-.11-.02-.16,0-.04,0-.09.01-.13,0-.07.02-.13.03-.2,0-.03,0-.06-.01-.09,0-.03-.01-.06,0-.09.01-.05.03-.1,0-.15,0,0,0-.02,0-.03.02-.05.03-.11.05-.16.01-.03.05-.06.06-.09,0-.03-.03-.07-.03-.1,0-.05.01-.09.01-.14,0-.11.01-.21.05-.32.01-.03,0-.06,0-.09,0-.05-.03-.09.07-.13.02,0,.02-.03.01-.05,0-.02-.03-.04-.05-.06,0,0,.02,0,.02-.01,0,0,0,0,.01,0,0,0,0,0,0,0,0,0,0,0-.01,0,0,0-.02,0-.02.01Zm2.61.72c-.01.09-.03.16-.03.23,0,.06-.03.12,0,.18,0,.01,0,.02,0,.03-.02.1-.07.2-.03.3,0,0,0,.01,0,.02-.02.07-.04.14-.06.21-.01.07-.02.14-.03.21,0,.01.01.03.02.04.04-.03.07-.06.07-.08,0-.07-.01-.13-.01-.2,0-.04,0-.09.03-.14.03.02.06.03.09.05.03-.04.06-.06,0-.09-.01,0,0-.03,0-.04.07-.04.04-.08.01-.11-.03-.04-.06-.08-.04-.12.03-.09.02-.17,0-.26,0-.04,0-.08,0-.11,0-.04.02-.07-.03-.12Zm1.04,1.46s-.05.03-.06.05c-.02.06-.05.13-.07.19-.01.03-.03.06.03.09.02,0,.02.02.02.03-.04.03-.09.05-.09.07-.01.04,0,.09,0,.14.06-.04.09-.09.19-.11.02,0,.03-.03.03-.04,0-.05,0-.1,0-.16,0-.03,0-.05.02-.08.01-.03.03-.06,0-.09-.05.02.01.07-.07.09-.07-.06.05-.12.01-.19Zm.22-.94c-.1.18-.13.36-.15.54.05,0,.09,0,.13,0,0-.05.02-.1.02-.15-.02,0-.04-.02-.06-.03.01-.07.03-.13.04-.19,0-.04.02-.07.09-.09-.02-.03-.04-.05-.07-.08Zm-1.11-.43s.02,0,.03,0c0-.01,0-.03,0-.04,0-.02-.01-.05-.02-.07,0-.06-.01-.12-.02-.18,0,0,0-.02-.02-.02-.06-.02-.07-.05-.08-.08-.01.05-.04.09.05.13.02,0,.02.02.02.04,0,.07.01.14.02.2,0,0,0,.02.01.02Zm.96,1.01s-.03.06-.04.09c0,.03,0,.06-.02.09,0,.03-.02.05-.03.08.08-.06.06-.13.17-.19-.03-.02,0-.06-.09-.07Zm-3.35-9.44c-.06.05.03.09.02.13,0,.02.04.04.07.06.05-.08.05-.09-.09-.19Zm3.79,9.02c-.05.08-.07.16-.08.25.06-.08.06-.16.08-.25Zm-3.63-8.79c-.1.06-.12.11-.06.15.07-.02,0-.05.01-.07.01-.03.03-.06.04-.08Zm2.2,8.33s-.02,0-.02,0c0,.03.01.06.03.1.01.03-.04.06,0,.09.01-.05.01-.1.01-.15,0-.01-.02-.03-.03-.04Zm1.1-10.59s.03.06.05.09c.08-.05-.05-.06-.05-.09Zm-3.89,1.93c-.07.05-.07.05,0,.08.06-.03,0-.05,0-.08Zm.79-1.32s-.02.09-.01.13c-.01-.04.06-.08.01-.13Zm-.31,1.41s.07-.04.05-.07c-.05.02-.07.04-.05.07Zm.25-.68s-.02,0-.03,0c-.01.02-.02.04.04.05,0-.02,0-.04,0-.05Zm1.66,10.49s.02-.02.02-.02c0,0-.02,0-.03-.01,0,0-.01.01-.01.02,0,0,.01.01.02.02Zm-2.22-9.94s.02-.01.02-.02c0,0,0,0,0-.01,0,0-.02.01-.03.02,0,0,0,0,.02.01Zm2.33,9.99s0,0,0-.01c0,0,0,0,0,0,0,0-.01,0-.01,0,0,0,0,0,.01,0Zm-2.52-10.18s0,0,0,0c0,0,0,0,0,.01,0,0,0,0,0,0,0,0,0,0,0-.01Z"/><path class="s" d="m81.55,16.21s-.05-.02-.06-.02c-.04.01-.07.05-.14.03.02-.01.02-.03.03-.03.03-.01.06-.02.1-.03.02,0,.03,0,.05,0,.03,0,.06,0,.08,0,.07-.03.13-.07.2-.09.09-.03.18-.09.27-.13.09-.04.17-.1.29-.1,0,0,.01,0,.01,0,.1-.07.22-.1.31-.2.05-.06.13-.08.19-.12.04-.02.07-.06.1-.08.02-.01.05-.02.07-.03.04-.02.07-.05.11-.07,0,0,.01-.01.01-.03,0-.11.07-.14.14-.15.02,0,2.91-1.66,2.93-1.66.02-.02.05-.03.08-.04.05-.03.11-.04.16-.08.06-.05.11-.1.14-.19.02-.05.08-.05.12-.08.01,0,.03,0,.05-.01-.05-.09,0-.11,0-.17.08.03.14,0,.18-.05.01-.02.02-.04.02-.06,0-.05.03-.09.08-.09.04,0,.06-.03.08-.06.02-.04.05-.06.09-.07.08-.02.13-.08.19-.14.02-.02.04-.04.08-.03.05,0,.1,0,.16.05.02.02.05,0,.06,0,.04-.03.07-.06.1-.09.04-.04.09-.08.16-.07.02,0,.04-.01.06-.02.07-.05.15-.1.22-.16.07.02.09-.04.12-.08,0,0,.02,0,.04,0,.02.06-.02.02-.03.04,0,.01,0,.03,0,.04.01,0,.03.02.03.01.03-.08.12-.06.18-.1.05-.03.07-.09.14-.09.01,0,.01-.04.02-.07.06.04.08-.03.13,0,0,0,.02-.01.02-.02.07-.09.19-.1.29-.15,0,.01,0,.03-.02.04-.04.03-.07.06-.12.07-.07.01-.11.07-.14.13,0,.01,0,.04,0,.06.01,0,.02.01.03.01.05-.04.1-.09.15-.13,0,0,.01-.01.02,0,.09.04.12-.06.2-.04.02,0,.02-.02.03-.03.03-.04.09-.02.16.05-.02.03-.04.07-.07.08-.06.02-.1.07-.15.11-.04.03-.09.05-.12.1-.03.04-.07.05-.11.07,0-.01.01-.03.02-.05-.05-.02-.05.02-.07.04-.01.01-.02.04-.04.04-.1.01-.16.1-.22.17-.03.03-.07.06-.11.08,0,0-.03-.01-.05-.02.01.05-.01.07-.04.08-.02.01-.06.01-.04.08.07.04.14.08.19.04.02-.02.04-.03.01-.09,0-.01,0-.03,0-.06.03.05.04.08.06.11.06-.01.11-.04.15-.08,0,0,.01-.03.03-.03.09,0,.14-.08.21-.13.07-.06.17-.06.22-.14,0-.01.04,0,.06,0-.02.05-.05.08-.09.1-.05.03-.11.06-.16.09-.03.02-.06.05-.08.08,0,0,0,.01.01.02.01,0,.03,0,.04-.01.05-.04.12-.07.16-.12.04-.04.09-.07.15-.08.09-.02.15-.08.21-.14.01-.01.02-.02.03-.03.05-.04.1-.08.16-.12.02-.02.05-.03.08-.05.02.07,0,.11-.01.13-.02.02-.05.03-.07.05.06.03.12.04.16,0,.01.04.02.07.03.1.07.03.14.05.21.08.03.08.03.11-.01.13-.09.04-.17.09-.26.14-.03.02-.04.07-.07.09-.04.04-.09.07-.13.1-.03.02-.06.04-.05.1.03,0,.06,0,.1,0-.01.07.04.1.07.14.1.07.17.03.26.06-.03.01-.07.02-.12.04.14.11.22.06.32.06,0,.03,0,.06.01.08.08.06.15.11.23.17.03.02.05.03.06,0,0-.03.06-.01.05-.08,0-.03.04-.02.07.02.06.08.11.09.16.08,0,0,.01,0,.02.01,0,0,0,0,.01.01,0,.04-.04.03-.06.03-.02,0-.03.02,0,.07.03,0,.05,0,.08,0,.05-.02.1-.04.15-.06.02,0,.04,0,.06,0,0,0,.03.01.03.01.06-.03.13.04.19.12,0,0,.02.02.03.03,0,.06.01.13.02.21.04,0,.07.02.11.03-.03.08.01.17.07.27.03.05.04.1.04.14,0,.03,0,.07,0,.11-.02,0-.03.02-.05.03.02.05.05.07.08.1,0-.02.02-.04.03-.05,0,0,.01,0,.02,0,.02.02.04.04.06.03.02-.01.04-.01.07.02.03.05,0,.06,0,.09,0,0,0,.02,0,.04.06,0,.1,0,.13-.03.08-.07.17-.12.25-.2.06-.07.14-.09.19-.16,0,0,0,0,.02,0,0,.05-.02.07-.04.1-.13.13-.26.26-.38.39-.06.06-.12.11-.15.21,0,.02-.01.03-.02.05.05.01.1.02.15.04.03.05.02.07.01.09-.04.07-.07.13-.15.15-.04,0-.04.07-.02.14.01.04.02.07.02.1,0,.06,0,.11.01.17.02.06,0,.11-.04.12-.06.02-.09.09-.16.09-.02,0-.02.03-.04.05-.04.05-.09.09-.13.14.03.08.11.05.12.16,0,0-.02.03-.04.03-.06.01-.1.07-.16.1-.12.06-.22.14-.33.21-.05.03-.11.04-.15.1-.02.03-.07.01-.1.03-.08.04-.15.09-.22.14-.02,0-.03.03-.05.02-.08,0-.13.03-.19.07-.07.04-.14.08-.21.12-.03.02-.07.03-.11.03-.1,0-.18.06-.26.1-.04.02-.09.04-.14.05-.01,0-.03,0-.05-.01-.09-.05-.13-.01-.17.05-.03.04-.05.09-.09.12-.04.04-.09.07-.15.08-.12.03-.21.09-.31.16-.09.07-3.08,1.75-3.18,1.81-.03.02-.07.05-.1.08-.05.04-.1.09-.14.14,0,0,0,.01-.01.02-.08.04-.15.08-.23.12-.05.03-.09.06-.11.13,0,.03-.03.05-.05.06-.04.02-.09.02-.12.04-.04.02-.07.06-.1.09-.06.06-.13.1-.21.12,0,0-.02,0-.02.01-.04.03-.08.07-.12.09-.06.03-.11.05-.17.07-.03,0-.06.01-.1-.04-.01-.02-.04-.03-.05-.03-.05.02-.12,0-.18.01-.08,0-.15.02-.23.04-.05.01-.11.03-.12.11,0,.03-.03.03-.05.05-.04.03-.09.06-.13.09,0,0,0,0-.01,0-.14,0-.23.11-.34.16-.05.02-.08.06-.13.08-.08.03-.16.06-.24.08-.04.01-.09.01-.14,0-.05-.01-.1.02-.14.04-.04-.03-.08-.05-.12-.08-.04-.02-.05-.05-.05-.09,0-.05.02-.08.05-.06.04.03.04.06.04.09.08.06.17.07.19,0,.02-.07.07-.1.13-.1,0-.09-.08-.15-.11-.23-.04,0-.07.02-.11.02-.13.03-.27.07-.4.1-.1.03-.21.05-.31.07-.04,0-.09.01-.13.02-.16.02-.31.04-.47.07-.04,0-.07.03-.12.05-.06-.03-.13-.05-.19-.01-.03.02-.06.03-.11-.03q.06-.08.17-.08s0-.09.07-.06c-.03-.06-.05-.08-.09-.09-.03,0-.06-.02-.1-.04,0-.05-.02-.09-.06-.13-.01-.01-.03-.04-.04-.06-.03-.06-.02-.1.02-.1.03,0,.06-.01.08-.04.01,0,.02.02.03.01.07-.01.14-.03.21-.04.02,0,.03,0,.06-.02-.05-.03-.08-.04-.11-.04-.04,0-.07.01-.11.02-.04,0-.07.02-.08.06-.02-.03-.04-.04-.06-.04-.04.01-.08.02-.13.03,0-.07-.01-.12-.01-.18-.1-.04-.13-.16-.19-.26,0-.05.03-.09.08-.08.01,0,.02-.02.03-.04-.04-.01-.07-.02-.1-.03-.02-.05-.04-.09-.06-.14.04,0,.08-.01.12-.02-.03-.04-.06-.07-.08-.1,0,0,.01-.02.02-.02.08.02.14.01.2-.01.01,0,.03,0,.05,0,.07,0,.1-.03.1-.14-.06.03-.11.05-.17.08-.02-.03-.03-.06,0-.07.06-.01.08-.07.13-.1.04-.03.1-.03.17,0,0,.02,0,.03,0,.06.05-.01.09-.02.06-.11-.02-.06.01-.07.04-.07.05,0,.1,0,.12-.04-.06-.07-.08-.11-.08-.2,0-.02,0-.06,0-.08-.04-.07-.03-.1,0-.12,0,0,0-.01.01-.03-.01-.01-.03-.02-.04-.03-.01-.01-.03-.03-.05-.04,0-.01,0-.02.01-.03,0,0,.01,0,.02-.01-.02-.03-.03-.05-.04-.08-.01,0-.02,0-.02,0-.08.03-.16.05-.23.08-.08.03-.17.05-.25.08-.08.03-.16.06-.24.08-.05.02-.11.02-.18.03-.04,0-.09,0-.12.02,0,0-.02,0-.03,0-.02-.04-.03-.08-.02-.09.02-.03.02-.09.07-.09.01,0,.02-.02.02-.04,0-.08,0-.16,0-.25.01-.02.06-.01.06-.08,0-.01.02,0,.03-.01.02-.01.05-.02.03-.08,0-.02,0-.05.02-.05.07,0,.1-.06.16-.11-.06-.03-.11-.05-.16-.07-.02-.12.06-.11.1-.16-.05.03-.1.06-.14.08-.05-.04,0-.08-.04-.13-.08.02-.16.03-.24.05-.01,0-.03,0-.04,0-.03,0-.06,0-.1-.01,0-.01,0-.04,0-.04.02-.01.03-.04,0-.08.08-.03.12-.11.15-.19-.01-.02-.02-.03-.03-.04.02-.05.07-.07.11-.08.05-.02.07-.07.08-.16-.02,0-.03,0-.04,0-.02.03-.04.06-.07.08-.02.02-.04.04-.08.01-.03-.1-.03-.1.02-.11.11-.01.19-.07.29-.11.04-.01.07-.03.11-.04,0,.02.01.04.01.04-.04.03-.08.06-.13.07-.06.02-.06,0-.04.13.06-.02.11-.05.16-.07.03-.01.04-.03-.01-.1.08,0,.15-.02.19-.07.04-.05.14-.03.14-.14-.02,0-.04-.02-.05-.02-.06.01-.12.03-.18.05-.04.01-.08.03-.12.05-.01,0-.03,0-.03,0-.08.09-.21.08-.31.14-.02.01-.05,0-.08-.02.04-.05.08-.08.13-.1.04-.02.08-.04.12-.05.06-.03.12-.05.18-.08.03-.01.05-.04.07-.05.02-.02.04-.04.07-.05.05-.02.1-.03.13-.07,0,0,.02,0,.03,0,.05-.01.11-.02.16-.03.03,0,.08.01.11,0,.03-.01.04-.05.07-.07.04-.02.09-.04.13-.06.09-.05.19-.1.3-.11.03,0,.05-.03.07-.05.04-.03.07-.07.14,0,.01.01.04,0,.05-.01.01-.02.02-.04.02-.07,0,0,.02,0,.02.01,0,0,0,0,0,0,0,0,0,0,0,0,0,0,0,0-.01,0,0,0-.02,0-.02-.01Zm.69,2.64c-.08.03-.15.05-.21.09-.05.03-.12.03-.16.09,0,0-.02,0-.03.01-.1.03-.2.04-.27.12,0,0-.01,0-.02,0-.07.02-.14.03-.21.05-.07.02-.13.05-.2.08-.01,0-.01.02-.02.04.04.02.08.03.11.02.06-.03.11-.07.16-.11.04-.02.08-.04.13-.04,0,.04,0,.07,0,.1.04,0,.08.02.08-.04,0-.01.02-.02.03-.02.07.04.09,0,.1-.05.02-.05.04-.09.09-.1.09-.01.16-.07.22-.12.03-.02.07-.03.1-.05.03-.01.07-.02.09-.09Zm-.73,1.64s-.05-.03-.07-.03c-.07.01-.13.02-.2.03-.03,0-.07,0-.06.07,0,.02-.01.03-.02.03-.04-.02-.09-.05-.11-.05-.04,0-.08.04-.12.07.07.03.13.03.19.11.01.01.04.01.05,0,.05-.02.09-.05.14-.08.02-.01.05-.02.08-.02.03,0,.07,0,.08-.04-.05-.04-.05.04-.11-.01.02-.09.13-.01.17-.08Zm.92-.28c-.21,0-.37.06-.54.13.03.04.05.08.07.11.05-.02.09-.04.14-.05,0-.02,0-.04,0-.07.06-.02.13-.04.19-.06.03-.01.07-.02.12.04.01-.03.02-.06.03-.1Zm-.18-1.19s0,.02.01.02c.01,0,.02-.01.03-.02.02-.02.04-.04.05-.05.05-.04.1-.07.14-.11,0,0,.01-.02.01-.03-.02-.06,0-.08.03-.1-.05.01-.1.01-.09.11,0,.02-.01.03-.02.04-.05.04-.11.08-.16.12,0,0,0,.01-.01.02Zm-.39,1.34s-.07,0-.1.01c-.03,0-.05.02-.08.03-.03,0-.06.01-.08.02.09.04.15-.01.25.05,0-.03.05-.03.02-.11Zm6.44-7.64c-.08-.03-.06.07-.1.08-.02,0-.01.06-.02.09.09,0,.1,0,.12-.17Zm-5.86,7.81c-.09,0-.17.02-.25.06.1.01.17-.03.25-.06Zm5.74-7.56c-.1-.06-.15-.05-.16.03.05.05.04-.02.07-.02.03,0,.06,0,.09,0Zm-6.06,6.08s0-.01-.01-.02c-.02.02-.05.04-.07.07-.02.03-.08,0-.08.06.05-.01.09-.04.14-.06.01,0,.02-.03.02-.04Zm9.66-4.33c-.06-.02-.04.05-.05.09.08.04.03-.07.05-.09Zm-3.6-2.44c-.08-.04-.08-.04-.07.04.05.04.05-.02.07-.04Zm1.53.03c-.06-.02-.09.02-.12.05.03-.03.1.01.12-.05Zm-1.37.43s.06.04.09,0c-.04-.03-.07-.04-.09,0Zm.71-.12s0-.02-.01-.02c-.02,0-.04,0-.03.06.02-.01.03-.02.04-.03Zm-8.19,6.69s.03,0,.03,0c0,0,0-.02,0-.03,0,0-.02,0-.02,0,0,0,0,.01,0,.03Zm7.43-6.9s.02,0,.02,0c0,0,0,0,0-.01,0,0-.02-.01-.03-.02,0,0,0,0,0,.02Zm-7.42,7.03s0,0,.01,0c0,0,0,0,0,0,0,0,0,0-.01,0,0,0,0,0,0,.01Zm7.49-7.28s0,0,0,0c0,0,0,0,0,.01,0,0,0,0,0,0,0,0,0,0,0-.01Z"/><path class="u" d="m56.46,17.01s0,0-.01,0c0,0,0,0,0,0,0,0,0,0,0,0,0,0,.02,0,.02-.01,0,.02.01.05.02.07.01.01.04.03.05.01.07-.07.11-.03.14,0,.02.02.04.04.07.05.11.02.2.07.3.11.04.02.09.03.13.06.03.02.04.06.07.07.03.01.08,0,.11,0,.06,0,.11.02.16.03.01,0,.03,0,.03,0,.03.05.08.06.13.07.03,0,.05.03.07.05.02.02.04.04.07.05.06.03.12.05.18.08.04.02.08.04.12.05.05.02.09.06.13.1-.03.01-.06.03-.08.02-.1-.05-.23-.05-.31-.14,0,0-.02,0-.03,0-.04-.02-.08-.04-.12-.05-.06-.02-.12-.04-.18-.05-.01,0-.03.01-.05.02,0,.11.1.09.14.14.04.05.11.07.19.07-.05.07-.04.09-.01.1.05.02.11.05.16.07.03-.12.02-.11-.04-.13-.05-.01-.09-.05-.13-.07,0,0,0-.02.01-.04.04.02.08.03.11.04.1.04.18.1.29.11.05,0,.05,0,.02.11-.04.03-.06,0-.08-.01-.02-.03-.04-.06-.07-.08,0,0-.02,0-.04,0,0,.09.03.14.08.16.04.02.08.03.11.08-.01.02-.02.03-.03.04.03.08.07.16.15.19-.02.05-.02.07,0,.08,0,0,0,.03,0,.04-.04,0-.07.01-.1.01-.02,0-.03,0-.04,0-.08-.01-.16-.03-.24-.05-.04.05,0,.09-.04.13-.04-.03-.09-.05-.14-.08.04.05.12.05.1.16-.05.02-.1.04-.16.07.06.05.09.11.16.11.01,0,.03.03.02.05-.01.06.01.07.03.08,0,0,.03,0,.03.01,0,.06.04.05.06.08,0,.09,0,.18,0,.25,0,.02.01.04.02.04.05,0,.04.06.07.09.02.02,0,.05-.02.09-.01,0-.02,0-.03,0-.03-.03-.07-.02-.12-.02-.06,0-.12,0-.18-.03-.08-.02-.16-.06-.24-.08-.08-.03-.17-.05-.25-.08-.08-.03-.16-.05-.23-.08,0,0-.01,0-.02,0-.01.02-.03.05-.04.08,0,0,.02,0,.02.01,0,0,0,.02.01.03-.02.02-.03.03-.05.04-.01.01-.03.02-.04.03,0,.01,0,.02.01.03.03.02.04.05,0,.12-.01.02,0,.05,0,.08,0,.09-.01.13-.08.2.03.04.08.03.12.04.03,0,.06.01.04.07-.03.09.01.09.06.11,0-.03,0-.04,0-.06.07-.03.13-.03.17,0,.04.04.07.09.13.1.02,0,.01.04,0,.07-.06-.03-.11-.05-.17-.08,0,.1.03.14.1.14.02,0,.04,0,.05,0,.06.02.12.03.2.01,0,0,.01.01.02.02-.03.03-.05.06-.08.1.04,0,.08.02.12.02-.02.05-.04.09-.06.14-.03,0-.06.02-.1.03.02.02.02.04.03.04.05-.01.07.02.08.08-.06.1-.09.22-.19.26,0,.06,0,.11-.01.18-.05-.01-.09-.02-.13-.03-.02,0-.04,0-.06.04,0-.05-.04-.06-.08-.06-.04,0-.08,0-.11-.02-.03,0-.06,0-.11.04.03,0,.05.01.06.02.07.01.14.03.21.04,0,0,.02,0,.03-.01.02.02.04.04.08.04.04,0,.05.03.02.1,0,.02-.02.05-.04.06-.04.03-.05.08-.06.13-.04.02-.07.03-.1.04-.03,0-.06.03-.09.09.07-.04.06.02.07.06q.11,0,.17.08c-.05.06-.09.05-.11.03-.06-.03-.13-.01-.19.01-.05-.02-.08-.05-.12-.05-.16-.03-.31-.04-.47-.07-.04,0-.09,0-.13-.02-.11-.02-.21-.04-.31-.07-.13-.03-.27-.07-.4-.1-.03,0-.07-.02-.11-.02-.04.08-.11.13-.11.23.06,0,.11.03.13.1.02.07.11.06.19,0,0-.03,0-.07.04-.09.03-.02.05,0,.05.06,0,.04-.02.07-.05.09-.04.03-.08.05-.12.08-.05-.01-.09-.05-.14-.04-.06.01-.1.01-.14,0-.08-.02-.16-.05-.24-.08-.05-.02-.08-.06-.13-.08-.11-.05-.2-.16-.34-.16,0,0,0,0-.01,0-.04-.03-.09-.06-.13-.09-.02-.01-.05-.02-.05-.05-.01-.08-.07-.1-.12-.11-.07-.02-.15-.04-.23-.04-.06,0-.13.01-.18-.01,0,0-.03.01-.05.03-.04.05-.07.05-.1.04-.06-.02-.12-.04-.17-.07-.04-.02-.08-.06-.12-.09,0,0-.02,0-.02-.01-.08-.01-.15-.06-.21-.12-.03-.03-.07-.06-.1-.09-.04-.02-.08-.02-.12-.04-.02-.01-.04-.03-.05-.06-.02-.07-.06-.1-.11-.13-.08-.04-.15-.08-.23-.12,0,0,0-.01-.01-.02-.05-.05-.09-.1-.14-.14-.03-.03-.06-.05-.1-.08-.1-.06-3.09-1.74-3.18-1.81-.09-.07-.19-.13-.31-.16-.06-.01-.1-.04-.15-.08-.04-.03-.06-.08-.09-.12-.04-.06-.08-.09-.17-.05-.02,0-.04.02-.05.01-.05-.01-.1-.03-.14-.05-.08-.04-.16-.09-.26-.1-.04,0-.08-.02-.11-.03-.07-.04-.14-.08-.21-.12-.06-.03-.11-.08-.19-.07-.02,0-.03-.01-.05-.02-.07-.05-.15-.1-.22-.14-.03-.02-.08,0-.1-.03-.04-.06-.1-.07-.15-.1-.11-.07-.21-.15-.33-.21-.06-.03-.09-.09-.16-.1-.02,0-.03-.02-.04-.03.01-.11.1-.08.12-.16-.04-.05-.09-.09-.13-.14-.01-.02-.02-.05-.04-.05-.07,0-.1-.08-.16-.09-.04-.01-.05-.06-.04-.12.02-.06,0-.12.01-.17,0-.03,0-.07.02-.1.02-.07.02-.13-.02-.14-.07-.02-.11-.08-.15-.15,0-.02-.02-.04.01-.09.05-.01.1-.02.15-.04,0-.01,0-.03-.02-.05-.03-.09-.09-.15-.15-.21-.13-.13-.26-.26-.38-.39-.02-.02-.05-.04-.04-.1,0,0,.02,0,.02,0,.05.07.14.09.19.16.07.08.16.14.25.2.03.03.08.04.13.03,0-.02,0-.03,0-.04,0-.02-.03-.04,0-.09.03-.04.05-.04.07-.02.02.01.04-.01.06-.03,0,0,0,0,.02,0,0,.02.02.03.03.05.03-.03.06-.05.08-.1-.02-.01-.04-.02-.05-.03,0-.04,0-.07,0-.11,0-.05.01-.09.04-.14.05-.09.1-.19.07-.27.04,0,.07-.02.11-.03,0-.08.02-.15.02-.21.02-.02.02-.02.03-.03.06-.08.13-.15.19-.12,0,0,.02-.01.03-.01.02,0,.04,0,.06,0,.05.02.1.04.15.06.02,0,.05,0,.08,0,.02-.05.01-.06,0-.07-.02,0-.06,0-.06-.03,0,0,0-.01.01-.01,0,0,.01-.01.02-.01.05.01.1,0,.16-.08.03-.03.08-.05.07-.02-.01.07.04.05.05.08,0,.03.03.02.06,0,.08-.05.15-.11.23-.17,0-.02,0-.05.01-.08.1,0,.18.04.32-.06-.05-.02-.08-.03-.12-.04.09-.03.15.01.26-.06.02-.04.08-.07.07-.14.04,0,.06,0,.1,0,0-.07-.03-.08-.05-.1-.04-.03-.09-.06-.13-.1-.03-.02-.04-.07-.07-.09-.08-.05-.17-.09-.26-.14-.04-.02-.04-.04-.01-.13.07-.03.14-.05.21-.08.01-.04.02-.06.03-.1.05.04.1.03.16,0-.02-.02-.05-.03-.07-.05-.02-.02-.03-.06-.01-.13.03.02.06.03.08.05.05.04.1.08.16.12.01,0,.02.02.03.03.06.06.12.12.21.14.06.01.11.03.15.08.05.06.11.08.16.12.01,0,.03,0,.04.01,0,0,0-.01.01-.02-.03-.03-.05-.06-.08-.08-.05-.03-.1-.06-.16-.09-.04-.02-.07-.05-.09-.1.02,0,.05-.02.06,0,.05.08.15.08.22.14.06.05.11.12.21.13.01,0,.02.02.03.03.04.04.09.07.15.08.02-.04.04-.07.06-.11,0,.03,0,.04,0,.06-.03.06,0,.08.01.09.05.04.12,0,.19-.04.01-.07-.02-.07-.04-.08-.03-.01-.05-.03-.04-.08-.02,0-.04.03-.05.02-.04-.02-.08-.05-.11-.08-.06-.07-.12-.15-.22-.17-.02,0-.02-.03-.04-.04-.02-.02-.02-.06-.07-.04,0,.02.02.03.02.05-.04-.02-.09-.02-.11-.07-.03-.05-.08-.07-.12-.1-.05-.04-.09-.1-.15-.11-.03,0-.04-.05-.07-.08.07-.07.13-.09.16-.05.01.01.02.04.03.03.08-.01.11.08.2.04,0,0,.01,0,.02,0,.05.04.1.09.15.13,0,0,.02,0,.03-.01,0-.03,0-.05,0-.06-.04-.06-.07-.12-.14-.13-.05,0-.08-.04-.12-.07,0,0-.01-.03-.02-.04.1.05.21.06.29.15,0,0,.01.03.02.02.06-.02.08.04.13,0,0,.03,0,.07.02.07.07,0,.09.06.14.09.06.04.15.02.18.1,0,0,.02,0,.03-.01,0-.02,0-.03,0-.04,0-.02-.05.02-.03-.04.01,0,.03-.01.04,0,.03.04.05.1.12.08.07.05.15.11.22.16.02.01.04.02.06.02.07,0,.11.03.16.07.03.03.07.06.1.09.02.01.04.02.06,0,.06-.04.11-.05.16-.05.04,0,.06.01.08.03.05.06.11.12.19.14.04,0,.07.03.09.07.02.04.04.06.08.06.04,0,.07.03.08.09,0,.02.01.05.02.06.04.06.09.09.18.05,0,.06.06.08,0,.17.02,0,.04,0,.05.01.04.02.1.03.12.08.03.09.09.14.14.19.04.04.1.05.16.08.03.01.05.03.08.04.01,0,2.91,1.66,2.93,1.66.07.01.13.04.14.15,0,.01,0,.02.01.03.04.03.07.05.11.07.02.01.05.02.07.03.03.02.07.06.1.08.06.04.14.06.19.12.09.1.21.12.31.2,0,0,0,0,.01,0,.11,0,.19.06.29.1.09.04.17.1.27.13.07.02.13.07.2.09.02,0,.05,0,.08,0,.02,0,.04,0,.05,0,.03,0,.07.02.1.03,0,0,.02.01.03.03-.07.02-.1-.01-.14-.03-.02,0-.04-.02-.06.02,0,0-.02,0-.02.01Zm-.58,2.71s.07.02.1.05c.07.06.13.11.22.12.05,0,.07.05.09.1.02.04.04.09.1.05.01,0,.03,0,.03.02,0,.06.04.05.08.04,0-.03,0-.06,0-.1.06,0,.1.02.13.04.06.03.11.08.16.11.02.01.06,0,.11-.02,0-.01-.01-.03-.02-.04-.06-.03-.13-.06-.2-.08-.07-.02-.14-.04-.21-.05,0,0-.01,0-.02,0-.07-.08-.17-.09-.27-.12-.01,0-.03,0-.03-.01-.04-.05-.11-.06-.16-.09-.06-.03-.13-.06-.21-.09.01.07.05.07.09.09Zm.81,1.63c-.06.06-.07-.02-.11.01.01.04.05.04.08.04.03,0,.05.01.08.02.05.02.09.05.14.08.01,0,.04,0,.05,0,.06-.07.12-.07.19-.11-.05-.03-.08-.06-.12-.07-.03,0-.07.03-.11.05,0,0-.02-.01-.02-.03,0-.06-.03-.06-.06-.07-.07-.01-.13-.02-.2-.03-.02,0-.04,0-.07.03.03.07.14,0,.17.08Zm-1.06-.26c.05-.06.09-.05.12-.04.06.02.12.04.19.06,0,.02,0,.04,0,.07.05.02.09.03.14.05.02-.04.04-.07.07-.11-.16-.07-.33-.13-.54-.13.01.04.02.07.03.1Zm.14-1.31c-.05-.04-.11-.08-.16-.12-.01,0-.02-.02-.02-.04.01-.1-.04-.09-.09-.11.02.02.05.04.03.1,0,.01,0,.02.01.03.05.04.1.07.14.11.02.02.04.03.05.05,0,0,.02.01.03.02,0,0,0-.02.01-.02,0,0,0-.02-.01-.02Zm.42,1.47c.1-.06.16-.01.25-.05-.03,0-.06,0-.08-.02-.03,0-.05-.02-.08-.03-.03,0-.06,0-.1-.01-.03.08.02.08.02.11Zm-6.34-7.58s0-.09-.02-.09c-.04,0-.03-.11-.1-.08.02.17.03.18.12.17Zm5.98,7.69c-.08-.04-.15-.06-.25-.06.08.03.15.07.25.06Zm-5.9-7.61s.02.07.07.02c0-.07-.06-.09-.16-.03.03,0,.06,0,.09,0Zm5.99,6.12s.09.05.14.07c0-.06-.06-.03-.08-.06-.02-.03-.04-.05-.07-.07,0,0,0,.01-.01.02,0,.01.01.04.02.04Zm-9.62-4.28s0-.11-.05-.09c.03.02-.03.13.05.09Zm3.61-2.48c.01-.08.01-.08-.07-.04.02.02.01.08.07.04Zm-1.48.04s-.05-.07-.12-.05c.02.07.09.02.12.05Zm1.16.39s.06,0,.09,0c-.01-.04-.04-.02-.09,0Zm-.58-.09c.01-.05,0-.06-.03-.06,0,0,0,.02-.01.02.01.01.02.02.04.03Zm8.14,6.62s-.01,0-.02,0c0,.01,0,.02,0,.03,0,0,.01,0,.03,0,0-.01,0-.03,0-.03Zm-7.43-6.89s-.02.01-.03.02c0,0,0,.01,0,.01,0,0,.01,0,.02,0,0-.01,0-.02,0-.02Zm7.42,7.03s0,0-.01,0c0,0,0,0,0,0,0,0,0,0,.01,0,0,0,0-.01,0-.01Zm-7.48-7.26s0,0,0,0c0,0,0,0,0-.01,0,0,0,0,0,0,0,0,0,0,0,.01Z"/><path class="v" d="m67.04,11.59c-.03-.1-.03-.13,0-.21t0,.21Z"/><path class="r" d="m64.05,14.93c-.06-.1-.05-.2-.04-.29-.04-.08-.08-.14-.1-.21-.07-.25-.14-.5-.21-.74-.02-.06-.03-.13-.05-.19.06-.13.11-.26.15-.4.18-.65.12-1.36-.23-2l-3.8-6.88c-.1-.19-.23-.36-.37-.51,0-.01,0-.02,0-.03,0-.03-.02-.06-.04-.08-.08-.13-.15-.26-.23-.39-.03-.05-.03-.12-.06-.16-.08-.08-.11-.18-.16-.27-.12-.19-.24-.38-.34-.58-.05-.1-.13-.17-.16-.28,0-.03-.03-.05-.04-.06-.12-.02-.07.12-.15.14-.07-.08-.13-.17-.2-.25-.02-.03-.06-.05-.07-.07-.02-.11-.12-.18-.15-.28-.02-.06-.08-.1-.15-.09-.07,0-.13-.02-.2-.04-.04,0-.08-.01-.12,0-.07.01-.15-.01-.17-.08-.04-.12-.12-.2-.21-.28-.02-.02-.05-.04-.1-.01,0,.07,0,.14,0,.22-.02-.01-.04-.03-.06-.04-.12-.07-.2-.18-.28-.29-.19-.24-.37-.48-.56-.71-.03-.04-.06-.08-.12-.1,0,.01,0,.02,0,.03.1.1.14.24.24.35.12.14.21.29.31.44.04.06.06.13.07.22-.02-.01-.04-.01-.04-.02-.03-.02-.05-.06-.1-.03-.04.03-.03.06,0,.1.02.03,0,.06-.02.09,0,0,0,.01,0,.03.02.02.04.04.07.06-.03.04-.04.08-.1.09-.02-.03-.03-.06-.05-.09-.04,0-.08-.02-.12-.03-.05-.01-.1,0-.15.02-.09.05-.19.1-.29.02,0,.06,0,.1,0,.16-.09-.01-.17-.02-.24-.03-.01.02-.02.03-.03.04-.08.07-.14.15-.09.26,0,.01,0,.03,0,.05,0,.03,0,.06.02.09.04.09.08.17.11.25.02.04.02.08.03.12-.05.02-.07,0-.08-.04-.01-.04-.01-.08-.06-.1,0,0-.01,0-.01.01,0,0,0,.02,0,.02.03.08.03.15-.05.21-.03.03-.03.1,0,.1.08,0,.07.07.11.1.04.02.03.06.02.09-.04.1-.09.2-.13.3-.03,0-.05,0-.09,0,.02.15.1.3.02.48-.03-.08-.05-.13-.08-.19-.01.13.06.24,0,.38-.03.03-.06.1-.14.06,0,.06.01.1.02.15-.08-.02-.1-.07-.13-.12-.05-.08-.1-.16-.16-.24-.04-.05-.09-.08-.12-.13-.08-.14-.16-.29-.23-.44-.03-.06-.06-.08-.15-.06-.01.1-.02.2-.03.29-.04,0-.07.01-.11.02.06.08.06.16.05.25-.03-.04-.05-.09-.08-.13-.03-.04-.08-.07-.16-.06.03.06.05.1.08.14.06.09.12.19.18.28.01.02.03.04.05.06.08.11.17.22.22.36.03.09.07.18.13.25.08.09.13.19.19.29.01.02.02.04.03.07,0,0-.01,0-.02.01-.04-.05-.08-.1-.12-.15-.05-.09-.1-.18-.15-.27-.03-.07-.08-.12-.14-.17,0,.03-.01.07,0,.09.11.11.14.26.22.39.08.11.17.22.2.36,0,.02.03.03.04.05.06.08.11.16.14.25-.04.02-.07.04-.11.06.03,0,.05.02.07.02.04-.02.07,0,.09.02-.01.1-.02.2-.01.3-.03-.02-.04-.05-.06-.08-.02-.05-.05-.09-.11-.09,0-.03.02-.06.01-.08-.04-.07-.08-.13-.13-.19-.1-.12-.21-.23-.26-.39,0-.03-.04-.04-.06-.07-.02-.03-.08-.05-.07-.12.03.02.04.04.06.05-.03-.07-.05-.14-.11-.2-.06-.06-.1-.14-.15-.22-.06-.09-.14-.16-.17-.27-.02-.05-.07-.08-.11-.13-.07.09-.07.17-.01.23.02.02.05.04.05.06,0,.12.13.2.11.32,0,0,0,.02.01.03.06.09.13.18.19.27,0,0,0,.02,0,.04-.03-.01-.06-.01-.07-.03-.08-.08-.16-.15-.19-.26-.02-.08-.07-.14-.11-.21-.01-.02-.03-.03-.05-.04.08.16.13.35.25.49.01.01.04.03.03.04-.01.08.07.13.04.21.03.02.08.03.08.05.02.1.1.16.14.25.06.1.06.23.17.31,0,0,0,.03,0,.04-.02,0-.04,0-.05,0-.02-.01,0-.07-.06-.06,0,.02,0,.04,0,.06.05.06.13.11.12.21.08.13.16.26.24.39.02.03.04.06.04.09.02.1.07.19.13.27.05.06.09.12.13.19.02.03.03.07.02.1-.03.08-.03.15-.02.23,0,.05.03.09.06.13.09.1.17.2.22.33.02.06.06.12.1.16.05.04.08.08.1.15.01.07.06.11.12.14.03.01.06.04.08.06.08.08.13.17.11.29.07.02.11.11.2.06.01.03.02.06.03.08.04.07.06.16.12.2.11.08.18.18.25.28.06.08.09.18.14.27.02.04.05.09.07.13.01.02.04.04.05.07.03.11.08.2.19.25l1.19,2.16c.03.06.06.12.09.18.05.12.11.23.17.34.02.04.02.08.03.12,0,.03,0,.05.01.08.02.05.04.11.06.16,0,.02.02.03.04.06,0-.1-.04-.16-.07-.22-.01-.03-.03-.06,0-.09,0,0,.02,0,.02.01l.08.15c-.03.08.01.14.05.2.03.04.06.08.08.13.05.17.13.33.21.49.04.07.06.15.1.21.03.05.08.08.1.13.02.05.01.11.03.17.02.09.05.17.08.26,0,.02,0,.04.02.05.06.06.09.14.12.22.02.05.05.08.08.13.03.04.06.08.08.12.05.1.09.2.14.3.03.07.07.13.09.2.04.09.09.16.16.23,0-.04.01-.09,0-.13-.09-.17-.12-.37-.25-.53-.01-.01-.01-.04-.02-.05-.03-.07-.06-.13-.09-.2-.04-.1-.08-.2-.11-.3,0-.02,0-.04,0-.08.13.05.13.18.2.27.07.08.11.18.13.31.06-.06.09-.03.11.01.04.09.08.18.13.27-.13,0-.12,0-.16-.09-.03-.08-.08-.15-.12-.22,0,0-.02,0-.05,0,.03.07.05.13.08.19.07.16.17.31.21.48.02.08.02.08.13.07.02-.05,0-.09-.04-.12-.04-.04-.08-.09-.11-.13,0-.01-.01-.03-.02-.06.11.04.17.09.21.17.03.07.06.14.13.19.02-.01.03-.02.04-.03.1.08.21.16.26.29.05-.02.07,0,.1.03,0,.01.03,0,.05.01,0-.06,0-.1-.01-.15,0-.02,0-.05,0-.07-.04-.13-.08-.25-.12-.38.04-.04.1.03.13-.03-.04-.08-.08-.15-.14-.25.07.08.09.2.22.2,0-.06.02-.12.03-.19.01,0,.02,0,.04,0,.06.08.12.14.14.24,0,.02.04.05.07.05.06,0,.08.04.1.08,0,.02.01.05.02.05.07.01.08.08.11.11.11.03.2.05.29.08.02,0,.05.03.06.05.01.07.08.09.12.13.02.03.06.02.1,0,0-.02,0-.04-.01-.05-.04-.05-.04-.12-.06-.19-.02-.09-.04-.19-.08-.28-.03-.08-.06-.15-.1-.23.25-.02.49-.08.73-.17.01.03.04.03.07,0,0,0,0-.02-.01-.03.02,0,.04-.02.07-.03,0,.02,0,.03.01.05.04.1.07.2.07.31,0,.01.02.02.03.04.03-.03.06-.06.09-.1.02.07.04.13.06.19.05-.02.1-.03.14-.05,0-.05,0-.08,0-.15.03.03.06.05.06.06,0,.07.04.11.11.14.09-.06.23-.08.25-.21.07.01.12.02.2.03-.03-.08-.04-.14-.07-.2-.01-.03,0-.06.02-.08.03.04.05.08.06.13,0,.06.05.08.12.06.02,0,.05-.02.06-.04.03-.06.07-.06.13-.05,0-.05.02-.1.02-.15,0-.05.02-.08.08-.1-.03.09.04.11.09.13q.03.17.14.28c.05-.06.03-.12,0-.16Zm-9.81-11.32c.08.05.05.14.1.2-.04-.05-.1-.1-.1-.2Zm.52,1.13s.02-.01.02-.02c.02.02.03.04.05.07-.06,0-.07-.02-.07-.06Zm-.32.91s-.01,0-.02-.01c0,0,0,0,0-.01,0,0,.01,0,.01.01,0,0,0,0,0,.01Zm.3.13s.02,0,.02.01c0,.01,0,.02,0,.03-.01,0-.02,0-.02,0,0-.01,0-.02.01-.04Zm-.1.18s.1.04.07.12c-.09,0-.09,0-.07-.12Zm1.94-4.65c-.05-.04-.13-.03-.12-.11.03.05.15,0,.12.11Zm6.69,13.39c-.01-.06-.03-.12-.05-.18-.02-.05-.02-.09,0-.16.02.05.03.07.04.1.03.11.07.22.1.33,0,.01,0,.03,0,.04-.05-.03-.08-.08-.09-.13Zm.24-.11s.01-.09.02-.16c0,0-.02-.03-.04-.03-.07-.01-.08-.07-.1-.12-.02-.08-.05-.15-.07-.23.01-.02.03-.04.05-.06.01.06.02.11.08.14.05-.07-.05-.11-.02-.17.05.03.06.09.07.14.01.04.03.09.05.13.04.08.09.15.13.23.01.02.02.06,0,.08-.07.07-.05.16-.07.26-.04-.08-.09-.14-.11-.21Z"/><path class="z" d="m59.32,14.29c.02.1.03.13.11.22q-.07-.2-.11-.22Z"/><path class="ab" d="m54.42,21.53c.07.08.1.09.21.12q-.16-.13-.21-.12Z"/><path class="t" d="m81.37,27.38c0,.27,0,.54,0,.79.02.04.05.06.06.09.02.07.05.07.09.08.07,0,.15.01.23.02-.02.04-.03.06-.04.09.02.05.05.03.08.03.03,0,.05-.01.08.04-.06.03-.12.07-.17.1.02.16.11.1.15.16.05-.1.08-.12.15-.11,0,.03,0,.06,0,.1.04,0,.07.02.1,0,.05-.05.1-.13.15-.2-.02-.1-.08-.14-.06-.26.03-.06.1-.06.09-.18.01,0,.03-.01.05-.02-.02-.02-.04-.04-.05-.05.04-.11.07-.1.11.04.07-.04.12.07.19.09-.05.06-.11.09-.16.12-.06.03-.06.03-.06.16,0,.02,0,.04,0,.06.02,0,.04.01.06,0,.06-.05.1,0,.14.06,0,.01.02.03.03.05.04-.03.09-.05.13.02.03-.09.08-.1.13-.1.05,0,.1,0,.15-.01.02.1.07.08.12.07.03,0,.06-.01.09-.02.02.01.04.02.06.03-.03.03-.07,0-.09.03.02.05.05.04.07.04.04,0,.07-.02.11-.03.3.13.64.2.99.2h9.69c.26,0,.52-.04.76-.11.03,0,.06,0,.09.01.12.03.23-.01.35,0,.02,0,.06,0,.07-.03.03-.06.06-.05.1-.06.12-.03.24-.05.35-.13.01,0,.03,0,.04,0,.03,0,.06,0,.09.02,0-.04-.01-.07-.02-.1.02-.04.04,0,.05.03.02.07.05.07.08.07.04,0,.07,0,.11,0,.05,0,.09-.01.13-.06.04-.04.09-.03.13-.06.05-.03.1-.07.12-.18,0-.03.03-.04.05-.06-.04-.11-.07-.22-.14-.26-.04-.02-.09,0-.13-.01-.07-.01-.14-.03-.21-.05.06-.08.12-.16.18-.25.02,0,.03,0,.05-.01,0-.1.02-.14.09-.14.04,0,.06-.02.07-.08.03,0,.05,0,.08-.02.02-.01.05-.03.07-.05,0-.02,0-.03,0-.05.04,0,.08-.02.11,0,.03.01.06.05.1.08.01-.08.01-.14-.02-.2.02-.03.04-.06.05-.08.05-.07.06-.15.02-.24,0-.02-.02-.04-.04-.06,0-.02.01-.04.02-.07-.02-.08-.06-.12-.1-.14-.03-.02-.07-.03-.1-.05.01-.1.02-.19.02-.29,0-.19-.02-.37-.06-.55.02-.04.04-.03.06-.04.08-.02.15-.03.23-.05.01,0,.02-.01.03-.02.04-.04.07-.08.1-.13-.02-.12-.07-.15-.13-.13-.05.01-.11,0-.16,0-.08,0-.17,0-.25,0-.01-.04-.02-.07-.04-.11,0,0,0,0,0,0,0-.05,0-.1-.01-.16.02-.04.04-.09.07-.15-.04-.15.06-.17.08-.28-.03-.15.02-.22.09-.3-.04-.11-.1-.16-.15-.18-.1-.05-.21-.04-.31,0-.01,0-.03.03-.04.04-.03.03-.06.02-.1-.04.03,0,.05,0,.08,0v-.02c-.07,0-.13,0-.2,0-.11,0-.23,0-.34,0,0,0-.02,0-.03,0-.01,0-.02,0-.03,0-.42-.3-.94-.48-1.5-.48h-9.69c-.41,0-.79.1-1.13.26-.08,0-.16.02-.25.05-.1.04-.2.04-.31.07-.11.03-.22.08-.32.14,0,0-.02.01-.03.03-.04.08-.09.13-.16.12-.02,0-.04.05-.05.09-.01.05,0,.09.02.12.03.04.06.08.09.12-.01.04-.05.05-.04.11,0,.02.01.03.02.05-.28.42-.45.93-.45,1.47,0,.28.04.55.13.81-.07.02-.13.03-.2.05,0,0-.02.01-.03.02,0,.03.01.06.02.09-.03.06-.06,0-.1,0,.01-.04.02-.06.03-.07,0-.06-.01-.11-.02-.18-.03.04-.05.09-.08.12-.03.03-.07.03-.11.04,0,.02.02.04.02.05,0,.07-.02.13-.02.2Zm15.23-.72s0-.02,0-.03c0,0,0,0,.01,0,0,.01,0,.02,0,.03,0,0,0,0-.01,0Zm-13.55,1.88s.01,0,.02,0c.01,0,.03.02.04.02-.02,0-.04,0-.06-.02Z"/><path class="aa" d="m74.5,15.1q.11-.11.14-.28s.11-.04.09-.13c.06.03.08.05.08.1,0,.04.01.09.02.15.06,0,.11,0,.13.05,0,.02.04.03.06.04.06.02.11,0,.12-.06,0-.05.03-.09.06-.13.03.02.04.04.02.08-.02.06-.04.12-.07.2.08-.01.13-.02.2-.03.02.13.15.15.25.21.06-.03.11-.07.11-.14,0-.02.03-.03.06-.06,0,.06,0,.1,0,.15.05.02.09.03.14.05.02-.06.04-.12.06-.19.04.04.06.06.09.1.01-.02.03-.03.03-.04,0-.11.02-.21.07-.31,0-.02,0-.03.01-.05.02,0,.04.02.07.03,0,0,0,.02-.01.03.03.02.06.02.07,0,.24.09.48.15.73.17-.03.08-.07.15-.1.23-.03.09-.06.18-.08.28-.01.06-.02.13-.06.19,0,.01,0,.03-.01.05.04.02.08.02.1,0,.04-.05.11-.06.12-.13,0-.02.03-.04.06-.05.09-.03.19-.05.29-.08.03-.03.03-.1.11-.11.01,0,.02-.03.02-.05.02-.04.03-.08.1-.08.02,0,.06-.03.07-.05.02-.09.08-.16.14-.24.01,0,.02,0,.04,0,.01.07.02.13.03.19.13,0,.14-.12.22-.2-.05.09-.09.17-.14.25.03.06.09-.02.13.03-.04.12-.08.25-.12.38,0,.02,0,.04,0,.07,0,.05,0,.09-.01.15.01,0,.04,0,.05-.01.02-.04.05-.06.1-.03.05-.13.16-.21.26-.29.02.01.03.02.04.03.07-.05.09-.12.13-.19.04-.08.11-.14.21-.17,0,.03-.01.05-.02.06-.04.04-.08.08-.11.13-.03.03-.06.07-.04.12.11.02.11.02.13-.07.05-.17.14-.32.21-.48.03-.06.05-.12.08-.19-.03,0-.04,0-.05,0-.04.07-.09.14-.12.22-.04.1-.03.1-.16.09.04-.09.08-.18.13-.27.02-.04.05-.07.11-.01.02-.13.06-.23.13-.31.07-.08.07-.22.2-.27,0,.03.01.06,0,.08-.03.1-.07.2-.11.3-.03.07-.06.13-.09.2,0,.02,0,.04-.02.05-.12.15-.15.36-.25.53-.02.03-.01.08,0,.13.07-.07.12-.15.16-.23.03-.07.06-.13.09-.2.05-.1.09-.2.14-.3.02-.04.06-.08.08-.12.03-.04.06-.08.08-.13.03-.08.06-.16.12-.22.01-.01.01-.04.02-.05.03-.09.06-.17.08-.26.01-.05,0-.12.03-.17.02-.05.08-.08.1-.13.04-.07.07-.14.1-.21.08-.16.16-.32.21-.49.01-.05.05-.09.08-.13.04-.06.09-.12.05-.2l.08-.15s.02,0,.02-.01c.03.03.01.06,0,.09-.03.07-.07.13-.07.22.02-.03.04-.04.04-.06.02-.05.05-.11.06-.16,0-.02,0-.05.01-.08,0-.04,0-.08.03-.12.05-.11.12-.22.17-.34.03-.06.06-.12.09-.18l1.19-2.16c.11-.05.16-.14.19-.25,0-.02.03-.04.05-.07.02-.04.05-.09.07-.13.05-.09.08-.19.14-.27.07-.1.15-.2.25-.28.06-.04.08-.13.12-.2.01-.02.02-.05.03-.08.09.05.13-.04.2-.06-.01-.12.03-.21.11-.29.02-.02.05-.04.08-.06.06-.03.11-.08.12-.14.01-.06.05-.11.1-.15.05-.04.08-.1.1-.16.04-.13.13-.23.22-.33.03-.04.05-.07.06-.13.01-.08.02-.15-.02-.23-.01-.03,0-.07.02-.1.04-.07.09-.13.13-.19.06-.08.12-.16.13-.27,0-.03.02-.07.04-.09.08-.13.16-.26.24-.39,0-.1.07-.15.12-.21,0-.01,0-.04,0-.06-.06-.01-.03.04-.06.06-.01,0-.03,0-.05,0,0-.01-.01-.04,0-.04.1-.08.11-.21.17-.31.05-.08.13-.14.14-.25,0-.02.05-.03.08-.05-.03-.08.05-.13.04-.21,0-.01.02-.03.03-.04.12-.14.17-.32.25-.49-.02.01-.04.02-.05.04-.04.07-.09.13-.11.21-.03.11-.11.19-.19.26-.02.01-.04.02-.07.03,0-.02-.01-.03,0-.04.06-.09.13-.18.19-.27,0,0,.02-.02.01-.03-.02-.13.1-.21.11-.32,0-.02.03-.04.05-.06.05-.06.05-.14-.01-.23-.04.04-.09.08-.11.13-.04.1-.11.18-.17.27-.05.07-.08.16-.15.22-.06.06-.08.13-.11.2.02-.02.04-.03.06-.05.01.06-.04.08-.07.12-.02.02-.05.04-.06.07-.04.16-.16.27-.26.39-.05.06-.09.13-.13.19,0,.02,0,.05.01.08-.05,0-.08.04-.11.09-.01.03-.02.07-.06.08,0-.1,0-.2-.01-.3.02-.02.05-.03.09-.02.01,0,.03,0,.07-.02-.05-.03-.08-.04-.11-.06.03-.09.08-.18.14-.25.01-.02.04-.03.04-.05.03-.14.13-.25.2-.36.08-.12.11-.28.22-.39.02-.02.01-.06,0-.09-.06.05-.11.1-.14.17-.05.09-.1.18-.15.27-.03.05-.08.1-.12.15,0,0-.01,0-.02-.01,0-.02.01-.05.03-.07.06-.1.11-.2.19-.29.06-.07.1-.16.13-.25.05-.14.13-.25.22-.36.02-.02.03-.04.05-.06.06-.09.12-.18.18-.28.03-.04.05-.08.08-.14-.08,0-.13.02-.16.06-.03.04-.05.09-.08.13-.02-.09,0-.17.05-.25-.04,0-.07-.01-.11-.02-.01-.1-.02-.19-.03-.29-.09-.02-.12,0-.15.06-.07.15-.15.3-.23.44-.03.05-.09.09-.12.13-.06.08-.1.16-.16.24-.03.05-.06.1-.13.12,0-.05.01-.1.02-.15-.08.04-.11-.03-.14-.06-.05-.13.02-.25,0-.38-.02.06-.04.11-.08.19-.08-.18,0-.32.02-.48-.04,0-.06,0-.09,0-.04-.1-.09-.2-.13-.3-.01-.03-.02-.07.02-.09.04-.03.03-.09.11-.1.03,0,.03-.07,0-.1-.08-.07-.07-.14-.05-.21,0,0,0-.01,0-.02,0,0,0,0-.01-.01-.04.02-.04.06-.06.1,0,.03-.03.05-.08.04,0-.04.01-.08.03-.12.03-.09.07-.17.11-.25.01-.03.02-.06.02-.09,0-.01,0-.03,0-.05.05-.11,0-.18-.09-.26,0,0-.02-.02-.03-.04-.07.01-.15.02-.24.03,0-.05,0-.1,0-.16-.1.08-.19.03-.29-.02-.05-.03-.1-.03-.15-.02-.04,0-.08.02-.12.03-.01.03-.03.06-.05.09-.05,0-.07-.05-.1-.09.02-.02.05-.04.07-.06,0-.01,0-.02,0-.03-.01-.03-.04-.05-.02-.09.02-.03.03-.07,0-.1-.05-.04-.07,0-.1.03,0,0-.02,0-.04.02,0-.09.03-.15.07-.22.1-.15.19-.31.31-.44.09-.11.14-.24.24-.35,0,0,0-.01,0-.03-.06.01-.09.06-.12.1-.19.24-.37.48-.56.71-.08.1-.16.21-.28.29-.02.01-.04.03-.06.04,0-.08,0-.15,0-.22-.05-.03-.07,0-.1.01-.09.08-.18.16-.21.28-.02.07-.1.09-.17.08-.04,0-.08,0-.12,0-.06.02-.12.04-.2.04-.07,0-.13.03-.15.09-.04.1-.13.17-.15.28,0,.03-.05.05-.07.07-.07.08-.13.16-.2.25-.08-.02-.03-.16-.15-.14-.01.02-.04.04-.04.06-.03.1-.11.18-.16.28-.1.2-.22.39-.34.58-.05.09-.08.19-.16.27-.04.04-.04.11-.06.16-.07.13-.15.26-.23.39-.02.03-.04.05-.04.08,0,.01,0,.02,0,.03-.14.15-.26.32-.37.51l-3.8,6.88c-.35.63-.41,1.35-.23,2,.04.14.09.27.15.4-.02.06-.04.13-.05.19-.07.25-.14.5-.21.74-.02.06-.06.12-.1.21.01.08.02.19-.04.29-.03.05-.05.11,0,.16Zm9.72-11.28c.04-.05.01-.14.1-.2,0,.09-.05.14-.1.2Zm-.5.99s.03-.05.05-.07c0,0,.02.01.02.02,0,.03-.02.06-.07.06Zm.39.84s0,0,.01-.01c0,0,0,0,0,.01,0,0-.01,0-.02.01,0,0,0,0,0-.01Zm-.28.18s-.01,0-.02,0c0-.01,0-.02,0-.03,0,0,.01,0,.02-.01,0,.01,0,.02.01.04Zm.02.26c-.03-.07.04-.08.07-.12.02.11.02.11-.07.12Zm-1.75-4.88c0,.09-.07.08-.12.11-.02-.12.09-.07.12-.11Zm-6.9,13.63s-.01-.03,0-.04c.03-.11.07-.22.1-.33,0-.03.02-.05.04-.1.03.07.03.11,0,.16-.02.06-.04.12-.05.18-.01.06-.04.11-.09.13Zm-.27-.03c-.02-.09,0-.18-.07-.26-.01-.01,0-.05,0-.08.04-.08.09-.15.13-.23.02-.04.04-.08.05-.13.01-.05.03-.1.07-.14.03.06-.07.1-.02.17.06-.03.07-.09.08-.14.01.02.03.04.05.06-.02.08-.05.15-.07.23-.02.05-.03.1-.1.12-.02,0-.03.03-.04.03,0,.06.03.12.02.16-.02.07-.07.13-.11.21Z"/><path class="x" d="m79.95,14.29c-.02.1-.03.13-.11.22q.07-.2.11-.22Z"/><path class="y" d="m76.55,29.66c-.03-.51.04-.74.17-.93.13-.19.33-.31.43-.57-.12-.63-.14.46-.36.11.27-.91-.32-.74-.23-1.84.16-.13.16.27.29.37-.2-.38-.31-.92-.47-1.51-.17-.58-.39-1.2-.71-1.69-.22-.64-.67-1.36-1.23-2.04-.56-.68-1.28-1.27-1.96-1.77l-.08.09c-.5-.58-1.32-.56-2.06-.85l.35.25c-.54.06-.8-.08-1.29-.05l-.25-.35c-.54.09-.24.26-.62.44-.48-.21-1.46.12-1.66.18-.18-.11.14-.25.2-.36-.58.26-.46.52-1.16.78l-.04-.08c-.75.53-1.56,1.09-2.25,1.8-.7.7-1.29,1.54-1.58,2.44.07-.11.12-.04.2-.05-.4.87-.67,1.87-.63,2.83.02.96.34,1.84.9,2.37-.16-.43-.15-1.05-.11-1.65.06-.6.1-1.18-.05-1.7.29-.27.17-.88.53-.88.32-.56.47-.99.64-1.44.17-.45.38-.9.88-1.34.11-.04.16,0,.22.07,0,0-.02-.02-.02-.03.35-.57.85-.93,1.39-1.19.55-.25,1.13-.42,1.79-.57.33-.1.8-.07.85.08-.22.06-.05.19-.22.27.45-.15.03-.59.73-.5l-.11.54c.14-.28.35-.26.57-.16.23.09.45.2.72.11.11.26-.21.28-.56.26.37.15.47-.13.79-.05,0,0-.1.09-.21.19-.09.08-.17.17-.19.19.32-.27.47.01.57.25-1.58-.54-3.33-.43-4.83.36.13-.11.25-.22.34-.34-.35.07-.7.36-1.05.57-.18.02-.43.12-.54.03.03.04.07.1.13.13-.03,0-.61.74-.61.78,0,0,.11-.09.25-.17.13-.07.26-.15.26-.15,0,0,0,.02-.01.03-.09.08-.17.15-.26.24-1.68,1.69-2.18,4.12-1.52,6.25.46-.06.91-.15,1.31-.36v.09c.39,0,.36-.32.67-.43-.04.09-.22.15-.14.3.11.02.61-.18.86.03.19-.17.04-.34.3-.45l.14.33c.24-.08.38.04.64-.16l-.19-.17c.39.13.75-.14,1.09.15l.02-.11c.81.28,1.82.37,2.51.59.6-.06,1.36.13,1.76-.19-.06.12-.26.06-.21.24.57.21.49-.42.95-.18.16-.24-.37-.2-.07-.36.26.19.29.68.79.35,0-.25-.28-.07-.02-.31.25.73,1.25.93,1.52,1.25l-.02-.32c.33-.04.56.37.74.31.25-.2.59-.06.9-.01.16-.14.31-.26.47-.32-.11-.56-.08.04-.31-.04Zm-5.13-7.69c-.19-.09-.38-.18-.58-.25.03-.14.09-.29.36-.17.14.13,0,.2.02.28.07-.1.29-.22.55-.12-.03.15-.26.13-.35.26Zm.83.49c-.09-.06-.17-.12-.26-.17.08-.05,0-.2.19-.22.17.18.15.29.06.39Z"/><path class="w" d="m63.8,23.6l-.07.31s.26-.39.27-.38c0,0-.2.07-.2.07Z"/><path class="ah" d="m16.82,68.27h-1.92c-.51,0-.92-.42-.92-.93s.42-.93.92-.93h5.84c.51,0,.92.42.92.93s-.42.93-.92.93h-1.92v6.37c0,.56-.44,1.01-1,1.01s-1-.45-1-1.01v-6.37Z"/><path class="ah" d="m22.96,67.34c0-.56.44-1.01,1-1.01s1,.44,1,1.01v7.3c0,.56-.44,1.01-1,1.01s-1-.45-1-1.01v-7.3Z"/><path class="ah" d="m27.4,74.56v-7.15c0-.56.44-1.01,1-1.01h5.04c.49,0,.9.41.9.9s-.4.89-.9.89h-4.05v1.86h2.96c.49,0,.9.41.9.9s-.4.89-.9.89h-2.96v1.92h4.12c.49,0,.9.41.9.9s-.4.89-.9.89h-5.1c-.56,0-1-.44-1-1.01Z"/><path class="ah" d="m36.1,67.36c0-.56.44-1.01,1-1.01h.21c.48,0,.77.24,1.04.59l3.86,5.1v-4.72c0-.55.44-.99.99-.99s.99.44.99.99v7.29c0,.56-.44,1.01-1,1.01h-.06c-.48,0-.77-.24-1.04-.59l-4-5.29v4.91c0,.55-.44.99-.99.99s-.99-.45-.99-.99v-7.29Z"/><path class="ah" d="m46.36,67.42c0-.56.44-1.01,1-1.01h2.54c2.86,0,4.83,1.98,4.83,4.56v.03c0,2.58-1.97,4.58-4.83,4.58h-2.54c-.56,0-1-.45-1-1.01v-7.15Zm3.54,6.34c1.64,0,2.74-1.11,2.74-2.74v-.03c0-1.62-1.1-2.76-2.74-2.76h-1.54v5.52h1.54Z"/><path class="ah" d="m55.44,74.28l3.17-7.21c.22-.5.62-.8,1.17-.8h.12c.55,0,.93.3,1.16.8l3.17,7.21c.07.14.1.27.1.41,0,.54-.42.97-.95.97-.47,0-.78-.27-.96-.69l-.61-1.44h-4s-.64,1.51-.64,1.51c-.17.39-.51.63-.92.63-.52,0-.92-.42-.92-.94,0-.14.05-.29.12-.43Zm5.62-2.54l-1.26-3.02-1.26,3.02h2.52Z"/><path class="af" d="m80.08,67.58c-.72-.55-1.66-.86-2.65-.86s-1.93.3-2.65.86c-.87.67-1.35,1.66-1.35,2.79v4c0,.7.56,1.26,1.25,1.26s1.25-.56,1.25-1.26v-4c0-1.1,1.35-1.13,1.5-1.13s1.5.03,1.5,1.13v4c0,.7.56,1.26,1.25,1.26s1.25-.56,1.25-1.26v-4c0-1.13-.48-2.12-1.35-2.79Z"/><path class="af" d="m96.96,73.16c-.45-.04-.62-.2-.71-.31-.27-.32-.29-.99-.29-1.44,0-.22,0-5,0-5,0-.69-.55-1.25-1.24-1.25s-1.24.56-1.24,1.25v4.81s-.08,2.03.82,3.17c.58.73,1.42,1.17,2.45,1.25.04,0,.07,0,.1,0,.64,0,1.18-.49,1.23-1.14.06-.69-.45-1.29-1.13-1.35Z"/><path class="af" d="m70.3,68.01c-.68,0-1.24.56-1.24,1.25v5.16c0,.69.55,1.25,1.24,1.25s1.24-.56,1.24-1.25v-5.16c0-.69-.55-1.25-1.24-1.25Z"/><path class="af" d="m70.3,68.01c-.68,0-1.24.56-1.24,1.25v5.16c0,.69.55,1.25,1.24,1.25s1.24-.56,1.24-1.25v-5.16c0-.69-.55-1.25-1.24-1.25Z"/><path class="af" d="m70.3,63.59c-.86,0-1.56.71-1.56,1.58s.7,1.58,1.56,1.58,1.56-.71,1.56-1.58-.7-1.58-1.56-1.58Z"/><path class="af" d="m124.62,71.13c0-2.53-2.03-4.57-4.54-4.57s-4.54,2.05-4.54,4.57c0,2.53,2.03,4.57,4.54,4.57,1,0,1.92-.33,2.67-.87,0,.52.42.94.93.94s.94-.42.94-.94v-3.7Zm-4.54,2.25c-1.23,0-2.23-1.01-2.23-2.25s1-2.25,2.23-2.25,2.23,1.01,2.23,2.25c0,1.24-1,2.25-2.23,2.25Z"/><path class="af" d="m102.4,72.01c.46.46,1.2.46,1.66,0l2.35-2.37c.45-.46.46-1.2.01-1.66-.86-.9-2.02-1.39-3.26-1.39-2.51,0-4.55,2.06-4.55,4.59s2.04,4.59,4.55,4.59c.01,0,.02,0,.04,0,1.21,0,2.36-.48,3.22-1.34.46-.46.46-1.21,0-1.68-.46-.46-1.2-.46-1.66,0-.42.42-.97.65-1.55.65h-.02s-.02,0-.04,0c-1.2-.01-2.17-1-2.17-2.22,0-1.22.99-2.22,2.2-2.22.18,0,.37.02.54.07l-1.3,1.31c-.46.46-.46,1.21,0,1.68Z"/><path class="af" d="m111.85,70.1c-.4-.23-1.07-.6-1.23-.82.01-.24.09-.34.41-.34h1.98c.64,0,1.16-.52,1.16-1.17s-.52-1.17-1.16-1.17h-1.98c-1.6,0-2.72,1.13-2.72,2.75v.02c.02,1.42,1.35,2.17,2.42,2.77.39.22,1.03.58,1.2.8-.01.24-.09.34-.4.34h-2.04c-.64,0-1.16.52-1.16,1.17s.52,1.17,1.16,1.17h2.04c1.6,0,2.72-1.13,2.72-2.75,0-1.42-1.33-2.16-2.39-2.76Z"/><path class="af" d="m91.94,71.21c0-2.52-2.03-4.57-4.53-4.57-2.5,0-4.53,2.05-4.53,4.57,0,2.52,2.03,4.57,4.53,4.57.74,0,1.45-.18,2.07-.5v.06s0,.03,0,.05c0,.02,0,.04,0,.05,0,1.15-.93,2.08-2.07,2.08-.68,0-1.23.56-1.23,1.24s.55,1.24,1.23,1.24c2.5,0,4.53-2.05,4.53-4.57,0-.02,0-.03,0-.05,0-.02,0-.03,0-.05v-4.12Zm-4.53,2.18c-1.19,0-2.16-.98-2.16-2.18,0-1.2.97-2.18,2.16-2.18s2.16.98,2.16,2.18-.97,2.18-2.16,2.18Z"/></g></svg>