<?xml version="1.0" encoding="UTF-8"?><svg id="b" xmlns="http://www.w3.org/2000/svg" xmlns:xlink="http://www.w3.org/1999/xlink" viewBox="0 0 55.9 30.04"><defs><style>.o{fill:url(#j);}.p{fill:url(#g);}.q{fill:url(#m);}.r{fill:url(#h);}.s{fill:url(#i);}.t{fill:url(#k);}.u{fill:url(#n);}.v{fill:url(#l);}.w{fill:url(#f);}.x{fill:url(#d);}.y{fill:url(#e);}</style><linearGradient id="d" x1="7.82" y1="-2.68" x2="7.82" y2="53.29" gradientUnits="userSpaceOnUse"><stop offset="0" stop-color="#e3a955"/><stop offset="1" stop-color="#c3243f"/></linearGradient><linearGradient id="e" x1="28.59" y1="-2.68" x2="28.59" y2="53.29" xlink:href="#d"/><linearGradient id="f" x1="44.96" y1="-2.68" x2="44.96" y2="53.29" xlink:href="#d"/><linearGradient id="g" x1="10.85" y1="-2.68" x2="10.85" y2="53.29" xlink:href="#d"/><linearGradient id="h" x1="17.76" y1="-2.68" x2="17.76" y2="53.29" xlink:href="#d"/><linearGradient id="i" x1="18.27" y1="-2.68" x2="18.27" y2="53.29" xlink:href="#d"/><linearGradient id="j" x1="13.42" y1="-2.69" x2="13.42" y2="53.29" xlink:href="#d"/><linearGradient id="k" x1="48.08" x2="48.08" xlink:href="#d"/><linearGradient id="l" x1="38.57" y1="-1.91" x2="38.57" y2="51.72" xlink:href="#d"/><linearGradient id="m" x1="28.27" y1="-2.68" x2="28.27" y2="53.29" xlink:href="#d"/><linearGradient id="n" x1="22.75" y1="-2.68" x2="22.75" y2="53.29" xlink:href="#d"/></defs><g id="c"><path class="x" d="m15.62,27.18s.01-.03.02-.05c-.04-.01-.08-.02-.11-.04-.03-.02-.06-.08-.08-.12,0,.07-.01.12-.02.18,0,.01.01.04.03.07-.04,0-.07.07-.1,0,0-.03.01-.06.02-.09-.01-.01-.02-.02-.03-.02-.07-.02-.13-.03-.2-.05.08-.25.13-.52.13-.81,0-.55-.17-1.05-.45-1.47,0-.01.02-.03.02-.05.01-.06-.03-.06-.04-.11.03-.04.06-.08.09-.12.02-.03.04-.08.02-.12-.01-.04-.04-.09-.05-.09-.06,0-.11-.04-.16-.12,0-.01-.02-.02-.03-.03-.11-.06-.21-.12-.32-.14-.1-.02-.21-.03-.31-.07-.08-.03-.16-.04-.25-.05-.34-.17-.73-.26-1.13-.26H2.97c-.56,0-1.08.18-1.5.48-.01,0-.02,0-.03,0,0,0-.02,0-.03,0-.11,0-.23,0-.34,0-.07,0-.13,0-.2,0v.02s.05,0,.08,0c-.05.05-.07.06-.1.04-.01-.01-.02-.03-.04-.04-.1-.04-.21-.05-.31,0-.05.03-.11.08-.15.18.07.07.13.15.09.3.03.11.12.13.08.28.03.06.05.1.07.15,0,.06-.01.12-.01.16,0,0,0,0,0,0-.01.03-.03.07-.04.11-.08,0-.17,0-.25,0-.05,0-.11.01-.16,0-.06-.01-.1.02-.13.13.04.04.07.09.1.13.01.01.02.02.03.02.08.02.15.03.23.05.02,0,.05,0,.06.04-.04.18-.06.36-.06.55,0,.1,0,.19.02.29-.03.02-.07.03-.1.05-.04.02-.08.06-.1.14,0,.02.01.05.02.07-.02.02-.03.04-.04.06-.04.09-.04.17.02.24.02.02.03.05.05.08-.03.06-.03.12-.02.2.04-.03.07-.07.1-.08.04-.01.08,0,.11,0,0,.01,0,.03,0,.05.02.02.05.04.07.05.02.01.05.01.08.02,0,.07.03.08.07.08.06,0,.08.03.09.14.02,0,.03,0,.05.01.05.09.11.17.18.25-.07.02-.14.03-.21.05-.04,0-.09,0-.13.01-.07.04-.11.15-.14.26.02.02.05.03.05.06.02.11.07.15.12.18.04.03.09.02.13.06.04.04.09.05.13.06.04,0,.07,0,.11,0,.03,0,.06,0,.08-.07,0-.03.03-.06.05-.03,0,.03-.01.06-.02.1.04,0,.07-.01.09-.02.01,0,.03,0,.04,0,.11.07.23.1.35.13.03,0,.07,0,.1.06.01.03.05.03.07.03.12-.01.23.03.35,0,.03,0,.06-.01.09-.01.24.07.49.11.76.11h9.69c.35,0,.68-.07.99-.2.04,0,.07.02.11.03.03,0,.05.02.07-.04-.03-.03-.06,0-.09-.03.02-.01.04-.02.06-.03.03,0,.06.01.09.02.05.01.1.03.12-.07.06,0,.1,0,.15.01.05,0,.1.01.13.1.04-.07.09-.05.13-.02.01-.02.02-.03.03-.05.04-.07.08-.11.14-.06.02.01.04,0,.06,0,0-.03,0-.05,0-.06,0-.13,0-.13-.06-.16-.05-.03-.11-.05-.16-.12.07-.02.12-.13.19-.09.04-.15.07-.15.11-.04-.02.02-.03.03-.05.05.02.01.04.02.05.02,0,.13.06.13.09.18.03.11-.04.16-.06.26.05.07.09.14.15.2.03.03.07,0,.1,0,0-.05,0-.08,0-.1.07-.02.11.01.15.11.05-.06.13,0,.15-.16-.06-.03-.12-.07-.17-.1.02-.06.05-.05.08-.04.03,0,.06.02.08-.03-.01-.03-.02-.06-.04-.09.08,0,.16-.02.23-.02.04,0,.07,0,.09-.08.01-.04.04-.06.06-.09,0-.26,0-.53,0-.79,0-.06-.01-.13-.02-.2Zm-15.23-.51s0-.02,0-.03c0,0,0,0,.01,0,0,.01,0,.02,0,.03,0,0,0,0-.01,0Zm13.51,1.89s.03-.02.04-.02c0,0,.01,0,.02,0-.02.02-.04.02-.06.02Z"/><path class="y" d="m26.14,11.62s-.04.03-.05.05c0,.04.03-.1.03-.12,0-.07,0-.15.02-.22.02-.1.01-.2.02-.3.01-.1,0-.2.06-.3,0,0,0,0,0-.01-.01-.12.03-.25-.01-.37-.02-.07,0-.15,0-.22,0-.04-.01-.09-.02-.13,0-.02,0-.05,0-.07,0-.04,0-.09,0-.13,0,0,0-.02-.02-.03-.09-.06-.09-.13-.06-.2,0-.01.03-3.37.03-3.39,0-.03,0-.06,0-.09,0-.06.02-.12.01-.18-.01-.07-.03-.15-.09-.22-.03-.04,0-.09,0-.14,0-.02,0-.03.01-.05-.11,0-.09-.06-.15-.09.07-.06.07-.12.04-.18,0-.02-.02-.04-.04-.05-.04-.03-.06-.07-.04-.11.02-.04,0-.07-.01-.1-.02-.03-.02-.08-.01-.11.02-.08,0-.16-.03-.23,0-.03,0-.05,0-.08.03-.04.05-.08.12-.11.02-.01.03-.04.03-.06,0-.05-.01-.09-.02-.14-.01-.06-.02-.12.01-.17.01-.02.01-.04,0-.06,0-.09-.02-.18-.02-.27.05-.05,0-.1,0-.14,0,0,.01-.02.02-.03.06.01,0,.03.02.05,0,0,.03.01.04.02,0,0,.03-.02.03-.02-.05-.07,0-.14,0-.21,0-.06-.04-.11,0-.17,0-.01-.03-.03-.05-.05.06-.03.01-.08.06-.12,0,0,0-.02,0-.03-.04-.11,0-.21.02-.32,0,.01.03.02.03.03,0,.05.02.1,0,.14-.03.07,0,.13.04.19,0,.01.03.02.05.04.01,0,.02-.01.02-.02-.01-.06-.02-.13-.04-.19,0,0,0-.02,0-.02.08-.06.01-.13.06-.2,0-.01,0-.03-.01-.05-.02-.05.02-.09.12-.11.01.03.04.07.03.1-.02.06.01.13.02.19,0,.05,0,.11.02.15.02.05,0,.09,0,.13,0-.01-.02-.03-.03-.04-.04.03,0,.05,0,.08,0,.02.02.04.02.05-.04.09,0,.18.03.28.01.04.02.09.02.14,0,.01-.03.02-.05.04.05.01.05.04.05.08,0,.03-.02.06.05.08.07-.04.14-.08.13-.14,0-.03,0-.05-.07-.06-.01,0-.02-.01-.05-.03.05,0,.09,0,.13,0,.02-.06.01-.11,0-.17,0-.01-.02-.03-.01-.04.04-.08,0-.16,0-.24-.01-.09.04-.18,0-.26,0-.01.02-.03.04-.05.03.04.05.08.04.13,0,.06,0,.12,0,.18,0,.04.02.07.03.11,0,0,.02,0,.02,0,0-.01.01-.03,0-.04,0-.07,0-.14-.02-.2-.02-.05,0-.11,0-.17.03-.08,0-.17-.01-.25,0-.02,0-.03-.01-.05,0-.07-.02-.13-.03-.2,0-.03,0-.06,0-.1.07.02.1.05.11.08,0,.03,0,.06.01.09.06-.04.09-.08.08-.14.04,0,.07.01.11.02.06-.05.11-.09.17-.14.09.01.11.03.1.07,0,.1-.01.19-.01.29,0,.04.04.07.04.11.01.06.01.11.02.17,0,.03,0,.07.06.1.02-.03.03-.05.05-.08.05.04.11.02.15.01.11-.05.11-.13.18-.19,0,.03-.01.07-.02.12.16-.07.16-.17.22-.25.03.01.05.02.07.03.09-.04.17-.08.26-.12.03-.01.05-.03.03-.05-.02-.02.02-.06-.05-.08-.03,0,0-.05.05-.05.1-.01.13-.05.15-.1,0,0,.01,0,.02,0,0,0,0,0,.02,0,.03.02,0,.05,0,.07,0,.02,0,.04.05.04.01-.02.03-.05.03-.07.01-.05.02-.11.03-.16,0-.02.02-.04.03-.05,0,0,.03-.02.03-.02,0-.07.09-.09.2-.11.01,0,.02,0,.04-.01.06.03.12.06.2.09.03-.03.05-.05.08-.08.05.07.15.07.26.07.06,0,.1.01.14.03.03.02.06.03.09.05v.06c.05.01.09,0,.13-.02-.01-.02-.02-.03-.03-.05,0,0,0-.01,0-.01.03-.01.06-.02.06-.04,0-.02,0-.04.05-.05.06,0,.06.02.08.04,0,0,.01.01.03.02.04-.05.05-.09.04-.13-.01-.11-.02-.21-.05-.32-.03-.08,0-.17-.04-.25,0,0,0,0,.01-.02.05.02.05.06.06.08.05.18.1.35.15.53.02.08.04.16.1.23.01.01.02.03.03.04.04-.04.07-.08.11-.11.06,0,.07.02.08.03.04.07.08.13.05.2-.01.04.04.07.11.09.04,0,.07.02.1.04.05.03.09.06.15.08.06.02.1.05.09.09-.02.06.03.12,0,.19,0,.02.02.04.02.06.02.06.04.12.06.19.08.02.1-.07.2-.03,0,.01.01.03,0,.05-.02.06.01.13,0,.19,0,.13,0,.26.02.39,0,.06-.02.12.01.18.01.03-.02.07-.02.1,0,.09,0,.18,0,.27,0,.02,0,.04,0,.05-.05.07-.04.13-.04.2,0,.08,0,.16,0,.24,0,.04,0,.08-.03.11-.04.09-.04.18-.04.28,0,.05-.02.1-.03.15,0,.01-.02.03-.03.04-.08.05-.08.11-.04.17.02.05.05.09.06.14,0,.06,0,.11,0,.17-.03.12-.03.23-.01.35.01.11-.03,3.57-.03,3.68,0,.04,0,.08.02.12.01.07.03.13.05.19,0,0,0,.01,0,.02,0,.09-.01.17-.01.26,0,.05,0,.11.06.16.02.02.03.05.03.07,0,.04-.03.08-.03.13,0,.04.01.09.02.13.02.08.03.16,0,.24,0,0,0,.02,0,.03,0,.05.02.1.02.15,0,.06-.01.13-.02.19,0,.03-.02.06-.09.07-.02,0-.04.02-.05.03,0,.06-.05.11-.08.17-.04.07-.06.15-.08.22-.01.05-.03.11.04.16.02.02.01.04.02.07,0,.05,0,.1,0,.16,0,0,0,0,0,.01-.07.12-.02.25-.03.38,0,.05.01.1,0,.15-.01.08-.03.17-.05.25-.01.04-.03.09-.07.13-.04.04-.03.1-.04.15-.04.02-.08.04-.13.06-.04.02-.07.02-.11,0-.04-.02-.05-.06-.02-.07.05-.02.07,0,.1.02.09-.04.15-.12.1-.17-.05-.06-.05-.11-.02-.17-.08-.05-.16,0-.25-.02-.01.04-.02.07-.03.11-.04.13-.07.27-.11.4-.03.1-.06.21-.1.31-.01.04-.03.08-.05.13-.06.15-.12.3-.18.44-.01.04,0,.08-.01.13-.05.04-.11.09-.11.16,0,.03,0,.07-.08.08q-.04-.09.01-.19s-.08-.05-.01-.09c-.07,0-.1,0-.12.03-.02.02-.05.04-.09.07-.05-.02-.09-.03-.14-.01-.02,0-.05,0-.07,0-.07,0-.1-.03-.07-.06.02-.03.02-.06,0-.09,0,0,.02-.01.03-.02.02-.07.05-.13.07-.2,0-.02,0-.03.02-.06-.06.03-.08.05-.09.08-.01.04-.03.07-.04.11-.02.03-.02.07.02.1-.04,0-.06.01-.06.03,0,.04-.02.07-.04.12-.06-.03-.11-.05-.16-.08-.08.06-.21.03-.32.04-.04-.04-.06-.07-.03-.1,0,0,0-.02-.02-.05-.03.03-.05.05-.08.07-.05,0-.1-.01-.15-.02.01-.04.03-.07.04-.12-.05,0-.09.01-.13.02,0-.01-.01-.02,0-.03.06-.06.08-.12.09-.18,0-.02.01-.03.02-.05.04-.06.03-.11-.07-.16,0,.06,0,.12-.01.19-.04,0-.07,0-.06-.03.02-.06-.02-.11-.03-.16,0-.05.03-.1.09-.15.02,0,.03.02.06.03.01-.05.03-.09-.06-.11-.06-.01-.05-.04-.04-.07.02-.04.05-.08.03-.13-.09.02-.14.01-.21-.03-.02-.01-.05-.03-.07-.03-.08,0-.1-.02-.1-.06,0,0,0-.01-.02-.02-.02,0-.03.01-.05.02-.02,0-.04.01-.06.02,0-.01-.01-.02-.02-.02,0,0,0-.01,0-.02h-.09s-.01.01-.02.02c-.02.08-.03.16-.05.24-.02.09-.04.17-.06.26-.02.08-.03.17-.05.25-.01.06-.04.11-.07.17-.02.04-.05.07-.04.11,0,0,0,.02-.01.03-.04,0-.08-.01-.09-.03-.01-.03-.07-.06-.04-.1,0-.01,0-.03-.02-.04-.07-.04-.14-.08-.22-.13-.01-.02.02-.06-.04-.09,0,0,0-.02,0-.03,0-.03,0-.05-.05-.07-.02,0-.04-.03-.03-.05.04-.06,0-.12-.01-.19-.05.04-.09.07-.14.1-.11-.04-.07-.1-.09-.17v.17c-.06.02-.07-.03-.13-.02-.03.07-.05.15-.08.23,0,.01-.02.02-.02.04-.02.03-.04.05-.06.08,0,0-.03-.01-.04-.02,0-.03-.02-.04-.07-.05.02-.08-.03-.16-.09-.23-.02,0-.03,0-.05,0-.03-.04-.02-.09-.02-.13,0-.05-.03-.1-.1-.15,0,.02-.01.03-.01.04.01.03.03.07.04.1,0,.03.02.05-.03.07-.1-.02-.1-.02-.08-.07.04-.1.03-.21.05-.31,0-.04.01-.08.02-.12.02,0,.04,0,.04.01,0,.05.01.1,0,.15-.02.06-.02.06.09.1,0-.06.02-.12.02-.18,0-.03-.01-.05-.09-.04.05-.07.06-.14.04-.2-.02-.06.04-.13-.05-.2-.02.02-.04.02-.04.04-.02.06-.04.12-.05.19,0,.04-.01.09-.02.13,0,.01-.01.02,0,.03.03.12-.04.23-.04.34,0,.02-.03.04-.06.07-.02-.06-.03-.11-.02-.16,0-.04,0-.09.01-.13,0-.07.02-.13.03-.2,0-.03,0-.06-.01-.09,0-.03-.01-.06,0-.09.01-.05.03-.1,0-.15,0,0,0-.02,0-.03.02-.05.03-.11.05-.16.01-.03.05-.06.06-.09,0-.03-.03-.07-.03-.1,0-.05.01-.09.01-.14,0-.11.01-.21.05-.32.01-.03,0-.06,0-.09,0-.05-.03-.09.07-.13.02,0,.02-.03.01-.05,0-.02-.03-.04-.05-.06,0,0,.02,0,.02-.01,0,0,0,0,.01,0,0,0,0,0,0,0,0,0,0,0-.01,0,0,0-.02,0-.02.01Zm2.33,2.16s.02-.02.02-.02c0,0-.02,0-.03-.01,0,0-.01.01-.01.02,0,0,.01.01.02.02Zm.11.05s0,0,0-.01c0,0,0,0,0,0,0,0-.01,0-.01,0,0,0,0,0,.01,0Zm-2.52-10.18s0,0,0,0c0,0,0,0,0,.01,0,0,0,0,0,0,0,0,0,0,0-.01Z"/><path class="w" d="m40.44,16.21s-.05-.02-.06-.02c-.04.01-.07.05-.14.03.02-.01.02-.03.03-.03.03-.01.06-.02.1-.03.02,0,.03,0,.05,0,.03,0,.06,0,.08,0,.07-.03.13-.07.2-.09.09-.03.18-.09.27-.13.09-.04.17-.1.29-.1,0,0,.01,0,.01,0,.1-.07.22-.1.31-.2.05-.06.13-.08.19-.12.04-.02.07-.06.1-.08.02-.01.05-.02.07-.03.04-.02.07-.05.11-.07,0,0,.01-.01.01-.03,0-.11.07-.14.14-.15.02,0,2.91-1.66,2.93-1.66.02-.02.05-.03.08-.04.05-.03.11-.04.16-.08.06-.05.11-.1.14-.19.02-.05.08-.05.12-.08.01,0,.03,0,.05-.01-.05-.09,0-.11,0-.17.08.03.14,0,.18-.05.01-.02.02-.04.02-.06,0-.05.03-.09.08-.09.04,0,.06-.03.08-.06.02-.04.05-.06.09-.07.08-.02.13-.08.19-.14.02-.02.04-.04.08-.03.05,0,.1,0,.16.05.02.02.05,0,.06,0,.04-.03.07-.06.1-.09.04-.04.09-.08.16-.07.02,0,.04-.01.06-.02.07-.05.15-.1.22-.16.07.02.09-.04.12-.08,0,0,.02,0,.04,0,.02.06-.02.02-.03.04,0,.01,0,.03,0,.04.01,0,.03.02.03.01.03-.08.12-.06.18-.1.05-.03.07-.09.14-.09.01,0,.01-.04.02-.07.06.04.08-.03.13,0,0,0,.02-.01.02-.02.07-.09.19-.1.29-.15,0,.01,0,.03-.02.04-.04.03-.07.06-.12.07-.07.01-.11.07-.14.13,0,.01,0,.04,0,.06.01,0,.02.01.03.01.05-.04.1-.09.15-.13,0,0,.01-.01.02,0,.09.04.12-.06.2-.04.02,0,.02-.02.03-.03.03-.04.09-.02.16.05-.02.03-.04.07-.07.08-.06.02-.1.07-.15.11-.04.03-.09.05-.12.1-.03.04-.07.05-.11.07,0-.01.01-.03.02-.05-.05-.02-.05.02-.07.04-.01.01-.02.04-.04.04-.1.01-.16.1-.22.17-.03.03-.07.06-.11.08,0,0-.03-.01-.05-.02.01.05-.01.07-.04.08-.02.01-.06.01-.04.08.07.04.14.08.19.04.02-.02.04-.03.01-.09,0-.01,0-.03,0-.06.03.05.04.08.06.11.06-.01.11-.04.15-.08,0,0,.01-.03.03-.03.09,0,.14-.08.21-.13.07-.06.17-.06.22-.14,0-.01.04,0,.06,0-.02.05-.05.08-.09.1-.05.03-.11.06-.16.09-.03.02-.06.05-.08.08,0,0,0,.01.01.02.01,0,.03,0,.04-.01.05-.04.12-.07.16-.12.04-.04.09-.07.15-.08.09-.02.15-.08.21-.14.01-.01.02-.02.03-.03.05-.04.1-.08.16-.12.02-.02.05-.03.08-.05.02.07,0,.11-.01.13-.02.02-.05.03-.07.05.06.03.12.04.16,0,.01.04.02.07.03.1.07.03.14.05.21.08.03.08.03.11-.01.13-.09.04-.17.09-.26.14-.03.02-.04.07-.07.09-.04.04-.09.07-.13.1-.03.02-.06.04-.05.1.03,0,.06,0,.1,0-.01.07.04.1.07.14.1.07.17.03.26.06-.03.01-.07.02-.12.04.14.11.22.06.32.06,0,.03,0,.06.01.08.08.06.15.11.23.17.03.02.05.03.06,0,0-.03.06-.01.05-.08,0-.03.04-.02.07.02.06.08.11.09.16.08,0,0,.01,0,.02.01,0,0,0,0,.01.01,0,.04-.04.03-.06.03-.02,0-.03.02,0,.07.03,0,.05,0,.08,0,.05-.02.1-.04.15-.06.02,0,.04,0,.06,0,0,0,.03.01.03.01.06-.03.13.04.19.12,0,0,.02.02.03.03,0,.06.01.13.02.21.04,0,.07.02.11.03-.03.08.01.17.07.27.03.05.04.1.04.14,0,.03,0,.07,0,.11-.02,0-.03.02-.05.03.02.05.05.07.08.1,0-.02.02-.04.03-.05,0,0,.01,0,.02,0,.02.02.04.04.06.03.02-.01.04-.01.07.02.03.05,0,.06,0,.09,0,0,0,.02,0,.04.06,0,.1,0,.13-.03.08-.07.17-.12.25-.2.06-.07.14-.09.19-.16,0,0,0,0,.02,0,0,.05-.02.07-.04.1-.13.13-.26.26-.38.39-.06.06-.12.11-.15.21,0,.02-.01.03-.02.05.05.01.1.02.15.04.03.05.02.07.01.09-.04.07-.07.13-.15.15-.04,0-.04.07-.02.14.01.04.02.07.02.1,0,.06,0,.11.01.17.02.06,0,.11-.04.12-.06.02-.09.09-.16.09-.02,0-.02.03-.04.05-.04.05-.09.09-.13.14.03.08.11.05.12.16,0,0-.02.03-.04.03-.06.01-.1.07-.16.1-.12.06-.22.14-.33.21-.05.03-.11.04-.15.1-.02.03-.07.01-.1.03-.08.04-.15.09-.22.14-.02,0-.03.03-.05.02-.08,0-.13.03-.19.07-.07.04-.14.08-.21.12-.03.02-.07.03-.11.03-.1,0-.18.06-.26.1-.04.02-.09.04-.14.05-.01,0-.03,0-.05-.01-.09-.05-.13-.01-.17.05-.03.04-.05.09-.09.12-.04.04-.09.07-.15.08-.12.03-.21.09-.31.16-.09.07-3.08,1.75-3.18,1.81-.03.02-.07.05-.1.08-.05.04-.1.09-.14.14,0,0,0,.01-.01.02-.08.04-.15.08-.23.12-.05.03-.09.06-.11.13,0,.03-.03.05-.05.06-.04.02-.09.02-.12.04-.04.02-.07.06-.1.09-.06.06-.13.1-.21.12,0,0-.02,0-.02.01-.04.03-.08.07-.12.09-.06.03-.11.05-.17.07-.03,0-.06.01-.1-.04-.01-.02-.04-.03-.05-.03-.05.02-.12,0-.18.01-.08,0-.15.02-.23.04-.05.01-.11.03-.12.11,0,.03-.03.03-.05.05-.04.03-.09.06-.13.09,0,0,0,0-.01,0-.14,0-.23.11-.34.16-.05.02-.08.06-.13.08-.08.03-.16.06-.24.08-.04.01-.09.01-.14,0-.05-.01-.1.02-.14.04-.04-.03-.08-.05-.12-.08-.04-.02-.05-.05-.05-.09,0-.05.02-.08.05-.06.04.03.04.06.04.09.08.06.17.07.19,0,.02-.07.07-.1.13-.1,0-.09-.08-.15-.11-.23-.04,0-.07.02-.11.02-.13.03-.27.07-.4.1-.1.03-.21.05-.31.07-.04,0-.09.01-.13.02-.16.02-.31.04-.47.07-.04,0-.07.03-.12.05-.06-.03-.13-.05-.19-.01-.03.02-.06.03-.11-.03q.06-.08.17-.08s0-.09.07-.06c-.03-.06-.05-.08-.09-.09-.03,0-.06-.02-.1-.04,0-.05-.02-.09-.06-.13-.01-.01-.03-.04-.04-.06-.03-.06-.02-.1.02-.1.03,0,.06-.01.08-.04.01,0,.02.02.03.01.07-.01.14-.03.21-.04.02,0,.03,0,.06-.02-.05-.03-.08-.04-.11-.04-.04,0-.07.01-.11.02-.04,0-.07.02-.08.06-.02-.03-.04-.04-.06-.04-.04.01-.08.02-.13.03,0-.07-.01-.12-.01-.18-.1-.04-.13-.16-.19-.26,0-.05.03-.09.08-.08.01,0,.02-.02.03-.04-.04-.01-.07-.02-.1-.03-.02-.05-.04-.09-.06-.14.04,0,.08-.01.12-.02-.03-.04-.06-.07-.08-.1,0,0,.01-.02.02-.02.08.02.14.01.2-.01.01,0,.03,0,.05,0,.07,0,.1-.03.1-.14-.06.03-.11.05-.17.08-.02-.03-.03-.06,0-.07.06-.01.08-.07.13-.1.04-.03.1-.03.17,0,0,.02,0,.03,0,.06.05-.01.09-.02.06-.11-.02-.06.01-.07.04-.07.05,0,.1,0,.12-.04-.06-.07-.08-.11-.08-.2,0-.02,0-.06,0-.08-.04-.07-.03-.1,0-.12,0,0,0-.01.01-.03-.01-.01-.03-.02-.04-.03-.01-.01-.03-.03-.05-.04,0-.01,0-.02.01-.03,0,0,.01,0,.02-.01-.02-.03-.03-.05-.04-.08-.01,0-.02,0-.02,0-.08.03-.16.05-.23.08-.08.03-.17.05-.25.08-.08.03-.16.06-.24.08-.05.02-.11.02-.18.03-.04,0-.09,0-.12.02,0,0-.02,0-.03,0-.02-.04-.03-.08-.02-.09.02-.03.02-.09.07-.09.01,0,.02-.02.02-.04,0-.08,0-.16,0-.25.01-.02.06-.01.06-.08,0-.01.02,0,.03-.01.02-.01.05-.02.03-.08,0-.02,0-.05.02-.05.07,0,.1-.06.16-.11-.06-.03-.11-.05-.16-.07-.02-.12.06-.11.1-.16-.05.03-.1.06-.14.08-.05-.04,0-.08-.04-.13-.08.02-.16.03-.24.05-.01,0-.03,0-.04,0-.03,0-.06,0-.1-.01,0-.01,0-.04,0-.04.02-.01.03-.04,0-.08.08-.03.12-.11.15-.19-.01-.02-.02-.03-.03-.04.02-.05.07-.07.11-.08.05-.02.07-.07.08-.16-.02,0-.03,0-.04,0-.02.03-.04.06-.07.08-.02.02-.04.04-.08.01-.03-.1-.03-.1.02-.11.11-.01.19-.07.29-.11.04-.01.07-.03.11-.04,0,.02.01.04.01.04-.04.03-.08.06-.13.07-.06.02-.06,0-.04.13.06-.02.11-.05.16-.07.03-.01.04-.03-.01-.1.08,0,.15-.02.19-.07.04-.05.14-.03.14-.14-.02,0-.04-.02-.05-.02-.06.01-.12.03-.18.05-.04.01-.08.03-.12.05-.01,0-.03,0-.03,0-.08.09-.21.08-.31.14-.02.01-.05,0-.08-.02.04-.05.08-.08.13-.1.04-.02.08-.04.12-.05.06-.03.12-.05.18-.08.03-.01.05-.04.07-.05.02-.02.04-.04.07-.05.05-.02.1-.03.13-.07,0,0,.02,0,.03,0,.05-.01.11-.02.16-.03.03,0,.08.01.11,0,.03-.01.04-.05.07-.07.04-.02.09-.04.13-.06.09-.05.19-.1.3-.11.03,0,.05-.03.07-.05.04-.03.07-.07.14,0,.01.01.04,0,.05-.01.01-.02.02-.04.02-.07,0,0,.02,0,.02.01,0,0,0,0,0,0,0,0,0,0,0,0,0,0,0,0-.01,0,0,0-.02,0-.02-.01Zm10.23-1.48c-.06-.02-.04.05-.05.09.08.04.03-.07.05-.09Zm-10.92,4.6s.03,0,.03,0c0,0,0-.02,0-.03,0,0-.02,0-.02,0,0,0,0,.01,0,.03Zm7.43-6.9s.02,0,.02,0c0,0,0,0,0-.01,0,0-.02-.01-.03-.02,0,0,0,0,0,.02Zm-7.42,7.03s0,0,.01,0c0,0,0,0,0,0,0,0,0,0-.01,0,0,0,0,0,0,.01Zm7.49-7.28s0,0,0,0c0,0,0,0,0,.01,0,0,0,0,0,0,0,0,0,0,0-.01Z"/><path class="p" d="m15.35,17.01s0,0-.01,0c0,0,0,0,0,0,0,0,0,0,0,0,0,0,.02,0,.02-.01,0,.02.01.05.02.07.01.01.04.03.05.01.07-.07.11-.03.14,0,.02.02.04.04.07.05.11.02.2.07.3.11.04.02.09.03.13.06.03.02.04.06.07.07.03.01.08,0,.11,0,.06,0,.11.02.16.03.01,0,.03,0,.03,0,.03.05.08.06.13.07.03,0,.05.03.07.05.02.02.04.04.07.05.06.03.12.05.18.08.04.02.08.04.12.05.05.02.09.06.13.1-.03.01-.06.03-.08.02-.1-.05-.23-.05-.31-.14,0,0-.02,0-.03,0-.04-.02-.08-.04-.12-.05-.06-.02-.12-.04-.18-.05-.01,0-.03.01-.05.02,0,.11.1.09.14.14.04.05.11.07.19.07-.05.07-.04.09-.01.1.05.02.11.05.16.07.03-.12.02-.11-.04-.13-.05-.01-.09-.05-.13-.07,0,0,0-.02.01-.04.04.02.08.03.11.04.1.04.18.1.29.11.05,0,.05,0,.02.11-.04.03-.06,0-.08-.01-.02-.03-.04-.06-.07-.08,0,0-.02,0-.04,0,0,.09.03.14.08.16.04.02.08.03.11.08-.01.02-.02.03-.03.04.03.08.07.16.15.19-.02.05-.02.07,0,.08,0,0,0,.03,0,.04-.04,0-.07.01-.1.01-.02,0-.03,0-.04,0-.08-.01-.16-.03-.24-.05-.04.05,0,.09-.04.13-.04-.03-.09-.05-.14-.08.04.05.12.05.1.16-.05.02-.1.04-.16.07.06.05.09.11.16.11.01,0,.03.03.02.05-.01.06.01.07.03.08,0,0,.03,0,.03.01,0,.06.04.05.06.08,0,.09,0,.18,0,.25,0,.02.01.04.02.04.05,0,.04.06.07.09.02.02,0,.05-.02.09-.01,0-.02,0-.03,0-.03-.03-.07-.02-.12-.02-.06,0-.12,0-.18-.03-.08-.02-.16-.06-.24-.08-.08-.03-.17-.05-.25-.08-.08-.03-.16-.05-.23-.08,0,0-.01,0-.02,0-.01.02-.03.05-.04.08,0,0,.02,0,.02.01,0,0,0,.02.01.03-.02.02-.03.03-.05.04-.01.01-.03.02-.04.03,0,.01,0,.02.01.03.03.02.04.05,0,.12-.01.02,0,.05,0,.08,0,.09-.01.13-.08.2.03.04.08.03.12.04.03,0,.06.01.04.07-.03.09.01.09.06.11,0-.03,0-.04,0-.06.07-.03.13-.03.17,0,.04.04.07.09.13.1.02,0,.01.04,0,.07-.06-.03-.11-.05-.17-.08,0,.1.03.14.1.14.02,0,.04,0,.05,0,.06.02.12.03.2.01,0,0,.01.01.02.02-.03.03-.05.06-.08.1.04,0,.08.02.12.02-.02.05-.04.09-.06.14-.03,0-.06.02-.1.03.02.02.02.04.03.04.05-.01.07.02.08.08-.06.1-.09.22-.19.26,0,.06,0,.11-.01.18-.05-.01-.09-.02-.13-.03-.02,0-.04,0-.06.04,0-.05-.04-.06-.08-.06-.04,0-.08,0-.11-.02-.03,0-.06,0-.11.04.03,0,.05.01.06.02.07.01.14.03.21.04,0,0,.02,0,.03-.01.02.02.04.04.08.04.04,0,.05.03.02.1,0,.02-.02.05-.04.06-.04.03-.05.08-.06.13-.04.02-.07.03-.1.04-.03,0-.06.03-.09.09.07-.04.06.02.07.06q.11,0,.17.08c-.05.06-.09.05-.11.03-.06-.03-.13-.01-.19.01-.05-.02-.08-.05-.12-.05-.16-.03-.31-.04-.47-.07-.04,0-.09,0-.13-.02-.11-.02-.21-.04-.31-.07-.13-.03-.27-.07-.4-.1-.03,0-.07-.02-.11-.02-.04.08-.11.13-.11.23.06,0,.11.03.13.1.02.07.11.06.19,0,0-.03,0-.07.04-.09.03-.02.05,0,.05.06,0,.04-.02.07-.05.09-.04.03-.08.05-.12.08-.05-.01-.09-.05-.14-.04-.06.01-.1.01-.14,0-.08-.02-.16-.05-.24-.08-.05-.02-.08-.06-.13-.08-.11-.05-.2-.16-.34-.16,0,0,0,0-.01,0-.04-.03-.09-.06-.13-.09-.02-.01-.05-.02-.05-.05-.01-.08-.07-.1-.12-.11-.07-.02-.15-.04-.23-.04-.06,0-.13.01-.18-.01,0,0-.03.01-.05.03-.04.05-.07.05-.1.04-.06-.02-.12-.04-.17-.07-.04-.02-.08-.06-.12-.09,0,0-.02,0-.02-.01-.08-.01-.15-.06-.21-.12-.03-.03-.07-.06-.1-.09-.04-.02-.08-.02-.12-.04-.02-.01-.04-.03-.05-.06-.02-.07-.06-.1-.11-.13-.08-.04-.15-.08-.23-.12,0,0,0-.01-.01-.02-.05-.05-.09-.1-.14-.14-.03-.03-.06-.05-.1-.08-.1-.06-3.09-1.74-3.18-1.81-.09-.07-.19-.13-.31-.16-.06-.01-.1-.04-.15-.08-.04-.03-.06-.08-.09-.12-.04-.06-.08-.09-.17-.05-.02,0-.04.02-.05.01-.05-.01-.1-.03-.14-.05-.08-.04-.16-.09-.26-.1-.04,0-.08-.02-.11-.03-.07-.04-.14-.08-.21-.12-.06-.03-.11-.08-.19-.07-.02,0-.03-.01-.05-.02-.07-.05-.15-.1-.22-.14-.03-.02-.08,0-.1-.03-.04-.06-.1-.07-.15-.1-.11-.07-.21-.15-.33-.21-.06-.03-.09-.09-.16-.1-.02,0-.03-.02-.04-.03.01-.11.1-.08.12-.16-.04-.05-.09-.09-.13-.14-.01-.02-.02-.05-.04-.05-.07,0-.1-.08-.16-.09-.04-.01-.05-.06-.04-.12.02-.06,0-.12.01-.17,0-.03,0-.07.02-.1.02-.07.02-.13-.02-.14-.07-.02-.11-.08-.15-.15,0-.02-.02-.04.01-.09.05-.01.1-.02.15-.04,0-.01,0-.03-.02-.05-.03-.09-.09-.15-.15-.21-.13-.13-.26-.26-.38-.39-.02-.02-.05-.04-.04-.1,0,0,.02,0,.02,0,.05.07.14.09.19.16.07.08.16.14.25.2.03.03.08.04.13.03,0-.02,0-.03,0-.04,0-.02-.03-.04,0-.09.03-.04.05-.04.07-.02.02.01.04-.01.06-.03,0,0,0,0,.02,0,0,.02.02.03.03.05.03-.03.06-.05.08-.1-.02-.01-.04-.02-.05-.03,0-.04,0-.07,0-.11,0-.05.01-.09.04-.14.05-.09.1-.19.07-.27.04,0,.07-.02.11-.03,0-.08.02-.15.02-.21.02-.02.02-.02.03-.03.06-.08.13-.15.19-.12,0,0,.02-.01.03-.01.02,0,.04,0,.06,0,.05.02.1.04.15.06.02,0,.05,0,.08,0,.02-.05.01-.06,0-.07-.02,0-.06,0-.06-.03,0,0,0-.01.01-.01,0,0,.01-.01.02-.01.05.01.1,0,.16-.08.03-.03.08-.05.07-.02-.01.07.04.05.05.08,0,.03.03.02.06,0,.08-.05.15-.11.23-.17,0-.02,0-.05.01-.08.1,0,.18.04.32-.06-.05-.02-.08-.03-.12-.04.09-.03.15.01.26-.06.02-.04.08-.07.07-.14.04,0,.06,0,.1,0,0-.07-.03-.08-.05-.1-.04-.03-.09-.06-.13-.1-.03-.02-.04-.07-.07-.09-.08-.05-.17-.09-.26-.14-.04-.02-.04-.04-.01-.13.07-.03.14-.05.21-.08.01-.04.02-.06.03-.1.05.04.1.03.16,0-.02-.02-.05-.03-.07-.05-.02-.02-.03-.06-.01-.13.03.02.06.03.08.05.05.04.1.08.16.12.01,0,.02.02.03.03.06.06.12.12.21.14.06.01.11.03.15.08.05.06.11.08.16.12.01,0,.03,0,.04.01,0,0,0-.01.01-.02-.03-.03-.05-.06-.08-.08-.05-.03-.1-.06-.16-.09-.04-.02-.07-.05-.09-.1.02,0,.05-.02.06,0,.05.08.15.08.22.14.06.05.11.12.21.13.01,0,.02.02.03.03.04.04.09.07.15.08.02-.04.04-.07.06-.11,0,.03,0,.04,0,.06-.03.06,0,.08.01.09.05.04.12,0,.19-.04.01-.07-.02-.07-.04-.08-.03-.01-.05-.03-.04-.08-.02,0-.04.03-.05.02-.04-.02-.08-.05-.11-.08-.06-.07-.12-.15-.22-.17-.02,0-.02-.03-.04-.04-.02-.02-.02-.06-.07-.04,0,.02.02.03.02.05-.04-.02-.09-.02-.11-.07-.03-.05-.08-.07-.12-.1-.05-.04-.09-.1-.15-.11-.03,0-.04-.05-.07-.08.07-.07.13-.09.16-.05.01.01.02.04.03.03.08-.01.11.08.2.04,0,0,.01,0,.02,0,.05.04.1.09.15.13,0,0,.02,0,.03-.01,0-.03,0-.05,0-.06-.04-.06-.07-.12-.14-.13-.05,0-.08-.04-.12-.07,0,0-.01-.03-.02-.04.1.05.21.06.29.15,0,0,.01.03.02.02.06-.02.08.04.13,0,0,.03,0,.07.02.07.07,0,.09.06.14.09.06.04.15.02.18.1,0,0,.02,0,.03-.01,0-.02,0-.03,0-.04,0-.02-.05.02-.03-.04.01,0,.03-.01.04,0,.03.04.05.1.12.08.07.05.15.11.22.16.02.01.04.02.06.02.07,0,.11.03.16.07.03.03.07.06.1.09.02.01.04.02.06,0,.06-.04.11-.05.16-.05.04,0,.06.01.08.03.05.06.11.12.19.14.04,0,.07.03.09.07.02.04.04.06.08.06.04,0,.07.03.08.09,0,.02.01.05.02.06.04.06.09.09.18.05,0,.06.06.08,0,.17.02,0,.04,0,.05.01.04.02.1.03.12.08.03.09.09.14.14.19.04.04.1.05.16.08.03.01.05.03.08.04.01,0,2.91,1.66,2.93,1.66.07.01.13.04.14.15,0,.01,0,.02.01.03.04.03.07.05.11.07.02.01.05.02.07.03.03.02.07.06.1.08.06.04.14.06.19.12.09.1.21.12.31.2,0,0,0,0,.01,0,.11,0,.19.06.29.1.09.04.17.1.27.13.07.02.13.07.2.09.02,0,.05,0,.08,0,.02,0,.04,0,.05,0,.03,0,.07.02.1.03,0,0,.02.01.03.03-.07.02-.1-.01-.14-.03-.02,0-.04-.02-.06.02,0,0-.02,0-.02.01Zm-6.6-3.33s0-.09-.02-.09c-.04,0-.03-.11-.1-.08.02.17.03.18.12.17Zm.08.08s.02.07.07.02c0-.07-.06-.09-.16-.03.03,0,.06,0,.09,0Zm-3.63,1.84s0-.11-.05-.09c.03.02-.03.13.05.09Zm3.61-2.48c.01-.08.01-.08-.07-.04.02.02.01.08.07.04Zm-1.48.04s-.05-.07-.12-.05c.02.07.09.02.12.05Zm1.16.39s.06,0,.09,0c-.01-.04-.04-.02-.09,0Zm-.58-.09c.01-.05,0-.06-.03-.06,0,0,0,.02-.01.02.01.01.02.02.04.03Zm8.14,6.62s-.01,0-.02,0c0,.01,0,.02,0,.03,0,0,.01,0,.03,0,0-.01,0-.03,0-.03Zm-7.43-6.89s-.02.01-.03.02c0,0,0,.01,0,.01,0,0,.01,0,.02,0,0-.01,0-.02,0-.02Zm7.42,7.03s0,0-.01,0c0,0,0,0,0,0,0,0,0,0,.01,0,0,0,0-.01,0-.01Zm-7.48-7.26s0,0,0,0c0,0,0,0,0-.01,0,0,0,0,0,0,0,0,0,0,0,.01Z"/><path class="r" d="m22.94,14.93c-.06-.1-.05-.2-.04-.29-.04-.08-.08-.14-.1-.21-.07-.25-.14-.5-.21-.74-.02-.06-.03-.13-.05-.19.06-.13.11-.26.15-.4.18-.65.12-1.36-.23-2l-3.8-6.88c-.1-.19-.23-.36-.37-.51,0-.01,0-.02,0-.03,0-.03-.02-.06-.04-.08-.08-.13-.15-.26-.23-.39-.03-.05-.03-.12-.06-.16-.08-.08-.11-.18-.16-.27-.12-.19-.24-.38-.34-.58-.05-.1-.13-.17-.16-.28,0-.03-.03-.05-.04-.06-.12-.02-.07.12-.15.14-.07-.08-.13-.17-.2-.25-.02-.03-.06-.05-.07-.07-.02-.11-.12-.18-.15-.28-.02-.06-.08-.1-.15-.09-.07,0-.13-.02-.2-.04-.04,0-.08-.01-.12,0-.07.01-.15-.01-.17-.08-.04-.12-.12-.2-.21-.28-.02-.02-.05-.04-.1-.01,0,.07,0,.14,0,.22-.02-.01-.04-.03-.06-.04-.12-.07-.2-.18-.28-.29-.19-.24-.37-.48-.56-.71-.03-.04-.06-.08-.12-.1,0,.01,0,.02,0,.03.1.1.14.24.24.35.12.14.21.29.31.44.04.06.06.13.07.22-.02-.01-.04-.01-.04-.02-.03-.02-.05-.06-.1-.03-.04.03-.03.06,0,.1.02.03,0,.06-.02.09,0,0,0,.01,0,.03.02.02.04.04.07.06-.03.04-.04.08-.1.09-.02-.03-.03-.06-.05-.09-.04,0-.08-.02-.12-.03-.05-.01-.1,0-.15.02-.09.05-.19.1-.29.02,0,.06,0,.1,0,.16-.09-.01-.17-.02-.24-.03-.01.02-.02.03-.03.04-.08.07-.14.15-.09.26,0,.01,0,.03,0,.05,0,.03,0,.06.02.09.04.09.08.17.11.25.02.04.02.08.03.12-.05.02-.07,0-.08-.04-.01-.04-.01-.08-.06-.1,0,0-.01,0-.01.01,0,0,0,.02,0,.02.03.08.03.15-.05.21-.03.03-.03.1,0,.1.08,0,.07.07.11.1.04.02.03.06.02.09-.04.1-.09.2-.13.3-.03,0-.05,0-.09,0,.02.15.1.3.02.48-.03-.08-.05-.13-.08-.19-.01.13.06.24,0,.38-.03.03-.06.1-.14.06,0,.06.01.1.02.15-.08-.02-.1-.07-.13-.12-.05-.08-.1-.16-.16-.24-.04-.05-.09-.08-.12-.13-.08-.14-.16-.29-.23-.44-.03-.06-.06-.08-.15-.06-.01.1-.02.2-.03.29-.04,0-.07.01-.11.02.06.08.06.16.05.25-.03-.04-.05-.09-.08-.13-.03-.04-.08-.07-.16-.06.03.06.05.1.08.14.06.09.12.19.18.28.01.02.03.04.05.06.08.11.17.22.22.36.03.09.07.18.13.25.08.09.13.19.19.29.01.02.02.04.03.07,0,0-.01,0-.02.01-.04-.05-.08-.1-.12-.15-.05-.09-.1-.18-.15-.27-.03-.07-.08-.12-.14-.17,0,.03-.01.07,0,.09.11.11.14.26.22.39.08.11.17.22.2.36,0,.02.03.03.04.05.06.08.11.16.14.25-.04.02-.07.04-.11.06.03,0,.05.02.07.02.04-.02.07,0,.09.02-.01.1-.02.2-.01.3-.03-.02-.04-.05-.06-.08-.02-.05-.05-.09-.11-.09,0-.03.02-.06.01-.08-.04-.07-.08-.13-.13-.19-.1-.12-.21-.23-.26-.39,0-.03-.04-.04-.06-.07-.02-.03-.08-.05-.07-.12.03.02.04.04.06.05-.03-.07-.05-.14-.11-.2-.06-.06-.1-.14-.15-.22-.06-.09-.14-.16-.17-.27-.02-.05-.07-.08-.11-.13-.07.09-.07.17-.01.23.02.02.05.04.05.06,0,.12.13.2.11.32,0,0,0,.02.01.03.06.09.13.18.19.27,0,0,0,.02,0,.04-.03-.01-.06-.01-.07-.03-.08-.08-.16-.15-.19-.26-.02-.08-.07-.14-.11-.21-.01-.02-.03-.03-.05-.04.08.16.13.35.25.49.01.01.04.03.03.04-.01.08.07.13.04.21.03.02.08.03.08.05.02.1.1.16.14.25.06.1.06.23.17.31,0,0,0,.03,0,.04-.02,0-.04,0-.05,0-.02-.01,0-.07-.06-.06,0,.02,0,.04,0,.06.05.06.13.11.12.21.08.13.16.26.24.39.02.03.04.06.04.09.02.1.07.19.13.27.05.06.09.12.13.19.02.03.03.07.02.1-.03.08-.03.15-.02.23,0,.05.03.09.06.13.09.1.17.2.22.33.02.06.06.12.1.16.05.04.08.08.1.15.01.07.06.11.12.14.03.01.06.04.08.06.08.08.13.17.11.29.07.02.11.11.2.06.01.03.02.06.03.08.04.07.06.16.12.2.11.08.18.18.25.28.06.08.09.18.14.27.02.04.05.09.07.13.01.02.04.04.05.07.03.11.08.2.19.25l1.19,2.16c.03.06.06.12.09.18.05.12.11.23.17.34.02.04.02.08.03.12,0,.03,0,.05.01.08.02.05.04.11.06.16,0,.02.02.03.04.06,0-.1-.04-.16-.07-.22-.01-.03-.03-.06,0-.09,0,0,.02,0,.02.01l.08.15c-.03.08.01.14.05.2.03.04.06.08.08.13.05.17.13.33.21.49.04.07.06.15.1.21.03.05.08.08.1.13.02.05.01.11.03.17.02.09.05.17.08.26,0,.02,0,.04.02.05.06.06.09.14.12.22.02.05.05.08.08.13.03.04.06.08.08.12.05.1.09.2.14.3.03.07.07.13.09.2.04.09.09.16.16.23,0-.04.01-.09,0-.13-.09-.17-.12-.37-.25-.53-.01-.01-.01-.04-.02-.05-.03-.07-.06-.13-.09-.2-.04-.1-.08-.2-.11-.3,0-.02,0-.04,0-.08.13.05.13.18.2.27.07.08.11.18.13.31.06-.06.09-.03.11.01.04.09.08.18.13.27-.13,0-.12,0-.16-.09-.03-.08-.08-.15-.12-.22,0,0-.02,0-.05,0,.03.07.05.13.08.19.07.16.17.31.21.48.02.08.02.08.13.07.02-.05,0-.09-.04-.12-.04-.04-.08-.09-.11-.13,0-.01-.01-.03-.02-.06.11.04.17.09.21.17.03.07.06.14.13.19.02-.01.03-.02.04-.03.1.08.21.16.26.29.05-.02.07,0,.1.03,0,.01.03,0,.05.01,0-.06,0-.1-.01-.15,0-.02,0-.05,0-.07-.04-.13-.08-.25-.12-.38.04-.04.1.03.13-.03-.04-.08-.08-.15-.14-.25.07.08.09.2.22.2,0-.06.02-.12.03-.19.01,0,.02,0,.04,0,.06.08.12.14.14.24,0,.02.04.05.07.05.06,0,.08.04.1.08,0,.02.01.05.02.05.07.01.08.08.11.11.11.03.2.05.29.08.02,0,.05.03.06.05.01.07.08.09.12.13.02.03.06.02.1,0,0-.02,0-.04-.01-.05-.04-.05-.04-.12-.06-.19-.02-.09-.04-.19-.08-.28-.03-.08-.06-.15-.1-.23.25-.02.49-.08.73-.17.01.03.04.03.07,0,0,0,0-.02-.01-.03.02,0,.04-.02.07-.03,0,.02,0,.03.01.05.04.1.07.2.07.31,0,.01.02.02.03.04.03-.03.06-.06.09-.1.02.07.04.13.06.19.05-.02.1-.03.14-.05,0-.05,0-.08,0-.15.03.03.06.05.06.06,0,.07.04.11.11.14.09-.06.23-.08.25-.21.07.01.12.02.2.03-.03-.08-.04-.14-.07-.2-.01-.03,0-.06.02-.08.03.04.05.08.06.13,0,.06.05.08.12.06.02,0,.05-.02.06-.04.03-.06.07-.06.13-.05,0-.05.02-.1.02-.15,0-.05.02-.08.08-.1-.03.09.04.11.09.13q.03.17.14.28c.05-.06.03-.12,0-.16ZM13.32,5.65s-.01,0-.02-.01c0,0,0,0,0-.01,0,0,.01,0,.01.01,0,0,0,0,0,.01Zm8.82,9.05c-.01-.06-.03-.12-.05-.18-.02-.05-.02-.09,0-.16.02.05.03.07.04.1.03.11.07.22.1.33,0,.01,0,.03,0,.04-.05-.03-.08-.08-.09-.13Zm.24-.11s.01-.09.02-.16c0,0-.02-.03-.04-.03-.07-.01-.08-.07-.1-.12-.02-.08-.05-.15-.07-.23.01-.02.03-.04.05-.06.01.06.02.11.08.14.05-.07-.05-.11-.02-.17.05.03.06.09.07.14.01.04.03.09.05.13.04.08.09.15.13.23.01.02.02.06,0,.08-.07.07-.05.16-.07.26-.04-.08-.09-.14-.11-.21Z"/><path class="s" d="m18.21,14.29c.02.1.03.13.11.22q-.07-.2-.11-.22Z"/><path class="o" d="m13.31,21.53c.07.08.1.09.21.12q-.16-.13-.21-.12Z"/><path class="t" d="m40.26,27.38c0,.27,0,.54,0,.79.02.04.05.06.06.09.02.07.05.07.09.08.07,0,.15.01.23.02-.02.04-.03.06-.04.09.02.05.05.03.08.03.03,0,.05-.01.08.04-.06.03-.12.07-.17.1.02.16.11.1.15.16.05-.1.08-.12.15-.11,0,.03,0,.06,0,.1.04,0,.07.02.1,0,.05-.05.1-.13.15-.2-.02-.1-.08-.14-.06-.26.03-.06.1-.06.09-.18.01,0,.03-.01.05-.02-.02-.02-.04-.04-.05-.05.04-.11.07-.1.11.04.07-.04.12.07.19.09-.05.06-.11.09-.16.12-.06.03-.06.03-.06.16,0,.02,0,.04,0,.06.02,0,.04.01.06,0,.06-.05.1,0,.14.06,0,.01.02.03.03.05.04-.03.09-.05.13.02.03-.09.08-.1.13-.1.05,0,.1,0,.15-.01.02.1.07.08.12.07.03,0,.06-.01.09-.02.02.01.04.02.06.03-.03.03-.07,0-.09.03.02.05.05.04.07.04.04,0,.07-.02.11-.03.3.13.64.2.99.2h9.69c.26,0,.52-.04.76-.11.03,0,.06,0,.09.01.12.03.23-.01.35,0,.02,0,.06,0,.07-.03.03-.06.06-.05.1-.06.12-.03.24-.05.35-.13.01,0,.03,0,.04,0,.03,0,.06,0,.09.02,0-.04-.01-.07-.02-.1.02-.04.04,0,.05.03.02.07.05.07.08.07.04,0,.07,0,.11,0,.05,0,.09-.01.13-.06.04-.04.09-.03.13-.06.05-.03.1-.07.12-.18,0-.03.03-.04.05-.06-.04-.11-.07-.22-.14-.26-.04-.02-.09,0-.13-.01-.07-.01-.14-.03-.21-.05.06-.08.12-.16.18-.25.02,0,.03,0,.05-.01,0-.1.02-.14.09-.14.04,0,.06-.02.07-.08.03,0,.05,0,.08-.02.02-.01.05-.03.07-.05,0-.02,0-.03,0-.05.04,0,.08-.02.11,0,.03.01.06.05.1.08.01-.08.01-.14-.02-.2.02-.03.04-.06.05-.08.05-.07.06-.15.02-.24,0-.02-.02-.04-.04-.06,0-.02.01-.04.02-.07-.02-.08-.06-.12-.1-.14-.03-.02-.07-.03-.1-.05.01-.1.02-.19.02-.29,0-.19-.02-.37-.06-.55.02-.04.04-.03.06-.04.08-.02.15-.03.23-.05.01,0,.02-.01.03-.02.04-.04.07-.08.1-.13-.02-.12-.07-.15-.13-.13-.05.01-.11,0-.16,0-.08,0-.17,0-.25,0-.01-.04-.02-.07-.04-.11,0,0,0,0,0,0,0-.05,0-.1-.01-.16.02-.04.04-.09.07-.15-.04-.15.06-.17.08-.28-.03-.15.02-.22.09-.3-.04-.11-.1-.16-.15-.18-.1-.05-.21-.04-.31,0-.01,0-.03.03-.04.04-.03.03-.06.02-.1-.04.03,0,.05,0,.08,0v-.02c-.07,0-.13,0-.2,0-.11,0-.23,0-.34,0,0,0-.02,0-.03,0-.01,0-.02,0-.03,0-.42-.3-.94-.48-1.5-.48h-9.69c-.41,0-.79.1-1.13.26-.08,0-.16.02-.25.05-.1.04-.2.04-.31.07-.11.03-.22.08-.32.14,0,0-.02.01-.03.03-.04.08-.09.13-.16.12-.02,0-.04.05-.05.09-.01.05,0,.09.02.12.03.04.06.08.09.12-.01.04-.05.05-.04.11,0,.02.01.03.02.05-.28.42-.45.93-.45,1.47,0,.28.04.55.13.81-.07.02-.13.03-.2.05,0,0-.02.01-.03.02,0,.03.01.06.02.09-.03.06-.06,0-.1,0,.01-.04.02-.06.03-.07,0-.06-.01-.11-.02-.18-.03.04-.05.09-.08.12-.03.03-.07.03-.11.04,0,.02.02.04.02.05,0,.07-.02.13-.02.2Zm15.23-.72s0-.02,0-.03c0,0,0,0,.01,0,0,.01,0,.02,0,.03,0,0,0,0-.01,0Zm-13.55,1.88s.01,0,.02,0c.01,0,.03.02.04.02-.02,0-.04,0-.06-.02Z"/><path class="v" d="m33.39,15.1q.11-.11.14-.28s.11-.04.09-.13c.06.03.08.05.08.1,0,.04.01.09.02.15.06,0,.11,0,.13.05,0,.02.04.03.06.04.06.02.11,0,.12-.06,0-.05.03-.09.06-.13.03.02.04.04.02.08-.02.06-.04.12-.07.2.08-.01.13-.02.2-.03.02.13.15.15.25.21.06-.03.11-.07.11-.14,0-.02.03-.03.06-.06,0,.06,0,.1,0,.15.05.02.09.03.14.05.02-.06.04-.12.06-.19.04.04.06.06.09.1.01-.02.03-.03.03-.04,0-.11.02-.21.07-.31,0-.02,0-.03.01-.05.02,0,.04.02.07.03,0,0,0,.02-.01.03.03.02.06.02.07,0,.24.09.48.15.73.17-.03.08-.07.15-.1.23-.03.09-.06.18-.08.28-.01.06-.02.13-.06.19,0,.01,0,.03-.01.05.04.02.08.02.1,0,.04-.05.11-.06.12-.13,0-.02.03-.04.06-.05.09-.03.19-.05.29-.08.03-.03.03-.1.11-.11.01,0,.02-.03.02-.05.02-.04.03-.08.1-.08.02,0,.06-.03.07-.05.02-.09.08-.16.14-.24.01,0,.02,0,.04,0,.01.07.02.13.03.19.13,0,.14-.12.22-.2-.05.09-.09.17-.14.25.03.06.09-.02.13.03-.04.12-.08.25-.12.38,0,.02,0,.04,0,.07,0,.05,0,.09-.01.15.01,0,.04,0,.05-.01.02-.04.05-.06.1-.03.05-.13.16-.21.26-.29.02.01.03.02.04.03.07-.05.09-.12.13-.19.04-.08.11-.14.21-.17,0,.03-.01.05-.02.06-.04.04-.08.08-.11.13-.03.03-.06.07-.04.12.11.02.11.02.13-.07.05-.17.14-.32.21-.48.03-.06.05-.12.08-.19-.03,0-.04,0-.05,0-.04.07-.09.14-.12.22-.04.1-.03.1-.16.09.04-.09.08-.18.13-.27.02-.04.05-.07.11-.01.02-.13.06-.23.13-.31.07-.08.07-.22.2-.27,0,.03.01.06,0,.08-.03.1-.07.2-.11.3-.03.07-.06.13-.09.2,0,.02,0,.04-.02.05-.12.15-.15.36-.25.53-.02.03-.01.08,0,.13.07-.07.12-.15.16-.23.03-.07.06-.13.09-.2.05-.1.09-.2.14-.3.02-.04.06-.08.08-.12.03-.04.06-.08.08-.13.03-.08.06-.16.12-.22.01-.01.01-.04.02-.05.03-.09.06-.17.08-.26.01-.05,0-.12.03-.17.02-.05.08-.08.1-.13.04-.07.07-.14.1-.21.08-.16.16-.32.21-.49.01-.05.05-.09.08-.13.04-.06.09-.12.05-.2l.08-.15s.02,0,.02-.01c.03.03.01.06,0,.09-.03.07-.07.13-.07.22.02-.03.04-.04.04-.06.02-.05.05-.11.06-.16,0-.02,0-.05.01-.08,0-.04,0-.08.03-.12.05-.11.12-.22.17-.34.03-.06.06-.12.09-.18l1.19-2.16c.11-.05.16-.14.19-.25,0-.02.03-.04.05-.07.02-.04.05-.09.07-.13.05-.09.08-.19.14-.27.07-.1.15-.2.25-.28.06-.04.08-.13.12-.2.01-.02.02-.05.03-.08.09.05.13-.04.2-.06-.01-.12.03-.21.11-.29.02-.02.05-.04.08-.06.06-.03.11-.08.12-.14.01-.06.05-.11.1-.15.05-.04.08-.1.1-.16.04-.13.13-.23.22-.33.03-.04.05-.07.06-.13.01-.08.02-.15-.02-.23-.01-.03,0-.07.02-.1.04-.07.09-.13.13-.19.06-.08.12-.16.13-.27,0-.03.02-.07.04-.09.08-.13.16-.26.24-.39,0-.1.07-.15.12-.21,0-.01,0-.04,0-.06-.06-.01-.03.04-.06.06-.01,0-.03,0-.05,0,0-.01-.01-.04,0-.04.1-.08.11-.21.17-.31.05-.08.13-.14.14-.25,0-.02.05-.03.08-.05-.03-.08.05-.13.04-.21,0-.01.02-.03.03-.04.12-.14.17-.32.25-.49-.02.01-.04.02-.05.04-.04.07-.09.13-.11.21-.03.11-.11.19-.19.26-.02.01-.04.02-.07.03,0-.02-.01-.03,0-.04.06-.09.13-.18.19-.27,0,0,.02-.02.01-.03-.02-.13.1-.21.11-.32,0-.02.03-.04.05-.06.05-.06.05-.14-.01-.23-.04.04-.09.08-.11.13-.04.1-.11.18-.17.27-.05.07-.08.16-.15.22-.06.06-.08.13-.11.2.02-.02.04-.03.06-.05.01.06-.04.08-.07.12-.02.02-.05.04-.06.07-.04.16-.16.27-.26.39-.05.06-.09.13-.13.19,0,.02,0,.05.01.08-.05,0-.08.04-.11.09-.01.03-.02.07-.06.08,0-.1,0-.2-.01-.3.02-.02.05-.03.09-.02.01,0,.03,0,.07-.02-.05-.03-.08-.04-.11-.06.03-.09.08-.18.14-.25.01-.02.04-.03.04-.05.03-.14.13-.25.2-.36.08-.12.11-.28.22-.39.02-.02.01-.06,0-.09-.06.05-.11.1-.14.17-.05.09-.1.18-.15.27-.03.05-.08.1-.12.15,0,0-.01,0-.02-.01,0-.02.01-.05.03-.07.06-.1.11-.2.19-.29.06-.07.1-.16.13-.25.05-.14.13-.25.22-.36.02-.02.03-.04.05-.06.06-.09.12-.18.18-.28.03-.04.05-.08.08-.14-.08,0-.13.02-.16.06-.03.04-.05.09-.08.13-.02-.09,0-.17.05-.25-.04,0-.07-.01-.11-.02-.01-.1-.02-.19-.03-.29-.09-.02-.12,0-.15.06-.07.15-.15.3-.23.44-.03.05-.09.09-.12.13-.06.08-.1.16-.16.24-.03.05-.06.1-.13.12,0-.05.01-.1.02-.15-.08.04-.11-.03-.14-.06-.05-.13.02-.25,0-.38-.02.06-.04.11-.08.19-.08-.18,0-.32.02-.48-.04,0-.06,0-.09,0-.04-.1-.09-.2-.13-.3-.01-.03-.02-.07.02-.09.04-.03.03-.09.11-.1.03,0,.03-.07,0-.1-.08-.07-.07-.14-.05-.21,0,0,0-.01,0-.02,0,0,0,0-.01-.01-.04.02-.04.06-.06.1,0,.03-.03.05-.08.04,0-.04.01-.08.03-.12.03-.09.07-.17.11-.25.01-.03.02-.06.02-.09,0-.01,0-.03,0-.05.05-.11,0-.18-.09-.26,0,0-.02-.02-.03-.04-.07.01-.15.02-.24.03,0-.05,0-.1,0-.16-.1.08-.19.03-.29-.02-.05-.03-.1-.03-.15-.02-.04,0-.08.02-.12.03-.01.03-.03.06-.05.09-.05,0-.07-.05-.1-.09.02-.02.05-.04.07-.06,0-.01,0-.02,0-.03-.01-.03-.04-.05-.02-.09.02-.03.03-.07,0-.1-.05-.04-.07,0-.1.03,0,0-.02,0-.04.02,0-.09.03-.15.07-.22.1-.15.05-.25-.14-.01-.08.1-.16.21-.28.29-.02.01-.04.03-.06.04,0-.08,0-.15,0-.22-.05-.03-.07,0-.1.01-.09.08-.18.16-.21.28-.02.07-.1.09-.17.08-.04,0-.08,0-.12,0-.06.02-.12.04-.2.04-.07,0-.13.03-.15.09-.04.1-.13.17-.15.28,0,.03-.05.05-.07.07-.07.08-.13.16-.2.25-.08-.02-.03-.16-.15-.14-.01.02-.04.04-.04.06-.03.1-.11.18-.16.28-.1.2-.22.39-.34.58-.05.09-.08.19-.16.27-.04.04-.04.11-.06.16-.07.13-.15.26-.23.39-.02.03-.04.05-.04.08,0,.01,0,.02,0,.03-.14.15-.26.32-.37.51l-3.8,6.88c-.35.63-.41,1.35-.23,2,.04.14.09.27.15.4-.02.06-.04.13-.05.19-.07.25-.14.5-.21.74-.02.06-.06.12-.1.21.01.08.02.19-.04.29-.03.05-.05.11,0,.16Zm9.72-11.28c.04-.05.01-.14.1-.2,0,.09-.05.14-.1.2Zm-.5.99s.03-.05.05-.07c0,0,.02.01.02.02,0,.03-.02.06-.07.06Zm.39.84s0,0,.01-.01c0,0,0,0,0,.01,0,0-.01,0-.02.01,0,0,0,0,0-.01Zm-.28.18s-.01,0-.02,0c0-.01,0-.02,0-.03,0,0,.01,0,.02-.01,0,.01,0,.02.01.04Zm.02.26c-.03-.07.04-.08.07-.12.02.11.02.11-.07.12Zm-8.65,8.75s-.01-.03,0-.04c.03-.11.07-.22.1-.33,0-.03.02-.05.04-.1.03.07.03.11,0,.16-.02.06-.04.12-.05.18-.01.06-.04.11-.09.13Zm-.27-.03c-.02-.09,0-.18-.07-.26-.01-.01,0-.05,0-.08.04-.08.09-.15.13-.23.02-.04.04-.08.05-.13.01-.05.03-.1.07-.14.03.06-.07.1-.02.17.06-.03.07-.09.08-.14.01.02.03.04.05.06-.02.08-.05.15-.07.23-.02.05-.03.1-.1.12-.02,0-.03.03-.04.03,0,.06.03.12.02.16-.02.07-.07.13-.11.21Z"/><path class="q" d="m35.44,29.66c-.03-.51.04-.74.17-.93.13-.19.33-.31.43-.57-.12-.63-.14.46-.36.11.27-.91-.32-.74-.23-1.84.16-.13.16.27.29.37-.2-.38-.31-.92-.47-1.51-.17-.58-.39-1.2-.71-1.69-.22-.64-.67-1.36-1.23-2.04-.56-.68-1.28-1.27-1.96-1.77l-.08.09c-.5-.58-1.32-.56-2.06-.85l.35.25c-.54.06-.8-.08-1.29-.05l-.25-.35c-.54.09-.24.26-.62.44-.48-.21-1.46.12-1.66.18-.18-.11.14-.25.2-.36-.58.26-.46.52-1.16.78l-.04-.08c-.75.53-1.56,1.09-2.25,1.8-.7.7-1.29,1.54-1.58,2.44.07-.11.12-.04.2-.05-.4.87-.67,1.87-.63,2.83.02.96.34,1.84.9,2.37-.16-.43-.15-1.05-.11-1.65.06-.6.1-1.18-.05-1.7.29-.27.17-.88.53-.88.32-.56.47-.99.64-1.44.17-.45.38-.9.88-1.34.11-.04.16,0,.22.07,0,0-.02-.02-.02-.03.35-.57.85-.93,1.39-1.19.55-.25,1.13-.42,1.79-.57.33-.1.8-.07.85.08-.22.06-.05.19-.22.27.45-.15.03-.59.73-.5l-.11.54c.14-.28.35-.26.57-.16.23.09.45.2.72.11.11.26-.21.28-.56.26.37.15.47-.13.79-.05,0,0-.1.09-.21.19-.09.08-.17.17-.19.19.32-.27.47.01.57.25-1.58-.54-3.33-.43-4.83.36.13-.11.25-.22.34-.34-.35.07-.7.36-1.05.57-.18.02-.43.12-.54.03.03.04.07.1.13.13-.03,0-.61.74-.61.78,0,0,.11-.09.25-.17.13-.07.26-.15.26-.15,0,0,0,.02-.01.03-.09.08-.17.15-.26.24-1.68,1.69-2.18,4.12-1.52,6.25.46-.06.91-.15,1.31-.36v.09c.39,0,.36-.32.67-.43-.04.09-.22.15-.14.3.11.02.61-.18.86.03.19-.17.04-.34.3-.45l.14.33c.24-.08.38.04.64-.16l-.19-.17c.39.13.75-.14,1.09.15l.02-.11c.81.28,1.82.37,2.51.59.6-.06,1.36.13,1.76-.19-.06.12-.26.06-.21.24.57.21.49-.42.95-.18.16-.24-.37-.2-.07-.36.26.19.29.68.79.35,0-.25-.28-.07-.02-.31.25.73,1.25.93,1.52,1.25l-.02-.32c.33-.04.56.37.74.31.25-.2.59-.06.9-.01.16-.14.31-.26.47-.32-.11-.56-.08.04-.31-.04Zm-5.13-7.69c-.19-.09-.38-.18-.58-.25.03-.14.09-.29.36-.17.14.13,0,.2.02.28.07-.1.29-.22.55-.12-.03.15-.26.13-.35.26Zm.83.49c-.09-.06-.17-.12-.26-.17.08-.05,0-.2.19-.22.17.18.15.29.06.39Z"/><path class="u" d="m22.69,23.6l-.07.31s.26-.39.27-.38c0,0-.2.07-.2.07Z"/></g></svg>