<?xml version="1.0" encoding="UTF-8"?><svg id="b" xmlns="http://www.w3.org/2000/svg" xmlns:xlink="http://www.w3.org/1999/xlink" viewBox="0 0 95.98 64"><defs><style>.e{fill:none;}.f{fill:#c2223e;}.g{fill:#d16439;}.h{clip-path:url(#d);}</style><clipPath id="d"><rect class="e" width="95.98" height="64"/></clipPath></defs><g id="c"><g class="h"><rect class="g" x="-33.54" y="-38.27" width="159.87" height="159.87" transform="translate(92.79 83.33) rotate(180)"/><path class="f" d="m110.71,121.6s0-.02,0-.02c1.09-.02,2.15-.14,3.18-.35.01.13.03.25.05.38h3.25c-.09-.43-.15-.88-.16-1.34,1.25-.52,2.42-1.17,3.51-1.95-.2.52-.32,1.08-.32,1.67s.11,1.11.3,1.61h5.82v-5.97c-.47-.16-.98-.26-1.51-.26-.43,0-.85.06-1.24.18.88-1.01,1.65-2.11,2.28-3.3.16.02.31.05.47.08v-10.18c-.49.05-1,.08-1.51.08-7.3,0-13.32-5.53-14.12-12.62,1.09-.02,2.15-.14,3.18-.35.62,5.49,5.29,9.77,10.94,9.77.51,0,1.01-.04,1.51-.11v-3.24c-.49.1-.99.15-1.51.15-4.22,0-7.66-3.36-7.81-7.54,1.25-.52,2.42-1.17,3.51-1.95-.2.52-.32,1.08-.32,1.67,0,2.54,2.07,4.61,4.61,4.61.53,0,1.03-.09,1.51-.26v-8.71c-.47-.16-.98-.26-1.51-.26-.43,0-.85.06-1.24.18.88-1.01,1.65-2.11,2.28-3.3.16.02.31.05.47.08v-10.18c-.49.05-1,.08-1.51.08-7.3,0-13.32-5.53-14.12-12.62,1.09-.02,2.15-.14,3.18-.35.62,5.49,5.29,9.77,10.94,9.77.51,0,1.01-.04,1.51-.11v-3.24c-.49.1-.99.15-1.51.15-4.22,0-7.66-3.36-7.81-7.54,1.25-.52,2.42-1.17,3.51-1.95-.2.52-.32,1.08-.32,1.67,0,2.54,2.07,4.61,4.61,4.61.53,0,1.03-.09,1.51-.26v-8.71c-.47-.16-.98-.26-1.51-.26-.43,0-.85.06-1.24.18.88-1.01,1.65-2.11,2.28-3.3.16.02.31.05.47.08v-10.18c-.49.05-1,.08-1.51.08-7.3,0-13.32-5.53-14.12-12.62,1.09-.02,2.15-.14,3.18-.35.62,5.49,5.29,9.77,10.94,9.77.51,0,1.01-.04,1.51-.11v-3.24c-.49.1-.99.15-1.51.15-4.22,0-7.66-3.36-7.81-7.54,1.25-.52,2.42-1.17,3.51-1.95-.2.52-.32,1.08-.32,1.67,0,2.54,2.07,4.61,4.61,4.61.53,0,1.03-.09,1.51-.26v-8.71c-.47-.16-.98-.26-1.51-.26-.43,0-.85.06-1.24.18.88-1.01,1.65-2.11,2.28-3.3.16.02.31.05.47.08V6.22c-.49.05-1,.08-1.51.08-7.3,0-13.32-5.53-14.12-12.62,1.09-.02,2.15-.14,3.18-.35.62,5.49,5.29,9.77,10.94,9.77.51,0,1.01-.04,1.51-.11V-.24c-.49.1-.99.15-1.51.15-4.22,0-7.66-3.36-7.81-7.54,1.25-.52,2.42-1.17,3.51-1.95-.2.52-.32,1.08-.32,1.67,0,2.54,2.07,4.61,4.61,4.61.53,0,1.03-.09,1.51-.26v-8.71c-.47-.16-.98-.26-1.51-.26-.43,0-.85.06-1.24.18.88-1.01,1.65-2.11,2.28-3.3.16.02.31.05.47.08v-10.18c-.49.05-1,.08-1.51.08-7.29,0-13.31-5.52-14.11-12.59h-3.39c-.8,7.08-6.82,12.59-14.11,12.59s-13.31-5.52-14.11-12.59h-3.39c-.8,7.08-6.82,12.59-14.11,12.59s-13.31-5.52-14.11-12.59h-3.39c-.8,7.08-6.82,12.59-14.11,12.59s-13.31-5.52-14.11-12.59h-3.39c-.8,7.08-6.82,12.59-14.11,12.59s-13.31-5.52-14.11-12.59h-3.39c-.8,7.08-6.82,12.59-14.11,12.59-.1,0-.21,0-.31,0v9.97c.09,0,.18,0,.28,0,1.74,3.29,4.49,5.97,7.84,7.62,0,.06,0,.13,0,.19C-25.42-3.6-28.92-.1-33.23-.1c-.1,0-.21,0-.31,0v3.2c.1,0,.21,0,.31,0,5.74,0,10.46-4.41,10.96-10.02,1.02.27,2.08.46,3.16.54-.77,7.11-6.81,12.67-14.12,12.67-.1,0-.21,0-.31,0v9.97c.09,0,.18,0,.28,0,1.74,3.29,4.49,5.97,7.84,7.62,0,.06,0,.13,0,.19,0,4.31-3.5,7.81-7.81,7.81-.1,0-.21,0-.31,0v3.2c.1,0,.21,0,.31,0,5.74,0,10.46-4.41,10.96-10.02,1.02.27,2.08.46,3.16.54-.77,7.11-6.81,12.67-14.12,12.67-.1,0-.21,0-.31,0v9.97c.09,0,.18,0,.28,0,1.74,3.29,4.49,5.97,7.84,7.62,0,.06,0,.13,0,.19,0,4.31-3.5,7.81-7.81,7.81-.1,0-.21,0-.31,0v3.2c.1,0,.21,0,.31,0,5.74,0,10.46-4.41,10.96-10.02,1.02.27,2.08.46,3.16.54-.77,7.11-6.81,12.67-14.12,12.67-.1,0-.21,0-.31,0v9.97c.09,0,.18,0,.28,0,1.74,3.29,4.49,5.97,7.84,7.62,0,.06,0,.13,0,.19,0,4.31-3.5,7.81-7.81,7.81-.1,0-.21,0-.31,0v3.2c.1,0,.21,0,.31,0,5.74,0,10.46-4.41,10.96-10.02,1.02.27,2.08.46,3.16.54-.77,7.11-6.81,12.67-14.12,12.67-.1,0-.21,0-.31,0v9.97c.09,0,.18,0,.28,0,1.74,3.29,4.49,5.97,7.84,7.62,0,.06,0,.13,0,.19,0,.55-.06,1.09-.17,1.61h3.25c.03-.2.05-.41.07-.62,1.02.27,2.08.46,3.16.54,0,.03,0,.05,0,.08h3.39s-.01-.08-.02-.12c1.08-.12,2.14-.34,3.15-.65.02.26.05.52.08.77h3.25c-.11-.52-.17-1.06-.17-1.61,0-.16,0-.32.02-.47,3.1-1.66,5.64-4.21,7.29-7.32.17-.01.34-.02.51-.02.12,0,.24,0,.36,0,1.67,3.16,4.27,5.75,7.44,7.4,0,.13.01.27.01.4,0,.55-.06,1.09-.17,1.61h3.25c.04-.24.06-.48.08-.73,1.02.3,2.07.51,3.16.62,0,.04,0,.07-.01.11h3.39s0-.06-.01-.09c1.08-.1,2.14-.29,3.16-.57.02.22.04.44.08.66h3.25c-.11-.52-.17-1.06-.17-1.61,0-.09,0-.18,0-.27,3.28-1.65,5.98-4.3,7.7-7.54.04,0,.07,0,.11,0,.26,0,.52.01.77.04,1.6,3.01,4.04,5.5,7.01,7.15.02.2.03.41.03.62,0,.55-.06,1.09-.17,1.61h3.25c.04-.28.07-.56.09-.85,1.01.32,2.07.56,3.15.69,0,.05-.01.1-.02.15h3.39s0-.04,0-.06c1.08-.07,2.14-.24,3.16-.5.02.19.04.37.07.55h3.25c-.11-.52-.17-1.06-.17-1.61,0-.02,0-.05,0-.07,1.52-.71,2.91-1.64,4.16-2.74-.6.78-.96,1.75-.96,2.81,0,.57.11,1.11.3,1.61h8.64c.19-.5.3-1.04.3-1.61,0-2.54-2.07-4.61-4.61-4.61-.98,0-1.89.31-2.63.83,1.15-1.19,2.14-2.54,2.92-4.02.31.01.61.04.91.08,1.52,2.84,3.8,5.22,6.57,6.86.03.28.05.57.05.86,0,.55-.06,1.09-.17,1.61h3.25c.05-.32.08-.65.1-.98,1.01.35,2.06.61,3.15.77,0,.07-.02.14-.02.2h3.39s0-.02,0-.03c1.08-.05,2.14-.2,3.17-.43.02.16.04.31.06.46h3.25c-.1-.49-.16-.99-.17-1.51,1.33-.59,2.58-1.34,3.71-2.22-.33.63-.52,1.35-.52,2.11,0,.57.11,1.11.3,1.61h8.64c.19-.5.3-1.04.3-1.61,0-2.54-2.07-4.61-4.61-4.61-.64,0-1.25.13-1.81.37.96-1.07,1.79-2.26,2.47-3.54.33.03.65.07.96.14,1.44,2.66,3.55,4.9,6.1,6.52.05.37.08.74.08,1.12,0,.55-.06,1.09-.17,1.61h3.25c.05-.36.09-.74.11-1.11,1.01.37,2.06.66,3.14.84,0,.09-.02.18-.03.27h3.39Zm-46.73-16.35c1.09-.15,2.14-.4,3.15-.74.28,5.94,5.19,10.68,11.19,10.68s10.64-4.48,11.16-10.18c1.03.23,2.09.36,3.18.39-.71,7.28-6.87,12.99-14.33,12.99s-13.7-5.79-14.35-13.14Zm-17.66,13.14c-7.5,0-13.67-5.76-14.34-13.09,1.08-.12,2.14-.34,3.16-.66.34,5.87,5.23,10.55,11.19,10.55s10.69-4.53,11.16-10.27c1.02.25,2.08.41,3.17.47-.71,7.28-6.87,13-14.33,13Zm-32.01,0c-7.48,0-13.65-5.74-14.34-13.05,1.09-.1,2.14-.3,3.16-.59.4,5.82,5.26,10.44,11.18,10.44s10.74-4.58,11.17-10.37c1.02.27,2.08.46,3.16.54-.7,7.3-6.86,13.03-14.34,13.03Zm-32.01,0c-7.47,0-13.64-5.72-14.34-13.02,1.09-.07,2.14-.24,3.17-.51.45,5.77,5.29,10.33,11.17,10.33s10.8-4.64,11.18-10.48c1.02.3,2.07.51,3.16.62-.68,7.31-6.85,13.06-14.34,13.06Zm-.07-22.41s.05,0,.07,0c.21,0,.41.01.62.03,1.64,3.16,4.22,5.76,7.37,7.42.01.19.02.38.02.57,0,4.42-3.59,8.01-8.01,8.01s-8.01-3.59-8.01-8.01c0-.1,0-.19,0-.28,3.41-1.64,6.2-4.37,7.93-7.72Zm-14.27-22.58c1.09-.07,2.14-.24,3.17-.51.45,5.77,5.29,10.33,11.17,10.33s10.8-4.64,11.18-10.48c1.02.3,2.07.51,3.16.62-.68,7.31-6.85,13.06-14.34,13.06s-13.64-5.72-14.34-13.02Zm14.27-9.39s.05,0,.07,0c.21,0,.41.01.62.03,1.64,3.16,4.22,5.76,7.37,7.42.01.19.02.38.02.57,0,4.42-3.59,8.01-8.01,8.01s-8.01-3.59-8.01-8.01c0-.1,0-.19,0-.28,3.41-1.64,6.2-4.37,7.93-7.72Zm-14.27-22.58c1.09-.07,2.14-.24,3.17-.51.45,5.77,5.29,10.33,11.17,10.33s10.8-4.64,11.18-10.48c1.02.3,2.07.51,3.16.62-.68,7.31-6.85,13.06-14.34,13.06s-13.64-5.72-14.34-13.02Zm14.27-9.39s.05,0,.07,0c.21,0,.41.01.62.03,1.64,3.16,4.22,5.76,7.37,7.42.01.19.02.38.02.57,0,4.42-3.59,8.01-8.01,8.01s-8.01-3.59-8.01-8.01c0-.1,0-.19,0-.28,3.41-1.64,6.2-4.37,7.93-7.72Zm-14.27-22.58c1.09-.07,2.14-.24,3.17-.51.45,5.77,5.29,10.33,11.17,10.33S-6.89,14.63-6.51,8.79c1.02.3,2.07.51,3.16.62-.68,7.31-6.85,13.06-14.34,13.06s-13.64-5.72-14.34-13.02ZM-17.77.06s.05,0,.07,0c.21,0,.41.01.62.03,1.64,3.16,4.22,5.76,7.37,7.42.01.19.02.38.02.57,0,4.42-3.59,8.01-8.01,8.01s-8.01-3.59-8.01-8.01c0-.1,0-.19,0-.28,3.41-1.64,6.2-4.37,7.93-7.72Zm-14.27-22.58c1.09-.07,2.14-.24,3.17-.51.45,5.77,5.29,10.33,11.17,10.33s10.8-4.64,11.18-10.48c1.02.3,2.07.51,3.16.62-.68,7.31-6.85,13.06-14.34,13.06s-13.64-5.72-14.34-13.02Zm14.27-9.39s.05,0,.07,0c.21,0,.41.01.62.03,1.64,3.16,4.22,5.76,7.37,7.42.01.19.02.38.02.57,0,4.42-3.59,8.01-8.01,8.01s-8.01-3.59-8.01-8.01c0-.1,0-.19,0-.28,3.41-1.64,6.2-4.37,7.93-7.72Zm31.6.01c.16,0,.31-.02.47-.02.07,0,.14,0,.21,0,1.71,3.31,4.45,6,7.79,7.65,0,.12,0,.24,0,.36,0,4.42-3.59,8.01-8.01,8.01s-8.01-3.59-8.01-8.01c0-.17,0-.33.02-.49,3.22-1.66,5.86-4.29,7.52-7.5Zm31.59.03c.23-.03.47-.04.7-.05.76,1.47,1.72,2.82,2.85,4.01-.76-.51-1.68-.81-2.67-.81-2.65,0-4.81,2.16-4.81,4.81s2.16,4.81,4.81,4.81,4.81-2.16,4.81-4.81c0-1.07-.36-2.06-.95-2.86,1.24,1.08,2.63,1.99,4.14,2.69,0,.06,0,.11,0,.17,0,4.42-3.59,8.01-8.01,8.01s-8.01-3.59-8.01-8.01c0-.24.01-.47.03-.71,3.02-1.66,5.5-4.19,7.09-7.25Zm2.5,7.96c0,.89-.72,1.61-1.61,1.61s-1.61-.72-1.61-1.61.72-1.61,1.61-1.61,1.61.72,1.61,1.61Zm29.08-7.9c.24-.04.49-.07.74-.09.67,1.29,1.49,2.48,2.45,3.56-.58-.25-1.21-.38-1.88-.38-2.65,0-4.81,2.16-4.81,4.81s2.16,4.81,4.81,4.81,4.81-2.16,4.81-4.81c0-.79-.19-1.53-.53-2.19,1.14.88,2.39,1.62,3.73,2.2,0,4.41-3.6,8-8.01,8s-8.01-3.59-8.01-8.01c0-.32.02-.64.06-.95,2.81-1.65,5.12-4.06,6.64-6.95Zm2.92,7.9c0,.89-.72,1.61-1.61,1.61s-1.61-.72-1.61-1.61.72-1.61,1.61-1.61,1.61.72,1.61,1.61Zm28.65-7.82c.26-.06.53-.1.8-.14.62,1.2,1.38,2.31,2.26,3.33-.42-.12-.86-.19-1.32-.19-2.65,0-4.81,2.16-4.81,4.81s2.16,4.81,4.81,4.81,4.81-2.16,4.81-4.81c0-.62-.12-1.21-.34-1.76,1.09.77,2.27,1.42,3.53,1.93-.09,4.34-3.65,7.84-8,7.84s-8.01-3.59-8.01-8.01c0-.41.03-.81.09-1.2,2.59-1.62,4.73-3.9,6.17-6.61Zm3.36,7.82c0,.89-.72,1.61-1.61,1.61s-1.61-.72-1.61-1.61.72-1.61,1.61-1.61,1.61.72,1.61,1.61Zm0,31.97c0,.89-.72,1.61-1.61,1.61s-1.61-.72-1.61-1.61.72-1.61,1.61-1.61,1.61.72,1.61,1.61Zm-1.61-4.81c-2.65,0-4.81,2.16-4.81,4.81s2.16,4.81,4.81,4.81,4.81-2.16,4.81-4.81c0-.62-.12-1.21-.34-1.76,1.09.77,2.27,1.42,3.53,1.93-.09,4.34-3.65,7.84-8,7.84s-8.01-3.59-8.01-8.01c0-.41.03-.81.09-1.2,2.59-1.62,4.73-3.9,6.17-6.61.26-.06.53-.1.8-.14.62,1.2,1.38,2.31,2.26,3.33-.42-.12-.86-.19-1.32-.19Zm1.61,36.79c0,.89-.72,1.61-1.61,1.61s-1.61-.72-1.61-1.61.72-1.61,1.61-1.61,1.61.72,1.61,1.61Zm-1.61-4.81c-2.65,0-4.81,2.16-4.81,4.81s2.16,4.81,4.81,4.81,4.81-2.16,4.81-4.81c0-.62-.12-1.21-.34-1.76,1.09.77,2.27,1.42,3.53,1.93-.09,4.34-3.65,7.84-8,7.84s-8.01-3.59-8.01-8.01c0-.41.03-.81.09-1.2,2.59-1.62,4.73-3.9,6.17-6.61.26-.06.53-.1.8-.14.62,1.2,1.38,2.31,2.26,3.33-.42-.12-.86-.19-1.32-.19Zm1.61,36.79c0,.89-.72,1.61-1.61,1.61s-1.61-.72-1.61-1.61.72-1.61,1.61-1.61,1.61.72,1.61,1.61Zm-1.61-4.81c-2.65,0-4.81,2.16-4.81,4.81s2.16,4.81,4.81,4.81,4.81-2.16,4.81-4.81c0-.62-.12-1.21-.34-1.76,1.09.77,2.27,1.42,3.53,1.93-.09,4.34-3.65,7.84-8,7.84s-8.01-3.59-8.01-8.01c0-.41.03-.81.09-1.2,2.59-1.62,4.73-3.9,6.17-6.61.26-.06.53-.1.8-.14.62,1.2,1.38,2.31,2.26,3.33-.42-.12-.86-.19-1.32-.19Zm1.61,36.79c0,.89-.72,1.61-1.61,1.61s-1.61-.72-1.61-1.61.72-1.61,1.61-1.61,1.61.72,1.61,1.61Zm-1.61-4.81c-2.65,0-4.81,2.16-4.81,4.81s2.16,4.81,4.81,4.81,4.81-2.16,4.81-4.81c0-.62-.12-1.21-.34-1.76,1.09.77,2.27,1.42,3.53,1.93-.09,4.34-3.65,7.84-8,7.84s-8.01-3.59-8.01-8.01c0-.41.03-.81.09-1.2,2.59-1.62,4.73-3.9,6.17-6.61.26-.06.53-.1.8-.14.62,1.2,1.38,2.31,2.26,3.33-.42-.12-.86-.19-1.32-.19ZM3.13-23.14c.4,5.82,5.26,10.44,11.18,10.44s10.74-4.58,11.17-10.37c1.02.27,2.08.46,3.16.54-.7,7.3-6.86,13.03-14.34,13.03S.66-15.24-.03-22.55c1.09-.1,2.14-.3,3.16-.59Zm32-.11c.34,5.87,5.23,10.55,11.19,10.55s10.69-4.53,11.16-10.27c1.02.25,2.08.41,3.17.47-.71,7.28-6.87,13-14.33,13s-13.67-5.76-14.34-13.09c1.08-.12,2.14-.34,3.16-.66Zm32-.13c.28,5.94,5.19,10.68,11.19,10.68s10.64-4.48,11.16-10.18c1.03.23,2.09.36,3.18.39-.71,7.28-6.87,12.99-14.33,12.99s-13.7-5.79-14.35-13.14c1.09-.15,2.14-.4,3.15-.74Zm32-.13c.21,6,5.15,10.81,11.2,10.81s10.59-4.44,11.15-10.1c1.03.2,2.09.31,3.18.32-.72,7.27-6.87,12.98-14.33,12.98s-13.73-5.82-14.35-13.19c1.09-.17,2.14-.45,3.15-.82Zm11.2,45.98c-7.53,0-13.73-5.82-14.35-13.19,1.09-.17,2.14-.45,3.15-.82.21,6,5.15,10.81,11.2,10.81s10.59-4.44,11.15-10.1c1.03.2,2.09.31,3.18.32-.72,7.27-6.87,12.98-14.33,12.98Zm0,31.97c-7.53,0-13.73-5.82-14.35-13.19,1.09-.17,2.14-.45,3.15-.82.21,6,5.15,10.81,11.2,10.81s10.59-4.44,11.15-10.1c1.03.2,2.09.31,3.18.32-.72,7.27-6.87,12.98-14.33,12.98Zm0,31.97c-7.53,0-13.73-5.82-14.35-13.19,1.09-.17,2.14-.45,3.15-.82.21,6,5.15,10.81,11.2,10.81s10.59-4.44,11.15-10.1c1.03.2,2.09.31,3.18.32-.72,7.27-6.87,12.98-14.33,12.98Zm-32.01,25.58c-4.42,0-8.01-3.59-8.01-8.01,0-.32.02-.64.06-.95,2.81-1.65,5.12-4.06,6.64-6.95.24-.04.49-.07.74-.09.67,1.29,1.49,2.48,2.45,3.56-.58-.25-1.21-.38-1.88-.38-2.65,0-4.81,2.16-4.81,4.81s2.16,4.81,4.81,4.81,4.81-2.16,4.81-4.81c0-.79-.19-1.53-.53-2.19,1.14.88,2.39,1.62,3.73,2.2,0,4.41-3.6,8-8.01,8Zm-32.01,0c-4.42,0-8.01-3.59-8.01-8.01,0-.24.01-.47.03-.71,3.02-1.66,5.5-4.19,7.09-7.25.23-.03.47-.04.7-.05.76,1.47,1.72,2.82,2.85,4.01-.76-.51-1.68-.81-2.67-.81-2.65,0-4.81,2.16-4.81,4.81s2.16,4.81,4.81,4.81,4.81-2.16,4.81-4.81c0-1.07-.36-2.06-.95-2.86,1.24,1.08,2.63,1.99,4.14,2.69,0,.06,0,.11,0,.17,0,4.42-3.59,8.01-8.01,8.01Zm-24-8.01c0,4.42-3.59,8.01-8.01,8.01s-8.01-3.59-8.01-8.01c0-.17,0-.33.02-.49,3.22-1.66,5.86-4.29,7.52-7.5.16,0,.31-.01.47-.01.07,0,.14,0,.21,0,1.71,3.31,4.45,6,7.79,7.65,0,.12,0,.24,0,.36Zm-23.94-1.76c-7.33,0-13.38-5.58-14.13-12.72,1.08-.12,2.14-.34,3.15-.65.43,5.68,5.19,10.17,10.97,10.17s10.52-4.47,10.97-10.13c1.02.3,2.07.51,3.16.62-.75,7.13-6.8,12.7-14.13,12.7Zm-.51-22c.17-.01.34-.02.51-.02.12,0,.24,0,.36,0,1.67,3.16,4.27,5.75,7.44,7.4,0,.13.01.27.01.4,0,4.31-3.5,7.81-7.81,7.81s-7.81-3.5-7.81-7.81c0-.16,0-.32.02-.47,3.1-1.66,5.64-4.21,7.29-7.32Zm-13.62-22.69c1.08-.12,2.14-.34,3.15-.65.43,5.68,5.19,10.17,10.97,10.17s10.52-4.47,10.97-10.13c1.02.3,2.07.51,3.16.62-.75,7.13-6.8,12.7-14.13,12.7s-13.38-5.58-14.13-12.72Zm13.62-9.28c.17-.01.34-.02.51-.02.12,0,.24,0,.36,0,1.67,3.16,4.27,5.75,7.44,7.4,0,.13.01.27.01.4,0,4.31-3.5,7.81-7.81,7.81s-7.81-3.5-7.81-7.81c0-.16,0-.32.02-.47,3.1-1.66,5.64-4.21,7.29-7.32Zm-13.62-22.69c1.08-.12,2.14-.34,3.15-.65.43,5.68,5.19,10.17,10.97,10.17s10.52-4.47,10.97-10.13c1.02.3,2.07.51,3.16.62-.75,7.13-6.8,12.7-14.13,12.7s-13.38-5.58-14.13-12.72ZM-2.13,16.27c.17-.01.34-.02.51-.02.12,0,.24,0,.36,0,1.67,3.16,4.27,5.75,7.44,7.4,0,.13.01.27.01.4,0,4.31-3.5,7.81-7.81,7.81s-7.81-3.5-7.81-7.81c0-.16,0-.32.02-.47,3.1-1.66,5.64-4.21,7.29-7.32ZM-15.75-6.42c1.08-.12,2.14-.34,3.15-.65C-12.16-1.39-7.41,3.1-1.62,3.1S8.9-1.37,9.35-7.02c1.02.3,2.07.51,3.16.62C11.75.73,5.7,6.3-1.62,6.3S-15,.72-15.75-6.42ZM-2.13-15.7c.17-.01.34-.02.51-.02.12,0,.24,0,.36,0,1.67,3.16,4.27,5.75,7.44,7.4,0,.13.01.27.01.4C6.19-3.6,2.69-.1-1.62-.1s-7.81-3.5-7.81-7.81c0-.16,0-.32.02-.47,3.1-1.66,5.64-4.21,7.29-7.32Zm82.07,119.69c0,.89-.72,1.61-1.61,1.61s-1.61-.72-1.61-1.61.72-1.61,1.61-1.61,1.61.72,1.61,1.61Zm-32.01,0c0,.89-.72,1.61-1.61,1.61s-1.61-.72-1.61-1.61.72-1.61,1.61-1.61,1.61.72,1.61,1.61ZM29.88-15.72s.07,0,.11,0c.26,0,.52.01.77.04,1.6,3.01,4.04,5.5,7.01,7.15.02.2.03.41.03.62C37.8-3.6,34.3-.1,29.99-.1s-7.81-3.5-7.81-7.81c0-.09,0-.18,0-.27,3.28-1.65,5.98-4.3,7.7-7.54Zm30.3,7.81c0-.78.64-1.42,1.42-1.42s1.42.64,1.42,1.42-.64,1.42-1.42,1.42-1.42-.64-1.42-1.42Zm1.42,4.61c2.54,0,4.61-2.07,4.61-4.61s-2.07-4.61-4.61-4.61c-.98,0-1.89.31-2.63.83,1.15-1.19,2.14-2.54,2.92-4.02.31.01.61.04.91.08,1.52,2.84,3.8,5.22,6.57,6.86.03.28.05.57.05.86,0,4.31-3.5,7.81-7.81,7.81s-7.81-3.5-7.81-7.81c0-.02,0-.05,0-.07,1.52-.71,2.91-1.64,4.16-2.74-.6.78-.96,1.75-.96,2.81,0,2.54,2.07,4.61,4.61,4.61Zm30.19-4.61c0-.78.64-1.42,1.42-1.42s1.42.64,1.42,1.42-.64,1.42-1.42,1.42-1.42-.64-1.42-1.42Zm1.42,4.61c2.54,0,4.61-2.07,4.61-4.61s-2.07-4.61-4.61-4.61c-.64,0-1.25.13-1.81.37.96-1.07,1.79-2.26,2.47-3.54.33.03.65.07.96.14,1.44,2.66,3.55,4.9,6.1,6.52.05.37.08.74.08,1.12,0,4.31-3.5,7.81-7.81,7.81s-7.75-3.45-7.81-7.71c1.33-.59,2.58-1.34,3.71-2.22-.33.63-.52,1.35-.52,2.11,0,2.54,2.07,4.61,4.61,4.61Zm7.73,26.24c.05.37.08.74.08,1.12,0,4.31-3.5,7.81-7.81,7.81s-7.75-3.45-7.81-7.71c1.33-.59,2.58-1.34,3.71-2.22.77-.67,1.68-1.44,2.29-2.13.96-1.07,1.79-2.26,2.47-3.54.33.03.65.07.96.14,1.44,2.66,3.55,4.9,6.1,6.52Zm0,31.97c.05.37.08.74.08,1.12,0,4.31-3.5,7.81-7.81,7.81s-7.75-3.45-7.81-7.71c1.33-.59,2.58-1.34,3.71-2.22.66-.55,1.7-1.5,2.29-2.13.96-1.07,1.79-2.26,2.47-3.54.33.03.65.07.96.14,1.44,2.66,3.55,4.9,6.1,6.52Zm0,31.97c.05.37.08.74.08,1.12,0,4.31-3.5,7.81-7.81,7.81s-7.75-3.45-7.81-7.71c1.33-.59,2.58-1.34,3.71-2.22-.33.63-.52,1.35-.52,2.11,0,2.54,2.07,4.61,4.61,4.61s4.61-2.07,4.61-4.61-2.07-4.61-4.61-4.61c-.64,0-1.25.13-1.81.37.96-1.07,1.79-2.26,2.47-3.54.33.03.65.07.96.14,1.44,2.66,3.55,4.9,6.1,6.52Zm-31.53,1.12c0,4.31-3.5,7.81-7.81,7.81s-7.81-3.5-7.81-7.81c0-.02,0-.05,0-.07,1.52-.71,2.91-1.64,4.16-2.74-.6.78-.96,1.75-.96,2.81,0,2.54,2.07,4.61,4.61,4.61s4.61-2.07,4.61-4.61-2.07-4.61-4.61-4.61c-.98,0-1.89.31-2.63.83,1.15-1.19,2.14-2.54,2.92-4.02.31.01.61.04.91.08,1.52,2.84,3.8,5.22,6.57,6.86.03.28.05.57.05.86Zm-31.61,0c0,4.31-3.5,7.81-7.81,7.81s-7.81-3.5-7.81-7.81c0-.09,0-.18,0-.27,3.28-1.65,5.98-4.3,7.7-7.54.04,0,.07,0,.11,0,.26,0,.52.01.77.04,1.6,3.01,4.04,5.5,7.01,7.15.02.2.03.41.03.62ZM-.03,73.37c1.09-.1,2.14-.3,3.16-.59.4,5.82,5.26,10.44,11.18,10.44s10.74-4.58,11.17-10.37c1.02.27,2.08.46,3.16.54-.7,7.3-6.86,13.03-14.34,13.03S.66,80.68-.03,73.37Zm13.87-9.35c.16,0,.31-.01.47-.01.07,0,.14,0,.21,0,1.71,3.31,4.45,6,7.79,7.65,0,.12,0,.24,0,.36,0,4.42-3.59,8.01-8.01,8.01s-8.01-3.59-8.01-8.01c0-.17,0-.33.02-.49,3.22-1.66,5.86-4.29,7.52-7.5ZM-.03,41.4c1.09-.1,2.14-.3,3.16-.59.4,5.82,5.26,10.44,11.18,10.44s10.74-4.58,11.17-10.37c1.02.27,2.08.46,3.16.54-.7,7.3-6.86,13.03-14.34,13.03S.66,48.7-.03,41.4Zm13.87-9.35c.16,0,.31-.01.47-.01.07,0,.14,0,.21,0,1.71,3.31,4.45,6,7.79,7.65,0,.12,0,.24,0,.36,0,4.42-3.59,8.01-8.01,8.01s-8.01-3.59-8.01-8.01c0-.17,0-.33.02-.49,3.22-1.66,5.86-4.29,7.52-7.5ZM-.03,9.42c1.09-.1,2.14-.3,3.16-.59.4,5.82,5.26,10.44,11.18,10.44s10.74-4.58,11.17-10.37c1.02.27,2.08.46,3.16.54-.7,7.3-6.86,13.03-14.34,13.03S.66,16.73-.03,9.42ZM13.84.07c.16,0,.31-.01.47-.01.07,0,.14,0,.21,0,1.71,3.31,4.45,6,7.79,7.65,0,.12,0,.24,0,.36,0,4.42-3.59,8.01-8.01,8.01s-8.01-3.59-8.01-8.01c0-.17,0-.33.02-.49C9.54,5.92,12.17,3.28,13.84.07Zm68.76,5.8c1.14.88,2.39,1.62,3.73,2.2,0,4.41-3.6,8-8.01,8s-8.01-3.59-8.01-8.01c0-.32.02-.64.06-.95,2.81-1.65,5.12-4.06,6.64-6.95.24-.04.49-.07.74-.09.67,1.29,1.49,2.48,2.45,3.56.52.64,1.46,1.49,2.4,2.24Zm0,31.97c1.14.88,2.39,1.62,3.73,2.2,0,4.41-3.6,8-8.01,8s-8.01-3.59-8.01-8.01c0-.32.02-.64.06-.95,2.81-1.65,5.12-4.06,6.64-6.95.24-.04.49-.07.74-.09.67,1.29,1.49,2.48,2.45,3.56.46.62,1.54,1.61,2.4,2.24Zm-2.66,34.17c0,.89-.72,1.61-1.61,1.61s-1.61-.72-1.61-1.61.72-1.61,1.61-1.61,1.61.72,1.61,1.61Zm-1.61-4.81c-2.65,0-4.81,2.16-4.81,4.81s2.16,4.81,4.81,4.81,4.81-2.16,4.81-4.81c0-.79-.19-1.53-.53-2.19,1.14.88,2.39,1.62,3.73,2.2,0,4.41-3.6,8-8.01,8s-8.01-3.59-8.01-8.01c0-.32.02-.64.06-.95,2.81-1.65,5.12-4.06,6.64-6.95.24-.04.49-.07.74-.09.67,1.29,1.49,2.48,2.45,3.56-.58-.25-1.21-.38-1.88-.38Zm13.47,20.81c0-.78.64-1.42,1.42-1.42s1.42.64,1.42,1.42-.64,1.42-1.42,1.42-1.42-.64-1.42-1.42Zm-31.61,0c0-.78.64-1.42,1.42-1.42s1.42.64,1.42,1.42-.64,1.42-1.42,1.42-1.42-.64-1.42-1.42ZM45.43.11c.23-.03.47-.04.7-.05.76,1.47,1.72,2.82,2.85,4.01.38.41.54.59,1.19,1.14,1.24,1.08,2.63,1.99,4.14,2.69,0,.06,0,.11,0,.17,0,4.42-3.59,8.01-8.01,8.01s-8.01-3.59-8.01-8.01c0-.24.01-.47.03-.71,3.02-1.66,5.5-4.19,7.09-7.25Zm21.7,8.49c.28,5.94,5.19,10.68,11.19,10.68s10.64-4.48,11.16-10.18c1.03.23,2.09.36,3.18.39-.71,7.28-6.87,12.99-14.33,12.99s-13.7-5.79-14.35-13.14c1.09-.15,2.14-.4,3.15-.74Zm11.19,45.85c-7.52,0-13.7-5.79-14.35-13.14,1.09-.15,2.14-.4,3.15-.74.28,5.94,5.19,10.68,11.19,10.68s10.64-4.48,11.16-10.18c1.03.23,2.09.36,3.18.39-.71,7.28-6.87,12.99-14.33,12.99Zm-16.72,15.81c-7.31,0-13.34-5.55-14.12-12.65,1.08-.07,2.14-.24,3.16-.5.53,5.58,5.24,9.95,10.96,9.95s10.66-4.6,10.99-10.37c1.01.35,2.06.61,3.15.77-.71,7.18-6.78,12.8-14.14,12.8Zm-15.29,9.77c-4.42,0-8.01-3.59-8.01-8.01,0-.24.01-.47.03-.71,3.02-1.66,5.5-4.19,7.09-7.25.23-.03.47-.04.7-.05.76,1.47,1.72,2.82,2.85,4.01-.76-.51-1.68-.81-2.67-.81-2.65,0-4.81,2.16-4.81,4.81s2.16,4.81,4.81,4.81,4.81-2.16,4.81-4.81c0-1.07-.36-2.06-.95-2.86,1.24,1.08,2.63,1.99,4.14,2.69,0,.06,0,.11,0,.17,0,4.42-3.59,8.01-8.01,8.01Zm-16.33-9.77c-7.32,0-13.36-5.56-14.12-12.68,1.08-.1,2.14-.29,3.16-.57.48,5.63,5.22,10.06,10.97,10.06s10.58-4.53,10.98-10.24c1.01.32,2.07.56,3.15.69-.73,7.15-6.79,12.75-14.13,12.75Zm-.11-22.02s.07,0,.11,0c.26,0,.52.01.77.04,1.6,3.01,4.04,5.5,7.01,7.15.02.2.03.41.03.62,0,4.31-3.5,7.81-7.81,7.81s-7.81-3.5-7.81-7.81c0-.09,0-.18,0-.27,3.28-1.65,5.98-4.3,7.7-7.54Zm-14.02-22.64c1.08-.1,2.14-.29,3.16-.57.48,5.63,5.22,10.06,10.97,10.06s10.58-4.53,10.98-10.24c1.01.32,2.07.56,3.15.69-.73,7.15-6.79,12.75-14.13,12.75s-13.36-5.56-14.12-12.68Zm14.02-9.34s.07,0,.11,0c.26,0,.52.01.77.04,1.6,3.01,4.04,5.5,7.01,7.15.02.2.03.41.03.62,0,4.31-3.5,7.81-7.81,7.81s-7.81-3.5-7.81-7.81c0-.09,0-.18,0-.27,3.28-1.65,5.98-4.3,7.7-7.54Zm18.05,55.75c0,.89-.72,1.61-1.61,1.61s-1.61-.72-1.61-1.61.72-1.61,1.61-1.61,1.61.72,1.61,1.61Zm2.25-34.83c1.24,1.08,2.63,1.99,4.14,2.69,0,.06,0,.11,0,.17,0,4.42-3.59,8.01-8.01,8.01s-8.01-3.59-8.01-8.01c0-.24.01-.47.03-.71,3.02-1.66,5.5-4.19,7.09-7.25.23-.03.47-.04.7-.05.76,1.47,1.72,2.82,2.85,4.01.28.36.71.75,1.19,1.14Zm19.19,18c.03.28.05.57.05.86,0,4.31-3.5,7.81-7.81,7.81s-7.81-3.5-7.81-7.81c0-.02,0-.05,0-.07,1.52-.71,2.91-1.64,4.16-2.74.48-.46.78-.68,1.02-.97,1.15-1.19,2.14-2.54,2.92-4.02.31.01.61.04.91.08,1.52,2.84,3.8,5.22,6.57,6.86Zm-37.39-13.83c1.08-.12,2.14-.34,3.16-.66.34,5.87,5.23,10.55,11.19,10.55s10.69-4.53,11.16-10.27c1.02.25,2.08.41,3.17.47-.71,7.28-6.87,13-14.33,13s-13.67-5.76-14.34-13.09Zm26.99-21.07c1.15-1.19,2.14-2.54,2.92-4.02.31.01.61.04.91.08,1.52,2.84,3.8,5.22,6.57,6.86.03.28.05.57.05.86,0,4.31-3.5,7.81-7.81,7.81s-7.81-3.5-7.81-7.81c0-.02,0-.05,0-.07,1.52-.71,2.91-1.64,4.16-2.74.49-.46.65-.55,1.02-.97Zm2.63,17.99c-7.31,0-13.34-5.55-14.12-12.65,1.08-.07,2.14-.24,3.16-.5.53,5.58,5.24,9.95,10.96,9.95s10.66-4.6,10.99-10.37c1.01.35,2.06.61,3.15.77-.71,7.18-6.78,12.8-14.14,12.8Zm-26.47-29.55c.34,5.87,5.23,10.55,11.19,10.55s10.69-4.53,11.16-10.27c1.02.25,2.08.41,3.17.47-.71,7.28-6.87,13-14.33,13s-13.67-5.76-14.34-13.09c1.08-.12,2.14-.34,3.16-.66Zm-3.16,64.61c1.08-.12,2.14-.34,3.16-.66.34,5.87,5.23,10.55,11.19,10.55s10.69-4.53,11.16-10.27c1.02.25,2.08.41,3.17.47-.71,7.28-6.87,13-14.33,13s-13.67-5.76-14.34-13.09Zm32-.05c1.09-.15,2.14-.4,3.15-.74.28,5.94,5.19,10.68,11.19,10.68s10.64-4.48,11.16-10.18c1.03.23,2.09.36,3.18.39-.71,7.28-6.87,12.99-14.33,12.99s-13.7-5.79-14.35-13.14ZM75.74-6.5c-.71,7.18-6.78,12.8-14.14,12.8s-13.34-5.55-14.12-12.65c1.08-.07,2.14-.24,3.16-.5.53,5.58,5.24,9.95,10.96,9.95s10.66-4.6,10.99-10.37c1.01.35,2.06.61,3.15.77Zm-31.62.05c-.73,7.15-6.79,12.75-14.13,12.75S16.63.74,15.87-6.38c1.08-.1,2.14-.29,3.16-.57.48,5.63,5.22,10.06,10.97,10.06s10.58-4.53,10.98-10.24c1.01.32,2.07.56,3.15.69Zm49.09,76.7c-7.3,0-13.33-5.53-14.12-12.63,1.08-.05,2.14-.2,3.17-.43.58,5.53,5.27,9.86,10.95,9.86s10.73-4.67,11-10.51c1.01.37,2.06.66,3.14.84-.68,7.21-6.76,12.86-14.14,12.86Zm0-31.97c-7.3,0-13.33-5.53-14.12-12.63,1.08-.05,2.14-.2,3.17-.43.58,5.53,5.27,9.86,10.95,9.86s10.73-4.67,11-10.51c1.01.37,2.06.66,3.14.84-.68,7.21-6.76,12.86-14.14,12.86Zm0-31.97c-7.3,0-13.33-5.53-14.12-12.63,1.08-.05,2.14-.2,3.17-.43.58,5.53,5.27,9.86,10.95,9.86s10.73-4.67,11-10.51c1.01.37,2.06.66,3.14.84-.68,7.21-6.76,12.86-14.14,12.86ZM29.99,102.22c-7.32,0-13.36-5.56-14.12-12.68,1.08-.1,2.14-.29,3.16-.57.48,5.63,5.22,10.06,10.97,10.06s10.58-4.53,10.98-10.24c1.01.32,2.07.56,3.15.69-.73,7.15-6.79,12.75-14.13,12.75Zm31.61,0c-7.31,0-13.34-5.55-14.12-12.65,1.08-.07,2.14-.24,3.16-.5.53,5.58,5.24,9.95,10.96,9.95s10.66-4.6,10.99-10.37c1.01.35,2.06.61,3.15.77-.71,7.18-6.78,12.8-14.14,12.8Zm31.61,0c-7.3,0-13.33-5.53-14.12-12.63,1.08-.05,2.14-.2,3.17-.43.58,5.53,5.27,9.86,10.95,9.86s10.73-4.67,11-10.51c1.01.37,2.06.66,3.14.84-.68,7.21-6.76,12.86-14.14,12.86Zm2.76,2.98c1.09-.17,2.14-.45,3.15-.82.21,6,5.15,10.81,11.2,10.81s10.59-4.44,11.15-10.1c1.03.2,2.09.31,3.18.32-.72,7.27-6.87,12.98-14.33,12.98s-13.73-5.82-14.35-13.19Zm28.85,16.21c-.78,0-1.42-.64-1.42-1.42s.64-1.42,1.42-1.42,1.42.64,1.42,1.42-.64,1.42-1.42,1.42Zm-1.42-33.39c0-.78.64-1.42,1.42-1.42s1.42.64,1.42,1.42-.64,1.42-1.42,1.42-1.42-.64-1.42-1.42Zm0-31.97c0-.78.64-1.42,1.42-1.42s1.42.64,1.42,1.42-.64,1.42-1.42,1.42-1.42-.64-1.42-1.42Zm0-31.97c0-.78.64-1.42,1.42-1.42s1.42.64,1.42,1.42-.64,1.42-1.42,1.42-1.42-.64-1.42-1.42Zm0-31.97c0-.78.64-1.42,1.42-1.42s1.42.64,1.42,1.42-.64,1.42-1.42,1.42-1.42-.64-1.42-1.42ZM61.6,121.41c-.78,0-1.42-.64-1.42-1.42s.64-1.42,1.42-1.42,1.42.64,1.42,1.42-.64,1.42-1.42,1.42Zm31.61,0c-.78,0-1.42-.64-1.42-1.42s.64-1.42,1.42-1.42,1.42.64,1.42,1.42-.64,1.42-1.42,1.42Z"/><path class="f" d="m30.29,60.66c2.54,0,4.61-2.07,4.61-4.61s-2.07-4.61-4.61-4.61-4.61,2.07-4.61,4.61,2.07,4.61,4.61,4.61Zm0-6.03c.78,0,1.42.64,1.42,1.42s-.64,1.42-1.42,1.42-1.42-.64-1.42-1.42.64-1.42,1.42-1.42Z"/><path class="f" d="m-1.62,60.66c2.54,0,4.61-2.07,4.61-4.61s-2.07-4.61-4.61-4.61-4.61,2.07-4.61,4.61,2.07,4.61,4.61,4.61Zm0-6.03c.78,0,1.42.64,1.42,1.42s-.64,1.42-1.42,1.42-1.42-.64-1.42-1.42.64-1.42,1.42-1.42Z"/><path class="f" d="m94.26,60.66c2.54,0,4.61-2.07,4.61-4.61s-2.07-4.61-4.61-4.61-4.61,2.07-4.61,4.61,2.07,4.61,4.61,4.61Zm0-6.03c.78,0,1.42.64,1.42,1.42s-.64,1.42-1.42,1.42-1.42-.64-1.42-1.42.64-1.42,1.42-1.42Z"/><path class="f" d="m62.26,60.66c2.54,0,4.61-2.07,4.61-4.61s-2.07-4.61-4.61-4.61-4.61,2.07-4.61,4.61,2.07,4.61,4.61,4.61Zm0-6.03c.78,0,1.42.64,1.42,1.42s-.64,1.42-1.42,1.42-1.42-.64-1.42-1.42.64-1.42,1.42-1.42Z"/><path class="f" d="m14.14,45.02c2.65,0,4.81-2.16,4.81-4.81s-2.16-4.81-4.81-4.81-4.81,2.16-4.81,4.81,2.16,4.81,4.81,4.81Zm0-6.43c.89,0,1.61.72,1.61,1.61s-.72,1.61-1.61,1.61-1.61-.72-1.61-1.61.72-1.61,1.61-1.61Z"/><path class="f" d="m45.71,45.02c2.65,0,4.81-2.16,4.81-4.81s-2.16-4.81-4.81-4.81-4.81,2.16-4.81,4.81,2.16,4.81,4.81,4.81Zm0-6.43c.89,0,1.61.72,1.61,1.61s-.72,1.61-1.61,1.61-1.61-.72-1.61-1.61.72-1.61,1.61-1.61Z"/><path class="f" d="m77.37,45.02c2.65,0,4.81-2.16,4.81-4.81s-2.16-4.81-4.81-4.81-4.81,2.16-4.81,4.81,2.16,4.81,4.81,4.81Zm0-6.43c.89,0,1.61.72,1.61,1.61s-.72,1.61-1.61,1.61-1.61-.72-1.61-1.61.72-1.61,1.61-1.61Z"/><path class="f" d="m30.31,28.68c2.54,0,4.61-2.07,4.61-4.61s-2.07-4.61-4.61-4.61-4.61,2.07-4.61,4.61,2.07,4.61,4.61,4.61Zm0-6.03c.78,0,1.42.64,1.42,1.42s-.64,1.42-1.42,1.42-1.42-.64-1.42-1.42.64-1.42,1.42-1.42Z"/><path class="f" d="m-1.69,28.68c2.54,0,4.61-2.07,4.61-4.61s-2.07-4.61-4.61-4.61-4.61,2.07-4.61,4.61,2.07,4.61,4.61,4.61Zm0-6.03c.78,0,1.42.64,1.42,1.42s-.64,1.42-1.42,1.42-1.42-.64-1.42-1.42.64-1.42,1.42-1.42Z"/><path class="f" d="m14.31,12.88c2.65,0,4.81-2.16,4.81-4.81s-2.16-4.81-4.81-4.81-4.81,2.16-4.81,4.81,2.16,4.81,4.81,4.81Zm0-6.43c.89,0,1.61.72,1.61,1.61s-.72,1.61-1.61,1.61-1.61-.72-1.61-1.61.72-1.61,1.61-1.61Z"/><path class="f" d="m45.8,12.88c2.65,0,4.81-2.16,4.81-4.81s-2.16-4.81-4.81-4.81-4.81,2.16-4.81,4.81,2.16,4.81,4.81,4.81Zm0-6.43c.89,0,1.61.72,1.61,1.61s-.72,1.61-1.61,1.61-1.61-.72-1.61-1.61.72-1.61,1.61-1.61Z"/><path class="f" d="m77.44,12.88c2.65,0,4.81-2.16,4.81-4.81s-2.16-4.81-4.81-4.81-4.81,2.16-4.81,4.81,2.16,4.81,4.81,4.81Zm0-6.43c.89,0,1.61.72,1.61,1.61s-.72,1.61-1.61,1.61-1.61-.72-1.61-1.61.72-1.61,1.61-1.61Z"/><path class="f" d="m94.25,29.08c2.65,0,4.81-2.16,4.81-4.81s-2.16-4.81-4.81-4.81-4.81,2.16-4.81,4.81,2.16,4.81,4.81,4.81Zm0-6.43c.89,0,1.61.72,1.61,1.61s-.72,1.61-1.61,1.61-1.61-.72-1.61-1.61.72-1.61,1.61-1.61Z"/><path class="f" d="m62.25,29.08c2.65,0,4.81-2.16,4.81-4.81s-2.16-4.81-4.81-4.81-4.81,2.16-4.81,4.81,2.16,4.81,4.81,4.81Zm0-6.43c.89,0,1.61.72,1.61,1.61s-.72,1.61-1.61,1.61-1.61-.72-1.61-1.61.72-1.61,1.61-1.61Z"/></g></g></svg>