<?xml version="1.0" encoding="UTF-8"?><svg id="b" xmlns="http://www.w3.org/2000/svg" xmlns:xlink="http://www.w3.org/1999/xlink" viewBox="0 0 96 64"><defs><style>.e,.f{fill:#cf6439;}.g{clip-path:url(#d);}.h{fill:#e0a654;}.h,.f{stroke-width:0px;}</style><clipPath id="d"><rect class="f" width="96" height="64"/></clipPath></defs><g id="c"><rect class="e" width="96" height="64"/><g class="g"><path class="h" d="m-3.34-57.68s0,.02,0,.02c-1.1.02-2.17.14-3.22.35-.01-.13-.03-.25-.05-.38h-3.29c.09.43.15.88.16,1.33-3.84,1.56-7.01,4.41-8.95,8-.16-.02-.32-.05-.47-.08v10.19c.5-.05,1.01-.08,1.52-.08,7.38.02,13.48,5.56,14.29,12.66-1.1.02-2.17.14-3.22.35-.62-5.5-5.35-9.79-11.07-9.81-.52,0-1.03.04-1.52.1v3.24c.49-.09,1-.15,1.52-.14,4.27,0,7.75,3.38,7.9,7.56-3.84,1.56-7.01,4.41-8.95,8-.16-.02-.32-.05-.47-.08V-6.22c.5-.05,1.01-.08,1.52-.08,7.38.02,13.48,5.56,14.29,12.66-1.1.02-2.17.14-3.22.35C-7.18,1.21-11.91-3.09-17.63-3.1c-.52,0-1.03.04-1.52.1V.24c.49-.09,1-.14,1.52-.14,4.27,0,7.75,3.38,7.9,7.56-3.84,1.56-7.01,4.41-8.95,8-.16-.02-.32-.05-.47-.08v10.19c.5-.05,1.01-.08,1.52-.08,7.38.02,13.48,5.56,14.29,12.66-1.1.02-2.17.14-3.22.35-.62-5.5-5.35-9.79-11.07-9.81-.52,0-1.03.04-1.52.1v3.24c.49-.09,1-.15,1.52-.14,4.27,0,7.75,3.38,7.9,7.56-3.84,1.56-7.01,4.41-8.95,8-.16-.02-.32-.05-.47-.08v10.19c.5-.05,1.01-.08,1.52-.08,7.38.02,13.48,5.56,14.29,12.66-1.1.02-2.17.14-3.22.35-.62-5.5-5.35-9.79-11.07-9.81-.52,0-1.03.04-1.52.1v3.24c.49-.09,1-.14,1.52-.14,4.27,0,7.75,3.38,7.9,7.56-3.84,1.56-7.01,4.41-8.95,8-.16-.02-.32-.05-.47-.08v10.19c.5-.05,1.01-.08,1.52-.08,7.38.02,13.47,5.55,14.28,12.64H.08c.81-7.08,6.91-12.59,14.28-12.57,7.38.02,13.47,5.55,14.28,12.64h3.43c.81-7.08,6.91-12.59,14.28-12.57,7.38.02,13.47,5.55,14.28,12.64h3.43c.81-7.08,6.91-12.59,14.28-12.57,7.38.02,13.47,5.55,14.28,12.64h3.43c.81-7.08,6.91-12.59,14.28-12.57,7.38.02,13.47,5.55,14.28,12.64h3.43c.81-7.08,6.91-12.59,14.28-12.57.11,0,.21,0,.31,0v-9.98c-.09,0-.19,0-.28,0-1.76-3.3-4.55-5.99-7.94-7.64,0-.06,0-.13,0-.19,0-4.31,3.55-7.81,7.91-7.8.1,0,.21,0,.31,0v-3.2c-.1,0-.21,0-.31,0-5.8-.01-10.58,4.39-11.09,10-1.03-.28-2.1-.46-3.2-.55.78-7.12,6.89-12.67,14.29-12.65.11,0,.21,0,.31,0v-9.98c-.09,0-.19,0-.28,0-1.76-3.3-4.55-5.99-7.94-7.64,0-.06,0-.13,0-.19,0-4.31,3.55-7.81,7.91-7.8.1,0,.21,0,.31,0v-3.2c-.1,0-.21,0-.31,0-5.8-.01-10.58,4.39-11.09,10-1.03-.28-2.1-.46-3.2-.55.78-7.12,6.89-12.67,14.29-12.65.11,0,.21,0,.31,0v-9.98c-.09,0-.19,0-.28,0-1.76-3.3-4.55-5.99-7.94-7.64,0-.06,0-.13,0-.19,0-4.31,3.55-7.81,7.91-7.8.1,0,.21,0,.31,0v-3.2c-.1,0-.21,0-.31,0-5.8-.01-10.58,4.39-11.09,10-1.03-.28-2.1-.46-3.2-.55.78-7.12,6.89-12.67,14.29-12.65.11,0,.21,0,.31,0v-9.98c-.09,0-.19,0-.28,0-1.76-3.3-4.55-5.99-7.94-7.64,0-.06,0-.13,0-.19,0-4.31,3.55-7.81,7.91-7.8.1,0,.21,0,.31,0v-3.2c-.1,0-.21,0-.31,0-5.8-.01-10.58,4.39-11.09,10-1.03-.28-2.1-.46-3.2-.55.78-7.12,6.89-12.67,14.29-12.65.11,0,.21,0,.31,0v-9.98c-.09,0-.19,0-.28,0-1.76-3.3-4.55-5.99-7.94-7.64,0-.06,0-.13,0-.19,0-.55.06-1.09.17-1.61h-3.29c-.03.2-.05.4-.07.61-1.03-.28-2.1-.46-3.2-.55,0-.03,0-.05,0-.08h-3.43s.01.07.02.12c-1.1.12-2.16.33-3.19.64-.02-.26-.05-.52-.08-.77h-3.29c.11.51.17,1.05.17,1.61,0,.16,0,.32-.02.47-3.13,1.65-5.71,4.21-7.37,7.31-.17.01-.34.02-.52.02-.12,0-.25,0-.37-.01-1.69-3.16-4.32-5.76-7.53-7.43,0-.13-.01-.27-.01-.4,0-.55.06-1.09.17-1.61h-3.29c-.04.23-.06.48-.08.72-1.03-.3-2.1-.52-3.19-.63,0-.04,0-.07.01-.11h-3.43s0,.05.01.08c-1.1.09-2.16.29-3.2.57-.02-.22-.04-.44-.08-.66h-3.29c.11.51.17,1.05.17,1.61,0,.09,0,.18,0,.27-3.32,1.64-6.05,4.29-7.79,7.53-.04,0-.07,0-.11,0-.26,0-.52-.01-.78-.04-1.62-3.01-4.09-5.51-7.1-7.18-.02-.2-.03-.41-.03-.62,0-.55.06-1.09.17-1.61h-3.29c-.04.27-.07.55-.09.84-1.03-.33-2.09-.56-3.19-.7,0-.05.01-.1.02-.15h-3.43s0,.03,0,.05c-1.1.07-2.17.23-3.2.49-.02-.19-.04-.37-.07-.55h-3.29c.11.51.17,1.05.17,1.61,0,.02,0,.05,0,.07-3.5,1.63-6.39,4.35-8.19,7.72-.31-.01-.62-.04-.92-.09-1.54-2.85-3.85-5.23-6.65-6.88-.03-.28-.05-.57-.05-.86,0-.55.06-1.09.17-1.61h-3.29c-.05.31-.08.64-.1.97-1.02-.35-2.09-.62-3.18-.78,0-.07.02-.14.02-.2h-3.43s0,.01,0,.03c-1.1.04-2.17.19-3.21.42-.02-.16-.04-.31-.06-.46h-3.29c.1.48.16.98.17,1.5-3.68,1.6-6.7,4.39-8.58,7.88-.33-.03-.66-.08-.98-.14-1.46-2.67-3.59-4.92-6.17-6.54-.05-.37-.08-.74-.08-1.12,0-.55.06-1.09.17-1.61h-3.29c-.05.36-.09.73-.11,1.11-1.02-.38-2.08-.66-3.18-.85,0-.09.02-.18.03-.27h-3.43Zm32.78,3.28c7.61.02,13.87,5.82,14.52,13.18-1.1.15-2.16.39-3.19.73-.28-5.94-5.25-10.7-11.33-10.71-5.9-.01-10.77,4.46-11.29,10.17-1.04-.23-2.11-.36-3.21-.4.72-7.28,6.95-12.98,14.51-12.97Zm32.39.07c7.59.02,13.84,5.8,14.51,13.13-1.1.12-2.17.34-3.19.65-.35-5.88-5.29-10.57-11.32-10.58-5.93-.01-10.82,4.51-11.3,10.26-1.04-.25-2.11-.42-3.21-.48.72-7.29,6.95-13,14.51-12.98Zm32.39.07c7.57.02,13.82,5.77,14.51,13.09-1.1.1-2.17.3-3.2.58-.4-5.83-5.32-10.46-11.31-10.47-5.97-.01-10.87,4.56-11.31,10.36-1.03-.28-2.1-.46-3.2-.55.7-7.31,6.94-13.03,14.51-13.01Zm32.39.07c7.56.02,13.8,5.76,14.51,13.06-1.1.07-2.17.24-3.2.5-.45-5.78-5.35-10.35-11.3-10.36-6.01-.01-10.93,4.62-11.31,10.47-1.03-.3-2.1-.52-3.2-.63.69-7.32,6.93-13.06,14.51-13.04Zm.07,22.43s-.05,0-.07,0c-.21,0-.42-.01-.63-.03-1.66-3.17-4.27-5.77-7.46-7.44-.01-.19-.02-.38-.02-.57,0-4.42,3.64-8.01,8.11-8,4.47,0,8.11,3.61,8.11,8.03,0,.1,0,.19,0,.29-3.45,1.64-6.27,4.36-8.03,7.71Zm14.44,22.63c-1.1.07-2.17.24-3.2.5-.45-5.78-5.35-10.35-11.3-10.36-6.01-.01-10.93,4.62-11.31,10.47-1.03-.3-2.1-.52-3.2-.63.69-7.32,6.93-13.06,14.51-13.04,7.56.02,13.8,5.76,14.51,13.06ZM126.67.26s-.05,0-.07,0c-.21,0-.42-.01-.63-.03-1.66-3.17-4.27-5.77-7.46-7.44-.01-.19-.02-.38-.02-.57,0-4.42,3.64-8.01,8.11-8,4.47,0,8.11,3.61,8.11,8.03,0,.1,0,.19,0,.29-3.45,1.64-6.27,4.36-8.03,7.71Zm14.44,22.63c-1.1.07-2.17.24-3.2.5-.45-5.78-5.35-10.35-11.3-10.36-6.01-.01-10.93,4.62-11.31,10.47-1.03-.3-2.1-.52-3.2-.63.69-7.32,6.93-13.06,14.51-13.04,7.56.02,13.8,5.76,14.51,13.06Zm-14.44,9.37s-.05,0-.07,0c-.21,0-.42-.01-.63-.03-1.66-3.17-4.27-5.77-7.46-7.44-.01-.19-.02-.38-.02-.57,0-4.42,3.64-8.01,8.11-8,4.47,0,8.11,3.61,8.11,8.03,0,.1,0,.19,0,.29-3.45,1.64-6.27,4.36-8.03,7.71Zm14.44,22.63c-1.1.07-2.17.24-3.2.5-.45-5.78-5.35-10.35-11.3-10.36-6.01-.01-10.93,4.62-11.31,10.47-1.03-.3-2.1-.52-3.2-.63.69-7.32,6.93-13.06,14.51-13.04,7.56.02,13.8,5.76,14.51,13.06Zm-14.44,9.37s-.05,0-.07,0c-.21,0-.42-.01-.63-.03-1.66-3.17-4.27-5.77-7.46-7.44-.01-.19-.02-.38-.02-.57,0-4.42,3.64-8.01,8.11-8,4.47,0,8.11,3.61,8.11,8.03,0,.1,0,.19,0,.29-3.45,1.64-6.27,4.36-8.03,7.71Zm14.44,22.63c-1.1.07-2.17.24-3.2.5-.45-5.78-5.35-10.35-11.3-10.36-6.01-.01-10.93,4.62-11.31,10.47-1.03-.3-2.1-.52-3.2-.63.69-7.32,6.93-13.06,14.51-13.04,7.56.02,13.8,5.76,14.51,13.06Zm-14.44,9.37s-.05,0-.07,0c-.21,0-.42-.01-.63-.03-1.66-3.17-4.27-5.77-7.46-7.44-.01-.19-.02-.38-.02-.57,0-4.42,3.64-8.01,8.11-8,4.47,0,8.11,3.61,8.11,8.03,0,.1,0,.19,0,.29-3.45,1.64-6.27,4.36-8.03,7.71Zm-31.98-.08c-.16,0-.32.01-.48.01-.07,0-.14,0-.22,0-1.73-3.31-4.5-6.01-7.88-7.67,0-.12,0-.24,0-.36,0-4.42,3.64-8.01,8.11-8,4.47,0,8.11,3.61,8.11,8.03,0,.17,0,.33-.02.49-3.26,1.65-5.93,4.28-7.61,7.49Zm-31.97-.1c-.23.03-.47.04-.71.04-1.8-3.44-4.72-6.22-8.28-7.86,0-.06,0-.11,0-.17,0-4.42,3.64-8.01,8.11-8,4.47,0,8.11,3.61,8.11,8.03,0,.24-.01.47-.03.71-3.06,1.65-5.56,4.18-7.18,7.25Zm-31.96-.13c-.25.04-.5.07-.75.08-1.87-3.56-4.94-6.42-8.68-8.02,0-4.42,3.64-8,8.11-7.99,4.47,0,8.11,3.61,8.11,8.03,0,.32-.02.64-.06.95-2.85,1.64-5.18,4.05-6.72,6.95Zm-31.95-.15c-.27.06-.54.1-.81.14-1.93-3.67-5.15-6.58-9.05-8.15.09-4.34,3.69-7.84,8.1-7.83,4.47,0,8.11,3.61,8.11,8.03,0,.41-.03.81-.09,1.21-2.62,1.62-4.79,3.9-6.25,6.6Zm106.71-8.36c-.4-5.83-5.32-10.46-11.31-10.47-5.97-.01-10.87,4.56-11.31,10.36-1.03-.28-2.1-.46-3.2-.55.7-7.31,6.94-13.03,14.51-13.01,7.57.02,13.82,5.77,14.51,13.09-1.1.1-2.17.3-3.2.58Zm-32.38.04c-.35-5.88-5.29-10.57-11.32-10.58-5.93-.01-10.82,4.51-11.3,10.26-1.04-.25-2.11-.42-3.21-.48.72-7.29,6.95-13,14.51-12.98,7.59.02,13.84,5.8,14.51,13.13-1.1.12-2.17.34-3.19.65Zm-32.38.06c-.28-5.94-5.25-10.7-11.33-10.71-5.9-.01-10.77,4.46-11.29,10.17-1.04-.23-2.11-.36-3.21-.4.72-7.28,6.95-12.98,14.51-12.97,7.61.02,13.87,5.82,14.52,13.18-1.1.15-2.16.39-3.19.73ZM29.43-47.99c4.47,0,8.11,3.61,8.11,8.03,0,.32-.02.64-.06.95-2.85,1.64-5.18,4.05-6.72,6.95-.25.04-.5.07-.75.08-1.87-3.56-4.94-6.42-8.68-8.02,0-4.42,3.64-8,8.11-7.99Zm32.39.07c4.47,0,8.11,3.61,8.11,8.03,0,.24-.01.47-.03.71-3.06,1.65-5.56,4.18-7.18,7.25-.23.03-.47.04-.71.04-1.8-3.44-4.72-6.22-8.28-7.86,0-.06,0-.11,0-.17,0-4.42,3.64-8.01,8.11-8Zm24.28,8.07c0-4.42,3.64-8.01,8.11-8,4.47,0,8.11,3.61,8.11,8.03,0,.17,0,.33-.02.49-3.26,1.65-5.93,4.28-7.61,7.49-.16,0-.32.01-.48.01-.07,0-.14,0-.22,0-1.73-3.31-4.5-6.01-7.88-7.67,0-.12,0-.24,0-.36Zm24.23,1.82c7.42.02,13.54,5.62,14.3,12.76-1.1.12-2.16.33-3.19.64-.44-5.68-5.25-10.19-11.11-10.2-5.84-.01-10.65,4.45-11.1,10.11-1.03-.3-2.1-.52-3.19-.63.76-7.13,6.88-12.7,14.3-12.68Zm.52,22.02c-.17.01-.34.02-.52.02-.12,0-.25,0-.37-.01-1.69-3.16-4.32-5.76-7.53-7.43,0-.13-.01-.27-.01-.4,0-4.31,3.55-7.81,7.91-7.8,4.36,0,7.91,3.52,7.91,7.84,0,.16,0,.32-.02.47-3.13,1.65-5.71,4.21-7.37,7.31Zm13.78,22.74c-1.1.12-2.16.33-3.19.64-.44-5.68-5.25-10.19-11.11-10.2-5.84-.01-10.65,4.45-11.1,10.11-1.03-.3-2.1-.52-3.19-.63.76-7.13,6.88-12.7,14.3-12.68,7.42.02,13.54,5.62,14.3,12.76Zm-13.78,9.26c-.17.01-.34.02-.52.02-.12,0-.25,0-.37-.01-1.69-3.16-4.32-5.76-7.53-7.43,0-.13-.01-.27-.01-.4,0-4.31,3.55-7.81,7.91-7.8,4.36,0,7.91,3.52,7.91,7.84,0,.16,0,.32-.02.47-3.13,1.65-5.71,4.21-7.37,7.31Zm13.78,22.74c-1.1.12-2.16.33-3.19.64-.44-5.68-5.25-10.19-11.11-10.2-5.84-.01-10.65,4.45-11.1,10.11-1.03-.3-2.1-.52-3.19-.63.76-7.13,6.88-12.7,14.3-12.68,7.42.02,13.54,5.62,14.3,12.76Zm-13.78,9.26c-.17.01-.34.02-.52.02-.12,0-.25,0-.37-.01-1.69-3.16-4.32-5.76-7.53-7.43,0-.13-.01-.27-.01-.4,0-4.31,3.55-7.81,7.91-7.8,4.36,0,7.91,3.52,7.91,7.84,0,.16,0,.32-.02.47-3.13,1.65-5.71,4.21-7.37,7.31Zm13.78,22.74c-1.1.12-2.16.33-3.19.64-.44-5.68-5.25-10.19-11.11-10.2-5.84-.01-10.65,4.45-11.1,10.11-1.03-.3-2.1-.52-3.19-.63.76-7.13,6.88-12.7,14.3-12.68,7.42.02,13.54,5.62,14.3,12.76Zm-13.78,9.26c-.17.01-.34.02-.52.02-.12,0-.25,0-.37-.01-1.69-3.16-4.32-5.76-7.53-7.43,0-.13-.01-.27-.01-.4,0-4.31,3.55-7.81,7.91-7.8,4.36,0,7.91,3.52,7.91,7.84,0,.16,0,.32-.02.47-3.13,1.65-5.71,4.21-7.37,7.31Zm-104.31-6.9c-.05-.37-.08-.74-.08-1.12,0-4.31,3.55-7.81,7.91-7.8,4.32,0,7.85,3.47,7.9,7.73-3.68,1.6-6.7,4.39-8.58,7.88-.33-.03-.66-.08-.98-.14-1.46-2.67-3.59-4.92-6.17-6.54ZM.05,70.63c.69-7.21,6.84-12.86,14.31-12.85,7.39.02,13.49,5.57,14.29,12.67-1.1.04-2.17.19-3.21.42-.58-5.54-5.33-9.88-11.08-9.9-5.97-.01-10.86,4.65-11.13,10.5-1.02-.38-2.08-.66-3.18-.85Zm6.49-29.53c-.05-.37-.08-.74-.08-1.12,0-4.31,3.55-7.81,7.91-7.8,4.32,0,7.85,3.47,7.9,7.73-3.68,1.6-6.7,4.39-8.58,7.88-.33-.03-.66-.08-.98-.14-1.46-2.67-3.59-4.92-6.17-6.54ZM.05,38.62c.69-7.21,6.84-12.86,14.31-12.85,7.39.02,13.49,5.57,14.29,12.67-1.1.04-2.17.19-3.21.42-.58-5.54-5.33-9.88-11.08-9.9-5.97-.01-10.86,4.65-11.13,10.5-1.02-.38-2.08-.66-3.18-.85ZM6.54,9.1c-.05-.37-.08-.74-.08-1.12C6.46,3.66,10,.16,14.36.17c4.32,0,7.85,3.47,7.9,7.73-3.68,1.6-6.7,4.39-8.58,7.88-.33-.03-.66-.08-.98-.14-1.46-2.67-3.59-4.92-6.17-6.54ZM.05,6.61C.74-.6,6.89-6.25,14.36-6.23c7.39.02,13.49,5.57,14.29,12.67-1.1.04-2.17.19-3.21.42-.58-5.54-5.33-9.88-11.08-9.9-5.97-.01-10.86,4.65-11.13,10.5-1.02-.38-2.08-.66-3.18-.85Zm6.49-29.53c-.05-.37-.08-.74-.08-1.12,0-4.31,3.55-7.81,7.91-7.8,4.32,0,7.85,3.47,7.9,7.73-3.68,1.6-6.7,4.39-8.58,7.88-.33-.03-.66-.08-.98-.14-1.46-2.67-3.59-4.92-6.17-6.54Zm71.91,102.87s-.07,0-.11,0c-.26,0-.52-.01-.78-.04-1.62-3.01-4.09-5.51-7.1-7.18-.02-.2-.03-.41-.03-.62,0-4.31,3.55-7.81,7.91-7.8,4.36,0,7.91,3.52,7.91,7.84,0,.09,0,.18,0,.27-3.32,1.64-6.05,4.29-7.79,7.53Zm-32.39-.07c-.31-.01-.62-.04-.92-.09-1.54-2.85-3.85-5.23-6.65-6.88-.03-.28-.05-.57-.05-.86,0-4.31,3.55-7.81,7.91-7.8,4.36,0,7.91,3.52,7.91,7.84,0,.02,0,.05,0,.07-3.5,1.63-6.39,4.35-8.19,7.72Zm-7.62-103.85c0-4.31,3.55-7.81,7.91-7.8,4.36,0,7.91,3.52,7.91,7.84,0,.02,0,.05,0,.07-3.5,1.63-6.39,4.35-8.19,7.72-.31-.01-.62-.04-.92-.09-1.54-2.85-3.85-5.23-6.65-6.88-.03-.28-.05-.57-.05-.86Zm31.99.07c0-4.31,3.55-7.81,7.91-7.8,4.36,0,7.91,3.52,7.91,7.84,0,.09,0,.18,0,.27-3.32,1.64-6.05,4.29-7.79,7.53-.04,0-.07,0-.11,0-.26,0-.52-.01-.78-.04-1.62-3.01-4.09-5.51-7.1-7.18-.02-.2-.03-.41-.03-.62Zm38.28,14.74c-1.1.1-2.17.3-3.2.58-.4-5.83-5.32-10.46-11.31-10.47-5.97-.01-10.87,4.56-11.31,10.36-1.03-.28-2.1-.46-3.2-.55.7-7.31,6.94-13.03,14.51-13.01,7.57.02,13.82,5.77,14.51,13.09ZM94.69.17c-.16,0-.32.01-.48.01-.07,0-.14,0-.22,0-1.73-3.31-4.5-6.01-7.88-7.67,0-.12,0-.24,0-.36,0-4.42,3.64-8.01,8.11-8,4.47,0,8.11,3.61,8.11,8.03,0,.17,0,.33-.02.49-3.26,1.65-5.93,4.28-7.61,7.49Zm14.03,22.68c-1.1.1-2.17.3-3.2.58-.4-5.83-5.32-10.46-11.31-10.47-5.97-.01-10.87,4.56-11.31,10.36-1.03-.28-2.1-.46-3.2-.55.7-7.31,6.94-13.03,14.51-13.01,7.57.02,13.82,5.77,14.51,13.09Zm-14.03,9.33c-.16,0-.32.01-.48.01-.07,0-.14,0-.22,0-1.73-3.31-4.5-6.01-7.88-7.67,0-.12,0-.24,0-.36,0-4.42,3.64-8.01,8.11-8,3.67,0,6.91,4.46,6.91,8.88,0,.17,1.19-.52,1.18-.36-3.26,1.65-5.91,3.83-7.61,7.49Zm14.03,22.68c-1.1.1-2.17.3-3.2.58-.4-5.83-5.32-10.46-11.31-10.47-5.97-.01-10.87,4.56-11.31,10.36-1.03-.28-2.1-.46-3.2-.55.7-7.31,6.94-13.03,14.51-13.01,7.57.02,13.82,5.77,14.51,13.09Zm-14.03,9.33c-.16,0-.32.01-.48.01-.07,0-.14,0-.22,0-1.73-3.31-4.5-6.01-7.88-7.67,0-.12,0-.24,0-.36,0-4.42,3.64-7.95,8.11-8,3.21-.03,6.94,3.71,6.94,8.13,0,.17,1.16.23,1.15.39-3.26,1.65-5.88,3.69-7.61,7.49ZM29.43,41.63c7.61.02,13.87,5.82,14.52,13.18-1.1.15-2.16.39-3.19.73-.28-5.94-5.25-10.7-11.33-10.71-5.9-.01-10.77,4.46-11.29,10.17-1.04-.23-2.11-.36-3.21-.4.72-7.28,6.95-12.98,14.51-12.97Zm0-32.01c7.61.02,13.87,5.82,14.52,13.18-1.1.15-2.16.39-3.19.73-.28-5.94-5.25-10.7-11.33-10.71-5.9-.01-10.77,4.46-11.29,10.17-1.04-.23-2.11-.36-3.21-.4.72-7.28,6.95-12.98,14.51-12.97Zm33.28,54.46c-.23.03-.47.04-.71.04-1.8-3.44-4.72-6.22-8.28-7.86,0-.06,0-.11,0-.17,0-4.42,3.64-8.01,8.11-8,4.47,0,8.11,3.61,8.11,8.03,0,.24-.01.47-.03.71-3.06,1.65-5.56,4.18-7.18,7.25ZM46.35-6.16c7.4.02,13.5,5.58,14.29,12.69-1.1.07-2.17.23-3.2.49-.54-5.58-5.31-9.97-11.09-9.98-5.93-.01-10.79,4.58-11.12,10.36-1.02-.35-2.09-.62-3.18-.78.72-7.18,6.86-12.8,14.31-12.78Zm15.47-9.75c4.47,0,8.11,3.61,8.11,8.03,0,.24-.01.47-.03.71-3.06,1.65-5.56,4.18-7.18,7.25-.23.03-.47.04-.71.04-1.8-3.44-4.72-6.22-8.28-7.86,0-.06,0-.11,0-.17,0-4.42,3.64-8.01,8.11-8Zm16.52,9.82c7.41.02,13.52,5.6,14.29,12.72-1.1.09-2.16.29-3.2.57-.49-5.63-5.28-10.08-11.1-10.09-5.88-.01-10.71,4.51-11.11,10.23-1.03-.33-2.09-.56-3.19-.7.74-7.16,6.87-12.75,14.3-12.73Zm.11,22.04s-.07,0-.11,0c-.26,0-.52-.01-.78-.04-1.62-3.01-4.09-5.51-7.1-7.18-.02-.2-.03-.41-.03-.62,0-4.31,3.55-7.81,7.91-7.8,4.36,0,7.91,3.52,7.91,7.84,0,.09,0,.18,0,.27-3.32,1.64-6.05,4.29-7.79,7.53Zm14.18,22.69c-1.1.09-2.16.29-3.2.57-.49-5.63-5.28-10.08-11.1-10.09-5.88-.01-10.71,4.51-11.11,10.23-1.03-.33-2.09-.56-3.19-.7.74-7.16,6.87-12.75,14.3-12.73,7.41.02,13.52,5.6,14.29,12.72Zm-14.18,9.31s-.07,0-.11,0c-.26,0-.52-.01-.78-.04-1.62-3.01-4.09-5.51-7.1-7.18-.02-.2-.03-.41-.03-.62,0-4.31,3.55-7.81,7.91-7.8,4.36,0,7.91,3.52,7.91,7.84,0,.09,0,.18,0,.27-3.32,1.64-6.05,4.29-7.79,7.53Zm-39.96-7.04c-.03-.28-.05-.57-.05-.86,0-4.31,3.55-7.81,7.91-7.8,4.36,0,7.91,3.52,7.91,7.84,0,.02,0,.05,0,.07-3.5,1.63-6.39,4.35-8.19,7.72-.31-.01-.62-.04-.92-.09-1.54-2.85-3.85-5.23-6.65-6.88Zm0-32.01c-.03-.28-.05-.57-.05-.86,0-4.31,3.55-7.81,7.91-7.8,4.36,0,7.91,3.52,7.91,7.84,0,.02,0,.05,0,.07-3.5,1.63-6.39,4.35-8.19,7.72-.31-.01-.62-.04-.92-.09-1.54-2.85-3.85-5.23-6.65-6.88Zm23.33.79c7.59.02,13.84,5.8,14.51,13.13-1.1.12-2.17.34-3.19.65-.35-5.88-5.29-10.57-11.32-10.58-5.93-.01-10.82,4.51-11.3,10.26-1.04-.25-2.11-.42-3.21-.48.72-7.29,6.95-13,14.51-12.98Zm-8.11,14.4c0-4.42,3.64-8.01,8.11-8,4.47,0,8.11,3.61,8.11,8.03,0,.24-.01.47-.03.71-3.06,1.65-5.56,4.18-7.18,7.25-.23.03-.47.04-.71.04-1.8-3.44-4.72-6.22-8.28-7.86,0-.06,0-.11,0-.17Zm-7.36,1.75c7.4.02,13.5,5.58,14.29,12.69-1.1.07-2.17.23-3.2.49-.54-5.58-5.31-9.97-11.09-9.98-5.93-.01-10.79,4.58-11.12,10.36-1.02-.35-2.09-.62-3.18-.78.72-7.18,6.86-12.8,14.31-12.78Zm26.79,29.64c-.35-5.88-5.29-10.57-11.32-10.58-5.93-.01-10.82,4.51-11.3,10.26-1.04-.25-2.11-.42-3.21-.48.72-7.29,6.95-13,14.51-12.98,7.59.02,13.84,5.8,14.51,13.13-1.1.12-2.17.34-3.19.65ZM29.43-15.98c4.47,0,8.11,3.61,8.11,8.03,0,.32-.02.64-.06.95-2.85,1.64-5.18,4.05-6.72,6.95-.25.04-.5.07-.75.08-1.87-3.56-4.94-6.42-8.68-8.02,0-4.42,3.64-8,8.11-7.99Zm0,32.01c4.47,0,8.11,3.61,8.11,8.03,0,.32-.02.64-.06.95-2.85,1.64-5.18,4.05-6.72,6.95-.25.04-.5.07-.75.08-1.87-3.56-4.94-6.42-8.68-8.02,0-4.42,3.64-8,8.11-7.99Zm0,32.01c4.47,0,8.11,3.61,8.11,8.03,0,.32-.02.64-.06.95-2.85,1.64-5.18,4.05-6.72,6.95-.25.04-.5.07-.75.08-1.87-3.56-4.94-6.42-8.68-8.02,0-4.42,3.64-8,8.11-7.99ZM76.34-9.18c-1.1.12-2.17.34-3.19.65-.35-5.88-5.29-10.57-11.32-10.58-5.93-.01-10.82,4.51-11.3,10.26-1.04-.25-2.11-.42-3.21-.48.72-7.29,6.95-13,14.51-12.98,7.59.02,13.84,5.8,14.51,13.13Zm-32.39-.02c-1.1.15-2.16.39-3.19.73-.28-5.94-5.25-10.7-11.33-10.71-5.9-.01-10.77,4.46-11.29,10.17-1.04-.23-2.11-.36-3.21-.4.72-7.28,6.95-12.98,14.51-12.97,7.61.02,13.87,5.82,14.52,13.18Zm-11.9,79.84c.72-7.18,6.86-12.8,14.31-12.78,7.4.02,13.5,5.58,14.29,12.69-1.1.07-2.17.23-3.2.49-.54-5.58-5.31-9.97-11.09-9.98-5.93-.01-10.79,4.58-11.12,10.36-1.02-.35-2.09-.62-3.18-.78Zm31.99.02c.74-7.16,6.87-12.75,14.3-12.73,7.41.02,13.52,5.6,14.29,12.72-1.1.09-2.16.29-3.2.57-.49-5.63-5.28-10.08-11.1-10.09-5.88-.01-10.71,4.51-11.11,10.23-1.03-.33-2.09-.56-3.19-.7Zm14.3-108.75c7.41.02,13.52,5.6,14.29,12.72-1.1.09-2.16.29-3.2.57-.49-5.63-5.28-10.08-11.1-10.09-5.88-.01-10.71,4.51-11.11,10.23-1.03-.33-2.09-.56-3.19-.7.74-7.16,6.87-12.75,14.3-12.73Zm-31.99-.07c7.4.02,13.5,5.58,14.29,12.69-1.1.07-2.17.23-3.2.49-.54-5.58-5.31-9.97-11.09-9.98-5.93-.01-10.79,4.58-11.12,10.36-1.02-.35-2.09-.62-3.18-.78.72-7.18,6.86-12.8,14.31-12.78Zm-31.99-.07c7.39.02,13.49,5.57,14.29,12.67-1.1.04-2.17.19-3.21.42-.58-5.54-5.33-9.88-11.08-9.9-5.97-.01-10.86,4.65-11.13,10.5-1.02-.38-2.08-.66-3.18-.85.69-7.21,6.84-12.86,14.31-12.85Zm-25.42-1.99c.09-4.34,3.69-7.84,8.1-7.83,4.47,0,8.11,3.61,8.11,8.03,0,.41-.03.81-.09,1.21-2.62,1.62-4.79,3.9-6.25,6.6-.27.06-.54.1-.81.14-1.93-3.67-5.15-6.58-9.05-8.15ZM-2.96-22.46c7.62.02,13.9,5.85,14.52,13.24-1.1.17-2.17.44-3.19.81-.21-6-5.21-10.83-11.33-10.85-5.88-.01-10.72,4.42-11.29,10.09-1.04-.2-2.12-.32-3.22-.33.73-7.28,6.95-12.97,14.5-12.96Zm-8.1,14.23c.09-4.34,3.69-7.84,8.1-7.83,4.47,0,8.11,3.61,8.11,8.03,0,.41-.03.81-.09,1.21C2.43-5.2.27-2.92-1.19-.21c-.27.06-.54.1-.81.14-1.93-3.67-5.15-6.58-9.05-8.15ZM-2.96,9.55c7.62.02,13.9,5.85,14.52,13.24-1.1.17-2.17.44-3.19.81-.21-6-5.21-10.83-11.33-10.85-5.88-.01-10.72,4.42-11.29,10.09-1.04-.2-2.12-.32-3.22-.33.73-7.28,6.95-12.97,14.5-12.96Zm-8.1,14.23c.09-4.34,3.69-7.84,8.1-7.83,4.47,0,8.11,3.61,8.11,8.03,0,.41-.03.81-.09,1.21-2.62,1.62-4.79,3.9-6.25,6.6-.27.06-.54.1-.81.14-1.93-3.67-5.15-6.58-9.05-8.15ZM-2.96,41.56c7.62.02,13.9,5.85,14.52,13.24-1.1.17-2.17.44-3.19.81-.21-6-5.21-10.83-11.33-10.85-5.88-.01-10.72,4.42-11.29,10.09-1.04-.2-2.12-.32-3.22-.33.73-7.28,6.95-12.97,14.5-12.96Zm-8.1,14.23c.09-4.34,3.69-7.84,8.1-7.83,4.47,0,8.11,3.61,8.11,8.03,0,.41-.03.81-.09,1.21-2.62,1.62-4.79,3.9-6.25,6.6-.27.06-.54.1-.81.14-1.93-3.67-5.15-6.58-9.05-8.15Zm8.1,17.78c7.62.02,13.9,5.85,14.52,13.24-1.1.17-2.17.44-3.19.81-.21-6-5.21-10.83-11.33-10.85-5.88-.01-10.72,4.42-11.29,10.09-1.04-.2-2.12-.32-3.22-.33.73-7.28,6.95-12.97,14.5-12.96ZM11.57-41.22c-1.1.17-2.17.44-3.19.81-.21-6-5.21-10.83-11.33-10.85-5.88-.01-10.72,4.42-11.29,10.09-1.04-.2-2.12-.32-3.22-.33.73-7.28,6.95-12.97,14.5-12.96,7.62.02,13.9,5.85,14.52,13.24Z"/></g></g></svg>