<?xml version="1.0" encoding="UTF-8"?><svg id="b" xmlns="http://www.w3.org/2000/svg" xmlns:xlink="http://www.w3.org/1999/xlink" viewBox="0 0 127.78 64"><defs><style>.e{fill:#294c92;opacity:.75;}.e,.f{stroke-width:0px;}.g,.f{fill:#e0f8f1;}.h{clip-path:url(#d);}</style><clipPath id="d"><rect class="f" width="127.78" height="64"/></clipPath></defs><g id="c"><rect class="g" width="127.78" height="64"/><g class="h"><path class="e" d="m295.43,32.44v2.93c-1.25.42-2.15,1.6-2.15,2.99s.9,2.57,2.15,2.99v2.93c-2.83-.49-5-2.95-5-5.92s2.16-5.43,5-5.92Zm-88.85,166.05c0,3.32-2.7,6.01-6.01,6.01s-6.01-2.7-6.01-6.01,2.7-6.01,6.01-6.01,6.01,2.7,6.01,6.01Zm-2.85,0c0-1.74-1.42-3.16-3.16-3.16s-3.16,1.42-3.16,3.16,1.42,3.16,3.16,3.16,3.16-1.42,3.16-3.16ZM290.43,6.1c0,2.97,2.16,5.43,5,5.92v-2.93c-1.25-.43-2.15-1.6-2.15-2.99s.9-2.56,2.15-2.99V.18c-2.83.49-5,2.95-5,5.92Zm0,160.36c0,2.97,2.16,5.43,5,5.92v-2.93c-1.25-.43-2.15-1.6-2.15-2.99s.9-2.57,2.15-2.99v-2.93c-2.83.49-5,2.95-5,5.92Zm-127.84-64.05c0-3.32,2.7-6.01,6.01-6.01s6.01,2.7,6.01,6.01-2.7,6.01-6.01,6.01-6.01-2.7-6.01-6.01Zm2.85,0c0,1.74,1.42,3.16,3.16,3.16s3.16-1.42,3.16-3.16-1.42-3.16-3.16-3.16-3.16,1.42-3.16,3.16Zm124.99,95.84c0,2.97,2.16,5.43,5,5.92v-2.93c-1.25-.43-2.15-1.6-2.15-2.99s.9-2.57,2.15-2.99v-2.93c-2.83.49-5,2.95-5,5.92Zm0-64.05c0,2.97,2.16,5.43,5,5.92v-2.93c-1.25-.42-2.15-1.6-2.15-2.99s.9-2.57,2.15-2.99v-2.93c-2.83.49-5,2.95-5,5.92Zm0-31.79c0,2.97,2.16,5.43,5,5.92v-2.93c-1.25-.42-2.15-1.6-2.15-2.99s.9-2.57,2.15-2.99v-2.93c-2.83.49-5,2.95-5,5.92Zm-31.96,63.82c0-3.32,2.7-6.01,6.01-6.01s6.01,2.7,6.01,6.01-2.7,6.01-6.01,6.01-6.01-2.7-6.01-6.01Zm2.85,0c0,1.74,1.42,3.16,3.16,3.16s3.16-1.42,3.16-3.16-1.42-3.16-3.16-3.16-3.16,1.42-3.16,3.16Zm-2.85-95.85c0-3.32,2.7-6.01,6.01-6.01s6.01,2.7,6.01,6.01-2.7,6.01-6.01,6.01-6.01-2.7-6.01-6.01Zm2.85,0c0,1.74,1.42,3.16,3.16,3.16s3.16-1.42,3.16-3.16-1.42-3.16-3.16-3.16-3.16,1.42-3.16,3.16Zm29.11-.23c0,2.97,2.16,5.43,5,5.92v-2.93c-1.25-.43-2.15-1.6-2.15-2.99s.9-2.57,2.15-2.99v-2.93c-2.83.49-5,2.95-5,5.92Zm-223.72,96.08c0-3.32,2.7-6.01,6.01-6.01s6.01,2.7,6.01,6.01-2.7,6.01-6.01,6.01-6.01-2.7-6.01-6.01Zm2.85,0c0,1.74,1.42,3.16,3.16,3.16s3.16-1.42,3.16-3.16-1.42-3.16-3.16-3.16-3.16,1.42-3.16,3.16Zm61.07,0c0-3.32,2.7-6.01,6.01-6.01s6.01,2.7,6.01,6.01-2.7,6.01-6.01,6.01-6.01-2.7-6.01-6.01Zm2.85,0c0,1.74,1.42,3.16,3.16,3.16s3.16-1.42,3.16-3.16-1.42-3.16-3.16-3.16-3.16,1.42-3.16,3.16Zm61.07,0c0-3.32,2.7-6.01,6.01-6.01s6.01,2.7,6.01,6.01-2.7,6.01-6.01,6.01-6.01-2.7-6.01-6.01Zm2.85,0c0,1.74,1.42,3.16,3.16,3.16s3.16-1.42,3.16-3.16-1.42-3.16-3.16-3.16-3.16,1.42-3.16,3.16ZM-17.14,134.21c0-2.97-2.16-5.43-5-5.92v2.93c1.25.42,2.15,1.6,2.15,2.99s-.9,2.56-2.15,2.99v2.93c2.83-.49,5-2.95,5-5.92Zm211.69-32.03c0-3.32,2.7-6.01,6.01-6.01s6.01,2.7,6.01,6.01-2.7,6.01-6.01,6.01-6.01-2.7-6.01-6.01Zm2.85,0c0,1.74,1.42,3.16,3.16,3.16s3.16-1.42,3.16-3.16-1.42-3.16-3.16-3.16-3.16,1.42-3.16,3.16ZM-17.14,166.46c0-2.97-2.16-5.43-5-5.92v2.93c1.25.42,2.15,1.6,2.15,2.99s-.9,2.57-2.15,2.99v2.93c2.83-.49,5-2.95,5-5.92Zm299.7,40.88c1.36-2.77,2.05-5.75,2.05-8.86s-.75-6.34-2.22-9.2c-.83-1.61-1.87-3.09-3.09-4.43-.19-.2-.38-.4-.57-.6-.75.59-1.53,1.14-2.35,1.63,3.47,3.27,5.44,7.77,5.44,12.59,0,4.04-1.38,7.85-3.86,10.91h-26.92c-2.48-3.05-3.86-6.87-3.86-10.91,0-4.83,1.96-9.33,5.44-12.59-.82-.49-1.6-1.04-2.35-1.63-.2.2-.39.4-.57.6-1.23,1.33-2.27,2.82-3.1,4.43-1.44,2.8-2.19,5.82-2.22,8.99v.06s0,.1,0,.15c0,3.11.69,6.09,2.05,8.86.35.71.74,1.39,1.17,2.05h-5.81c.6-.5,1.17-1.05,1.69-1.66-.46-1.03-.83-2.09-1.13-3.17-1.47,2.27-3.71,4-6.34,4.82h-6.89c-2.63-.82-4.89-2.56-6.37-4.85-.3,1.09-.67,2.15-1.13,3.19.52.6,1.09,1.16,1.69,1.66h-5.81c.43-.66.82-1.34,1.17-2.05,1.36-2.77,2.05-5.75,2.05-8.86s-.75-6.34-2.22-9.2c-.83-1.61-1.87-3.09-3.09-4.43-.19-.2-.38-.4-.57-.6-.75.59-1.53,1.14-2.35,1.63,3.47,3.27,5.44,7.77,5.44,12.59,0,4.04-1.38,7.85-3.86,10.91h-26.92c-2.48-3.05-3.86-6.87-3.86-10.91,0-4.83,1.96-9.33,5.44-12.59-.82-.49-1.6-1.04-2.35-1.63-.2.2-.39.4-.57.6-1.23,1.33-2.27,2.82-3.1,4.43-1.44,2.8-2.19,5.82-2.22,8.99v.06s0,.1,0,.15c0,3.11.69,6.09,2.05,8.86.35.71.74,1.39,1.17,2.05h-5.81c.6-.5,1.17-1.05,1.69-1.66-.46-1.03-.83-2.09-1.13-3.17-1.47,2.27-3.71,4-6.34,4.82h-6.89c-2.63-.82-4.89-2.56-6.37-4.85-.3,1.09-.67,2.15-1.13,3.19.52.6,1.09,1.16,1.69,1.66h-5.81c.43-.66.82-1.34,1.17-2.05,1.36-2.77,2.05-5.75,2.05-8.86s-.75-6.34-2.22-9.2c-.83-1.61-1.87-3.09-3.09-4.43-.19-.2-.38-.4-.57-.6-.75.59-1.53,1.14-2.35,1.63,3.47,3.27,5.44,7.77,5.44,12.59,0,4.04-1.38,7.85-3.86,10.91h-26.92c-2.48-3.05-3.86-6.87-3.86-10.91,0-4.83,1.96-9.33,5.44-12.59-.82-.49-1.6-1.04-2.35-1.63-.2.2-.39.4-.57.6-1.23,1.33-2.27,2.82-3.1,4.43-1.44,2.8-2.19,5.82-2.22,8.99v.06s0,.1,0,.15c0,3.11.69,6.09,2.05,8.86.35.71.74,1.39,1.17,2.05h-5.81c.6-.5,1.17-1.05,1.69-1.66-.46-1.03-.83-2.09-1.13-3.17-1.47,2.27-3.71,4-6.34,4.82h-6.89c-2.63-.82-4.89-2.56-6.37-4.85-.3,1.09-.67,2.15-1.13,3.19.52.6,1.09,1.16,1.69,1.66h-5.81c.43-.66.82-1.34,1.17-2.05,1.36-2.77,2.05-5.75,2.05-8.86s-.75-6.34-2.22-9.2c-.83-1.61-1.87-3.09-3.09-4.43-.19-.2-.38-.4-.57-.6-.75.59-1.53,1.14-2.35,1.63,3.47,3.27,5.44,7.77,5.44,12.59,0,4.04-1.38,7.85-3.86,10.91h-26.92c-2.48-3.05-3.86-6.87-3.86-10.91,0-4.83,1.96-9.33,5.44-12.59-.82-.49-1.6-1.04-2.35-1.63-.2.2-.39.4-.57.6-1.23,1.33-2.27,2.82-3.1,4.43-1.44,2.8-2.19,5.82-2.22,8.99v.06s0,.1,0,.15c0,3.11.69,6.09,2.05,8.86.35.71.74,1.39,1.17,2.05h-5.81c.6-.5,1.17-1.05,1.69-1.66-.46-1.03-.83-2.09-1.13-3.17-1.47,2.27-3.71,4-6.34,4.82h-6.89c-2.63-.82-4.89-2.56-6.37-4.85-.3,1.09-.67,2.15-1.13,3.19.52.6,1.09,1.16,1.69,1.66h-5.81c.43-.66.82-1.34,1.17-2.05,1.36-2.77,2.05-5.75,2.05-8.86s-.75-6.34-2.22-9.2c-.83-1.61-1.87-3.09-3.09-4.43-.19-.2-.38-.4-.57-.6-.75.59-1.53,1.14-2.35,1.63,3.47,3.27,5.44,7.77,5.44,12.59,0,4.04-1.38,7.85-3.86,10.91H-4.65c-2.48-3.05-3.86-6.87-3.86-10.91,0-4.83,1.96-9.33,5.44-12.59-.82-.49-1.6-1.04-2.35-1.63-.2.2-.39.4-.57.6-1.23,1.33-2.27,2.82-3.1,4.43-1.44,2.8-2.19,5.82-2.22,8.99v.06s0,.1,0,.15c0,3.11.69,6.09,2.05,8.86.35.71.74,1.39,1.17,2.05h-5.81c.6-.5,1.17-1.05,1.69-1.66-.46-1.03-.83-2.09-1.13-3.17-1.47,2.27-3.71,4-6.34,4.82h-2.44v-2.38c4.38-.51,7.8-4.24,7.8-8.76s-3.42-8.25-7.8-8.75v-2.86c3.74.33,6.98,2.42,8.88,5.44.31-1.07.7-2.12,1.17-3.15-2.54-3.02-6.13-4.84-10.05-5.11v-2.86c4.39.25,8.46,2.14,11.49,5.31.5-.8,1.06-1.57,1.66-2.31-.19-.18-.38-.37-.58-.55-1.35-1.24-2.86-2.28-4.5-3.12-2.53-1.28-5.24-2-8.08-2.14v-2.94c4.38-.51,7.8-4.24,7.8-8.76s-3.42-8.25-7.8-8.75v-3.41c2.77-.14,5.42-.82,7.9-2.05,1.85-.91,3.54-2.11,5.03-3.54-.59-.74-1.13-1.52-1.62-2.33-3,3.06-7,4.87-11.31,5.12v-2.86c3.85-.27,7.38-2.03,9.91-4.95-.46-1.03-.83-2.09-1.13-3.17-1.91,2.95-5.1,4.98-8.79,5.3v-2.86c4.38-.51,7.8-4.24,7.8-8.75s-3.42-8.25-7.8-8.76v-2.86c3.74.33,6.98,2.42,8.88,5.45.31-1.07.7-2.12,1.17-3.15-2.54-3.02-6.13-4.84-10.05-5.11v-2.86c4.4.25,8.47,2.14,11.49,5.31.51-.8,1.06-1.58,1.66-2.31-.19-.18-.38-.37-.58-.56-1.34-1.23-2.86-2.28-4.49-3.11-2.53-1.29-5.24-2-8.08-2.14v-2.94c4.38-.51,7.8-4.24,7.8-8.75s-3.42-8.25-7.8-8.76v-3.41c2.76-.14,5.42-.82,7.9-2.05,1.86-.92,3.54-2.11,5.03-3.55-.59-.75-1.13-1.52-1.62-2.33-3.01,3.06-7,4.87-11.31,5.12v-2.86c3.85-.27,7.38-2.03,9.91-4.95-.46-1.03-.83-2.09-1.13-3.17-1.91,2.95-5.1,4.98-8.79,5.3v-2.86c4.38-.51,7.8-4.24,7.8-8.76s-3.42-8.25-7.8-8.76v-2.86c3.74.33,6.98,2.42,8.88,5.45.31-1.07.7-2.12,1.17-3.15-2.54-3.02-6.13-4.84-10.05-5.11v-2.86c4.39.25,8.46,2.14,11.48,5.31.51-.8,1.06-1.58,1.66-2.31-.19-.19-.38-.37-.58-.55-1.35-1.24-2.87-2.28-4.5-3.11-2.53-1.28-5.24-2-8.08-2.14v-2.94c4.38-.51,7.8-4.24,7.8-8.76s-3.42-8.25-7.8-8.76v-3.4c2.77-.14,5.42-.82,7.9-2.05,1.86-.92,3.55-2.11,5.03-3.55-.59-.75-1.13-1.52-1.62-2.33-3.01,3.06-7,4.87-11.31,5.12v-2.86c3.85-.27,7.38-2.03,9.91-4.95-.46-1.03-.83-2.09-1.13-3.17-1.91,2.95-5.1,4.98-8.79,5.3v-2.86c4.38-.51,7.8-4.24,7.8-8.76s-3.42-8.25-7.8-8.75v-2.86c3.74.33,6.98,2.42,8.88,5.44.31-1.07.7-2.12,1.17-3.14-1.08-1.28-2.34-2.34-3.74-3.17h4.68c.17.17.34.33.51.51.11-.17.23-.34.34-.51h3.52c-.89,1.09-1.67,2.27-2.31,3.52-1.44,2.8-2.19,5.82-2.22,8.98v.06c0,.05,0,.11,0,.16,0,3.11.69,6.08,2.05,8.85.78,1.59,1.78,3.08,2.96,4.43.02.01.03.02.05.04.06.06.11.13.16.2.14.15.28.3.42.44.74-.6,1.51-1.15,2.3-1.65-3.29-3.24-5.14-7.62-5.14-12.31S-6.55-3-3.08-6.26c-.06-.04-.12-.08-.19-.12H3.99c1.56.38,3.17.58,4.82.58s3.25-.2,4.82-.58h7.25c-.06.04-.12.08-.19.12,3.47,3.26,5.44,7.77,5.44,12.6s-1.85,9.07-5.14,12.31c.8.5,1.57,1.05,2.3,1.65.14-.15.29-.3.43-.45.05-.07.1-.13.15-.19.02-.02.03-.03.05-.04,1.18-1.35,2.18-2.83,2.96-4.42,1.36-2.77,2.05-5.75,2.05-8.86S28.16-.05,26.71-2.87c-.64-1.25-1.42-2.43-2.31-3.52h3.52c.11.17.23.33.34.51.17-.17.34-.34.51-.51h4.68c-1.4.82-2.67,1.89-3.74,3.17.47,1.02.86,2.07,1.17,3.15,2.06-3.3,5.73-5.5,9.9-5.5S48.6-3.37,50.66-.07c.31-1.07.7-2.12,1.17-3.14-1.08-1.28-2.34-2.34-3.74-3.17h4.68c.17.17.34.33.51.51.11-.17.23-.34.34-.51h3.52c-.89,1.09-1.67,2.27-2.31,3.52-1.44,2.8-2.19,5.82-2.22,8.98v.06c0,.05,0,.11,0,.16,0,3.11.69,6.08,2.05,8.85.78,1.59,1.78,3.08,2.96,4.43.02.01.03.02.05.04.06.06.11.13.16.2.14.15.28.3.42.44.74-.6,1.51-1.15,2.3-1.65-3.29-3.24-5.14-7.62-5.14-12.31s1.97-9.33,5.44-12.6c-.06-.04-.12-.08-.19-.12h7.25c1.56.38,3.17.58,4.82.58s3.25-.2,4.82-.58h7.25c-.06.04-.12.08-.19.12,3.47,3.26,5.44,7.77,5.44,12.6s-1.85,9.07-5.14,12.31c.8.5,1.57,1.05,2.3,1.65.14-.15.29-.3.43-.45.05-.07.1-.13.15-.19.02-.02.03-.03.05-.04,1.18-1.35,2.18-2.83,2.96-4.42,1.36-2.77,2.05-5.75,2.05-8.86s-.77-6.38-2.22-9.2c-.64-1.25-1.42-2.43-2.31-3.52h3.52c.11.17.23.33.34.51.17-.17.34-.34.51-.51h4.68c-1.4.82-2.67,1.89-3.74,3.17.47,1.02.86,2.07,1.17,3.15,2.06-3.3,5.73-5.5,9.9-5.5s7.83,2.2,9.9,5.49c.31-1.07.7-2.12,1.17-3.14-1.08-1.28-2.34-2.34-3.74-3.17h4.68c.17.17.34.33.51.51.11-.17.23-.34.34-.51h3.52c-.89,1.09-1.67,2.27-2.31,3.52-1.44,2.8-2.19,5.82-2.22,8.98v.06c0,.05,0,.11,0,.16,0,3.11.69,6.08,2.05,8.85.78,1.59,1.78,3.08,2.96,4.43.02.01.03.02.05.04.06.06.11.13.16.2.14.15.28.3.42.44.74-.6,1.51-1.15,2.3-1.65-3.29-3.24-5.14-7.62-5.14-12.31s1.97-9.33,5.44-12.6c-.06-.04-.12-.08-.19-.12h7.25c1.56.38,3.17.58,4.82.58s3.25-.2,4.82-.58h7.25c-.06.04-.12.08-.19.12,3.47,3.26,5.44,7.77,5.44,12.6s-1.85,9.07-5.14,12.31c.8.5,1.57,1.05,2.3,1.65.14-.15.29-.3.42-.45.05-.07.1-.13.15-.19.02-.02.03-.03.05-.04,1.18-1.35,2.18-2.83,2.96-4.42,1.36-2.77,2.05-5.75,2.05-8.86s-.77-6.38-2.22-9.2c-.64-1.25-1.42-2.43-2.31-3.52h3.52c.11.17.23.33.34.51.17-.17.34-.34.51-.51h4.68c-1.4.82-2.67,1.89-3.74,3.17.47,1.02.86,2.07,1.17,3.15,2.06-3.3,5.73-5.5,9.9-5.5s7.83,2.2,9.9,5.49c.31-1.07.7-2.12,1.17-3.14-1.08-1.28-2.34-2.34-3.74-3.17h4.68c.17.17.34.33.51.51.11-.17.23-.34.34-.51h3.52c-.89,1.09-1.67,2.27-2.31,3.52-1.44,2.8-2.19,5.82-2.22,8.98v.06c0,.05,0,.11,0,.16,0,3.11.69,6.08,2.05,8.85.78,1.59,1.78,3.08,2.96,4.43.02.01.03.02.05.04.06.06.11.13.16.2.14.15.28.3.42.44.74-.6,1.51-1.15,2.3-1.65-3.29-3.24-5.14-7.62-5.14-12.31s1.97-9.33,5.44-12.6c-.06-.04-.12-.08-.19-.12h7.25c1.56.38,3.17.58,4.82.58s3.25-.2,4.82-.58h7.25c-.06.04-.12.08-.19.12,3.47,3.26,5.44,7.77,5.44,12.6s-1.85,9.07-5.14,12.31c.8.5,1.57,1.05,2.3,1.65.14-.15.29-.3.42-.45.05-.07.1-.13.15-.19.02-.02.03-.03.05-.04,1.18-1.35,2.18-2.83,2.96-4.42,1.36-2.77,2.05-5.75,2.05-8.86s-.77-6.38-2.22-9.2c-.64-1.25-1.42-2.43-2.31-3.52h3.52c.11.17.23.33.34.51.17-.17.34-.34.51-.51h4.68c-1.4.82-2.67,1.89-3.74,3.17.47,1.02.86,2.07,1.17,3.15,2.06-3.3,5.73-5.5,9.9-5.5s7.83,2.2,9.9,5.49c.31-1.07.7-2.12,1.17-3.14-1.08-1.28-2.34-2.34-3.74-3.17h4.68c.17.17.34.33.51.51.11-.17.23-.34.34-.51h3.52c-.89,1.09-1.67,2.27-2.31,3.52-1.44,2.8-2.19,5.82-2.22,8.98v.06c0,.05,0,.11,0,.16,0,3.11.69,6.08,2.05,8.85.78,1.59,1.78,3.08,2.96,4.43.02.01.03.02.05.04.06.06.11.13.16.2.14.15.28.3.42.44.74-.6,1.51-1.15,2.3-1.65-3.29-3.24-5.14-7.62-5.14-12.31s1.97-9.33,5.44-12.6c-.06-.04-.12-.08-.19-.12h7.25c1.56.38,3.17.58,4.82.58s3.25-.2,4.82-.58h7.25c-.06.04-.12.08-.19.12,3.47,3.26,5.44,7.77,5.44,12.6s-1.85,9.07-5.14,12.31c.8.5,1.57,1.05,2.3,1.65.14-.15.29-.3.42-.45.05-.07.1-.13.15-.19.02-.02.03-.03.05-.04,1.18-1.35,2.18-2.83,2.96-4.42,1.36-2.77,2.05-5.75,2.05-8.86s-.77-6.38-2.22-9.2c-.64-1.25-1.42-2.43-2.31-3.52h3.52c.11.17.23.33.34.51.17-.17.34-.34.51-.51h4.68c-1.4.82-2.67,1.89-3.74,3.17.47,1.02.86,2.07,1.17,3.15,1.89-3.03,5.14-5.13,8.88-5.45v2.86c-4.38.51-7.8,4.24-7.8,8.75,0,.05,0,.11,0,.16v.04c.1,4.41,3.51,8.05,7.8,8.55v2.86c-3.66-.32-6.87-2.37-8.78-5.32-.3,1.08-.67,2.15-1.13,3.19,2.53,2.92,6.07,4.69,9.91,4.95v2.86c-4.31-.25-8.3-2.06-11.31-5.12-.49.81-1.03,1.58-1.62,2.33,1.49,1.43,3.18,2.63,5.03,3.55,2.48,1.23,5.14,1.92,7.9,2.05v3.4c-4.38.51-7.8,4.24-7.8,8.76s3.42,8.25,7.8,8.76v2.94c-2.84.14-5.55.85-8.08,2.14-1.64.83-3.15,1.88-4.5,3.11-.2.18-.39.37-.57.55.6.74,1.16,1.51,1.66,2.31,3.03-3.17,7.09-5.05,11.48-5.31v2.86c-3.91.27-7.51,2.09-10.05,5.12.47,1.02.85,2.07,1.17,3.15,1.89-3.03,5.14-5.13,8.88-5.45v2.86c-4.38.51-7.8,4.24-7.8,8.76,0,.05,0,.1,0,.15v.04c.1,4.41,3.51,8.05,7.8,8.56v2.86c-3.66-.32-6.87-2.37-8.78-5.32-.3,1.08-.67,2.15-1.13,3.19,2.53,2.92,6.07,4.68,9.91,4.95v2.86c-4.31-.25-8.3-2.06-11.31-5.12-.49.81-1.03,1.58-1.62,2.33,1.5,1.44,3.18,2.63,5.03,3.55,2.48,1.23,5.14,1.91,7.9,2.05v3.41c-4.38.51-7.8,4.24-7.8,8.76s3.42,8.25,7.8,8.75v2.94c-2.83.14-5.54.85-8.08,2.14-1.62.82-3.13,1.86-4.5,3.11-.2.19-.39.37-.58.55.6.74,1.15,1.51,1.66,2.31,3.02-3.17,7.09-5.06,11.49-5.31v2.86c-3.92.27-7.51,2.09-10.05,5.12.47,1.02.85,2.07,1.17,3.15,1.89-3.03,5.14-5.13,8.88-5.45v2.86c-4.38.51-7.8,4.24-7.8,8.76,0,.05,0,.1,0,.15v.05c.1,4.41,3.51,8.05,7.8,8.55v2.87c-3.66-.32-6.87-2.37-8.78-5.32-.3,1.09-.67,2.15-1.13,3.19,2.53,2.93,6.07,4.69,9.91,4.95v2.86c-4.31-.25-8.31-2.06-11.31-5.12-.49.81-1.03,1.59-1.62,2.33,1.49,1.43,3.17,2.63,5.03,3.55,2.48,1.23,5.14,1.91,7.9,2.05v3.41c-4.38.51-7.8,4.24-7.8,8.75s3.42,8.25,7.8,8.76v2.94c-2.84.14-5.55.85-8.08,2.14-1.63.83-3.14,1.88-4.49,3.11-.2.18-.39.37-.58.55.6.74,1.16,1.51,1.66,2.31,3.02-3.17,7.09-5.05,11.49-5.31v2.86c-3.92.27-7.51,2.09-10.05,5.11.47,1.02.86,2.07,1.17,3.15,1.89-3.03,5.14-5.13,8.88-5.45v2.86c-4.38.51-7.8,4.24-7.8,8.75,0,.05,0,.1,0,.15v.05c.1,4.41,3.51,8.05,7.8,8.56v2.39h-2.41c-2.63-.82-4.89-2.56-6.37-4.85-.3,1.09-.67,2.15-1.13,3.19.52.6,1.09,1.16,1.69,1.66h-5.81c.43-.66.82-1.34,1.17-2.05Zm-.58-40.88c0,4.21,1.79,8.13,4.94,10.89,1.01-.46,2.05-.85,3.11-1.15-3.16-2.09-5.25-5.67-5.25-9.74,0-4.28,2.32-8.03,5.76-10.05-1.11-.3-2.2-.67-3.26-1.14-3.37,2.76-5.3,6.82-5.3,11.19Zm-2.68-45.65c-.19-.2-.38-.4-.57-.6-.75.59-1.53,1.14-2.35,1.63,3.47,3.26,5.44,7.77,5.44,12.6s-1.85,9.07-5.14,12.31c.8.5,1.57,1.05,2.31,1.65.12-.13.24-.26.36-.39.06-.1.14-.2.23-.29.03-.03.06-.05.09-.07,1.15-1.33,2.13-2.79,2.9-4.36,1.36-2.77,2.05-5.75,2.05-8.86s-.75-6.34-2.22-9.2c-.83-1.61-1.87-3.1-3.1-4.43Zm-24.6,51.71c-.3,1.09-.67,2.15-1.13,3.19,2.75,3.18,6.69,4.99,10.93,4.99s8.18-1.81,10.93-4.99c-.46-1.03-.83-2.09-1.13-3.17-2.08,3.22-5.7,5.35-9.8,5.35s-7.71-2.15-9.8-5.37Zm.98-6.14v.05c.11,4.75,4.06,8.62,8.82,8.62s8.82-3.95,8.82-8.81-3.96-8.82-8.82-8.82-8.82,3.96-8.82,8.82c0,.05,0,.1,0,.15Zm19.88-9.47c-2.76-3.28-6.76-5.15-11.06-5.15s-8.3,1.87-11.07,5.16c.47,1.02.85,2.07,1.17,3.15,2.06-3.3,5.73-5.5,9.9-5.5s7.83,2.2,9.9,5.5c.31-1.07.7-2.12,1.17-3.15Zm1.44-2.66c.51-.81,1.06-1.58,1.66-2.32-.19-.19-.38-.37-.57-.54-1.35-1.24-2.86-2.29-4.5-3.12-2.83-1.44-5.89-2.17-9.09-2.17s-6.26.73-9.09,2.17c-1.62.82-3.14,1.87-4.49,3.11-.2.18-.39.36-.58.55.6.73,1.15,1.51,1.66,2.32,3.26-3.41,7.72-5.34,12.51-5.34s9.25,1.93,12.51,5.34Zm-44.47,21.03c4.86,0,8.82-3.96,8.82-8.82s-3.96-8.81-8.82-8.81-8.82,3.95-8.82,8.81,3.96,8.82,8.82,8.82Zm-11.67-8.82c0-4.28,2.32-8.03,5.76-10.05-1.11-.3-2.2-.67-3.26-1.14-3.37,2.76-5.3,6.82-5.3,11.19s1.79,8.13,4.94,10.89c1.01-.46,2.05-.85,3.11-1.15-3.16-2.09-5.25-5.67-5.25-9.74Zm18.1,9.73c1.06.31,2.09.7,3.1,1.16,3.15-2.75,4.94-6.67,4.94-10.89s-1.93-8.43-5.3-11.19c-1.06.47-2.15.84-3.26,1.14,3.45,2.03,5.77,5.78,5.77,10.06s-2.08,7.64-5.24,9.73Zm7.52-27.49c-.59-.74-1.13-1.52-1.62-2.33-3.24,3.3-7.63,5.15-12.33,5.15s-9.09-1.86-12.33-5.15c-.49.81-1.03,1.59-1.62,2.33,1.49,1.43,3.17,2.63,5.03,3.55,2.79,1.38,5.79,2.08,8.92,2.08s6.13-.7,8.92-2.08c1.85-.91,3.54-2.11,5.03-3.54Zm-55.71,23.82c-.3,1.09-.67,2.15-1.13,3.19,2.75,3.18,6.69,4.99,10.93,4.99s8.18-1.81,10.93-4.99c-.46-1.03-.83-2.09-1.13-3.17-2.08,3.22-5.7,5.35-9.8,5.35s-7.71-2.15-9.8-5.37Zm.98-6.14v.05c.11,4.75,4.06,8.62,8.82,8.62s8.82-3.95,8.82-8.81-3.96-8.82-8.82-8.82-8.82,3.96-8.82,8.82c0,.05,0,.1,0,.15Zm19.88-9.47c-2.76-3.28-6.76-5.15-11.06-5.15s-8.3,1.87-11.07,5.16c.47,1.02.85,2.07,1.17,3.15,2.06-3.3,5.73-5.5,9.9-5.5s7.83,2.2,9.9,5.5c.31-1.07.7-2.12,1.17-3.15Zm1.44-2.66c.51-.81,1.06-1.58,1.66-2.32-.19-.19-.38-.37-.57-.54-1.35-1.24-2.86-2.29-4.5-3.12-2.83-1.44-5.89-2.17-9.09-2.17s-6.26.73-9.09,2.17c-1.62.82-3.14,1.87-4.49,3.11-.2.18-.39.36-.58.55.6.73,1.15,1.51,1.66,2.32,3.26-3.41,7.72-5.34,12.51-5.34s9.25,1.93,12.51,5.34Zm-44.47,21.03c4.86,0,8.82-3.96,8.82-8.82s-3.96-8.81-8.82-8.81-8.82,3.95-8.82,8.81,3.96,8.82,8.82,8.82Zm-11.67-8.82c0-4.28,2.32-8.03,5.76-10.05-1.11-.3-2.2-.67-3.26-1.14-3.37,2.76-5.3,6.82-5.3,11.19s1.79,8.13,4.94,10.89c1.01-.46,2.05-.85,3.11-1.15-3.16-2.09-5.25-5.67-5.25-9.74Zm18.1,9.73c1.06.31,2.09.7,3.1,1.16,3.15-2.75,4.94-6.67,4.94-10.89s-1.93-8.43-5.3-11.19c-1.06.47-2.15.84-3.26,1.14,3.45,2.03,5.77,5.78,5.77,10.06s-2.08,7.64-5.24,9.73Zm7.52-27.49c-.59-.74-1.13-1.52-1.62-2.33-3.24,3.3-7.63,5.15-12.33,5.15s-9.09-1.86-12.33-5.15c-.49.81-1.03,1.59-1.62,2.33,1.49,1.43,3.17,2.63,5.03,3.55,2.79,1.38,5.79,2.08,8.92,2.08s6.13-.7,8.92-2.08c1.85-.91,3.54-2.11,5.03-3.54Zm-55.71,23.82c-.3,1.09-.67,2.15-1.13,3.19,2.75,3.18,6.69,4.99,10.93,4.99s8.18-1.81,10.93-4.99c-.46-1.03-.83-2.09-1.13-3.17-2.08,3.22-5.7,5.35-9.8,5.35s-7.71-2.15-9.8-5.37Zm.98-6.14v.05c.11,4.75,4.06,8.62,8.82,8.62s8.82-3.95,8.82-8.81-3.96-8.82-8.82-8.82-8.82,3.96-8.82,8.82c0,.05,0,.1,0,.15Zm19.88-9.47c-2.76-3.28-6.76-5.15-11.06-5.15s-8.3,1.87-11.07,5.16c.47,1.02.85,2.07,1.17,3.15,2.06-3.3,5.73-5.5,9.9-5.5s7.83,2.2,9.9,5.5c.31-1.07.7-2.12,1.17-3.15Zm1.44-2.66c.51-.81,1.06-1.58,1.66-2.32-.19-.19-.38-.37-.57-.54-1.35-1.24-2.86-2.29-4.5-3.12-2.83-1.44-5.89-2.17-9.09-2.17s-6.26.73-9.09,2.17c-1.62.82-3.14,1.87-4.49,3.11-.2.18-.39.36-.58.55.6.73,1.15,1.51,1.66,2.32,3.26-3.41,7.72-5.34,12.51-5.34s9.25,1.93,12.51,5.34Zm-44.47,21.03c4.86,0,8.82-3.96,8.82-8.82s-3.96-8.81-8.82-8.81-8.82,3.95-8.82,8.81,3.96,8.82,8.82,8.82Zm-11.67-8.82c0-4.28,2.32-8.03,5.76-10.05-1.11-.3-2.2-.67-3.26-1.14-3.37,2.76-5.3,6.82-5.3,11.19s1.79,8.13,4.94,10.89c1.01-.46,2.05-.85,3.11-1.15-3.16-2.09-5.25-5.67-5.25-9.74Zm18.1,9.73c1.06.31,2.09.7,3.1,1.16,3.15-2.75,4.94-6.67,4.94-10.89s-1.93-8.43-5.3-11.19c-1.06.47-2.15.84-3.26,1.14,3.45,2.03,5.77,5.78,5.77,10.06s-2.08,7.64-5.24,9.73Zm7.52-27.49c-.59-.74-1.13-1.52-1.62-2.33-3.24,3.3-7.63,5.15-12.33,5.15s-9.09-1.86-12.33-5.15c-.49.81-1.03,1.59-1.62,2.33,1.49,1.43,3.17,2.63,5.03,3.55,2.79,1.38,5.79,2.08,8.92,2.08s6.13-.7,8.92-2.08c1.85-.91,3.54-2.11,5.03-3.54Zm-55.71,23.82c-.3,1.09-.67,2.15-1.13,3.19,2.75,3.18,6.69,4.99,10.93,4.99s8.18-1.81,10.93-4.99c-.46-1.03-.83-2.09-1.13-3.17-2.08,3.22-5.7,5.35-9.8,5.35s-7.71-2.15-9.8-5.37Zm.98-6.14v.05c.11,4.75,4.06,8.62,8.82,8.62s8.82-3.95,8.82-8.81-3.96-8.82-8.82-8.82-8.82,3.96-8.82,8.82c0,.05,0,.1,0,.15Zm19.88-9.47c-2.76-3.28-6.76-5.15-11.06-5.15s-8.3,1.87-11.07,5.16c.47,1.02.85,2.07,1.17,3.15,2.06-3.3,5.73-5.5,9.9-5.5s7.83,2.2,9.9,5.5c.31-1.07.7-2.12,1.17-3.15Zm1.44-2.66c.51-.81,1.06-1.58,1.66-2.32-.19-.19-.38-.37-.57-.54-1.35-1.24-2.86-2.29-4.5-3.12-2.83-1.44-5.89-2.17-9.09-2.17s-6.26.73-9.09,2.17c-1.62.82-3.14,1.87-4.49,3.11-.2.18-.39.36-.58.55.6.73,1.15,1.51,1.66,2.32,3.26-3.41,7.72-5.34,12.51-5.34s9.25,1.93,12.51,5.34Zm-44.47,21.03c4.86,0,8.82-3.96,8.82-8.82s-3.96-8.81-8.82-8.81-8.82,3.95-8.82,8.81,3.96,8.82,8.82,8.82Zm-11.67-8.82c0-4.28,2.32-8.03,5.76-10.05-1.11-.3-2.2-.67-3.26-1.14-3.37,2.76-5.3,6.82-5.3,11.19s1.79,8.13,4.94,10.89c1.01-.46,2.05-.85,3.11-1.15-3.16-2.09-5.25-5.67-5.25-9.74Zm18.1,9.73c1.06.31,2.09.7,3.1,1.16,3.15-2.75,4.94-6.67,4.94-10.89s-1.93-8.43-5.3-11.19c-1.06.47-2.15.84-3.26,1.14,3.45,2.03,5.77,5.78,5.77,10.06s-2.08,7.64-5.24,9.73Zm7.52-27.49c-.59-.74-1.13-1.52-1.62-2.33-3.24,3.3-7.63,5.15-12.33,5.15s-9.09-1.86-12.33-5.15c-.49.81-1.03,1.59-1.62,2.33,1.49,1.43,3.17,2.63,5.03,3.55,2.79,1.38,5.79,2.08,8.92,2.08s6.13-.7,8.92-2.08c1.85-.91,3.54-2.11,5.03-3.54ZM-.99,172.52c-.3,1.09-.67,2.15-1.13,3.19,2.75,3.18,6.69,4.99,10.93,4.99s8.18-1.81,10.93-4.99c-.46-1.03-.83-2.09-1.13-3.17-2.08,3.22-5.7,5.35-9.8,5.35s-7.71-2.15-9.8-5.37ZM0,166.38v.05c.11,4.75,4.06,8.62,8.82,8.62s8.82-3.95,8.82-8.81-3.96-8.82-8.82-8.82S-.01,161.37-.01,166.23c0,.05,0,.1,0,.15Zm19.88-9.47c-2.76-3.28-6.76-5.15-11.06-5.15s-8.3,1.87-11.07,5.16c.47,1.02.85,2.07,1.17,3.15,2.06-3.3,5.73-5.5,9.9-5.5s7.83,2.2,9.9,5.5c.31-1.07.7-2.12,1.17-3.15Zm1.44-2.66c.51-.81,1.06-1.58,1.66-2.32-.19-.19-.38-.37-.57-.54-1.35-1.24-2.86-2.29-4.5-3.12-2.83-1.44-5.89-2.17-9.09-2.17s-6.26.73-9.09,2.17c-1.62.82-3.14,1.87-4.49,3.11-.2.18-.39.36-.58.55.6.73,1.15,1.51,1.66,2.32,3.26-3.41,7.72-5.34,12.51-5.34s9.25,1.93,12.51,5.34ZM-.99,44.42c-.3,1.08-.67,2.15-1.13,3.18,2.75,3.18,6.69,4.99,10.93,4.99s8.18-1.81,10.93-4.99c-.46-1.03-.83-2.09-1.13-3.17-2.08,3.22-5.7,5.35-9.8,5.35s-7.71-2.15-9.8-5.37ZM0,38.28v.04c.1,4.75,4.06,8.62,8.82,8.62s8.82-3.95,8.82-8.81-3.96-8.82-8.82-8.82S-.01,33.27-.01,38.13c0,.05,0,.1,0,.15Zm19.88-9.47c-2.76-3.28-6.76-5.15-11.06-5.15s-8.31,1.87-11.07,5.16c.47,1.02.85,2.07,1.17,3.15,2.06-3.3,5.73-5.5,9.9-5.5s7.83,2.2,9.9,5.5c.31-1.07.7-2.12,1.17-3.15ZM-3.52,50.29c-.49.81-1.03,1.59-1.62,2.33,1.49,1.44,3.18,2.63,5.03,3.54,2.79,1.38,5.79,2.08,8.92,2.08s6.13-.7,8.92-2.08c1.85-.91,3.54-2.11,5.03-3.54-.59-.74-1.13-1.52-1.62-2.33-3.24,3.3-7.63,5.15-12.33,5.15s-9.09-1.86-12.33-5.15Zm44.29-20.75c-4.86,0-8.82,3.96-8.82,8.82s3.96,8.82,8.82,8.82,8.82-3.96,8.82-8.82-3.96-8.82-8.82-8.82Zm11.67,8.82c0,4.06-2.08,7.64-5.24,9.73,1.06.31,2.09.7,3.1,1.16,3.15-2.75,4.94-6.67,4.94-10.89s-1.93-8.43-5.3-11.19c-1.06.46-2.15.84-3.26,1.14,3.44,2.03,5.76,5.78,5.76,10.06Zm-17.58-10.06c-1.11-.3-2.2-.67-3.26-1.14-3.37,2.76-5.3,6.82-5.3,11.19s1.79,8.14,4.94,10.89c1.01-.46,2.04-.85,3.1-1.16-3.15-2.09-5.24-5.67-5.24-9.73,0-4.28,2.32-8.03,5.76-10.06Zm-7.69,27c-.2.18-.39.37-.57.55.6.74,1.16,1.51,1.66,2.31,3.26-3.41,7.72-5.34,12.5-5.34s9.24,1.93,12.5,5.34c.51-.8,1.06-1.58,1.66-2.31-.19-.19-.38-.37-.58-.55-1.35-1.24-2.87-2.28-4.5-3.11-2.83-1.44-5.89-2.17-9.09-2.17s-6.27.73-9.09,2.17c-1.64.83-3.15,1.88-4.5,3.11Zm35.75-10.88c-.3,1.08-.67,2.15-1.13,3.18,2.75,3.18,6.69,4.99,10.93,4.99s8.18-1.81,10.93-4.99c-.46-1.03-.83-2.09-1.13-3.17-2.08,3.22-5.7,5.35-9.8,5.35s-7.71-2.15-9.8-5.37Zm.98-6.14v.04c.1,4.75,4.06,8.62,8.82,8.62s8.82-3.95,8.82-8.81-3.96-8.82-8.82-8.82-8.82,3.96-8.82,8.82c0,.05,0,.1,0,.15Zm19.88-9.47c-2.76-3.28-6.76-5.15-11.06-5.15s-8.31,1.87-11.07,5.16c.47,1.02.85,2.07,1.17,3.15,2.06-3.3,5.73-5.5,9.9-5.5s7.83,2.2,9.9,5.5c.31-1.07.7-2.12,1.17-3.15Zm-23.39,21.48c-.49.81-1.03,1.59-1.62,2.33,1.49,1.44,3.18,2.63,5.03,3.54,2.79,1.38,5.79,2.08,8.92,2.08s6.13-.7,8.92-2.08c1.85-.91,3.54-2.11,5.03-3.54-.59-.74-1.13-1.52-1.62-2.33-3.24,3.3-7.63,5.15-12.33,5.15s-9.09-1.86-12.33-5.15Zm44.29-20.75c-4.86,0-8.82,3.96-8.82,8.82s3.96,8.82,8.82,8.82,8.82-3.96,8.82-8.82-3.96-8.82-8.82-8.82Zm11.67,8.82c0,4.06-2.08,7.64-5.24,9.73,1.06.31,2.09.7,3.1,1.16,3.15-2.75,4.94-6.67,4.94-10.89s-1.93-8.43-5.3-11.19c-1.06.46-2.15.84-3.26,1.14,3.44,2.03,5.76,5.78,5.76,10.06Zm-17.58-10.06c-1.11-.3-2.2-.67-3.26-1.14-3.37,2.76-5.3,6.82-5.3,11.19s1.79,8.14,4.94,10.89c1.01-.46,2.04-.85,3.1-1.16-3.15-2.09-5.24-5.67-5.24-9.73,0-4.28,2.32-8.03,5.76-10.06Zm-7.69,27c-.2.18-.39.37-.57.55.6.74,1.16,1.51,1.66,2.31,3.26-3.41,7.72-5.34,12.5-5.34s9.24,1.93,12.5,5.34c.51-.8,1.06-1.58,1.66-2.31-.19-.19-.38-.37-.58-.55-1.35-1.24-2.87-2.28-4.5-3.11-2.83-1.44-5.89-2.17-9.09-2.17s-6.27.73-9.09,2.17c-1.64.83-3.15,1.88-4.5,3.11Zm35.75-10.88c-.3,1.08-.67,2.15-1.13,3.18,2.75,3.18,6.69,4.99,10.93,4.99s8.18-1.81,10.93-4.99c-.46-1.03-.83-2.09-1.13-3.17-2.08,3.22-5.7,5.35-9.8,5.35s-7.71-2.15-9.8-5.37Zm.98-6.14v.04c.1,4.75,4.06,8.62,8.82,8.62s8.82-3.95,8.82-8.81-3.96-8.82-8.82-8.82-8.82,3.96-8.82,8.82c0,.05,0,.1,0,.15Zm19.88-9.47c-2.76-3.28-6.76-5.15-11.06-5.15s-8.31,1.87-11.07,5.16c.47,1.02.85,2.07,1.17,3.15,2.06-3.3,5.73-5.5,9.9-5.5s7.83,2.2,9.9,5.5c.31-1.07.7-2.12,1.17-3.15Zm-23.39,21.48c-.49.81-1.03,1.59-1.62,2.33,1.49,1.44,3.18,2.63,5.03,3.54,2.79,1.38,5.79,2.08,8.92,2.08s6.13-.7,8.92-2.08c1.85-.91,3.54-2.11,5.03-3.54-.59-.74-1.13-1.52-1.62-2.33-3.24,3.3-7.63,5.15-12.33,5.15s-9.09-1.86-12.33-5.15Zm44.29-20.75c-4.86,0-8.82,3.96-8.82,8.82s3.96,8.82,8.82,8.82,8.82-3.96,8.82-8.82-3.96-8.82-8.82-8.82Zm11.67,8.82c0,4.06-2.08,7.64-5.24,9.73,1.06.31,2.09.7,3.1,1.16,3.15-2.75,4.94-6.67,4.94-10.89s-1.93-8.43-5.3-11.19c-1.06.46-2.15.84-3.26,1.14,3.44,2.03,5.76,5.78,5.76,10.06Zm-17.58-10.06c-1.11-.3-2.2-.67-3.26-1.14-3.37,2.76-5.3,6.82-5.3,11.19s1.79,8.14,4.94,10.89c1.01-.46,2.04-.85,3.1-1.16-3.15-2.09-5.24-5.67-5.24-9.73,0-4.28,2.32-8.03,5.76-10.06Zm-7.69,27c-.2.18-.39.37-.57.55.6.74,1.16,1.51,1.66,2.31,3.26-3.41,7.72-5.34,12.5-5.34s9.24,1.93,12.5,5.34c.51-.8,1.06-1.58,1.66-2.31-.19-.19-.38-.37-.58-.55-1.35-1.24-2.87-2.28-4.5-3.11-2.83-1.44-5.89-2.17-9.09-2.17s-6.27.73-9.09,2.17c-1.64.83-3.15,1.88-4.5,3.11Zm35.75-10.88c-.3,1.08-.67,2.15-1.13,3.18,2.75,3.18,6.69,4.99,10.93,4.99s8.18-1.81,10.93-4.99c-.46-1.03-.83-2.09-1.13-3.17-2.08,3.22-5.7,5.35-9.8,5.35s-7.71-2.15-9.8-5.37Zm.98-6.14v.04c.1,4.75,4.06,8.62,8.82,8.62s8.82-3.95,8.82-8.81-3.96-8.82-8.82-8.82-8.82,3.96-8.82,8.82c0,.05,0,.1,0,.15Zm19.88-9.47c-2.76-3.28-6.76-5.15-11.06-5.15s-8.31,1.87-11.07,5.16c.47,1.02.85,2.07,1.17,3.15,2.06-3.3,5.73-5.5,9.9-5.5s7.83,2.2,9.9,5.5c.31-1.07.7-2.12,1.17-3.15Zm-23.39,21.48c-.49.81-1.03,1.59-1.62,2.33,1.49,1.44,3.18,2.63,5.03,3.54,2.79,1.38,5.79,2.08,8.92,2.08s6.13-.7,8.92-2.08c1.85-.91,3.54-2.11,5.03-3.54-.59-.74-1.13-1.52-1.62-2.33-3.24,3.3-7.63,5.15-12.33,5.15s-9.09-1.86-12.33-5.15Zm44.29-20.75c-4.86,0-8.82,3.96-8.82,8.82s3.96,8.82,8.82,8.82,8.82-3.96,8.82-8.82-3.96-8.82-8.82-8.82Zm11.67,8.82c0,4.06-2.08,7.64-5.24,9.73,1.06.31,2.09.7,3.1,1.16,3.15-2.75,4.94-6.67,4.94-10.89s-1.93-8.43-5.3-11.19c-1.06.46-2.15.84-3.26,1.14,3.44,2.03,5.76,5.78,5.76,10.06Zm-17.58-10.06c-1.11-.3-2.2-.67-3.26-1.14-3.37,2.76-5.3,6.82-5.3,11.19s1.79,8.14,4.94,10.89c1.01-.46,2.04-.85,3.1-1.16-3.15-2.09-5.24-5.67-5.24-9.73,0-4.28,2.32-8.03,5.76-10.06Zm-7.69,27c-.2.18-.39.37-.57.55.6.74,1.16,1.51,1.66,2.31,3.26-3.41,7.72-5.34,12.5-5.34s9.24,1.93,12.5,5.34c.51-.8,1.06-1.58,1.66-2.31-.19-.19-.38-.37-.58-.55-1.35-1.24-2.87-2.28-4.5-3.11-2.83-1.44-5.89-2.17-9.09-2.17s-6.27.73-9.09,2.17c-1.64.83-3.15,1.88-4.5,3.11Zm35.75-10.88c-.3,1.08-.67,2.15-1.13,3.18,2.75,3.18,6.69,4.99,10.93,4.99s8.18-1.81,10.93-4.99c-.46-1.03-.83-2.09-1.13-3.17-2.08,3.22-5.7,5.35-9.8,5.35s-7.71-2.15-9.8-5.37Zm.98-6.14v.04c.1,4.75,4.06,8.62,8.82,8.62s8.82-3.95,8.82-8.81-3.96-8.82-8.82-8.82-8.82,3.96-8.82,8.82c0,.05,0,.1,0,.15Zm19.88-9.47c-2.76-3.28-6.76-5.15-11.06-5.15s-8.31,1.87-11.07,5.16c.47,1.02.85,2.07,1.17,3.15,2.06-3.3,5.73-5.5,9.9-5.5s7.83,2.2,9.9,5.5c.31-1.07.7-2.12,1.17-3.15Zm-23.39,21.48c-.49.81-1.03,1.59-1.62,2.33,1.49,1.44,3.18,2.63,5.03,3.54,2.79,1.38,5.79,2.08,8.92,2.08s6.13-.7,8.92-2.08c1.85-.91,3.54-2.11,5.03-3.54-.59-.74-1.13-1.52-1.62-2.33-3.24,3.3-7.63,5.15-12.33,5.15s-9.09-1.86-12.33-5.15Zm12.33,92.96c4.86,0,8.82-3.95,8.82-8.81s-3.96-8.82-8.82-8.82-8.82,3.96-8.82,8.82,3.96,8.81,8.82,8.81Zm-11.67-8.81c0-4.28,2.32-8.03,5.76-10.06-1.11-.3-2.2-.67-3.26-1.14-3.37,2.76-5.3,6.82-5.3,11.19s1.79,8.14,4.94,10.89c1.01-.46,2.05-.85,3.1-1.16-3.16-2.09-5.24-5.67-5.24-9.73Zm18.1,9.73c1.06.31,2.09.7,3.1,1.16,3.15-2.75,4.94-6.67,4.94-10.89s-1.93-8.43-5.3-11.19c-1.06.46-2.15.84-3.26,1.14,3.44,2.03,5.76,5.78,5.76,10.06,0,4.06-2.09,7.64-5.24,9.73Zm7.52-27.49c-.59-.75-1.13-1.52-1.62-2.33-3.24,3.3-7.63,5.15-12.33,5.15s-9.09-1.86-12.33-5.15c-.49.81-1.03,1.58-1.62,2.33,1.49,1.43,3.17,2.63,5.03,3.55,2.78,1.38,5.79,2.08,8.92,2.08s6.13-.7,8.92-2.08c1.86-.92,3.55-2.11,5.03-3.55Zm-55.71,23.82c-.3,1.09-.67,2.15-1.13,3.19,2.75,3.18,6.69,4.99,10.93,4.99s8.18-1.81,10.93-4.99c-.46-1.03-.83-2.09-1.13-3.17-2.08,3.22-5.7,5.35-9.8,5.35s-7.71-2.15-9.8-5.37Zm.98-6.14v.05c.11,4.75,4.06,8.62,8.82,8.62s8.82-3.95,8.82-8.81-3.96-8.82-8.82-8.82-8.82,3.96-8.82,8.82c0,.05,0,.1,0,.15Zm19.88-9.47c-2.76-3.28-6.76-5.15-11.06-5.15s-8.31,1.87-11.07,5.16c.47,1.02.85,2.07,1.17,3.15,2.06-3.3,5.73-5.5,9.9-5.5s7.83,2.2,9.9,5.5c.31-1.07.7-2.12,1.17-3.15Zm1.44-2.66c.51-.8,1.06-1.58,1.66-2.31-.19-.18-.38-.37-.58-.56-1.34-1.23-2.86-2.28-4.49-3.11-2.83-1.44-5.89-2.17-9.09-2.17s-6.26.73-9.09,2.17c-1.62.82-3.13,1.86-4.5,3.11-.2.19-.39.37-.58.55.6.74,1.15,1.51,1.66,2.31,3.26-3.41,7.72-5.34,12.51-5.34s9.25,1.93,12.51,5.34Zm-44.47,21.03c4.86,0,8.82-3.95,8.82-8.81s-3.96-8.82-8.82-8.82-8.82,3.96-8.82,8.82,3.96,8.81,8.82,8.81Zm-11.67-8.81c0-4.28,2.32-8.03,5.76-10.06-1.11-.3-2.2-.67-3.26-1.14-3.37,2.76-5.3,6.82-5.3,11.19s1.79,8.14,4.94,10.89c1.01-.46,2.05-.85,3.1-1.16-3.16-2.09-5.24-5.67-5.24-9.73Zm18.1,9.73c1.06.31,2.09.7,3.1,1.16,3.15-2.75,4.94-6.67,4.94-10.89s-1.93-8.43-5.3-11.19c-1.06.46-2.15.84-3.26,1.14,3.44,2.03,5.76,5.78,5.76,10.06,0,4.06-2.09,7.64-5.24,9.73Zm7.52-27.49c-.59-.75-1.13-1.52-1.62-2.33-3.24,3.3-7.63,5.15-12.33,5.15s-9.09-1.86-12.33-5.15c-.49.81-1.03,1.58-1.62,2.33,1.49,1.43,3.17,2.63,5.03,3.55,2.78,1.38,5.79,2.08,8.92,2.08s6.13-.7,8.92-2.08c1.86-.92,3.55-2.11,5.03-3.55Zm-55.71,23.82c-.3,1.09-.67,2.15-1.13,3.19,2.75,3.18,6.69,4.99,10.93,4.99s8.18-1.81,10.93-4.99c-.46-1.03-.83-2.09-1.13-3.17-2.08,3.22-5.7,5.35-9.8,5.35s-7.71-2.15-9.8-5.37Zm.98-6.14v.05c.11,4.75,4.06,8.62,8.82,8.62s8.82-3.95,8.82-8.81-3.96-8.82-8.82-8.82-8.82,3.96-8.82,8.82c0,.05,0,.1,0,.15Zm19.88-9.47c-2.76-3.28-6.76-5.15-11.06-5.15s-8.31,1.87-11.07,5.16c.47,1.02.85,2.07,1.17,3.15,2.06-3.3,5.73-5.5,9.9-5.5s7.83,2.2,9.9,5.5c.31-1.07.7-2.12,1.17-3.15Zm1.44-2.66c.51-.8,1.06-1.58,1.66-2.31-.19-.18-.38-.37-.58-.56-1.34-1.23-2.86-2.28-4.49-3.11-2.83-1.44-5.89-2.17-9.09-2.17s-6.26.73-9.09,2.17c-1.62.82-3.13,1.86-4.5,3.11-.2.19-.39.37-.58.55.6.74,1.15,1.51,1.66,2.31,3.26-3.41,7.72-5.34,12.51-5.34s9.25,1.93,12.51,5.34Zm-44.47,21.03c4.86,0,8.82-3.95,8.82-8.81s-3.96-8.82-8.82-8.82-8.82,3.96-8.82,8.82,3.96,8.81,8.82,8.81Zm-11.67-8.81c0-4.28,2.32-8.03,5.76-10.06-1.11-.3-2.2-.67-3.26-1.14-3.37,2.76-5.3,6.82-5.3,11.19s1.79,8.14,4.94,10.89c1.01-.46,2.05-.85,3.1-1.16-3.16-2.09-5.24-5.67-5.24-9.73Zm18.1,9.73c1.06.31,2.09.7,3.1,1.16,3.15-2.75,4.94-6.67,4.94-10.89s-1.93-8.43-5.3-11.19c-1.06.46-2.15.84-3.26,1.14,3.44,2.03,5.76,5.78,5.76,10.06,0,4.06-2.09,7.64-5.24,9.73Zm7.52-27.49c-.59-.75-1.13-1.52-1.62-2.33-3.24,3.3-7.63,5.15-12.33,5.15s-9.09-1.86-12.33-5.15c-.49.81-1.03,1.58-1.62,2.33,1.49,1.43,3.17,2.63,5.03,3.55,2.78,1.38,5.79,2.08,8.92,2.08s6.13-.7,8.92-2.08c1.86-.92,3.55-2.11,5.03-3.55Zm-55.71,23.82c-.3,1.09-.67,2.15-1.13,3.19,2.75,3.18,6.69,4.99,10.93,4.99s8.18-1.81,10.93-4.99c-.46-1.03-.83-2.09-1.13-3.17-2.08,3.22-5.7,5.35-9.8,5.35s-7.71-2.15-9.8-5.37Zm.98-6.14v.05c.11,4.75,4.06,8.62,8.82,8.62s8.82-3.95,8.82-8.81-3.96-8.82-8.82-8.82-8.82,3.96-8.82,8.82c0,.05,0,.1,0,.15Zm19.88-9.47c-2.76-3.28-6.76-5.15-11.06-5.15s-8.31,1.87-11.07,5.16c.47,1.02.85,2.07,1.17,3.15,2.06-3.3,5.73-5.5,9.9-5.5s7.83,2.2,9.9,5.5c.31-1.07.7-2.12,1.17-3.15Zm1.44-2.66c.51-.8,1.06-1.58,1.66-2.31-.19-.18-.38-.37-.58-.56-1.34-1.23-2.86-2.28-4.49-3.11-2.83-1.44-5.89-2.17-9.09-2.17s-6.26.73-9.09,2.17c-1.62.82-3.13,1.86-4.5,3.11-.2.19-.39.37-.58.55.6.74,1.15,1.51,1.66,2.31,3.26-3.41,7.72-5.34,12.51-5.34s9.25,1.93,12.51,5.34Zm-44.47,21.03c4.86,0,8.82-3.95,8.82-8.81s-3.96-8.82-8.82-8.82-8.82,3.96-8.82,8.82,3.96,8.81,8.82,8.81Zm-11.67-8.81c0-4.28,2.32-8.03,5.76-10.06-1.11-.3-2.2-.67-3.26-1.14-3.37,2.76-5.3,6.82-5.3,11.19s1.79,8.14,4.94,10.89c1.01-.46,2.05-.85,3.1-1.16-3.16-2.09-5.24-5.67-5.24-9.73Zm18.1,9.73c1.06.31,2.09.7,3.1,1.16,3.15-2.75,4.94-6.67,4.94-10.89s-1.93-8.43-5.3-11.19c-1.06.46-2.15.84-3.26,1.14,3.44,2.03,5.76,5.78,5.76,10.06,0,4.06-2.09,7.64-5.24,9.73Zm7.53-27.49c-.59-.75-1.13-1.52-1.62-2.33-3.24,3.3-7.63,5.15-12.33,5.15s-9.09-1.86-12.33-5.15c-.49.81-1.03,1.58-1.62,2.33,1.49,1.43,3.17,2.63,5.03,3.55,2.78,1.38,5.79,2.08,8.92,2.08s6.13-.7,8.92-2.08c1.86-.92,3.55-2.11,5.03-3.55Zm-55.71,23.82c-.3,1.09-.67,2.15-1.13,3.19,2.75,3.18,6.69,4.99,10.93,4.99s8.18-1.81,10.93-4.99c-.46-1.03-.83-2.09-1.13-3.17-2.08,3.22-5.7,5.35-9.8,5.35s-7.71-2.15-9.8-5.37Zm.98-6.14v.05c.11,4.75,4.06,8.62,8.82,8.62s8.82-3.95,8.82-8.81-3.96-8.82-8.82-8.82-8.82,3.96-8.82,8.82c0,.05,0,.1,0,.15Zm19.88-9.47c-2.76-3.28-6.76-5.15-11.06-5.15s-8.31,1.87-11.07,5.16c.47,1.02.85,2.07,1.17,3.15,2.06-3.3,5.73-5.5,9.9-5.5s7.83,2.2,9.9,5.5c.31-1.07.7-2.12,1.17-3.15Zm1.44-2.66c.51-.8,1.06-1.58,1.66-2.31-.19-.18-.38-.37-.58-.56-1.34-1.23-2.86-2.28-4.49-3.11-2.83-1.44-5.89-2.17-9.09-2.17s-6.26.73-9.09,2.17c-1.62.82-3.13,1.86-4.5,3.11-.2.19-.39.37-.58.55.6.74,1.15,1.51,1.66,2.31,3.26-3.41,7.72-5.34,12.51-5.34s9.25,1.93,12.51,5.34Zm-22.31-45.78c-.3,1.08-.67,2.15-1.13,3.19,2.75,3.18,6.69,4.99,10.93,4.99s8.18-1.81,10.93-4.99c-.46-1.03-.83-2.09-1.13-3.17-2.08,3.22-5.7,5.35-9.8,5.35s-7.71-2.15-9.8-5.37Zm.98-6.14v.04c.1,4.75,4.06,8.62,8.82,8.62s8.82-3.96,8.82-8.82-3.96-8.82-8.82-8.82-8.82,3.96-8.82,8.82c0,.05,0,.1,0,.15Zm19.88-9.47c-2.76-3.28-6.76-5.15-11.06-5.15s-8.31,1.87-11.07,5.16c.47,1.02.85,2.07,1.17,3.15,2.06-3.3,5.73-5.5,9.9-5.5s7.83,2.2,9.9,5.5c.31-1.07.7-2.12,1.17-3.15Zm-23.39,21.49c-.49.81-1.03,1.58-1.62,2.33,1.5,1.44,3.18,2.63,5.03,3.55,2.79,1.38,5.79,2.08,8.92,2.08s6.13-.7,8.92-2.08c1.86-.92,3.54-2.11,5.03-3.55-.59-.75-1.13-1.52-1.62-2.33-3.24,3.3-7.63,5.15-12.33,5.15s-9.09-1.86-12.33-5.15Zm12.33,28.91c4.86,0,8.82-3.95,8.82-8.81s-3.96-8.82-8.82-8.82-8.82,3.96-8.82,8.82,3.96,8.81,8.82,8.81Zm-11.67-8.81c0-4.28,2.32-8.03,5.77-10.06-1.11-.3-2.2-.67-3.26-1.14-3.37,2.76-5.3,6.82-5.3,11.19s1.79,8.14,4.94,10.89c1.01-.46,2.05-.85,3.1-1.16-3.16-2.09-5.24-5.67-5.24-9.73Zm18.1,9.73c1.06.31,2.09.7,3.1,1.16,3.15-2.75,4.94-6.68,4.94-10.89s-1.93-8.43-5.3-11.19c-1.06.46-2.15.84-3.26,1.13,3.45,2.03,5.77,5.78,5.77,10.06,0,4.06-2.09,7.64-5.24,9.73Zm-20.66-23.96c-.2.2-.39.4-.57.6-1.23,1.34-2.28,2.83-3.1,4.43-1.44,2.8-2.19,5.82-2.22,8.99v.06c0,.05,0,.11,0,.16,0,3.11.69,6.09,2.05,8.85.77,1.58,1.76,3.05,2.93,4.39.02.02.05.04.07.06.08.08.14.16.2.25.13.14.25.27.38.41.74-.6,1.51-1.15,2.3-1.65-3.29-3.24-5.14-7.63-5.14-12.31s1.96-9.33,5.44-12.6c-.82-.49-1.6-1.04-2.35-1.63Zm28.72,28.19c.12-.13.25-.26.37-.39.06-.1.14-.2.23-.29.03-.03.06-.05.09-.07,1.16-1.33,2.14-2.79,2.9-4.35,1.36-2.77,2.05-5.75,2.05-8.86s-.77-6.38-2.22-9.2c-.82-1.6-1.86-3.09-3.1-4.43-.19-.2-.38-.4-.57-.6-.75.59-1.53,1.14-2.35,1.63,3.47,3.27,5.44,7.77,5.44,12.6s-1.85,9.08-5.14,12.32c.8.5,1.58,1.05,2.31,1.64Zm17.48-54.81c-4.86,0-8.82,3.95-8.82,8.81s3.96,8.82,8.82,8.82,8.82-3.96,8.82-8.82-3.96-8.81-8.82-8.81Zm11.67,8.81c0,4.06-2.09,7.64-5.24,9.73,1.06.31,2.09.7,3.1,1.16,3.15-2.75,4.94-6.68,4.94-10.89s-1.93-8.43-5.3-11.19c-1.06.47-2.15.84-3.26,1.14,3.45,2.03,5.77,5.78,5.77,10.06Zm-17.57-10.06c-1.11-.3-2.2-.67-3.26-1.14-3.37,2.76-5.3,6.82-5.3,11.19s1.79,8.14,4.94,10.89c1.01-.46,2.05-.85,3.1-1.16-3.16-2.09-5.24-5.67-5.24-9.73,0-4.28,2.32-8.03,5.77-10.06Zm-7.68,27c-.2.18-.39.37-.58.55.6.74,1.16,1.51,1.66,2.31,3.26-3.41,7.72-5.34,12.5-5.34s9.25,1.93,12.5,5.34c.5-.8,1.06-1.57,1.66-2.31-.19-.18-.38-.37-.57-.55-1.35-1.24-2.86-2.28-4.49-3.11-2.84-1.44-5.89-2.17-9.1-2.17s-6.26.73-9.09,2.17c-1.63.82-3.14,1.87-4.49,3.11Zm3.79,21.14c-.3,1.09-.67,2.15-1.13,3.19,2.76,3.18,6.7,4.99,10.93,4.99s8.18-1.81,10.93-4.99c-.46-1.03-.83-2.09-1.13-3.17-2.08,3.22-5.7,5.35-9.8,5.35s-7.71-2.15-9.8-5.37Zm.98-6.14v.04c.11,4.75,4.06,8.62,8.82,8.62s8.82-3.96,8.82-8.82-3.96-8.81-8.82-8.81-8.82,3.95-8.82,8.81c0,.05,0,.11,0,.16Zm19.88-9.48c-2.76-3.28-6.76-5.15-11.07-5.15s-8.31,1.87-11.07,5.15c.47,1.02.86,2.07,1.17,3.15,2.06-3.3,5.73-5.5,9.9-5.5s7.83,2.2,9.9,5.49c.31-1.07.7-2.12,1.17-3.15Zm5.75,22.8s.05.04.07.06c.08.08.14.16.2.25.13.14.25.27.38.41.74-.6,1.51-1.15,2.3-1.65-3.29-3.24-5.14-7.63-5.14-12.31s1.96-9.33,5.44-12.6c-.82-.49-1.6-1.04-2.35-1.63-.2.2-.39.4-.57.6-1.23,1.34-2.28,2.83-3.1,4.43-1.44,2.8-2.19,5.82-2.22,8.99v.06c0,.05,0,.11,0,.16,0,3.11.69,6.09,2.05,8.85.77,1.58,1.76,3.05,2.93,4.39Zm5.35-39.21c-.3,1.08-.67,2.15-1.13,3.19,2.75,3.18,6.69,4.99,10.93,4.99s8.18-1.81,10.93-4.99c-.46-1.03-.83-2.09-1.13-3.17-2.08,3.22-5.7,5.35-9.8,5.35s-7.71-2.15-9.8-5.37Zm.98-6.14v.04c.1,4.75,4.06,8.62,8.82,8.62s8.82-3.96,8.82-8.82-3.96-8.82-8.82-8.82-8.82,3.96-8.82,8.82c0,.05,0,.1,0,.15Zm19.88-9.47c-2.76-3.28-6.76-5.15-11.06-5.15s-8.31,1.87-11.07,5.16c.47,1.02.85,2.07,1.17,3.15,2.06-3.3,5.73-5.5,9.9-5.5s7.83,2.2,9.9,5.5c.31-1.07.7-2.12,1.17-3.15Zm-23.39,21.49c-.49.81-1.03,1.58-1.62,2.33,1.5,1.44,3.18,2.63,5.03,3.55,2.79,1.38,5.79,2.08,8.92,2.08s6.13-.7,8.92-2.08c1.86-.92,3.54-2.11,5.03-3.55-.59-.75-1.13-1.52-1.62-2.33-3.24,3.3-7.63,5.15-12.33,5.15s-9.09-1.86-12.33-5.15Zm12.33,28.91c4.86,0,8.82-3.95,8.82-8.81s-3.96-8.82-8.82-8.82-8.82,3.96-8.82,8.82,3.96,8.81,8.82,8.81Zm-11.67-8.81c0-4.28,2.32-8.03,5.77-10.06-1.11-.3-2.2-.67-3.26-1.14-3.37,2.76-5.3,6.82-5.3,11.19s1.79,8.14,4.94,10.89c1.01-.46,2.05-.85,3.1-1.16-3.16-2.09-5.24-5.67-5.24-9.73Zm18.1,9.73c1.06.31,2.09.7,3.1,1.16,3.15-2.75,4.94-6.68,4.94-10.89s-1.93-8.43-5.3-11.19c-1.06.46-2.15.84-3.26,1.13,3.45,2.03,5.77,5.78,5.77,10.06,0,4.06-2.09,7.64-5.24,9.73Zm8.06,4.24c.12-.13.25-.26.37-.39.06-.1.14-.2.23-.29.03-.03.06-.05.09-.07,1.16-1.33,2.14-2.79,2.9-4.35,1.36-2.77,2.05-5.75,2.05-8.86s-.77-6.38-2.22-9.2c-.82-1.6-1.86-3.09-3.1-4.43-.19-.2-.38-.4-.57-.6-.75.59-1.53,1.14-2.35,1.63,3.47,3.27,5.44,7.77,5.44,12.6s-1.85,9.08-5.14,12.32c.8.5,1.58,1.05,2.31,1.64Zm17.48-54.81c-4.86,0-8.82,3.95-8.82,8.81s3.96,8.82,8.82,8.82,8.82-3.96,8.82-8.82-3.96-8.81-8.82-8.81Zm11.67,8.81c0,4.06-2.09,7.64-5.24,9.73,1.06.31,2.09.7,3.1,1.16,3.15-2.75,4.94-6.68,4.94-10.89s-1.93-8.43-5.3-11.19c-1.06.47-2.15.84-3.26,1.14,3.45,2.03,5.77,5.78,5.77,10.06Zm-17.57-10.06c-1.11-.3-2.2-.67-3.26-1.14-3.37,2.76-5.3,6.82-5.3,11.19s1.79,8.14,4.94,10.89c1.01-.46,2.05-.85,3.1-1.16-3.16-2.09-5.24-5.67-5.24-9.73,0-4.28,2.32-8.03,5.77-10.06Zm-7.68,27c-.2.18-.39.37-.58.55.6.74,1.16,1.51,1.66,2.31,3.26-3.41,7.72-5.34,12.5-5.34s9.25,1.93,12.5,5.34c.5-.8,1.06-1.57,1.66-2.31-.19-.18-.38-.37-.57-.55-1.35-1.24-2.86-2.28-4.49-3.11-2.84-1.44-5.89-2.17-9.1-2.17s-6.26.73-9.09,2.17c-1.63.82-3.14,1.87-4.49,3.11Zm3.79,21.14c-.3,1.09-.67,2.15-1.13,3.19,2.76,3.18,6.7,4.99,10.93,4.99s8.18-1.81,10.93-4.99c-.46-1.03-.83-2.09-1.13-3.17-2.08,3.22-5.7,5.35-9.8,5.35s-7.71-2.15-9.8-5.37Zm.98-6.14v.04c.11,4.75,4.06,8.62,8.82,8.62s8.82-3.96,8.82-8.82-3.96-8.81-8.82-8.81-8.82,3.95-8.82,8.81c0,.05,0,.11,0,.16Zm19.88-9.48c-2.76-3.28-6.76-5.15-11.07-5.15s-8.31,1.87-11.07,5.15c.47,1.02.86,2.07,1.17,3.15,2.06-3.3,5.73-5.5,9.9-5.5s7.83,2.2,9.9,5.49c.31-1.07.7-2.12,1.17-3.15Zm5.75,22.8s.05.04.07.06c.08.08.14.16.2.25.13.14.25.27.38.41.74-.6,1.51-1.15,2.3-1.65-3.29-3.24-5.14-7.63-5.14-12.31s1.96-9.33,5.44-12.6c-.82-.49-1.6-1.04-2.35-1.63-.2.2-.39.4-.57.6-1.23,1.34-2.28,2.83-3.1,4.43-1.44,2.8-2.19,5.82-2.22,8.99v.06c0,.05,0,.11,0,.16,0,3.11.69,6.09,2.05,8.85.77,1.58,1.76,3.05,2.93,4.39Zm5.35-39.21c-.3,1.08-.67,2.15-1.13,3.19,2.75,3.18,6.69,4.99,10.93,4.99s8.18-1.81,10.93-4.99c-.46-1.03-.83-2.09-1.13-3.17-2.08,3.22-5.7,5.35-9.8,5.35s-7.71-2.15-9.8-5.37Zm.98-6.14v.04c.1,4.75,4.06,8.62,8.82,8.62s8.82-3.96,8.82-8.82-3.96-8.82-8.82-8.82-8.82,3.96-8.82,8.82c0,.05,0,.1,0,.15Zm19.88-9.47c-2.76-3.28-6.76-5.15-11.06-5.15s-8.31,1.87-11.07,5.16c.47,1.02.85,2.07,1.17,3.15,2.06-3.3,5.73-5.5,9.9-5.5s7.83,2.2,9.9,5.5c.31-1.07.7-2.12,1.17-3.15Zm-23.39,21.49c-.49.81-1.03,1.58-1.62,2.33,1.5,1.44,3.18,2.63,5.03,3.55,2.79,1.38,5.79,2.08,8.92,2.08s6.13-.7,8.92-2.08c1.86-.92,3.54-2.11,5.03-3.55-.59-.75-1.13-1.52-1.62-2.33-3.24,3.3-7.63,5.15-12.33,5.15s-9.09-1.86-12.33-5.15Zm12.33,28.91c4.86,0,8.82-3.95,8.82-8.81s-3.96-8.82-8.82-8.82-8.82,3.96-8.82,8.82,3.96,8.81,8.82,8.81Zm-11.67-8.81c0-4.28,2.32-8.03,5.77-10.06-1.11-.3-2.2-.67-3.26-1.14-3.37,2.76-5.3,6.82-5.3,11.19s1.79,8.14,4.94,10.89c1.01-.46,2.05-.85,3.1-1.16-3.16-2.09-5.24-5.67-5.24-9.73Zm18.1,9.73c1.06.31,2.09.7,3.1,1.16,3.15-2.75,4.94-6.68,4.94-10.89s-1.93-8.43-5.3-11.19c-1.06.46-2.15.84-3.26,1.13,3.45,2.03,5.77,5.78,5.77,10.06,0,4.06-2.09,7.64-5.24,9.73Zm8.06,4.24c.12-.13.25-.26.37-.39.06-.1.14-.2.23-.29.03-.03.06-.05.09-.07,1.16-1.33,2.14-2.79,2.9-4.35,1.36-2.77,2.05-5.75,2.05-8.86s-.77-6.38-2.22-9.2c-.82-1.6-1.86-3.09-3.1-4.43-.19-.2-.38-.4-.57-.6-.75.59-1.53,1.14-2.35,1.63,3.47,3.27,5.44,7.77,5.44,12.6s-1.85,9.08-5.14,12.32c.8.5,1.58,1.05,2.31,1.64Zm17.48-54.81c-4.86,0-8.82,3.95-8.82,8.81s3.96,8.82,8.82,8.82,8.82-3.96,8.82-8.82-3.96-8.81-8.82-8.81Zm11.67,8.81c0,4.06-2.09,7.64-5.24,9.73,1.06.31,2.09.7,3.1,1.16,3.15-2.75,4.94-6.68,4.94-10.89s-1.93-8.43-5.3-11.19c-1.06.47-2.15.84-3.26,1.14,3.45,2.03,5.77,5.78,5.77,10.06Zm-17.57-10.06c-1.11-.3-2.2-.67-3.26-1.14-3.37,2.76-5.3,6.82-5.3,11.19s1.79,8.14,4.94,10.89c1.01-.46,2.05-.85,3.1-1.16-3.16-2.09-5.24-5.67-5.24-9.73,0-4.28,2.32-8.03,5.77-10.06Zm-7.68,27c-.2.18-.39.37-.58.55.6.74,1.16,1.51,1.66,2.31,3.26-3.41,7.72-5.34,12.5-5.34s9.25,1.93,12.5,5.34c.5-.8,1.06-1.57,1.66-2.31-.19-.18-.38-.37-.57-.55-1.35-1.24-2.86-2.28-4.49-3.11-2.84-1.44-5.89-2.17-9.1-2.17s-6.26.73-9.09,2.17c-1.63.82-3.14,1.87-4.49,3.11Zm3.79,21.14c-.3,1.09-.67,2.15-1.13,3.19,2.76,3.18,6.7,4.99,10.93,4.99s8.18-1.81,10.93-4.99c-.46-1.03-.83-2.09-1.13-3.17-2.08,3.22-5.7,5.35-9.8,5.35s-7.71-2.15-9.8-5.37Zm.98-6.14v.04c.11,4.75,4.06,8.62,8.82,8.62s8.82-3.96,8.82-8.82-3.96-8.81-8.82-8.81-8.82,3.95-8.82,8.81c0,.05,0,.11,0,.16Zm19.88-9.48c-2.76-3.28-6.76-5.15-11.07-5.15s-8.31,1.87-11.07,5.15c.47,1.02.86,2.07,1.17,3.15,2.06-3.3,5.73-5.5,9.9-5.5s7.83,2.2,9.9,5.49c.31-1.07.7-2.12,1.17-3.15Zm5.75,22.8s.05.04.07.06c.08.08.14.16.2.25.13.14.25.27.38.41.74-.6,1.51-1.15,2.3-1.65-3.29-3.24-5.14-7.63-5.14-12.31s1.96-9.33,5.44-12.6c-.82-.49-1.6-1.04-2.35-1.63-.2.2-.39.4-.57.6-1.23,1.34-2.28,2.83-3.1,4.43-1.44,2.8-2.19,5.82-2.22,8.99v.06c0,.05,0,.11,0,.16,0,3.11.69,6.09,2.05,8.85.77,1.58,1.76,3.05,2.93,4.39Zm5.35-39.21c-.3,1.08-.67,2.15-1.13,3.19,2.75,3.18,6.69,4.99,10.93,4.99s8.18-1.81,10.93-4.99c-.46-1.03-.83-2.09-1.13-3.17-2.08,3.22-5.7,5.35-9.8,5.35s-7.71-2.15-9.8-5.37Zm.98-6.14v.04c.1,4.75,4.06,8.62,8.82,8.62s8.82-3.96,8.82-8.82-3.96-8.82-8.82-8.82-8.82,3.96-8.82,8.82c0,.05,0,.1,0,.15Zm19.88-9.47c-2.76-3.28-6.76-5.15-11.06-5.15s-8.31,1.87-11.07,5.16c.47,1.02.85,2.07,1.17,3.15,2.06-3.3,5.73-5.5,9.9-5.5s7.83,2.2,9.9,5.5c.31-1.07.7-2.12,1.17-3.15Zm-23.39,21.49c-.49.81-1.03,1.58-1.62,2.33,1.5,1.44,3.18,2.63,5.03,3.55,2.79,1.38,5.79,2.08,8.92,2.08s6.13-.7,8.92-2.08c1.86-.92,3.54-2.11,5.03-3.55-.59-.75-1.13-1.52-1.62-2.33-3.24,3.3-7.63,5.15-12.33,5.15s-9.09-1.86-12.33-5.15Zm12.33,28.91c4.86,0,8.82-3.95,8.82-8.81s-3.96-8.82-8.82-8.82-8.82,3.96-8.82,8.82,3.96,8.81,8.82,8.81Zm-11.67-8.81c0-4.28,2.32-8.03,5.77-10.06-1.11-.3-2.2-.67-3.26-1.14-3.37,2.76-5.3,6.82-5.3,11.19s1.79,8.14,4.94,10.89c1.01-.46,2.05-.85,3.1-1.16-3.16-2.09-5.24-5.67-5.24-9.73Zm18.1,9.73c1.06.31,2.09.7,3.1,1.16,3.15-2.75,4.94-6.68,4.94-10.89s-1.93-8.43-5.3-11.19c-1.06.46-2.15.84-3.26,1.13,3.45,2.03,5.77,5.78,5.77,10.06,0,4.06-2.09,7.64-5.24,9.73Zm8.06,4.24c.12-.13.25-.26.37-.39.06-.1.14-.2.23-.29.03-.03.06-.05.09-.07,1.16-1.33,2.14-2.79,2.9-4.35,1.36-2.77,2.05-5.75,2.05-8.86s-.77-6.38-2.22-9.2c-.82-1.6-1.86-3.09-3.1-4.43-.19-.2-.38-.4-.57-.6-.75.59-1.53,1.14-2.35,1.63,3.47,3.27,5.44,7.77,5.44,12.6s-1.85,9.08-5.14,12.32c.8.5,1.58,1.05,2.31,1.64Zm7.68-7.91c-.3,1.09-.67,2.15-1.13,3.19,2.76,3.18,6.7,4.99,10.93,4.99s8.18-1.81,10.93-4.99c-.46-1.03-.83-2.09-1.13-3.17-2.08,3.22-5.7,5.35-9.8,5.35s-7.71-2.15-9.8-5.37Zm.98-6.14v.04c.11,4.75,4.06,8.62,8.82,8.62s8.82-3.96,8.82-8.82-3.96-8.81-8.82-8.81-8.82,3.95-8.82,8.81c0,.05,0,.11,0,.16Zm19.88-9.48c-2.76-3.28-6.76-5.15-11.07-5.15s-8.31,1.87-11.07,5.15c.47,1.02.86,2.07,1.17,3.15,2.06-3.3,5.73-5.5,9.9-5.5s7.83,2.2,9.9,5.49c.31-1.07.7-2.12,1.17-3.15Zm1.44-2.67c.5-.8,1.06-1.57,1.66-2.31-.19-.18-.38-.37-.57-.55-1.35-1.24-2.86-2.28-4.49-3.11-2.84-1.44-5.89-2.17-9.1-2.17s-6.26.73-9.09,2.17c-1.63.82-3.14,1.87-4.49,3.11-.2.18-.39.37-.58.55.6.74,1.16,1.51,1.66,2.31,3.26-3.41,7.72-5.34,12.5-5.34s9.25,1.93,12.5,5.34Zm-18.41-29.87c-1.11-.3-2.2-.67-3.26-1.14-3.37,2.76-5.3,6.82-5.3,11.19s1.79,8.14,4.94,10.89c1.01-.46,2.05-.85,3.1-1.16-3.16-2.09-5.24-5.67-5.24-9.73,0-4.28,2.32-8.03,5.77-10.06Zm-2.92,10.06c0,4.86,3.96,8.82,8.82,8.82s8.82-3.96,8.82-8.82-3.96-8.81-8.82-8.81-8.82,3.95-8.82,8.81Zm23.29,0c0-4.38-1.93-8.43-5.3-11.19-1.06.47-2.15.84-3.26,1.14,3.45,2.03,5.77,5.78,5.77,10.06s-2.09,7.64-5.24,9.73c1.06.31,2.09.7,3.1,1.16,3.15-2.75,4.94-6.68,4.94-10.89Zm-28.7-14.22c-.2.2-.39.4-.57.6-1.23,1.34-2.27,2.82-3.1,4.43-1.44,2.8-2.19,5.82-2.22,8.99v.06s0,.1,0,.15c0,3.11.69,6.09,2.05,8.86.77,1.57,1.76,3.04,2.92,4.38.03.03.07.05.1.08.08.08.14.16.2.25.12.13.25.26.37.4.73-.6,1.5-1.15,2.3-1.65-3.29-3.24-5.14-7.63-5.14-12.32s1.97-9.33,5.44-12.59c-.82-.49-1.6-1.04-2.35-1.63Zm-34.88.6c-.19-.2-.38-.4-.58-.6-.75.59-1.53,1.14-2.35,1.63,3.47,3.26,5.44,7.77,5.44,12.6s-1.85,9.08-5.14,12.31c.8.5,1.57,1.05,2.31,1.65.18-.19.36-.38.54-.57,1.22-1.37,2.25-2.9,3.05-4.53,1.36-2.77,2.05-5.75,2.05-8.86s-.75-6.34-2.22-9.2c-.82-1.6-1.87-3.09-3.1-4.43Zm-29.04-.6c-.2.2-.39.4-.57.6-1.23,1.34-2.27,2.82-3.1,4.43-1.44,2.8-2.19,5.82-2.22,8.99v.06s0,.1,0,.15c0,3.11.69,6.09,2.05,8.86.77,1.57,1.76,3.04,2.92,4.38.03.03.07.05.1.08.08.08.14.16.2.25.12.13.25.26.37.4.73-.6,1.5-1.15,2.3-1.65-3.29-3.24-5.14-7.63-5.14-12.32s1.97-9.33,5.44-12.59c-.82-.49-1.6-1.04-2.35-1.63Zm-34.88.6c-.19-.2-.38-.4-.58-.6-.75.59-1.53,1.14-2.35,1.63,3.47,3.26,5.44,7.77,5.44,12.6s-1.85,9.08-5.14,12.31c.8.5,1.57,1.05,2.31,1.65.18-.19.36-.38.54-.57,1.22-1.37,2.25-2.9,3.05-4.53,1.36-2.77,2.05-5.75,2.05-8.86s-.75-6.34-2.22-9.2c-.82-1.6-1.87-3.09-3.1-4.43Zm-29.04-.6c-.2.2-.39.4-.57.6-1.23,1.34-2.27,2.82-3.1,4.43-1.44,2.8-2.19,5.82-2.22,8.99v.06s0,.1,0,.15c0,3.11.69,6.09,2.05,8.86.77,1.57,1.76,3.04,2.92,4.38.03.03.07.05.1.08.08.08.14.16.2.25.12.13.25.26.37.4.73-.6,1.5-1.15,2.3-1.65-3.29-3.24-5.14-7.63-5.14-12.32s1.97-9.33,5.44-12.59c-.82-.49-1.6-1.04-2.35-1.63Zm-34.88.6c-.19-.2-.38-.4-.58-.6-.75.59-1.53,1.14-2.35,1.63,3.47,3.26,5.44,7.77,5.44,12.6s-1.85,9.08-5.14,12.31c.8.5,1.57,1.05,2.31,1.65.18-.19.36-.38.54-.57,1.22-1.37,2.25-2.9,3.05-4.53,1.36-2.77,2.05-5.75,2.05-8.86s-.75-6.34-2.22-9.2c-.82-1.6-1.87-3.09-3.1-4.43Zm-29.04-.6c-.2.2-.39.4-.57.6-1.23,1.34-2.27,2.82-3.1,4.43-1.44,2.8-2.19,5.82-2.22,8.99v.06s0,.1,0,.15c0,3.11.69,6.09,2.05,8.86.77,1.57,1.76,3.04,2.92,4.38.03.03.07.05.1.08.08.08.14.16.2.25.12.13.25.26.37.4.73-.6,1.5-1.15,2.3-1.65-3.29-3.24-5.14-7.63-5.14-12.32s1.97-9.33,5.44-12.59c-.82-.49-1.6-1.04-2.35-1.63Zm-34.88.6c-.19-.2-.38-.4-.58-.6-.75.59-1.53,1.14-2.35,1.63,3.47,3.26,5.44,7.77,5.44,12.6s-1.85,9.08-5.14,12.31c.8.5,1.57,1.05,2.31,1.65.18-.19.36-.38.54-.57,1.22-1.37,2.25-2.9,3.05-4.53,1.36-2.77,2.05-5.75,2.05-8.86s-.75-6.34-2.22-9.2c-.82-1.6-1.87-3.09-3.1-4.43Zm-8.38,23.36c1.06.31,2.09.7,3.1,1.16,3.15-2.75,4.94-6.68,4.94-10.89s-1.93-8.43-5.3-11.19c-1.06.47-2.15.84-3.26,1.14,3.45,2.03,5.77,5.78,5.77,10.06s-2.09,7.64-5.24,9.73Zm2.39-9.73c0-4.86-3.96-8.81-8.82-8.81S-.01,65.52-.01,70.38s3.96,8.82,8.82,8.82,8.82-3.96,8.82-8.82Zm-23.29,0c0,4.22,1.79,8.14,4.94,10.89,1.01-.46,2.05-.85,3.1-1.16-3.16-2.09-5.24-5.67-5.24-9.73,0-4.28,2.32-8.03,5.77-10.06-1.11-.3-2.2-.67-3.26-1.14-3.37,2.76-5.3,6.82-5.3,11.19Zm.88,16.95c-.2.18-.39.37-.58.55.6.74,1.16,1.51,1.66,2.31,3.26-3.41,7.72-5.34,12.5-5.34s9.25,1.93,12.5,5.34c.5-.8,1.06-1.57,1.66-2.31-.19-.18-.38-.37-.57-.55-1.35-1.24-2.86-2.28-4.49-3.11-2.84-1.44-5.89-2.17-9.1-2.17s-6.26.73-9.09,2.17c-1.63.82-3.14,1.87-4.49,3.11Zm2.52,5.53c.47,1.02.86,2.07,1.17,3.15,2.06-3.3,5.73-5.5,9.9-5.5s7.83,2.2,9.9,5.49c.31-1.07.7-2.12,1.17-3.15-2.76-3.28-6.76-5.15-11.07-5.15s-8.31,1.87-11.07,5.15Zm1.27,15.61c-.3,1.09-.67,2.15-1.13,3.19,2.76,3.18,6.7,4.99,10.93,4.99s8.18-1.81,10.93-4.99c-.46-1.03-.83-2.09-1.13-3.17-2.08,3.22-5.7,5.35-9.8,5.35s-7.71-2.15-9.8-5.37ZM0,102.34v.04c.11,4.75,4.06,8.62,8.82,8.62s8.82-3.96,8.82-8.82-3.96-8.81-8.82-8.81S-.01,97.32-.01,102.18c0,.05,0,.11,0,.16Zm-3.51,12.01c-.49.81-1.03,1.58-1.62,2.33,1.49,1.43,3.17,2.63,5.03,3.55,2.78,1.38,5.79,2.08,8.92,2.08s6.13-.7,8.92-2.08c1.86-.92,3.55-2.11,5.03-3.55-.59-.75-1.13-1.52-1.62-2.33-3.24,3.3-7.63,5.15-12.33,5.15s-9.09-1.86-12.33-5.15Zm18.75,29.82c1.06.31,2.09.7,3.1,1.16,3.15-2.75,4.94-6.67,4.94-10.89s-1.93-8.43-5.3-11.19c-1.06.46-2.15.84-3.26,1.14,3.44,2.03,5.76,5.78,5.76,10.06,0,4.06-2.09,7.64-5.24,9.73Zm2.39-9.73c0-4.86-3.96-8.82-8.82-8.82S-.01,129.58-.01,134.44s3.96,8.81,8.82,8.81,8.82-3.95,8.82-8.81Zm-23.29,0c0,4.22,1.79,8.14,4.94,10.89,1.01-.46,2.05-.85,3.1-1.16-3.16-2.09-5.24-5.67-5.24-9.73,0-4.28,2.32-8.03,5.76-10.06-1.11-.3-2.2-.67-3.26-1.14-3.37,2.76-5.3,6.82-5.3,11.19Zm28.96,13.96c.12-.13.24-.26.36-.39.06-.1.14-.2.23-.29.03-.03.06-.05.09-.07,1.15-1.33,2.13-2.79,2.9-4.36,1.36-2.77,2.05-5.75,2.05-8.86s-.75-6.34-2.22-9.2c-.83-1.61-1.87-3.1-3.1-4.43-.19-.2-.38-.4-.57-.6-.75.59-1.53,1.14-2.35,1.63,3.47,3.26,5.44,7.77,5.44,12.6s-1.85,9.07-5.14,12.31c.8.5,1.57,1.05,2.31,1.65Zm34.25-.76s.07.05.1.08c.1.09.17.19.23.3.12.13.24.26.36.38.73-.6,1.5-1.15,2.3-1.65-3.29-3.24-5.14-7.62-5.14-12.31s1.97-9.33,5.44-12.6c-.82-.49-1.6-1.04-2.35-1.63-.2.2-.39.4-.57.6-1.23,1.33-2.27,2.82-3.1,4.43-1.44,2.8-2.19,5.82-2.22,8.99v.06s0,.1,0,.15c0,3.11.69,6.09,2.05,8.85.77,1.57,1.74,3.03,2.89,4.35Zm29.67.76c.12-.13.24-.26.36-.39.06-.1.14-.2.23-.29.03-.03.06-.05.09-.07,1.15-1.33,2.13-2.79,2.9-4.36,1.36-2.77,2.05-5.75,2.05-8.86s-.75-6.34-2.22-9.2c-.83-1.61-1.87-3.1-3.1-4.43-.19-.2-.38-.4-.57-.6-.75.59-1.53,1.14-2.35,1.63,3.47,3.26,5.44,7.77,5.44,12.6s-1.85,9.07-5.14,12.31c.8.5,1.57,1.05,2.31,1.65Zm34.25-.76s.07.05.1.08c.1.09.17.19.23.3.12.13.24.26.36.38.73-.6,1.5-1.15,2.3-1.65-3.29-3.24-5.14-7.62-5.14-12.31s1.97-9.33,5.44-12.6c-.82-.49-1.6-1.04-2.35-1.63-.2.2-.39.4-.57.6-1.23,1.33-2.27,2.82-3.1,4.43-1.44,2.8-2.19,5.82-2.22,8.99v.06s0,.1,0,.15c0,3.11.69,6.09,2.05,8.85.77,1.57,1.74,3.03,2.89,4.35Zm29.67.76c.12-.13.24-.26.36-.39.06-.1.14-.2.23-.29.03-.03.06-.05.09-.07,1.15-1.33,2.13-2.79,2.9-4.36,1.36-2.77,2.05-5.75,2.05-8.86s-.75-6.34-2.22-9.2c-.83-1.61-1.87-3.1-3.1-4.43-.19-.2-.38-.4-.57-.6-.75.59-1.53,1.14-2.35,1.63,3.47,3.26,5.44,7.77,5.44,12.6s-1.85,9.07-5.14,12.31c.8.5,1.57,1.05,2.31,1.65Zm34.25-.76s.07.05.1.08c.1.09.17.19.23.3.12.13.24.26.36.38.73-.6,1.5-1.15,2.3-1.65-3.29-3.24-5.14-7.62-5.14-12.31s1.97-9.33,5.44-12.6c-.82-.49-1.6-1.04-2.35-1.63-.2.2-.39.4-.57.6-1.23,1.33-2.27,2.82-3.1,4.43-1.44,2.8-2.19,5.82-2.22,8.99v.06s0,.1,0,.15c0,3.11.69,6.09,2.05,8.85.77,1.57,1.74,3.03,2.89,4.35Zm29.67.76c.12-.13.24-.26.36-.39.06-.1.14-.2.23-.29.03-.03.06-.05.09-.07,1.15-1.33,2.13-2.79,2.9-4.36,1.36-2.77,2.05-5.75,2.05-8.86s-.75-6.34-2.22-9.2c-.83-1.61-1.87-3.1-3.1-4.43-.19-.2-.38-.4-.57-.6-.75.59-1.53,1.14-2.35,1.63,3.47,3.26,5.44,7.77,5.44,12.6s-1.85,9.07-5.14,12.31c.8.5,1.57,1.05,2.31,1.65Zm34.25-.76s.07.05.1.08c.1.09.17.19.23.3.12.13.24.26.36.38.73-.6,1.5-1.15,2.3-1.65-3.29-3.24-5.14-7.62-5.14-12.31s1.97-9.33,5.44-12.6c-.82-.49-1.6-1.04-2.35-1.63-.2.2-.39.4-.57.6-1.23,1.33-2.27,2.82-3.1,4.43-1.44,2.8-2.19,5.82-2.22,8.99v.06s0,.1,0,.15c0,3.11.69,6.09,2.05,8.85.77,1.57,1.74,3.03,2.89,4.35Zm32.67-45.23c0,4.21,1.79,8.14,4.94,10.89,1.01-.46,2.05-.85,3.1-1.16-3.16-2.09-5.24-5.67-5.24-9.73,0-4.28,2.32-8.03,5.77-10.06-1.11-.3-2.2-.67-3.26-1.14-3.37,2.76-5.3,6.82-5.3,11.19Zm.24-14.23c-.2.2-.39.4-.57.6-1.23,1.34-2.28,2.83-3.1,4.43-1.44,2.8-2.19,5.82-2.22,8.99v.06c0,.05,0,.11,0,.16,0,3.11.69,6.09,2.05,8.85.77,1.58,1.76,3.05,2.93,4.39.02.02.05.04.07.06.08.08.14.16.2.25.13.14.25.27.38.41.74-.6,1.51-1.15,2.3-1.65-3.29-3.24-5.14-7.63-5.14-12.31s1.96-9.33,5.44-12.6c-.82-.49-1.6-1.04-2.35-1.63Zm-2.92-31.43c-.19-.2-.38-.4-.58-.6-.75.59-1.53,1.14-2.35,1.63,3.47,3.26,5.44,7.77,5.44,12.6s-1.85,9.08-5.14,12.31c.8.5,1.57,1.05,2.31,1.65.18-.19.36-.38.54-.57,1.22-1.37,2.25-2.9,3.05-4.53,1.36-2.77,2.05-5.75,2.05-8.86s-.75-6.34-2.22-9.2c-.82-1.6-1.87-3.09-3.1-4.43Zm2.68-18.4c0,4.22,1.79,8.14,4.94,10.89,1.01-.46,2.04-.85,3.1-1.16-3.15-2.09-5.24-5.67-5.24-9.73,0-4.28,2.32-8.03,5.76-10.06-1.11-.3-2.2-.67-3.26-1.14-3.37,2.76-5.3,6.82-5.3,11.19Zm-3.44-9.2c-1.44,2.8-2.19,5.82-2.22,8.99v.06s0,.1,0,.15c0,3.11.69,6.09,2.05,8.85.77,1.57,1.74,3.02,2.89,4.35.03.03.07.05.1.08.1.09.17.19.23.3.12.13.24.25.36.38.73-.6,1.51-1.15,2.31-1.65-3.29-3.24-5.14-7.62-5.14-12.31s1.97-9.33,5.44-12.6c-.82-.49-1.6-1.04-2.35-1.63-.2.2-.39.4-.57.6-1.22,1.32-2.27,2.81-3.1,4.43Zm-8.15-32.88c3.45,2.03,5.77,5.78,5.77,10.06,0,4.06-2.09,7.64-5.24,9.73,1.06.31,2.09.7,3.1,1.16,3.15-2.75,4.94-6.67,4.94-10.89s-1.93-8.43-5.31-11.19c-1.06.46-2.15.84-3.26,1.13Zm-5.9,1.24c-4.86,0-8.82,3.96-8.82,8.82s3.96,8.81,8.82,8.81,8.82-3.95,8.82-8.81-3.96-8.82-8.82-8.82Zm-9.53,19.71c1.01-.46,2.05-.85,3.1-1.16-3.16-2.09-5.24-5.67-5.24-9.73,0-4.28,2.32-8.03,5.77-10.06-1.11-.3-2.2-.67-3.26-1.13-3.37,2.77-5.3,6.82-5.3,11.19s1.79,8.14,4.94,10.89Zm-4.64,6.61c.6.73,1.15,1.51,1.66,2.32,3.26-3.41,7.72-5.34,12.51-5.34s9.25,1.93,12.51,5.34c.51-.81,1.06-1.58,1.66-2.32-.19-.19-.38-.37-.58-.55-1.35-1.24-2.86-2.28-4.49-3.11-2.84-1.44-5.89-2.17-9.1-2.17s-6.26.73-9.09,2.17c-1.62.82-3.13,1.87-4.5,3.11-.2.18-.39.36-.58.55Zm-3.56.3c-.75.59-1.53,1.14-2.35,1.63,3.47,3.26,5.44,7.77,5.44,12.6s-1.85,9.07-5.14,12.31c.8.5,1.57,1.05,2.31,1.65.14-.15.28-.3.42-.45.05-.07.1-.13.15-.19.02-.02.03-.03.05-.04,1.18-1.34,2.18-2.83,2.96-4.43,1.36-2.77,2.05-5.75,2.05-8.86s-.75-6.34-2.22-9.2c-.83-1.62-1.88-3.11-3.1-4.43-.19-.2-.38-.4-.58-.6Zm-23.05-18.03c0,.05,0,.11,0,.16v.04c.11,4.75,4.06,8.62,8.82,8.62s8.82-3.96,8.82-8.82-3.96-8.81-8.82-8.81-8.82,3.95-8.82,8.81Zm-2.11,9.48c2.76,3.18,6.69,4.99,10.93,4.99s8.18-1.81,10.93-4.99c-.46-1.03-.83-2.09-1.13-3.17-2.08,3.22-5.7,5.35-9.8,5.35s-7.71-2.15-9.8-5.37c-.3,1.08-.67,2.15-1.13,3.19Zm-3.02,5.02c1.49,1.43,3.18,2.63,5.03,3.55,2.78,1.38,5.79,2.08,8.92,2.08s6.13-.7,8.92-2.08c1.86-.92,3.55-2.11,5.03-3.55-.59-.75-1.13-1.52-1.62-2.33-3.24,3.3-7.63,5.15-12.33,5.15s-9.09-1.86-12.33-5.15c-.49.81-1.03,1.58-1.62,2.33Zm-3.95,8.56c-1.44,2.8-2.19,5.82-2.22,8.99v.06s0,.1,0,.15c0,3.11.69,6.09,2.05,8.85.77,1.57,1.74,3.02,2.89,4.35.03.03.07.05.1.08.1.09.17.19.23.3.12.13.24.25.36.38.73-.6,1.51-1.15,2.31-1.65-3.29-3.24-5.14-7.62-5.14-12.31s1.97-9.33,5.44-12.6c-.82-.49-1.6-1.04-2.35-1.63-.2.2-.39.4-.57.6-1.22,1.32-2.27,2.81-3.1,4.43Zm-8.15-32.88c3.45,2.03,5.77,5.78,5.77,10.06,0,4.06-2.09,7.64-5.24,9.73,1.06.31,2.09.7,3.1,1.16,3.15-2.75,4.94-6.67,4.94-10.89s-1.93-8.43-5.31-11.19c-1.06.46-2.15.84-3.26,1.13Zm-5.9,1.24c-4.86,0-8.82,3.96-8.82,8.82s3.96,8.81,8.82,8.81,8.82-3.95,8.82-8.81-3.96-8.82-8.82-8.82Zm-9.53,19.71c1.01-.46,2.05-.85,3.1-1.16-3.16-2.09-5.24-5.67-5.24-9.73,0-4.28,2.32-8.03,5.77-10.06-1.11-.3-2.2-.67-3.26-1.13-3.37,2.77-5.3,6.82-5.3,11.19s1.79,8.14,4.94,10.89Zm-4.64,6.61c.6.73,1.15,1.51,1.66,2.32,3.26-3.41,7.72-5.34,12.51-5.34s9.25,1.93,12.51,5.34c.51-.81,1.06-1.58,1.66-2.32-.19-.19-.38-.37-.58-.55-1.35-1.24-2.86-2.28-4.49-3.11-2.84-1.44-5.89-2.17-9.1-2.17s-6.26.73-9.09,2.17c-1.62.82-3.13,1.87-4.5,3.11-.2.18-.39.36-.58.55Zm-3.56.3c-.75.59-1.53,1.14-2.35,1.63,3.47,3.26,5.44,7.77,5.44,12.6s-1.85,9.07-5.14,12.31c.8.5,1.57,1.05,2.31,1.65.14-.15.28-.3.42-.45.05-.07.1-.13.15-.19.02-.02.03-.03.05-.04,1.18-1.34,2.18-2.83,2.96-4.43,1.36-2.77,2.05-5.75,2.05-8.86s-.75-6.34-2.22-9.2c-.83-1.62-1.88-3.11-3.1-4.43-.19-.2-.38-.4-.58-.6Zm-23.05-18.03c0,.05,0,.11,0,.16v.04c.11,4.75,4.06,8.62,8.82,8.62s8.82-3.96,8.82-8.82-3.96-8.81-8.82-8.81-8.82,3.95-8.82,8.81Zm-2.11,9.48c2.76,3.18,6.69,4.99,10.93,4.99s8.18-1.81,10.93-4.99c-.46-1.03-.83-2.09-1.13-3.17-2.08,3.22-5.7,5.35-9.8,5.35s-7.71-2.15-9.8-5.37c-.3,1.08-.67,2.15-1.13,3.19Zm-3.02,5.02c1.49,1.43,3.18,2.63,5.03,3.55,2.78,1.38,5.79,2.08,8.92,2.08s6.13-.7,8.92-2.08c1.86-.92,3.55-2.11,5.03-3.55-.59-.75-1.13-1.52-1.62-2.33-3.24,3.3-7.63,5.15-12.33,5.15s-9.09-1.86-12.33-5.15c-.49.81-1.03,1.58-1.62,2.33Zm-3.95,8.56c-1.44,2.8-2.19,5.82-2.22,8.99v.06s0,.1,0,.15c0,3.11.69,6.09,2.05,8.85.77,1.57,1.74,3.02,2.89,4.35.03.03.07.05.1.08.1.09.17.19.23.3.12.13.24.25.36.38.73-.6,1.51-1.15,2.31-1.65-3.29-3.24-5.14-7.62-5.14-12.31s1.97-9.33,5.44-12.6c-.82-.49-1.6-1.04-2.35-1.63-.2.2-.39.4-.57.6-1.22,1.32-2.27,2.81-3.1,4.43Zm-8.15-32.88c3.45,2.03,5.77,5.78,5.77,10.06,0,4.06-2.09,7.64-5.24,9.73,1.06.31,2.09.7,3.1,1.16,3.15-2.75,4.94-6.67,4.94-10.89s-1.93-8.43-5.31-11.19c-1.06.46-2.15.84-3.26,1.13Zm-5.9,1.24c-4.86,0-8.82,3.96-8.82,8.82s3.96,8.81,8.82,8.81,8.82-3.95,8.82-8.81-3.96-8.82-8.82-8.82Zm-9.53,19.71c1.01-.46,2.05-.85,3.1-1.16-3.16-2.09-5.24-5.67-5.24-9.73,0-4.28,2.32-8.03,5.77-10.06-1.11-.3-2.2-.67-3.26-1.13-3.37,2.77-5.3,6.82-5.3,11.19s1.79,8.14,4.94,10.89Zm-4.64,6.61c.6.73,1.15,1.51,1.66,2.32,3.26-3.41,7.72-5.34,12.51-5.34s9.25,1.93,12.51,5.34c.51-.81,1.06-1.58,1.66-2.32-.19-.19-.38-.37-.58-.55-1.35-1.24-2.86-2.28-4.49-3.11-2.84-1.44-5.89-2.17-9.1-2.17s-6.26.73-9.09,2.17c-1.62.82-3.13,1.87-4.5,3.11-.2.18-.39.36-.58.55Zm-3.56.3c-.75.59-1.53,1.14-2.35,1.63,3.47,3.26,5.44,7.77,5.44,12.6s-1.85,9.07-5.14,12.31c.8.5,1.57,1.05,2.31,1.65.14-.15.28-.3.42-.45.05-.07.1-.13.15-.19.02-.02.03-.03.05-.04,1.18-1.34,2.18-2.83,2.96-4.43,1.36-2.77,2.05-5.75,2.05-8.86s-.75-6.34-2.22-9.2c-.83-1.62-1.88-3.11-3.1-4.43-.19-.2-.38-.4-.58-.6Zm-23.05-18.03c0,.05,0,.11,0,.16v.04c.11,4.75,4.06,8.62,8.82,8.62s8.82-3.96,8.82-8.82-3.96-8.81-8.82-8.81-8.82,3.95-8.82,8.81Zm-2.11,9.48c2.76,3.18,6.69,4.99,10.93,4.99s8.18-1.81,10.93-4.99c-.46-1.03-.83-2.09-1.13-3.17-2.08,3.22-5.7,5.35-9.8,5.35s-7.71-2.15-9.8-5.37c-.3,1.08-.67,2.15-1.13,3.19Zm-3.02,5.02c1.49,1.43,3.18,2.63,5.03,3.55,2.78,1.38,5.79,2.08,8.92,2.08s6.13-.7,8.92-2.08c1.86-.92,3.55-2.11,5.03-3.55-.59-.75-1.13-1.52-1.62-2.33-3.24,3.3-7.63,5.15-12.33,5.15s-9.09-1.86-12.33-5.15c-.49.81-1.03,1.58-1.62,2.33Zm-3.95,8.56c-1.44,2.8-2.19,5.82-2.22,8.99v.06s0,.1,0,.15c0,3.11.69,6.09,2.05,8.85.77,1.57,1.74,3.02,2.89,4.35.03.03.07.05.1.08.1.09.17.19.23.3.12.13.24.25.36.38.73-.6,1.51-1.15,2.31-1.65-3.29-3.24-5.14-7.62-5.14-12.31s1.97-9.33,5.44-12.6c-.82-.49-1.6-1.04-2.35-1.63-.2.2-.39.4-.57.6-1.22,1.32-2.27,2.81-3.1,4.43ZM78.63-3.72c3.45,2.03,5.77,5.78,5.77,10.06,0,4.06-2.09,7.64-5.24,9.73,1.06.31,2.09.7,3.1,1.16,3.15-2.75,4.94-6.67,4.94-10.89s-1.93-8.43-5.31-11.19c-1.06.46-2.15.84-3.26,1.13Zm-5.9,1.24c-4.86,0-8.82,3.96-8.82,8.82s3.96,8.81,8.82,8.81,8.82-3.95,8.82-8.81-3.96-8.82-8.82-8.82Zm-9.53,19.71c1.01-.46,2.05-.85,3.1-1.16-3.16-2.09-5.24-5.67-5.24-9.73,0-4.28,2.32-8.03,5.77-10.06-1.11-.3-2.2-.67-3.26-1.13-3.37,2.77-5.3,6.82-5.3,11.19s1.79,8.14,4.94,10.89Zm-4.64,6.61c.6.73,1.15,1.51,1.66,2.32,3.26-3.41,7.72-5.34,12.51-5.34s9.25,1.93,12.51,5.34c.51-.81,1.06-1.58,1.66-2.32-.19-.19-.38-.37-.58-.55-1.35-1.24-2.86-2.28-4.49-3.11-2.84-1.44-5.89-2.17-9.1-2.17s-6.26.73-9.09,2.17c-1.62.82-3.13,1.87-4.5,3.11-.2.18-.39.36-.58.55Zm-3.56.3c-.75.59-1.53,1.14-2.35,1.63,3.47,3.26,5.44,7.77,5.44,12.6s-1.85,9.07-5.14,12.31c.8.5,1.57,1.05,2.31,1.65.14-.15.28-.3.42-.45.05-.07.1-.13.15-.19.02-.02.03-.03.05-.04,1.18-1.34,2.18-2.83,2.96-4.43,1.36-2.77,2.05-5.75,2.05-8.86s-.75-6.34-2.22-9.2c-.83-1.62-1.88-3.11-3.1-4.43-.19-.2-.38-.4-.58-.6ZM31.95,6.1c0,.05,0,.11,0,.16v.04c.11,4.75,4.06,8.62,8.82,8.62s8.82-3.96,8.82-8.82-3.96-8.81-8.82-8.81-8.82,3.95-8.82,8.81Zm-2.11,9.48c2.76,3.18,6.69,4.99,10.93,4.99s8.18-1.81,10.93-4.99c-.46-1.03-.83-2.09-1.13-3.17-2.08,3.22-5.7,5.35-9.8,5.35s-7.71-2.15-9.8-5.37c-.3,1.08-.67,2.15-1.13,3.19Zm-3.02,5.02c1.49,1.43,3.17,2.63,5.03,3.55,2.78,1.38,5.79,2.08,8.92,2.08s6.13-.7,8.92-2.08c1.86-.92,3.55-2.11,5.03-3.55-.59-.75-1.13-1.52-1.62-2.33-3.24,3.3-7.63,5.15-12.33,5.15s-9.09-1.86-12.33-5.15c-.49.81-1.03,1.58-1.62,2.33Zm-3.95,8.56c-1.44,2.8-2.19,5.82-2.22,8.99v.06s0,.1,0,.15c0,3.11.69,6.09,2.05,8.85.77,1.57,1.74,3.02,2.89,4.35.03.03.07.05.1.08.1.09.17.19.23.3.12.13.24.25.36.38.73-.6,1.51-1.15,2.31-1.65-3.29-3.24-5.14-7.62-5.14-12.31s1.97-9.33,5.44-12.6c-.82-.49-1.6-1.04-2.35-1.63-.2.2-.39.4-.57.6-1.22,1.32-2.27,2.81-3.1,4.43ZM14.71-3.72c3.45,2.03,5.77,5.78,5.77,10.06,0,4.06-2.09,7.64-5.24,9.73,1.06.31,2.09.7,3.1,1.16,3.15-2.75,4.94-6.67,4.94-10.89s-1.93-8.43-5.31-11.19c-1.06.46-2.15.84-3.26,1.13Zm-5.9,1.24C3.94-2.48-.01,1.47-.01,6.33s3.96,8.81,8.82,8.81,8.82-3.95,8.82-8.81S13.67-2.48,8.81-2.48ZM-.72,17.22c1.01-.46,2.05-.85,3.1-1.16C-.78,13.97-2.86,10.39-2.86,6.33-2.86,2.05-.54-1.69,2.9-3.72c-1.11-.3-2.2-.67-3.26-1.13C-3.73-2.09-5.66,1.96-5.66,6.33S-3.87,14.47-.72,17.22Zm-4.64,6.61c.6.73,1.15,1.51,1.66,2.32,3.26-3.41,7.72-5.34,12.51-5.34s9.25,1.93,12.51,5.34c.51-.81,1.06-1.58,1.66-2.32-.19-.19-.38-.37-.58-.55-1.35-1.24-2.86-2.28-4.49-3.11-2.84-1.44-5.89-2.17-9.1-2.17s-6.26.73-9.09,2.17c-1.62.82-3.13,1.87-4.5,3.11-.2.18-.39.36-.58.55Zm-3.32,14.53c0-4.38-1.93-8.43-5.3-11.19-1.06.46-2.15.84-3.26,1.14,3.44,2.03,5.76,5.78,5.76,10.06,0,4.06-2.08,7.64-5.24,9.73,1.06.31,2.09.7,3.1,1.16,3.15-2.75,4.94-6.67,4.94-10.89Zm.02,13.96c.14-.15.28-.3.42-.45.05-.07.1-.13.15-.19.02-.02.03-.03.05-.04,1.18-1.34,2.18-2.83,2.96-4.43,1.36-2.77,2.05-5.75,2.05-8.86s-.75-6.34-2.22-9.2c-.83-1.62-1.88-3.11-3.1-4.43-.19-.2-.38-.4-.58-.6-.75.59-1.53,1.14-2.35,1.63,3.47,3.26,5.44,7.77,5.44,12.6s-1.85,9.07-5.14,12.31c.8.5,1.57,1.05,2.31,1.65Zm2.32,31.3s.07.05.1.08c.08.08.14.16.2.25.12.13.25.26.37.4.73-.6,1.5-1.15,2.3-1.65-3.29-3.24-5.14-7.63-5.14-12.32s1.97-9.33,5.44-12.59c-.82-.49-1.6-1.04-2.35-1.63-.2.2-.39.4-.57.6-1.23,1.34-2.27,2.82-3.1,4.43-1.44,2.8-2.19,5.82-2.22,8.99v.06s0,.1,0,.15c0,3.11.69,6.09,2.05,8.86.77,1.57,1.76,3.04,2.92,4.38Zm-2.34,18.79c0-4.37-1.93-8.43-5.3-11.19-1.06.46-2.15.84-3.26,1.13,3.45,2.03,5.77,5.78,5.77,10.06,0,4.06-2.09,7.64-5.24,9.73,1.06.31,2.09.7,3.1,1.16,3.15-2.75,4.94-6.68,4.94-10.89Zm.01,13.96c.12-.13.25-.26.37-.39.06-.1.14-.2.23-.29.03-.03.06-.05.09-.07,1.16-1.33,2.14-2.79,2.9-4.35,1.36-2.77,2.05-5.75,2.05-8.86s-.77-6.38-2.22-9.2c-.82-1.6-1.86-3.09-3.1-4.43-.19-.2-.38-.4-.57-.6-.75.59-1.53,1.14-2.35,1.63,3.47,3.27,5.44,7.77,5.44,12.6s-1.85,9.08-5.14,12.32c.8.5,1.58,1.05,2.31,1.64Zm2.29,31.26s.07.05.1.08c.1.09.17.19.23.3.12.13.24.26.36.38.73-.6,1.5-1.15,2.3-1.65-3.29-3.24-5.14-7.62-5.14-12.31s1.97-9.33,5.44-12.6c-.82-.49-1.6-1.04-2.35-1.63-.2.2-.39.4-.57.6-1.23,1.33-2.27,2.82-3.1,4.43-1.44,2.8-2.19,5.82-2.22,8.99v.06s0,.1,0,.15c0,3.11.69,6.09,2.05,8.85.77,1.57,1.74,3.03,2.89,4.35Zm-2.31,18.82c0-4.38-1.93-8.43-5.3-11.19-1.06.47-2.15.84-3.26,1.14,3.45,2.03,5.77,5.78,5.77,10.06s-2.08,7.64-5.24,9.73c1.06.31,2.09.7,3.1,1.16,3.15-2.75,4.94-6.67,4.94-10.89Zm3.61,8.86c1.36-2.77,2.05-5.75,2.05-8.86s-.75-6.34-2.22-9.2c-.83-1.62-1.88-3.11-3.1-4.43-.19-.2-.38-.4-.57-.6-.75.59-1.53,1.14-2.35,1.63,3.47,3.26,5.44,7.77,5.44,12.6s-1.85,9.07-5.14,12.31c.8.5,1.57,1.05,2.31,1.65.12-.13.24-.26.36-.39.06-.1.14-.2.23-.29.03-.03.06-.05.09-.07,1.16-1.33,2.14-2.79,2.9-4.35Zm7.46,32.9c-3.16-2.09-5.24-5.67-5.24-9.73,0-4.28,2.32-8.03,5.76-10.06-1.11-.29-2.2-.67-3.26-1.13-3.37,2.76-5.3,6.82-5.3,11.19s1.79,8.14,4.94,10.89c1.01-.46,2.05-.85,3.1-1.16Zm15.25-9.73c0-4.86-3.96-8.81-8.82-8.81S-.01,193.63-.01,198.49s3.96,8.82,8.82,8.82,8.82-3.96,8.82-8.82Zm.35-11.19c-1.06.46-2.15.84-3.26,1.13,3.45,2.03,5.76,5.78,5.76,10.06s-2.09,7.64-5.24,9.73c1.06.31,2.09.7,3.1,1.16,3.15-2.76,4.94-6.68,4.94-10.89s-1.93-8.42-5.3-11.19Zm4.78-6.57c-.59-.75-1.13-1.52-1.62-2.33-3.24,3.29-7.63,5.15-12.33,5.15s-9.09-1.86-12.33-5.15c-.49.81-1.03,1.59-1.62,2.33,1.49,1.43,3.18,2.63,5.03,3.55,2.79,1.38,5.79,2.08,8.92,2.08s6.13-.7,8.92-2.08c1.86-.92,3.54-2.11,5.03-3.55Zm3.52-.3c.73-.6,1.5-1.15,2.3-1.65-3.29-3.24-5.14-7.63-5.14-12.31s1.96-9.33,5.44-12.59c-.82-.49-1.6-1.04-2.35-1.63-.19.19-.39.39-.57.59-1.22,1.32-2.27,2.81-3.1,4.43-1.44,2.8-2.19,5.83-2.22,8.99v.06s0,.1,0,.15c0,3.11.69,6.09,2.05,8.86.77,1.58,1.76,3.05,2.93,4.39.02.02.05.04.07.06.08.08.14.16.2.25.13.14.25.27.38.41Zm23.31,17.83c0-4.86-3.96-8.81-8.82-8.81s-8.82,3.95-8.82,8.81c0,.05,0,.1,0,.15v.05c.11,4.75,4.06,8.62,8.82,8.62s8.82-3.96,8.82-8.82Zm2.25-9.32c-2.76-3.28-6.76-5.15-11.07-5.15s-8.31,1.87-11.07,5.15c.47,1.02.86,2.07,1.17,3.15,2.06-3.3,5.73-5.5,9.9-5.5s7.83,2.2,9.9,5.49c.31-1.07.7-2.12,1.17-3.15Zm3.1-4.98c-.19-.18-.38-.37-.58-.55-1.35-1.24-2.86-2.28-4.5-3.12-2.83-1.44-5.89-2.17-9.09-2.17s-6.27.73-9.1,2.17c-1.63.83-3.14,1.88-4.49,3.11-.2.18-.39.37-.58.55.6.74,1.16,1.51,1.66,2.31,3.26-3.41,7.72-5.34,12.5-5.34s9.25,1.93,12.5,5.34c.5-.8,1.06-1.57,1.66-2.31Zm3.91-8.64c1.36-2.77,2.05-5.75,2.05-8.86s-.75-6.34-2.22-9.2c-.83-1.62-1.88-3.11-3.1-4.43-.19-.2-.38-.4-.57-.6-.75.59-1.53,1.14-2.35,1.63,3.47,3.26,5.44,7.77,5.44,12.6s-1.85,9.07-5.14,12.31c.8.5,1.57,1.05,2.31,1.65.12-.13.24-.26.36-.39.06-.1.14-.2.23-.29.03-.03.06-.05.09-.07,1.16-1.33,2.14-2.79,2.9-4.35Zm7.46,32.9c-3.16-2.09-5.24-5.67-5.24-9.73,0-4.28,2.32-8.03,5.76-10.06-1.11-.29-2.2-.67-3.26-1.13-3.37,2.76-5.3,6.82-5.3,11.19s1.79,8.14,4.94,10.89c1.01-.46,2.05-.85,3.1-1.16Zm15.25-9.73c0-4.86-3.96-8.81-8.82-8.81s-8.82,3.95-8.82,8.81,3.96,8.82,8.82,8.82,8.82-3.96,8.82-8.82Zm.35-11.19c-1.06.46-2.15.84-3.26,1.13,3.45,2.03,5.76,5.78,5.76,10.06s-2.09,7.64-5.24,9.73c1.06.31,2.09.7,3.1,1.16,3.15-2.76,4.94-6.68,4.94-10.89s-1.93-8.42-5.3-11.19Zm4.78-6.57c-.59-.75-1.13-1.52-1.62-2.33-3.24,3.29-7.63,5.15-12.33,5.15s-9.09-1.86-12.33-5.15c-.49.81-1.03,1.59-1.62,2.33,1.49,1.43,3.18,2.63,5.03,3.55,2.79,1.38,5.79,2.08,8.92,2.08s6.13-.7,8.92-2.08c1.86-.92,3.54-2.11,5.03-3.55Zm3.52-.3c.73-.6,1.5-1.15,2.3-1.65-3.29-3.24-5.14-7.63-5.14-12.31s1.96-9.33,5.44-12.59c-.82-.49-1.6-1.04-2.35-1.63-.19.19-.39.39-.57.59-1.22,1.32-2.27,2.81-3.1,4.43-1.44,2.8-2.19,5.83-2.22,8.99v.06s0,.1,0,.15c0,3.11.69,6.09,2.05,8.86.77,1.58,1.76,3.05,2.93,4.39.02.02.05.04.07.06.08.08.14.16.2.25.13.14.25.27.38.41Zm23.31,17.83c0-4.86-3.96-8.81-8.82-8.81s-8.82,3.95-8.82,8.81c0,.05,0,.1,0,.15v.05c.11,4.75,4.06,8.62,8.82,8.62s8.82-3.96,8.82-8.82Zm2.25-9.32c-2.76-3.28-6.76-5.15-11.07-5.15s-8.31,1.87-11.07,5.15c.47,1.02.86,2.07,1.17,3.15,2.06-3.3,5.73-5.5,9.9-5.5s7.83,2.2,9.9,5.49c.31-1.07.7-2.12,1.17-3.15Zm3.1-4.98c-.19-.18-.38-.37-.58-.55-1.35-1.24-2.86-2.28-4.5-3.12-2.83-1.44-5.89-2.17-9.09-2.17s-6.27.73-9.1,2.17c-1.63.83-3.14,1.88-4.49,3.11-.2.18-.39.37-.58.55.6.74,1.16,1.51,1.66,2.31,3.26-3.41,7.72-5.34,12.5-5.34s9.25,1.93,12.5,5.34c.5-.8,1.06-1.57,1.66-2.31Zm3.91-8.64c1.36-2.77,2.05-5.75,2.05-8.86s-.75-6.34-2.22-9.2c-.83-1.62-1.88-3.11-3.1-4.43-.19-.2-.38-.4-.57-.6-.75.59-1.53,1.14-2.35,1.63,3.47,3.26,5.44,7.77,5.44,12.6s-1.85,9.07-5.14,12.31c.8.5,1.57,1.05,2.31,1.65.12-.13.24-.26.36-.39.06-.1.14-.2.23-.29.03-.03.06-.05.09-.07,1.16-1.33,2.14-2.79,2.9-4.35Zm7.46,32.9c-3.16-2.09-5.24-5.67-5.24-9.73,0-4.28,2.32-8.03,5.76-10.06-1.11-.29-2.2-.67-3.26-1.13-3.37,2.76-5.3,6.82-5.3,11.19s1.79,8.14,4.94,10.89c1.01-.46,2.05-.85,3.1-1.16Zm15.25-9.73c0-4.86-3.96-8.81-8.82-8.81s-8.82,3.95-8.82,8.81,3.96,8.82,8.82,8.82,8.82-3.96,8.82-8.82Zm.35-11.19c-1.06.46-2.15.84-3.26,1.13,3.45,2.03,5.76,5.78,5.76,10.06s-2.09,7.64-5.24,9.73c1.06.31,2.09.7,3.1,1.16,3.15-2.76,4.94-6.68,4.94-10.89s-1.93-8.42-5.3-11.19Zm4.78-6.57c-.59-.75-1.13-1.52-1.62-2.33-3.24,3.29-7.63,5.15-12.33,5.15s-9.09-1.86-12.33-5.15c-.49.81-1.03,1.59-1.62,2.33,1.49,1.43,3.18,2.63,5.03,3.55,2.79,1.38,5.79,2.08,8.92,2.08s6.13-.7,8.92-2.08c1.86-.92,3.54-2.11,5.03-3.55Zm3.52-.3c.73-.6,1.5-1.15,2.3-1.65-3.29-3.24-5.14-7.63-5.14-12.31s1.96-9.33,5.44-12.59c-.82-.49-1.6-1.04-2.35-1.63-.19.19-.39.39-.57.59-1.22,1.32-2.27,2.81-3.1,4.43-1.44,2.8-2.19,5.83-2.22,8.99v.06s0,.1,0,.15c0,3.11.69,6.09,2.05,8.86.77,1.58,1.76,3.05,2.93,4.39.02.02.05.04.07.06.08.08.14.16.2.25.13.14.25.27.38.41Zm23.31,17.83c0-4.86-3.96-8.81-8.82-8.81s-8.82,3.95-8.82,8.81c0,.05,0,.1,0,.15v.05c.11,4.75,4.06,8.62,8.82,8.62s8.82-3.96,8.82-8.82Zm2.25-9.32c-2.76-3.28-6.76-5.15-11.07-5.15s-8.31,1.87-11.07,5.15c.47,1.02.86,2.07,1.17,3.15,2.06-3.3,5.73-5.5,9.9-5.5s7.83,2.2,9.9,5.49c.31-1.07.7-2.12,1.17-3.15Zm3.1-4.98c-.19-.18-.38-.37-.58-.55-1.35-1.24-2.86-2.28-4.5-3.12-2.83-1.44-5.89-2.17-9.09-2.17s-6.27.73-9.1,2.17c-1.63.83-3.14,1.88-4.49,3.11-.2.18-.39.37-.58.55.6.74,1.16,1.51,1.66,2.31,3.26-3.41,7.72-5.34,12.5-5.34s9.25,1.93,12.5,5.34c.5-.8,1.06-1.57,1.66-2.31Zm3.91-8.64c1.36-2.77,2.05-5.75,2.05-8.86s-.75-6.34-2.22-9.2c-.83-1.62-1.88-3.11-3.1-4.43-.19-.2-.38-.4-.57-.6-.75.59-1.53,1.14-2.35,1.63,3.47,3.26,5.44,7.77,5.44,12.6s-1.85,9.07-5.14,12.31c.8.5,1.57,1.05,2.31,1.65.12-.13.24-.26.36-.39.06-.1.14-.2.23-.29.03-.03.06-.05.09-.07,1.16-1.33,2.14-2.79,2.9-4.35Zm7.46,32.9c-3.16-2.09-5.24-5.67-5.24-9.73,0-4.28,2.32-8.03,5.76-10.06-1.11-.29-2.2-.67-3.26-1.13-3.37,2.76-5.3,6.82-5.3,11.19s1.79,8.14,4.94,10.89c1.01-.46,2.05-.85,3.1-1.16Zm15.25-9.73c0-4.86-3.96-8.81-8.82-8.81s-8.82,3.95-8.82,8.81,3.96,8.82,8.82,8.82,8.82-3.96,8.82-8.82Zm.35-11.19c-1.06.46-2.15.84-3.26,1.13,3.45,2.03,5.76,5.78,5.76,10.06s-2.09,7.64-5.24,9.73c1.06.31,2.09.7,3.1,1.16,3.15-2.76,4.94-6.68,4.94-10.89s-1.93-8.42-5.3-11.19Zm4.78-6.57c-.59-.75-1.13-1.52-1.62-2.33-3.24,3.29-7.63,5.15-12.33,5.15s-9.09-1.86-12.33-5.15c-.49.81-1.03,1.59-1.62,2.33,1.49,1.43,3.18,2.63,5.03,3.55,2.79,1.38,5.79,2.08,8.92,2.08s6.13-.7,8.92-2.08c1.86-.92,3.54-2.11,5.03-3.55Zm3.52-.3c.73-.6,1.5-1.15,2.3-1.65-3.29-3.24-5.14-7.63-5.14-12.31s1.96-9.33,5.44-12.59c-.82-.49-1.6-1.04-2.35-1.63-.19.19-.39.39-.57.59-1.22,1.32-2.27,2.81-3.1,4.43-1.44,2.8-2.19,5.83-2.22,8.99v.06s0,.1,0,.15c0,3.11.69,6.09,2.05,8.86.77,1.58,1.76,3.05,2.93,4.39.02.02.05.04.07.06.08.08.14.16.2.25.13.14.25.27.38.41Zm23.31,17.83c0-4.86-3.96-8.81-8.82-8.81s-8.82,3.95-8.82,8.81c0,.05,0,.1,0,.15v.05c.11,4.75,4.06,8.62,8.82,8.62s8.82-3.96,8.82-8.82Zm2.25-9.32c-2.76-3.28-6.76-5.15-11.07-5.15s-8.31,1.87-11.07,5.15c.47,1.02.86,2.07,1.17,3.15,2.06-3.3,5.73-5.5,9.9-5.5s7.83,2.2,9.9,5.49c.31-1.07.7-2.12,1.17-3.15Zm3.1-4.98c-.19-.18-.38-.37-.58-.55-1.35-1.24-2.86-2.28-4.5-3.12-2.83-1.44-5.89-2.17-9.09-2.17s-6.27.73-9.1,2.17c-1.63.83-3.14,1.88-4.49,3.11-.2.18-.39.37-.58.55.6.74,1.16,1.51,1.66,2.31,3.26-3.41,7.72-5.34,12.5-5.34s9.25,1.93,12.5,5.34c.5-.8,1.06-1.57,1.66-2.31Zm3.91-8.64c1.36-2.77,2.05-5.75,2.05-8.86s-.75-6.34-2.22-9.2c-.83-1.62-1.88-3.11-3.1-4.43-.19-.2-.38-.4-.57-.6-.75.59-1.53,1.14-2.35,1.63,3.47,3.26,5.44,7.77,5.44,12.6s-1.85,9.07-5.14,12.31c.8.5,1.57,1.05,2.31,1.65.12-.13.24-.26.36-.39.06-.1.14-.2.23-.29.03-.03.06-.05.09-.07,1.16-1.33,2.14-2.79,2.9-4.35Zm7.46,32.9c-3.16-2.09-5.24-5.67-5.24-9.73,0-4.28,2.32-8.03,5.76-10.06-1.11-.29-2.2-.67-3.26-1.13-3.37,2.76-5.3,6.82-5.3,11.19s1.79,8.14,4.94,10.89c1.01-.46,2.05-.85,3.1-1.16Zm15.25-9.73c0-4.86-3.96-8.81-8.82-8.81s-8.82,3.95-8.82,8.81,3.96,8.82,8.82,8.82,8.82-3.96,8.82-8.82Zm.35-11.19c-1.06.46-2.15.84-3.26,1.13,3.45,2.03,5.76,5.78,5.76,10.06s-2.09,7.64-5.24,9.73c1.06.31,2.09.7,3.1,1.16,3.15-2.76,4.94-6.68,4.94-10.89s-1.93-8.42-5.3-11.19Zm4.78-6.57c-.59-.75-1.13-1.52-1.62-2.33-3.24,3.29-7.63,5.15-12.33,5.15s-9.09-1.86-12.33-5.15c-.49.81-1.03,1.59-1.62,2.33,1.49,1.43,3.18,2.63,5.03,3.55,2.79,1.38,5.79,2.08,8.92,2.08s6.13-.7,8.92-2.08c1.86-.92,3.54-2.11,5.03-3.55Zm3.52-.3c.73-.6,1.5-1.15,2.3-1.65-3.29-3.24-5.14-7.63-5.14-12.31s1.96-9.33,5.44-12.59c-.82-.49-1.6-1.04-2.35-1.63-.19.19-.39.39-.57.59-1.22,1.32-2.27,2.81-3.1,4.43-1.44,2.8-2.19,5.83-2.22,8.99v.06s0,.1,0,.15c0,3.11.69,6.09,2.05,8.86.77,1.58,1.76,3.05,2.93,4.39.02.02.05.04.07.06.08.08.14.16.2.25.13.14.25.27.38.41Zm-119.36-13.96c0-3.32,2.7-6.01,6.01-6.01s6.01,2.7,6.01,6.01-2.7,6.01-6.01,6.01-6.01-2.7-6.01-6.01Zm2.85,0c0,1.74,1.42,3.16,3.16,3.16s3.16-1.42,3.16-3.16-1.42-3.16-3.16-3.16-3.16,1.42-3.16,3.16Zm61.07-96.31c0-3.32,2.7-6.01,6.01-6.01s6.01,2.7,6.01,6.01-2.7,6.01-6.01,6.01-6.01-2.7-6.01-6.01Zm2.85,0c0,1.74,1.42,3.16,3.16,3.16s3.16-1.42,3.16-3.16-1.42-3.16-3.16-3.16-3.16,1.42-3.16,3.16Zm41.14,128.34c0,3.32-2.7,6.01-6.01,6.01s-6.01-2.7-6.01-6.01,2.7-6.01,6.01-6.01,6.01,2.7,6.01,6.01Zm-2.85,0c0-1.74-1.42-3.16-3.16-3.16s-3.16,1.42-3.16,3.16,1.42,3.16,3.16,3.16,3.16-1.42,3.16-3.16Zm-67.08-134.12c3.32,0,6.01,2.7,6.01,6.01s-2.7,6.01-6.01,6.01-6.01-2.7-6.01-6.01,2.7-6.01,6.01-6.01Zm0,2.85c-1.74,0-3.16,1.42-3.16,3.16s1.42,3.16,3.16,3.16,3.16-1.42,3.16-3.16-1.42-3.16-3.16-3.16Zm25.95,35.19c0-3.32,2.7-6.01,6.01-6.01s6.01,2.7,6.01,6.01-2.7,6.01-6.01,6.01-6.01-2.7-6.01-6.01Zm2.85,0c0,1.74,1.42,3.16,3.16,3.16s3.16-1.42,3.16-3.16-1.42-3.16-3.16-3.16-3.16,1.42-3.16,3.16Zm-130.69,64.05c0-3.32,2.7-6.01,6.01-6.01s6.01,2.7,6.01,6.01-2.7,6.01-6.01,6.01-6.01-2.7-6.01-6.01Zm2.85,0c0,1.74,1.42,3.16,3.16,3.16s3.16-1.42,3.16-3.16-1.42-3.16-3.16-3.16-3.16,1.42-3.16,3.16Zm124.99,0c0-3.32,2.7-6.01,6.01-6.01s6.01,2.7,6.01,6.01-2.7,6.01-6.01,6.01-6.01-2.7-6.01-6.01Zm2.85,0c0,1.74,1.42,3.16,3.16,3.16s3.16-1.42,3.16-3.16-1.42-3.16-3.16-3.16-3.16,1.42-3.16,3.16Zm29.11-64.29c0-3.32,2.7-6.01,6.01-6.01s6.01,2.7,6.01,6.01-2.7,6.01-6.01,6.01-6.01-2.7-6.01-6.01Zm2.85,0c0,1.74,1.42,3.16,3.16,3.16s3.16-1.42,3.16-3.16-1.42-3.16-3.16-3.16-3.16,1.42-3.16,3.16ZM-17.14,6.1c0-2.97-2.16-5.43-5-5.92v2.93c1.25.42,2.15,1.6,2.15,2.99s-.9,2.57-2.15,2.99v2.93c2.83-.49,5-2.95,5-5.92Zm0,64.05c0-2.97-2.16-5.43-5-5.92v2.93c1.25.42,2.15,1.6,2.15,2.99s-.9,2.57-2.15,2.99v2.93c2.83-.49,5-2.95,5-5.92Zm51.89,96.31c0-3.32,2.7-6.01,6.01-6.01s6.01,2.7,6.01,6.01-2.7,6.01-6.01,6.01-6.01-2.7-6.01-6.01Zm2.85,0c0,1.74,1.42,3.16,3.16,3.16s3.16-1.42,3.16-3.16-1.42-3.16-3.16-3.16-3.16,1.42-3.16,3.16Zm200.94,31.79c0,3.32-2.7,6.01-6.01,6.01s-6.01-2.7-6.01-6.01,2.7-6.01,6.01-6.01,6.01,2.7,6.01,6.01Zm-2.85,0c0-1.74-1.42-3.16-3.16-3.16s-3.16,1.42-3.16,3.16,1.42,3.16,3.16,3.16,3.16-1.42,3.16-3.16ZM-17.14,38.36c0-2.97-2.16-5.43-5-5.92v2.93c1.25.42,2.15,1.6,2.15,2.99s-.9,2.57-2.15,2.99v2.93c2.83-.49,5-2.95,5-5.92Zm0,64.05c0-2.97-2.16-5.43-5-5.92v2.93c1.25.42,2.15,1.6,2.15,2.99s-.9,2.56-2.15,2.99v2.93c2.83-.49,5-2.95,5-5.92Zm0,95.84c0-2.97-2.16-5.43-5-5.92v2.93c1.25.42,2.15,1.6,2.15,2.99s-.9,2.57-2.15,2.99v2.93c2.83-.49,5-2.95,5-5.92ZM232.53,32.35c3.32,0,6.01,2.7,6.01,6.01s-2.7,6.01-6.01,6.01-6.01-2.7-6.01-6.01,2.7-6.01,6.01-6.01Zm0,2.85c-1.74,0-3.16,1.42-3.16,3.16s1.42,3.16,3.16,3.16,3.16-1.42,3.16-3.16-1.42-3.16-3.16-3.16Zm-37.97,99.24c0-3.32,2.7-6.01,6.01-6.01s6.01,2.7,6.01,6.01-2.7,6.01-6.01,6.01-6.01-2.7-6.01-6.01Zm2.85,0c0,1.74,1.42,3.16,3.16,3.16s3.16-1.42,3.16-3.16-1.42-3.16-3.16-3.16-3.16,1.42-3.16,3.16ZM258.47,6.33c0-3.32,2.7-6.01,6.01-6.01s6.01,2.7,6.01,6.01-2.7,6.01-6.01,6.01-6.01-2.7-6.01-6.01Zm2.85,0c0,1.74,1.42,3.16,3.16,3.16s3.16-1.42,3.16-3.16-1.42-3.16-3.16-3.16-3.16,1.42-3.16,3.16Zm-34.81,127.87c0-3.32,2.7-6.01,6.01-6.01s6.01,2.7,6.01,6.01-2.7,6.01-6.01,6.01-6.01-2.7-6.01-6.01Zm2.85,0c0,1.74,1.42,3.16,3.16,3.16s3.16-1.42,3.16-3.16-1.42-3.16-3.16-3.16-3.16,1.42-3.16,3.16ZM34.75,70.15c0-3.32,2.7-6.01,6.01-6.01s6.01,2.7,6.01,6.01-2.7,6.01-6.01,6.01-6.01-2.7-6.01-6.01Zm2.85,0c0,1.74,1.42,3.16,3.16,3.16s3.16-1.42,3.16-3.16-1.42-3.16-3.16-3.16-3.16,1.42-3.16,3.16ZM66.71,6.33c0-3.32,2.7-6.01,6.01-6.01s6.01,2.7,6.01,6.01-2.7,6.01-6.01,6.01-6.01-2.7-6.01-6.01Zm2.85,0c0,1.74,1.42,3.16,3.16,3.16s3.16-1.42,3.16-3.16-1.42-3.16-3.16-3.16-3.16,1.42-3.16,3.16Zm3.16,58.04c3.32,0,6.01,2.7,6.01,6.01s-2.7,6.01-6.01,6.01-6.01-2.7-6.01-6.01,2.7-6.01,6.01-6.01Zm0,2.85c-1.74,0-3.16,1.42-3.16,3.16s1.42,3.16,3.16,3.16,3.16-1.42,3.16-3.16-1.42-3.16-3.16-3.16ZM2.79,6.33C2.79,3.02,5.49.32,8.81.32s6.01,2.7,6.01,6.01-2.7,6.01-6.01,6.01-6.01-2.7-6.01-6.01Zm2.85,0c0,1.74,1.42,3.16,3.16,3.16s3.16-1.42,3.16-3.16-1.42-3.16-3.16-3.16-3.16,1.42-3.16,3.16Zm252.83,128.1c0-3.32,2.7-6.01,6.01-6.01s6.01,2.7,6.01,6.01-2.7,6.01-6.01,6.01-6.01-2.7-6.01-6.01Zm2.85,0c0,1.74,1.42,3.16,3.16,3.16s3.16-1.42,3.16-3.16-1.42-3.16-3.16-3.16-3.16,1.42-3.16,3.16Zm-2.85-96.31c0-3.32,2.7-6.01,6.01-6.01s6.01,2.7,6.01,6.01-2.7,6.01-6.01,6.01-6.01-2.7-6.01-6.01Zm2.85,0c0,1.74,1.42,3.16,3.16,3.16s3.16-1.42,3.16-3.16-1.42-3.16-3.16-3.16-3.16,1.42-3.16,3.16ZM34.75,6.1c0-3.31,2.7-6.01,6.01-6.01s6.01,2.7,6.01,6.01-2.7,6.01-6.01,6.01-6.01-2.7-6.01-6.01Zm2.85,0c0,1.74,1.42,3.16,3.16,3.16s3.16-1.42,3.16-3.16-1.42-3.16-3.16-3.16-3.16,1.42-3.16,3.16Zm-2.85,96.32c0-3.32,2.7-6.01,6.01-6.01s6.01,2.7,6.01,6.01-2.7,6.01-6.01,6.01-6.01-2.7-6.01-6.01Zm2.85,0c0,1.74,1.42,3.16,3.16,3.16s3.16-1.42,3.16-3.16-1.42-3.16-3.16-3.16-3.16,1.42-3.16,3.16ZM194.55,6.33c0-3.32,2.7-6.01,6.01-6.01s6.01,2.7,6.01,6.01-2.7,6.01-6.01,6.01-6.01-2.7-6.01-6.01Zm2.85,0c0,1.74,1.42,3.16,3.16,3.16s3.16-1.42,3.16-3.16-1.42-3.16-3.16-3.16-3.16,1.42-3.16,3.16ZM66.71,134.44c0-3.32,2.7-6.01,6.01-6.01s6.01,2.7,6.01,6.01-2.7,6.01-6.01,6.01-6.01-2.7-6.01-6.01Zm2.85,0c0,1.74,1.42,3.16,3.16,3.16s3.16-1.42,3.16-3.16-1.42-3.16-3.16-3.16-3.16,1.42-3.16,3.16Zm61.07,0c0-3.32,2.7-6.01,6.01-6.01s6.01,2.7,6.01,6.01-2.7,6.01-6.01,6.01-6.01-2.7-6.01-6.01Zm2.85,0c0,1.74,1.42,3.16,3.16,3.16s3.16-1.42,3.16-3.16-1.42-3.16-3.16-3.16-3.16,1.42-3.16,3.16Zm-34.81-.23c0-3.32,2.7-6.01,6.01-6.01s6.01,2.7,6.01,6.01-2.7,6.01-6.01,6.01-6.01-2.7-6.01-6.01Zm2.85,0c0,1.74,1.42,3.16,3.16,3.16s3.16-1.42,3.16-3.16-1.42-3.16-3.16-3.16-3.16,1.42-3.16,3.16ZM162.59,6.1c0-3.31,2.7-6.01,6.01-6.01s6.01,2.7,6.01,6.01-2.7,6.01-6.01,6.01-6.01-2.7-6.01-6.01Zm2.85,0c0,1.74,1.42,3.16,3.16,3.16s3.16-1.42,3.16-3.16-1.42-3.16-3.16-3.16-3.16,1.42-3.16,3.16Zm61.07,0c0-3.31,2.7-6.01,6.01-6.01s6.01,2.7,6.01,6.01-2.7,6.01-6.01,6.01-6.01-2.7-6.01-6.01Zm2.85,0c0,1.74,1.42,3.16,3.16,3.16s3.16-1.42,3.16-3.16-1.42-3.16-3.16-3.16-3.16,1.42-3.16,3.16Zm-98.73.24c0-3.32,2.7-6.01,6.01-6.01s6.01,2.7,6.01,6.01-2.7,6.01-6.01,6.01-6.01-2.7-6.01-6.01Zm2.85,0c0,1.74,1.42,3.16,3.16,3.16s3.16-1.42,3.16-3.16-1.42-3.16-3.16-3.16-3.16,1.42-3.16,3.16Zm-98.73,127.87c0-3.32,2.7-6.01,6.01-6.01s6.01,2.7,6.01,6.01-2.7,6.01-6.01,6.01-6.01-2.7-6.01-6.01Zm2.85,0c0,1.74,1.42,3.16,3.16,3.16s3.16-1.42,3.16-3.16-1.42-3.16-3.16-3.16-3.16,1.42-3.16,3.16ZM98.67,6.1c0-3.31,2.7-6.01,6.01-6.01s6.01,2.7,6.01,6.01-2.7,6.01-6.01,6.01-6.01-2.7-6.01-6.01Zm2.85,0c0,1.74,1.42,3.16,3.16,3.16s3.16-1.42,3.16-3.16-1.42-3.16-3.16-3.16-3.16,1.42-3.16,3.16Zm61.07,128.11c0-3.32,2.7-6.01,6.01-6.01s6.01,2.7,6.01,6.01-2.7,6.01-6.01,6.01-6.01-2.7-6.01-6.01Zm2.85,0c0,1.74,1.42,3.16,3.16,3.16s3.16-1.42,3.16-3.16-1.42-3.16-3.16-3.16-3.16,1.42-3.16,3.16Zm-150.62.23c0,3.32-2.7,6.01-6.01,6.01s-6.01-2.7-6.01-6.01,2.7-6.01,6.01-6.01,6.01,2.7,6.01,6.01Zm-2.85,0c0-1.74-1.42-3.16-3.16-3.16s-3.16,1.42-3.16,3.16,1.42,3.16,3.16,3.16,3.16-1.42,3.16-3.16Zm2.85-64.05c0,3.32-2.7,6.01-6.01,6.01s-6.01-2.7-6.01-6.01,2.7-6.01,6.01-6.01,6.01,2.7,6.01,6.01Zm-2.85,0c0-1.74-1.42-3.16-3.16-3.16s-3.16,1.42-3.16,3.16,1.42,3.16,3.16,3.16,3.16-1.42,3.16-3.16Zm98.73,127.87c0,3.32-2.7,6.01-6.01,6.01s-6.01-2.7-6.01-6.01,2.7-6.01,6.01-6.01,6.01,2.7,6.01,6.01Zm-2.85,0c0-1.74-1.42-3.16-3.16-3.16s-3.16,1.42-3.16,3.16,1.42,3.16,3.16,3.16,3.16-1.42,3.16-3.16ZM40.77,32.35c3.32,0,6.01,2.7,6.01,6.01s-2.7,6.01-6.01,6.01-6.01-2.7-6.01-6.01,2.7-6.01,6.01-6.01Zm0,2.85c-1.74,0-3.16,1.42-3.16,3.16s1.42,3.16,3.16,3.16,3.16-1.42,3.16-3.16-1.42-3.16-3.16-3.16Zm37.97,163.29c0,3.32-2.7,6.01-6.01,6.01s-6.01-2.7-6.01-6.01,2.7-6.01,6.01-6.01,6.01,2.7,6.01,6.01Zm-2.85,0c0-1.74-1.42-3.16-3.16-3.16s-3.16,1.42-3.16,3.16,1.42,3.16,3.16,3.16,3.16-1.42,3.16-3.16Zm-9.18-160.36c0-3.32,2.7-6.01,6.01-6.01s6.01,2.7,6.01,6.01-2.7,6.01-6.01,6.01-6.01-2.7-6.01-6.01Zm2.85,0c0,1.74,1.42,3.16,3.16,3.16s3.16-1.42,3.16-3.16-1.42-3.16-3.16-3.16-3.16,1.42-3.16,3.16Zm67.08,26.24c3.32,0,6.01,2.7,6.01,6.01s-2.7,6.01-6.01,6.01-6.01-2.7-6.01-6.01,2.7-6.01,6.01-6.01Zm0,2.85c-1.74,0-3.16,1.42-3.16,3.16s1.42,3.16,3.16,3.16,3.16-1.42,3.16-3.16-1.42-3.16-3.16-3.16Zm25.95,2.93c0-3.32,2.7-6.01,6.01-6.01s6.01,2.7,6.01,6.01-2.7,6.01-6.01,6.01-6.01-2.7-6.01-6.01Zm2.85,0c0,1.74,1.42,3.16,3.16,3.16s3.16-1.42,3.16-3.16-1.42-3.16-3.16-3.16-3.16,1.42-3.16,3.16ZM2.79,166.23c0-3.32,2.7-6.01,6.01-6.01s6.01,2.7,6.01,6.01-2.7,6.01-6.01,6.01-6.01-2.7-6.01-6.01Zm2.85,0c0,1.74,1.42,3.16,3.16,3.16s3.16-1.42,3.16-3.16-1.42-3.16-3.16-3.16-3.16,1.42-3.16,3.16Zm124.99-64.05c0-3.32,2.7-6.01,6.01-6.01s6.01,2.7,6.01,6.01-2.7,6.01-6.01,6.01-6.01-2.7-6.01-6.01Zm2.85,0c0,1.74,1.42,3.16,3.16,3.16s3.16-1.42,3.16-3.16-1.42-3.16-3.16-3.16-3.16,1.42-3.16,3.16ZM2.79,38.13c0-3.32,2.7-6.01,6.01-6.01s6.01,2.7,6.01,6.01-2.7,6.01-6.01,6.01-6.01-2.7-6.01-6.01Zm2.85,0c0,1.74,1.42,3.16,3.16,3.16s3.16-1.42,3.16-3.16-1.42-3.16-3.16-3.16-3.16,1.42-3.16,3.16Zm137.02,160.36c0,3.32-2.7,6.01-6.01,6.01s-6.01-2.7-6.01-6.01,2.7-6.01,6.01-6.01,6.01,2.7,6.01,6.01Zm-2.85,0c0-1.74-1.42-3.16-3.16-3.16s-3.16,1.42-3.16,3.16,1.42,3.16,3.16,3.16,3.16-1.42,3.16-3.16Zm-9.18-160.36c0-3.32,2.7-6.01,6.01-6.01s6.01,2.7,6.01,6.01-2.7,6.01-6.01,6.01-6.01-2.7-6.01-6.01Zm2.85,0c0,1.74,1.42,3.16,3.16,3.16s3.16-1.42,3.16-3.16-1.42-3.16-3.16-3.16-3.16,1.42-3.16,3.16ZM14.82,198.49c0,3.32-2.7,6.01-6.01,6.01s-6.01-2.7-6.01-6.01,2.7-6.01,6.01-6.01,6.01,2.7,6.01,6.01Zm-2.85,0c0-1.74-1.42-3.16-3.16-3.16s-3.16,1.42-3.16,3.16,1.42,3.16,3.16,3.16,3.16-1.42,3.16-3.16ZM104.69,32.35c3.32,0,6.01,2.7,6.01,6.01s-2.7,6.01-6.01,6.01-6.01-2.7-6.01-6.01,2.7-6.01,6.01-6.01Zm0,2.85c-1.74,0-3.16,1.42-3.16,3.16s1.42,3.16,3.16,3.16,3.16-1.42,3.16-3.16-1.42-3.16-3.16-3.16Zm69.93,163.06c0,3.32-2.7,6.01-6.01,6.01s-6.01-2.7-6.01-6.01,2.7-6.01,6.01-6.01,6.01,2.7,6.01,6.01Zm-2.85,0c0-1.74-1.42-3.16-3.16-3.16s-3.16,1.42-3.16,3.16,1.42,3.16,3.16,3.16,3.16-1.42,3.16-3.16Zm-105.06-96.08c0-3.32,2.7-6.01,6.01-6.01s6.01,2.7,6.01,6.01-2.7,6.01-6.01,6.01-6.01-2.7-6.01-6.01Zm2.85,0c0,1.74,1.42,3.16,3.16,3.16s3.16-1.42,3.16-3.16-1.42-3.16-3.16-3.16-3.16,1.42-3.16,3.16Zm99.04-69.83c3.32,0,6.01,2.7,6.01,6.01s-2.7,6.01-6.01,6.01-6.01-2.7-6.01-6.01,2.7-6.01,6.01-6.01Zm0,2.85c-1.74,0-3.16,1.42-3.16,3.16s1.42,3.16,3.16,3.16,3.16-1.42,3.16-3.16-1.42-3.16-3.16-3.16Zm-69.93,34.96c0-3.32,2.7-6.01,6.01-6.01s6.01,2.7,6.01,6.01-2.7,6.01-6.01,6.01-6.01-2.7-6.01-6.01Zm2.85,0c0,1.74,1.42,3.16,3.16,3.16s3.16-1.42,3.16-3.16-1.42-3.16-3.16-3.16-3.16,1.42-3.16,3.16Zm-54.74,128.1c0,3.32-2.7,6.01-6.01,6.01s-6.01-2.7-6.01-6.01,2.7-6.01,6.01-6.01,6.01,2.7,6.01,6.01Zm-2.85,0c0-1.74-1.42-3.16-3.16-3.16s-3.16,1.42-3.16,3.16,1.42,3.16,3.16,3.16,3.16-1.42,3.16-3.16ZM2.79,102.18c0-3.32,2.7-6.01,6.01-6.01s6.01,2.7,6.01,6.01-2.7,6.01-6.01,6.01-6.01-2.7-6.01-6.01Zm2.85,0c0,1.74,1.42,3.16,3.16,3.16s3.16-1.42,3.16-3.16-1.42-3.16-3.16-3.16-3.16,1.42-3.16,3.16ZM194.55,38.13c0-3.32,2.7-6.01,6.01-6.01s6.01,2.7,6.01,6.01-2.7,6.01-6.01,6.01-6.01-2.7-6.01-6.01Zm2.85,0c0,1.74,1.42,3.16,3.16,3.16s3.16-1.42,3.16-3.16-1.42-3.16-3.16-3.16-3.16,1.42-3.16,3.16Zm-98.73,64.29c0-3.32,2.7-6.01,6.01-6.01s6.01,2.7,6.01,6.01-2.7,6.01-6.01,6.01-6.01-2.7-6.01-6.01Zm2.85,0c0,1.74,1.42,3.16,3.16,3.16s3.16-1.42,3.16-3.16-1.42-3.16-3.16-3.16-3.16,1.42-3.16,3.16Z"/></g></g></svg>