<?xml version="1.0" encoding="UTF-8"?><svg id="b" xmlns="http://www.w3.org/2000/svg" xmlns:xlink="http://www.w3.org/1999/xlink" viewBox="0 0 96.06 64"><defs><style>.e,.f{fill:#f0f0f0;}.g{clip-path:url(#d);}.h{fill:#294c92;}.h,.i,.f{stroke-width:0px;}.i{fill:#c3d2e5;}</style><clipPath id="d"><rect class="f" width="96.06" height="64"/></clipPath></defs><g id="c"><rect class="e" width="96.06" height="64"/><g class="g"><rect class="i" x="-3.96" y="-1.31" width="107.83" height="72.33"/><path class="h" d="m.06,54.04c.12.11.2.18.28.26,1.15,1.15,2.3,2.3,3.45,3.45.19.19.3.2.49,0,.5-.52,1.01-1.02,1.52-1.52.17-.16.15-.26-.02-.41-.32-.27-.61-.57-.91-.86-1.24-1.24-2.49-2.48-3.73-3.73-.33-.33-.65-.68-.96-1.03-.08-.09-.15-.22-.15-.34,0-1.22,0-2.44,0-3.66,0-.02.02-.04.04-.11.2.16.41.31.58.48,1.35,1.34,2.69,2.68,4.02,4.02.93.93,1.84,1.88,2.76,2.82.59.6.59.59,1.18,0,.39-.39.79-.79,1.18-1.18.11-.11.18-.2.03-.34-.58-.57-1.15-1.15-1.72-1.73-.93-.93-1.86-1.86-2.79-2.79-1.22-1.22-2.45-2.45-3.67-3.67-.47-.47-.95-.93-1.4-1.41-.11-.12-.21-.31-.21-.47-.02-1.15-.01-2.29,0-3.44,0-.08.02-.16.04-.32.15.13.26.21.36.31,3.77,3.76,7.53,7.53,11.3,11.29.29.29.35.29.62.02.47-.47.93-.95,1.41-1.4.21-.2.19-.33,0-.52-1.89-1.86-3.79-3.73-5.67-5.6-.77-.77-1.51-1.57-2.28-2.35-.66-.66-1.35-1.28-2-1.94-1.19-1.2-2.38-2.4-3.55-3.62-.13-.13-.21-.35-.22-.53-.02-1.09,0-2.19-.02-3.28,0-.36.12-.62.35-.86.45-.44.9-.88,1.37-1.31.2-.18.19-.31,0-.49-.51-.49-1.01-.99-1.5-1.5-.11-.11-.21-.29-.21-.44-.02-1.21,0-2.42,0-3.63,0-.04.02-.08.04-.21,1.34,1.34,2.64,2.64,3.88,3.88.4-.35.76-.67,1.11-.99.24-.23.47-.47.71-.7.13-.12.13-.22,0-.35-.65-.65-1.3-1.3-1.95-1.95-.74-.74-1.47-1.49-2.21-2.23-.46-.46-.92-.92-1.36-1.4-.11-.12-.22-.29-.22-.44-.02-1.2,0-2.4,0-3.6,0-.03.01-.06.02-.1.03,0,.07-.01.09,0,.52.5,1.05,1.01,1.57,1.52.6.59,1.21,1.18,1.81,1.78.37.37.73.75,1.1,1.12.07.07.18.11.26.18.1.08.2.16.28.25.16.2.29.42.47.6.71.73,1.44,1.43,2.15,2.16.19.2.31.22.51,0,.47-.5.95-.98,1.45-1.45.22-.2.21-.33,0-.54C6.59,16.64,3.48,13.52.35,10.4c-.24-.24-.35-.48-.34-.82.02-1.05,0-2.1,0-3.15,0-.12,0-.23,0-.44.16.14.26.22.35.31,3.77,3.77,7.55,7.55,11.32,11.32q.35.35.69,0c.46-.46.92-.93,1.39-1.38.19-.18.17-.3,0-.47-.92-.91-1.83-1.83-2.75-2.75-.73-.72-1.48-1.42-2.21-2.15C5.95,8.01,3.11,5.14.26,2.28.08,2.1.01,1.9.01,1.65.02.55.03-.56,0-1.66c0-.35.14-.58.38-.8.48-.44.94-.9,1.41-1.35.15-.14.1-.25-.02-.38-.52-.51-1.04-1.02-1.54-1.55-.11-.11-.21-.29-.21-.44-.02-1.2,0-2.4,0-3.6,0-.05.02-.1.03-.22.35.33.67.61.98.92.46.46.91.93,1.37,1.39.46.46.93.92,1.38,1.39.15.16.3.21.47.04.55-.55,1.11-1.11,1.66-1.66.02-.02.02-.06.03-.07-1.52-1.52-3.03-3.04-4.54-4.56-.41-.42-.82-.85-1.21-1.28-.08-.09-.15-.25-.15-.37-.01-1.2,0-2.4,0-3.6,0-.03.02-.06.04-.15.11.1.2.17.29.25,2.44,2.44,4.88,4.88,7.32,7.32q.35.35.71,0c.45-.45.9-.91,1.37-1.36.19-.19.16-.32-.02-.5-.63-.61-1.23-1.23-1.85-1.85-.42-.42-.86-.83-1.28-1.25-.37-.37-.72-.76-1.09-1.13-.47-.48-.95-.95-1.48-1.49.17-.02.27-.04.36-.04,1.13,0,2.25-.01,3.37.01.2,0,.44.11.58.25,1.14,1.12,2.27,2.24,3.39,3.38.22.22.36.24.57.02.5-.52,1-1.02,1.5-1.54.17-.18.02-.31-.1-.43-.5-.48-1-.97-1.49-1.46-.04-.04-.06-.11-.12-.21h7.94c-.65.68-1.26,1.31-1.87,1.95.05.06.09.12.14.17.51.51,1.02,1.01,1.52,1.53.18.19.3.19.49,0,1.11-1.13,2.24-2.24,3.36-3.37.22-.22.44-.33.76-.32,1.07.02,2.14,0,3.21,0,.11,0,.23.01.38.02-.06.09-.08.14-.11.17-.7.71-1.41,1.41-2.11,2.11-1.16,1.16-2.32,2.32-3.48,3.47-.14.14-.2.27-.03.44.51.5,1.02,1.01,1.53,1.52.17.17.3.18.48,0,1.56-1.57,3.13-3.14,4.7-4.71.92-.92,1.84-1.85,2.75-2.78.2-.21.35-.24.58-.01.8.81,1.64,1.59,2.45,2.4.76.76,1.5,1.55,2.26,2.32.89.9,1.78,1.78,2.67,2.68.21.21.38.29.63.02.46-.5.97-.97,1.45-1.45.15-.15.14-.28-.02-.43-.69-.66-1.38-1.33-2.06-2-.62-.62-1.22-1.26-1.83-1.88-.51-.52-1.03-1.03-1.54-1.55-.08-.08-.15-.17-.28-.3.17-.01.27-.03.37-.03,1.09,0,2.19-.01,3.28.01.2,0,.44.1.59.24,1.18,1.13,2.35,2.28,3.51,3.44.18.18.28.21.48,0,.47-.5.98-.96,1.47-1.43.24-.23.22-.31-.02-.53-.5-.47-.98-.96-1.47-1.44-.06-.06-.09-.14-.15-.25h7.92c-.12.15-.19.26-.27.34-.46.46-.92.93-1.39,1.38-.18.18-.17.3,0,.47.52.5,1.02,1.01,1.52,1.53.13.14.22.12.34,0,.61-.61,1.23-1.22,1.84-1.84.58-.58,1.16-1.17,1.75-1.75.09-.09.24-.17.36-.17,1.23-.01,2.46,0,3.7,0,.03,0,.06.02.18.06-2,1.99-3.96,3.94-5.93,5.91.48.48.94.96,1.41,1.42.59.58.45.66,1.09,0,1.19-1.21,2.38-2.43,3.58-3.63,1.19-1.19,2.39-2.35,3.58-3.53.19-.19.32-.24.52-.02.51.53,1.04,1.04,1.56,1.56.18.17.37.32.55.5.78.79,1.55,1.6,2.33,2.39.61.61,1.24,1.2,1.85,1.81.43.43.84.87,1.26,1.31.1.1.19.21.34.06.5-.51,1.01-1.01,1.52-1.52.28-.28.28-.31,0-.59-1.75-1.74-3.49-3.48-5.24-5.22-.13-.13-.25-.28-.43-.47.18-.01.28-.02.38-.02,1.11,0,2.23-.01,3.34.01.2,0,.44.11.59.25,1.15,1.12,2.28,2.27,3.42,3.4.26.26.34.25.59-.01.42-.44.85-.87,1.3-1.28.34-.32.35-.31.03-.64-.49-.51-.98-1.02-1.46-1.52-.03-.04-.05-.08-.1-.16h7.83c-.63.64-1.26,1.28-1.92,1.95.68.64,1.29,1.22,1.91,1.81.16.15.25,0,.34-.09.74-.74,1.49-1.48,2.23-2.23.43-.44.83-.9,1.25-1.34.07-.07.18-.13.27-.13,1.29,0,2.57,0,3.86,0,.03,0,.06.02.14.05-.1.11-.17.2-.26.28-1.79,1.8-3.59,3.59-5.39,5.39-.3.3-.29.29.02.6.48.47.97.94,1.43,1.43.18.19.3.17.46-.02.21-.24.45-.45.68-.68,1.44-1.44,2.88-2.88,4.32-4.32.83-.83,1.67-1.67,2.5-2.5.06-.06.13-.11.24-.21.01.15.03.25.03.35,0,1.1.01,2.21,0,3.31,0,.19-.1.42-.23.56-.86.89-1.75,1.76-2.62,2.64-.52.52-1.02,1.07-1.54,1.59-.44.44-.89.86-1.34,1.28-.17.16-.22.28-.02.46.52.49,1.03,1,1.52,1.52.17.17.28.17.44,0,.63-.67,1.27-1.33,1.92-1.98.56-.56,1.14-1.1,1.71-1.65.03-.03.07-.04.15-.08,0,.15.02.26.02.37,0,1.08,0,2.16,0,3.25,0,.29-.09.5-.3.7-.48.46-.94.94-1.41,1.4-.16.16-.19.27-.01.44.5.5.99,1,1.46,1.53.13.15.24.39.25.58.02,1.12.02,2.25,0,3.37,0,.19-.1.42-.23.56-1.31,1.35-2.63,2.7-3.96,4.03-.74.74-1.51,1.45-2.25,2.2-1,1-1.97,2.02-2.97,3.03-.63.63-1.28,1.23-1.91,1.85-.71.7-1.42,1.42-2.13,2.13-.07.07-.14.13-.2.21q-.3.34.03.67c.45.45.91.9,1.36,1.36.18.18.31.2.51,0,1.62-1.63,3.24-3.25,4.86-4.87,2.23-2.23,4.45-4.45,6.68-6.68.04-.04.1-.08.2-.17.01.16.03.27.03.38,0,1.09,0,2.19,0,3.28,0,.28-.09.48-.28.68-3.13,3.12-6.26,6.25-9.39,9.38q-.3.3,0,.59c.49.49.99.98,1.47,1.48.13.14.23.15.37,0,.4-.43.8-.86,1.22-1.28.56-.56,1.14-1.1,1.7-1.65.27-.27.52-.57.79-.84.74-.75,1.49-1.5,2.25-2.25.59-.57,1.19-1.13,1.83-1.74.02.14.03.23.03.31,0,1.11.01,2.23,0,3.34,0,.19-.11.41-.24.56-.37.41-.78.79-1.17,1.19-.95.97-1.9,1.95-2.86,2.91-.46.46-.94.91-1.42,1.35-.2.19-.23.35-.01.56.53.51,1.05,1.04,1.57,1.56.17.17.25,0,.34-.09.77-.76,1.53-1.53,2.3-2.29.47-.47.93-.94,1.47-1.48.02.19.03.29.03.39,0,1.11,0,2.23,0,3.34,0,.26-.08.45-.26.62-.49.48-.97.97-1.46,1.45-.19.18-.2.31,0,.5.5.46,1.01.93,1.48,1.43.13.14.23.37.23.56.02,1.11,0,2.23.02,3.34,0,.32-.1.55-.32.77-.64.64-1.26,1.3-1.91,1.94-.61.61-1.25,1.2-1.87,1.81-.96.95-1.91,1.9-2.86,2.86-.85.86-1.68,1.73-2.53,2.59-.53.54-1.1,1.05-1.63,1.58-.89.89-1.77,1.8-2.64,2.71-.07.07-.09.29-.04.35.57.59,1.16,1.17,1.76,1.77,3.98-3.98,7.94-7.93,11.89-11.89.03.02.06.03.09.05,0,.1.03.2.03.3,0,1.1.01,2.21,0,3.31,0,.18-.09.4-.21.54-.7.75-1.42,1.49-2.15,2.21-1.16,1.15-2.34,2.29-3.49,3.44-.87.87-1.72,1.76-2.58,2.64-.42.43-.86.83-1.3,1.24-.17.16-.19.27-.01.44.52.51,1.04,1.02,1.55,1.54.16.17.27.15.42,0,.76-.79,1.51-1.57,2.28-2.35,1.24-1.25,2.48-2.48,3.72-3.72.56-.55,1.12-1.1,1.75-1.71.02.2.04.31.04.41,0,1.09.01,2.19,0,3.28,0,.19-.09.43-.22.56-1.38,1.42-2.77,2.83-4.16,4.24-.44.44-.87.88-1.32,1.31-.18.17-.19.29,0,.47.5.48,1,.97,1.48,1.48.19.2.3.15.47-.02,1.15-1.16,2.3-2.31,3.45-3.46.08-.08.17-.15.3-.28.01.18.02.28.02.38,0,1.1,0,2.21,0,3.31,0,.27-.08.47-.28.65-.5.48-.98.99-1.49,1.47-.17.16-.15.27,0,.42.51.5,1.03,1,1.52,1.53.13.14.23.37.23.56.02,1.14.02,2.27,0,3.41,0,.18-.1.4-.22.53-1.43,1.47-2.86,2.93-4.3,4.38-.77.77-1.56,1.51-2.33,2.28-1.6,1.61-3.2,3.22-4.79,4.84-.2.2-.41.27-.68.27-2.39,0-4.78-.03-7.17.01-.58,0-.87-.35-1.21-.66-.36-.31-.65-.7-.99-1.03-.55-.54-1.12-1.06-1.66-1.61-.66-.66-1.29-1.34-1.95-2-1.4-1.4-2.82-2.78-4.22-4.17-.74-.74-1.47-1.5-2.19-2.25-.2-.21-.36-.21-.57,0-1.02,1.05-2.05,2.1-3.08,3.14-.54.55-1.11,1.07-1.65,1.61-.84.85-1.68,1.71-2.52,2.56-.5.5-1,.99-1.5,1.49-.7.7-1.39,1.39-2.08,2.09-.22.22-.42.46-.66.65-.12.1-.31.16-.46.16-2.51,0-5.01,0-7.52.01-.26,0-.44-.11-.61-.28-.73-.75-1.47-1.49-2.21-2.23-1.48-1.48-2.96-2.95-4.44-4.42-1.35-1.34-2.69-2.69-4.04-4.04-.24-.24-.47-.5-.69-.76-.18-.21-.33-.2-.53,0-.72.76-1.45,1.52-2.19,2.26-.89.89-1.81,1.75-2.7,2.65-1.56,1.56-3.1,3.14-4.65,4.7-.63.64-1.26,1.28-1.91,1.9-.12.12-.33.22-.5.22-2.52.01-5.04.01-7.55,0-.15,0-.32-.06-.43-.16-.28-.23-.54-.49-.8-.75-1.12-1.12-2.24-2.24-3.36-3.36-2.01-2.01-4.03-4.03-6.04-6.04-.49-.49-.97-1-1.44-1.51-.09-.1-.16-.26-.17-.4-.01-1.19-.02-2.38,0-3.57,0-.16.11-.35.22-.47.48-.51.97-1,1.48-1.48.2-.19.21-.32,0-.52-.51-.49-1.01-.99-1.5-1.5-.11-.11-.2-.29-.2-.44-.02-1.19,0-2.38,0-3.57,0-.06.02-.12.04-.24ZM61.97,0c-.07-.08-.12-.16-.19-.22-.44-.42-.89-.83-1.32-1.26-1.29-1.28-2.58-2.57-3.86-3.86-.58-.58-1.13-1.19-1.72-1.77-1.24-1.24-2.5-2.46-3.75-3.69-.21-.21-.4-.45-.61-.66-.77-.77-1.54-1.53-2.31-2.31-.14-.14-.25-.15-.37,0-.16.18-.31.36-.47.52-.86.86-1.72,1.72-2.59,2.58-.23.23-.45.45-.68.67-.43.43-.87.85-1.29,1.28-.52.52-1.02,1.06-1.54,1.58-.87.88-1.75,1.75-2.63,2.63-.99.98-1.99,1.95-2.97,2.93-.47.47-.93.95-1.39,1.42-.15.15-.14.27.02.43.51.49,1.01.99,1.5,1.5.17.17.3.16.46,0,.67-.66,1.35-1.31,2.01-1.97.65-.66,1.28-1.34,1.94-1.99.86-.86,1.74-1.7,2.61-2.55.4-.4.78-.82,1.18-1.22.76-.75,1.53-1.49,2.29-2.25.53-.53,1.04-1.07,1.56-1.61.12-.13.22-.18.37-.03.77.77,1.55,1.54,2.31,2.31.81.82,1.6,1.66,2.42,2.47,1.42,1.43,2.86,2.86,4.29,4.29.76.76,1.51,1.51,2.27,2.27.1.1.21.18.31.28.17.18.32.16.49,0,.51-.52,1.03-1.03,1.54-1.55.05-.05.09-.12.14-.2Zm18.07,50.12c-.47.46-.92.88-1.36,1.32-.7.69-1.4,1.38-2.09,2.08-.55.56-1.08,1.13-1.63,1.68-.49.49-1,.96-1.49,1.45-.55.55-1.07,1.13-1.63,1.68-1.17,1.16-2.35,2.31-3.52,3.47-.24.23-.45.49-.68.73-.46.47-.91.93-1.38,1.39-.12.12-.12.21,0,.32.53.53,1.06,1.06,1.59,1.59.12.13.23.12.36,0,.25-.24.51-.46.75-.7,1.21-1.22,2.41-2.46,3.63-3.68.72-.72,1.45-1.42,2.17-2.14,1.7-1.71,3.4-3.42,5.09-5.13.14-.15.26-.16.4,0,.25.28.5.56.76.82,3.58,3.56,7.15,7.11,10.73,10.67.02.02.05.04.07.07.15.18.3.17.46,0,.45-.46.9-.91,1.36-1.36q.34-.34,0-.67c-4.44-4.44-8.88-8.88-13.32-13.32-.08-.08-.17-.16-.28-.27Zm-2.15-34.12c-.06-.09-.09-.17-.15-.23-.83-.82-1.66-1.63-2.48-2.46-2.42-2.43-4.84-4.88-7.26-7.31-.75-.76-1.53-1.49-2.29-2.24-.5-.5-1.01-.99-1.5-1.5-.17-.17-.28-.14-.41.02-.19.22-.38.44-.58.64-1.93,1.94-3.87,3.87-5.81,5.81-.67.67-1.35,1.35-2.02,2.02-.73.73-1.47,1.47-2.2,2.2-.94.94-1.87,1.88-2.82,2.81-.24.23-.22.37,0,.58.43.4.84.83,1.25,1.24q.39.39.77,0c3.77-3.77,7.54-7.54,11.32-11.32.3-.3.34-.31.64,0,.35.35.67.72,1.02,1.07,1.27,1.26,2.55,2.5,3.82,3.76.58.58,1.13,1.19,1.72,1.77.85.85,1.72,1.67,2.57,2.52.77.77,1.54,1.54,2.3,2.32.18.18.29.19.47,0,.46-.48.94-.94,1.4-1.41.09-.09.15-.2.23-.31Zm2.15,2.12c-.77.75-1.52,1.46-2.25,2.18-.81.8-1.6,1.6-2.4,2.4-.35.35-.69.69-1.04,1.04-.86.88-1.71,1.76-2.58,2.63-.49.49-1,.96-1.5,1.44-.24.23-.45.48-.69.72-.51.51-1.02,1-1.53,1.51-.58.58-1.15,1.18-1.74,1.75-.19.18-.22.28-.03.46.49.48.98.96,1.45,1.46.21.23.35.22.57,0,3.8-3.81,7.6-7.61,11.4-11.41.34-.34.33-.34.66-.01,2.92,2.92,5.85,5.85,8.77,8.77.21.21.4.45.61.66.7.69,1.4,1.37,2.1,2.07.12.12.2.15.32.03.09-.09.19-.18.28-.27.42-.41.82-.84,1.25-1.24.29-.27.31-.25.03-.53-1.71-1.71-3.42-3.42-5.13-5.13-.49-.49-.96-1-1.46-1.49-1.36-1.35-2.72-2.7-4.08-4.05-.72-.72-1.42-1.45-2.14-2.17-.28-.29-.59-.55-.89-.83Zm-64.01.03c-.09.06-.16.1-.22.16-.69.69-1.37,1.37-2.06,2.06-.89.89-1.78,1.78-2.67,2.67-1.08,1.08-2.16,2.17-3.24,3.24-.68.67-1.36,1.33-2.04,2-1.17,1.17-2.33,2.36-3.51,3.53-.16.16-.13.26,0,.4.52.52,1.05,1.04,1.57,1.57.13.13.23.16.36,0,.16-.2.35-.37.54-.55.64-.62,1.3-1.24,1.93-1.87.72-.72,1.4-1.47,2.12-2.18.64-.64,1.31-1.26,1.95-1.9.51-.5.99-1.03,1.49-1.54.56-.56,1.14-1.09,1.69-1.65.62-.63,1.24-1.26,1.85-1.91.17-.17.3-.17.46,0,.22.23.45.45.68.68,3.6,3.6,7.2,7.2,10.79,10.79q.32.32.65,0c.43-.43.86-.86,1.3-1.3q.3-.31,0-.62c-3.7-3.7-7.39-7.39-11.09-11.09-.76-.76-1.53-1.53-2.29-2.29-.07-.07-.16-.14-.25-.21Zm29.89-2.1c-.1-.12-.18-.23-.27-.32-2.76-2.76-5.53-5.53-8.29-8.29-1.69-1.69-3.38-3.38-5.06-5.06-.27-.27-.37-.26-.62.02-.18.2-.35.41-.54.59-1.86,1.86-3.72,3.72-5.58,5.58-.73.73-1.47,1.44-2.19,2.16-1.68,1.68-3.36,3.36-5.05,5.04-.19.19-.22.32-.01.52.52.49,1.01,1.01,1.53,1.5.06.06.26.07.31.02.55-.52,1.1-1.05,1.63-1.58.47-.47.93-.94,1.39-1.41.41-.41.82-.81,1.22-1.22.44-.44.87-.88,1.31-1.32.42-.41.85-.81,1.26-1.23.65-.65,1.28-1.31,1.92-1.96.97-.98,1.95-1.94,2.91-2.92.17-.17.29-.17.45,0,.27.29.56.56.84.84,3.56,3.56,7.12,7.12,10.67,10.68.22.22.35.24.57,0,.38-.41.78-.79,1.17-1.19.14-.14.27-.3.42-.47ZM29.9.01c-.06-.08-.11-.16-.18-.22-.72-.75-1.43-1.5-2.17-2.23-1.91-1.9-3.84-3.79-5.75-5.7-1.05-1.04-2.06-2.11-3.1-3.16-.3-.3-.63-.58-.94-.88-.52-.51-1.03-1.03-1.54-1.54-.13-.13-.24-.16-.38-.02-.49.48-1,.94-1.47,1.43-1.29,1.32-2.57,2.67-3.87,3.99-.84.85-1.71,1.67-2.57,2.5-.48.47-.96.95-1.43,1.43-.4.41-.79.84-1.2,1.25-1,1-2.02,1.98-3.02,2.98-.06.06-.07.26-.01.32.52.55,1.07,1.08,1.6,1.62.14.15.24.1.37-.03.97-.98,1.94-1.96,2.92-2.94,2.83-2.83,5.67-5.67,8.5-8.5q.38-.38.75.02c.07.07.14.14.2.21,3.67,3.67,7.35,7.35,11.02,11.02.07.07.14.13.2.21.13.16.26.15.4,0,.52-.53,1.04-1.05,1.56-1.58.04-.04.06-.11.1-.18Zm14.13,49.93c.57-.57,1.1-1.12,1.65-1.64.21-.2.22-.33,0-.54-1.91-1.92-3.81-3.85-5.72-5.77-.85-.86-1.74-1.68-2.59-2.54-1.66-1.67-3.31-3.35-4.97-5.03-.32-.33-.36-.32-.69,0-1.83,1.83-3.66,3.67-5.5,5.49-1.88,1.87-3.78,3.73-5.66,5.6-.73.72-1.43,1.47-2.15,2.21-.34.35-.33.35.03.68.44.39.86.8,1.26,1.23.31.33.29.35.61.04,1.73-1.73,3.45-3.45,5.18-5.18,2.04-2.04,4.09-4.09,6.13-6.13.4-.4.41-.4.81,0,3.75,3.75,7.5,7.5,11.25,11.25.1.1.22.2.34.32ZM80.08-13.92c-.09.06-.13.08-.16.11-.74.74-1.47,1.49-2.21,2.23-.59.59-1.21,1.15-1.8,1.74-.87.87-1.71,1.76-2.58,2.63-1.36,1.37-2.74,2.74-4.1,4.11-.94.94-1.88,1.88-2.82,2.82-.28.28-.28.34,0,.62.43.43.86.86,1.29,1.29.3.3.35.3.64,0,1.2-1.2,2.39-2.39,3.59-3.59,2.57-2.57,5.13-5.13,7.7-7.7.46-.46.37-.45.83,0,3.76,3.76,7.53,7.53,11.29,11.3.21.21.34.25.56.01.44-.48.91-.94,1.38-1.39.23-.22.2-.36,0-.57-1.49-1.48-2.97-2.96-4.45-4.45-.78-.78-1.55-1.55-2.33-2.33-.89-.89-1.79-1.79-2.68-2.68-.38-.38-.77-.77-1.15-1.16-.33-.33-.66-.67-.99-1.01-.66-.67-1.33-1.33-2-2.01Zm-18.1,45.93c-.13-.12-.25-.23-.36-.34-4.39-4.39-8.79-8.78-13.18-13.18-.4-.4-.4-.41-.81.01-.88.89-1.77,1.78-2.66,2.66-1.56,1.54-3.13,3.08-4.68,4.63-.61.61-1.2,1.25-1.81,1.86-1.37,1.38-2.75,2.76-4.14,4.13-.22.21-.21.34,0,.54.46.42.91.84,1.34,1.29.34.36.32.38.67.02,3.78-3.78,7.56-7.56,11.34-11.34q.34-.34.67,0c3.79,3.79,7.59,7.59,11.38,11.39.24.24.39.22.6,0,.48-.49.97-.97,1.45-1.46.06-.06.1-.13.17-.22Zm-.03,32.03c-.08-.09-.14-.16-.2-.22-4.48-4.48-8.97-8.97-13.45-13.46-.22-.22-.35-.19-.54.02-.63.65-1.28,1.29-1.92,1.93-1.27,1.27-2.54,2.54-3.81,3.81-1.07,1.07-2.15,2.15-3.22,3.22-.45.45-.89.89-1.34,1.33-.45.45-.91.9-1.36,1.36-.58.58-1.14,1.16-1.73,1.73-.3.29-.32.27-.03.56.47.46.97.9,1.42,1.39.19.21.29.25.5.04,1.75-1.75,3.51-3.49,5.25-5.24,2.05-2.05,4.1-4.11,6.15-6.17.35-.35.39-.35.75,0,3.28,3.28,6.56,6.56,9.84,9.84.54.54,1.07,1.07,1.6,1.61.14.15.26.16.4,0,.55-.58,1.11-1.15,1.69-1.75Zm-31.94-.09c-.27-.22-.55-.41-.78-.64-1.28-1.28-2.54-2.58-3.81-3.86-.83-.83-1.69-1.64-2.52-2.47-1.23-1.22-2.46-2.45-3.68-3.68-.96-.96-1.9-1.94-2.85-2.91-.29-.3-.33-.3-.64,0-.91.91-1.82,1.82-2.73,2.73-3.54,3.54-7.07,7.08-10.61,10.61-.2.2-.28.37-.05.59.48.47.96.95,1.44,1.42.18.18.31.17.5-.02.74-.76,1.49-1.5,2.24-2.25,3.07-3.07,6.13-6.13,9.2-9.2.3-.3.32-.3.64.01,1.05,1.05,2.1,2.1,3.16,3.15,1.12,1.12,2.24,2.24,3.36,3.36,1.49,1.49,2.98,2.99,4.48,4.47.22.22.46.41.79.71.6-.65,1.19-1.29,1.88-2.03Zm47.88-15.95c-.08-.11-.14-.21-.22-.29-4.48-4.48-8.95-8.96-13.43-13.44-.17-.17-.27-.17-.44,0-.84.87-1.68,1.74-2.53,2.59-2.4,2.41-4.81,4.82-7.22,7.22-1.23,1.23-2.47,2.47-3.71,3.7-.19.18-.21.3,0,.49.48.44.95.9,1.42,1.35.31.3.31.3.62,0,3.76-3.76,7.52-7.52,11.27-11.27.4-.4.41-.4.81,0,3.66,3.66,7.32,7.32,10.98,10.98.14.14.27.3.42.45.11.11.24.17.39.02.49-.52.99-1.03,1.49-1.55.06-.07.1-.15.16-.25Zm-51.94,20.04c-.07-.08-.12-.15-.19-.22-.46-.46-.92-.92-1.38-1.38-2.69-2.69-5.38-5.37-8.06-8.07-.23-.23-.36-.24-.59,0-1.25,1.27-2.51,2.52-3.76,3.77-.89.89-1.79,1.79-2.68,2.68-1.01,1.01-2.01,2.02-3.02,3.02-.14.14-.18.24-.02.39.53.51,1.05,1.04,1.57,1.57.14.14.26.15.41,0,.57-.58,1.15-1.15,1.72-1.72,1.93-1.93,3.86-3.86,5.79-5.8.23-.24.37-.23.59,0,.63.66,1.28,1.29,1.92,1.93,1.07,1.06,2.16,2.11,3.23,3.17.67.67,1.33,1.36,1.99,2.05.43.46.65.48,1.09.04.42-.41.83-.83,1.25-1.25.05-.05.09-.11.15-.19ZM8.02,5.93c.06-.03.08-.04.1-.06C10.65,3.34,13.19.8,15.73-1.73c.29-.29.29-.3.59,0,1.52,1.52,3.04,3.05,4.57,4.56.26.26.56.5.82.77.7.71,1.39,1.42,2.08,2.14.17.18.31.17.48,0,.5-.51,1.01-1.02,1.52-1.52.17-.16.14-.26-.03-.41-.46-.43-.91-.87-1.35-1.32-.53-.53-1.04-1.07-1.57-1.6-.51-.5-1.03-.99-1.54-1.5-.55-.55-1.08-1.12-1.63-1.68-.42-.42-.87-.82-1.29-1.24-.68-.69-1.35-1.39-2.03-2.09-.33-.34-.34-.34-.67,0-1.52,1.54-3.03,3.08-4.56,4.62-.95.95-1.93,1.89-2.89,2.83-.6.59-1.2,1.19-1.79,1.79-.24.24-.28.48-.09.68.54.55,1.1,1.08,1.65,1.62Zm16.04,15.95c.12-.09.22-.15.3-.23.31-.3.61-.6.91-.9,1.09-1.09,2.18-2.18,3.27-3.27.77-.77,1.54-1.55,2.3-2.32.32-.32.64-.63.95-.95.15-.15.28-.19.46,0,.72.73,1.45,1.45,2.17,2.18,1.8,1.8,3.61,3.6,5.41,5.41.16.16.26.15.42,0,.49-.51.99-1.01,1.5-1.5.19-.18.2-.33,0-.51-.35-.32-.69-.64-1.03-.97-.62-.62-1.21-1.26-1.83-1.87-.84-.84-1.7-1.65-2.54-2.49-.36-.36-.7-.75-1.06-1.11-.44-.44-.91-.86-1.36-1.31-.56-.57-1.12-1.14-1.67-1.73-.17-.18-.29-.2-.47-.01-3.17,3.18-6.34,6.35-9.52,9.52-.17.17-.16.28,0,.44.42.4.82.81,1.24,1.21.16.15.35.27.54.42Zm17.92,30.17c-.12-.13-.19-.21-.27-.28-3.13-3.13-6.26-6.26-9.38-9.39-.3-.3-.3-.3-.6,0-1.49,1.49-2.98,2.98-4.47,4.47-1.63,1.63-3.26,3.26-4.89,4.89-.06.06-.14.11-.17.19-.03.07-.03.19.02.24.54.54,1.09,1.06,1.63,1.6.18.18.3.15.45-.02.24-.26.47-.53.72-.77.66-.65,1.34-1.28,2-1.94,1.6-1.59,3.19-3.19,4.78-4.8.18-.18.29-.18.47,0,1.02,1.02,2.06,2.02,3.09,3.03.97.96,1.92,1.92,2.88,2.88.3.3.58.63.88.94.28.28.58.55.81.77.13-.07.22-.12.31-.17.05-.03.11-.05.15-.09.52-.5,1.04-1.01,1.59-1.54Zm13.97-14.05c.12-.16.16-.24.22-.29.51-.49,1.02-.97,1.54-1.45.15-.14.17-.27.02-.44-.54-.55-1.06-1.12-1.61-1.66-.44-.45-.91-.86-1.36-1.31-.7-.7-1.38-1.42-2.08-2.13-.58-.58-1.19-1.13-1.77-1.72-.87-.87-1.72-1.76-2.58-2.64-.3-.31-.31-.31-.6,0-1.41,1.41-2.81,2.81-4.22,4.22-1.71,1.71-3.42,3.43-5.14,5.13-.24.24-.22.41,0,.61.24.23.47.47.71.69.32.31.65.61,1.01.94.33-.34.64-.67.97-1,2.22-2.23,4.45-4.45,6.68-6.68.3-.3.3-.3.6,0,2.45,2.45,4.91,4.91,7.36,7.36.09.09.15.21.25.35Zm-31.91-.07c.1-.08.19-.14.26-.21.47-.47.92-.96,1.4-1.41.22-.21.23-.34.02-.55-3.15-3.15-6.31-6.3-9.45-9.45-.19-.19-.31-.19-.5,0-.51.53-1.04,1.04-1.56,1.56-1.37,1.37-2.74,2.74-4.11,4.11-1.25,1.25-2.5,2.5-3.74,3.75-.29.29-.28.33,0,.62.49.47.98.92,1.45,1.4.17.17.28.17.45,0,.4-.43.8-.86,1.22-1.27.67-.67,1.37-1.32,2.04-1.98,1.01-1,2.01-2.02,3.01-3.03.42-.42.85-.85,1.28-1.25.07-.06.26-.11.32-.06.3.24.58.51.85.78.5.51.99,1.03,1.5,1.54.47.47.96.91,1.43,1.38.75.76,1.49,1.53,2.24,2.29.52.53,1.04,1.04,1.57,1.56.09.09.2.15.32.25Zm47.96-15.93c.17-.21.25-.35.36-.45.49-.46.99-.91,1.49-1.36.12-.11.11-.2,0-.32-.75-.72-1.49-1.44-2.23-2.17-.88-.87-1.75-1.75-2.63-2.63-.85-.85-1.71-1.7-2.56-2.56-.71-.71-1.4-1.44-2.1-2.16-.17-.18-.29-.27-.52-.05-3.17,3.18-6.34,6.35-9.52,9.52-.16.16-.17.26,0,.42.52.51,1.04,1.02,1.54,1.55.18.18.29.15.44-.02.45-.47.92-.93,1.38-1.39,2.04-2.04,4.08-4.08,6.11-6.11.15-.15.27-.29.49-.07.86.85,1.73,1.68,2.59,2.54.66.66,1.29,1.34,1.94,2,.83.84,1.67,1.67,2.5,2.5.24.24.46.5.71.77Zm16.48-16.76c.22-.12.41-.2.56-.32.24-.21.45-.46.69-.67.19-.17.18-.29,0-.47-.78-.76-1.56-1.53-2.32-2.3-.93-.94-1.84-1.88-2.76-2.82-.43-.44-.88-.88-1.31-1.31-1.01-1.01-2.03-2.03-3.04-3.05-.17-.17-.29-.19-.47,0-3.17,3.18-6.34,6.35-9.52,9.52-.17.17-.17.28,0,.44.51.47,1.02.95,1.5,1.44.21.21.34.21.54,0,.85-.87,1.72-1.73,2.58-2.59.98-.98,1.97-1.97,2.95-2.95.65-.65,1.3-1.3,1.95-1.95.11-.11.22-.22.38-.06.62.61,1.26,1.22,1.87,1.83.98.98,1.96,1.97,2.94,2.96.43.43.88.84,1.3,1.27.5.5.98,1.02,1.47,1.52.07.07.22.16.29.13.09-.04.14-.19.22-.31.29.03.27-.14.18-.29Zm-30.57,62.84c-.04-.06-.07-.12-.11-.17-.14-.16-.27-.33-.42-.48-2.34-2.34-4.68-4.68-7.02-7.02-.67-.67-1.35-1.35-2.02-2.02-.3-.3-.3-.3-.6,0-1.22,1.24-2.44,2.49-3.67,3.72-.85.86-1.73,1.69-2.59,2.54-.74.73-1.47,1.47-2.2,2.2-.33.33-.65.65-.98.98-.13.13-.19.25-.03.41.52.49,1.04.99,1.54,1.5.17.17.28.17.44,0,.61-.63,1.23-1.25,1.86-1.86.96-.95,1.93-1.88,2.89-2.83.94-.93,1.86-1.86,2.79-2.79.15-.15.26-.23.45-.04.56.56,1.15,1.09,1.71,1.65.77.77,1.51,1.56,2.28,2.33.6.6,1.24,1.18,1.84,1.78.57.57,1.11,1.15,1.67,1.73.3.31.3.3.59.01.49-.49.98-.99,1.46-1.48.04-.04.07-.1.11-.15Zm16.05-16.02c-.65-.65-1.27-1.28-1.88-1.9-.5-.51-1-1.02-1.5-1.53-.5-.5-1-.99-1.5-1.49-.54-.54-1.07-1.1-1.62-1.64-.54-.54-1.11-1.06-1.65-1.61-.53-.53-1.04-1.07-1.56-1.61-.15-.16-.27-.16-.43,0-.3.31-.6.61-.91.91-1.91,1.91-3.82,3.82-5.73,5.73-.95.95-1.89,1.89-2.84,2.84-.13.13-.25.24-.07.42.51.52,1.01,1.04,1.51,1.57.18.18.33.17.51-.02.73-.77,1.47-1.53,2.22-2.27.87-.87,1.76-1.72,2.63-2.58.87-.87,1.75-1.73,2.61-2.61.22-.22.35-.22.57,0,.97.99,1.95,1.96,2.93,2.93.19.18.44.29.62.48.29.3.51.65.8.95,1.05,1.07,2.12,2.12,3.18,3.19.16.16.25.12.39-.03.41-.42.83-.83,1.25-1.25.16-.16.31-.32.46-.48ZM48.03-1.98c.1.08.19.15.27.23,1.08,1.07,2.15,2.15,3.22,3.22.68.67,1.37,1.32,2.04,1.99.76.75,1.52,1.5,2.26,2.26.16.16.27.15.42,0,.48-.49.96-.98,1.46-1.45.2-.19.17-.31-.01-.49-.85-.84-1.69-1.7-2.53-2.55-.93-.94-1.85-1.88-2.79-2.81-.91-.9-1.83-1.79-2.74-2.69-.47-.47-.92-.95-1.37-1.44-.16-.17-.29-.19-.45,0-.11.13-.24.24-.36.37-3.03,3.03-6.06,6.06-9.09,9.08-.22.22-.27.35-.02.58.48.44.93.92,1.39,1.38.28.28.31.28.59,0,.88-.9,1.76-1.81,2.65-2.71.18-.18.39-.34.57-.52.63-.64,1.25-1.29,1.88-1.93.75-.76,1.51-1.51,2.27-2.26.09-.09.2-.15.33-.24Zm41.93,70.02c-.09-.11-.16-.2-.24-.28-.66-.66-1.31-1.32-1.97-1.97-.49-.49-1-.96-1.49-1.45-.68-.68-1.34-1.38-2.02-2.06-.5-.5-1.02-.97-1.52-1.47-.8-.8-1.59-1.61-2.37-2.44-.23-.24-.36-.22-.59,0-1.7,1.72-3.41,3.42-5.12,5.13-.75.76-1.49,1.54-2.24,2.3-.69.69-1.39,1.36-2.09,2.03-.15.14-.2.25-.02.42.55.53,1.07,1.07,1.62,1.6.05.05.23.05.28,0,.95-.94,1.88-1.9,2.82-2.85.64-.64,1.29-1.25,1.94-1.88.42-.41.85-.81,1.24-1.25.24-.28.66-.44.66-.9,0-.03.06-.06.09-.08.25-.19.52-.36.74-.58.33-.33.34-.35.67-.02,1.26,1.26,2.51,2.51,3.77,3.77,1.23,1.23,2.46,2.45,3.68,3.68.19.19.33.22.53.01.47-.49.96-.97,1.45-1.45.07-.07.13-.16.2-.26Zm-.03-32c-.08-.09-.15-.18-.22-.25-.9-.9-1.8-1.8-2.7-2.7-1.5-1.5-3.01-3.01-4.51-4.52-.71-.71-1.4-1.44-2.1-2.16-.32-.32-.37-.32-.7,0-1.32,1.32-2.63,2.63-3.95,3.95-1.14,1.14-2.27,2.27-3.41,3.41-.68.68-1.36,1.36-2.04,2.04-.15.15-.18.26-.01.42.52.5,1.02,1.01,1.52,1.52.14.14.25.17.4.01.26-.28.54-.55.81-.82,1.17-1.15,2.35-2.3,3.52-3.46.27-.27.52-.57.79-.84.31-.31.64-.6.95-.9.52-.51,1.03-1.02,1.54-1.54.18-.19.3-.16.47.01.64.66,1.29,1.31,1.95,1.95.7.67,1.32,1.41,2.13,1.97.3.21.47.59.74.86.91.94,1.83,1.86,2.75,2.79.14.14.26.14.4-.02.5-.52,1.02-1.04,1.53-1.55.05-.05.09-.11.15-.18Zm-4,3.97c-.08-.09-.15-.18-.24-.26-1.77-1.77-3.54-3.55-5.32-5.32-.4-.4-.32-.4-.73.01-1.13,1.14-2.25,2.3-3.38,3.44-.63.64-1.28,1.26-1.94,1.87-.21.2-.24.33-.01.54.49.45.94.93,1.41,1.4q.29.29.59,0c1.14-1.14,2.27-2.27,3.41-3.41.15-.15.28-.27.48-.07.63.62,1.28,1.23,1.91,1.85.58.57,1.15,1.14,1.72,1.72.14.14.25.12.38-.01.52-.53,1.04-1.05,1.57-1.57.04-.04.08-.1.13-.17Zm-31.89-31.92c-.38-.38-.67-.66-.96-.95-1.6-1.61-3.2-3.22-4.79-4.84-.19-.19-.33-.24-.54,0-.45.5-.92.99-1.39,1.46-1.35,1.34-2.71,2.68-4.07,4.01-.18.18-.18.29,0,.46.48.46.94.94,1.41,1.4.31.31.33.31.64,0,1.16-1.15,2.32-2.31,3.48-3.47.16-.16.29-.16.44-.01.36.34.72.67,1.07,1.02.83.84,1.65,1.68,2.47,2.52.2.21.34.17.53-.02.55-.54,1.12-1.05,1.72-1.61Zm-.12,63.98c-.05-.08-.08-.15-.13-.2-.25-.26-.52-.51-.77-.76-1.57-1.59-3.15-3.18-4.71-4.78-.17-.18-.33-.21-.52-.02-.97.99-1.93,1.97-2.9,2.95-.37.38-.73.78-1.11,1.16-.49.48-1,.93-1.5,1.4-.16.14-.17.28-.01.44.49.48.97.97,1.46,1.45.21.21.38.23.61,0,1.03-1.05,2.07-2.07,3.11-3.11.61-.61.61-.6,1.22.03,1.04,1.05,2.09,2.09,3.13,3.14.17.17.29.16.45,0,.5-.5,1.01-.98,1.52-1.47.06-.06.1-.13.15-.21Zm6-14.06c.07,0,.14,0,.21,0,.07-.11.12-.24.21-.33,1.12-1.12,2.24-2.24,3.36-3.36.31-.31.37-.31.68,0,1.14,1.14,2.29,2.28,3.43,3.43.2.2.32.22.51,0,.44-.48.89-.95,1.36-1.4.3-.29.32-.28.03-.56-1.81-1.81-3.62-3.61-5.42-5.43-.22-.23-.35-.21-.56,0-.95.99-1.9,1.97-2.87,2.93-.82.82-1.66,1.62-2.49,2.44-.29.28-.28.31,0,.59.53.56,1.05,1.13,1.57,1.69ZM70.03-7.93c-2.02-2.03-3.93-3.93-5.83-5.85-.17-.17-.27-.09-.39.04-1.83,1.85-3.65,3.7-5.48,5.54-.17.17-.16.29,0,.45.49.48.98.96,1.45,1.45.19.2.33.16.51-.02,1.12-1.12,2.24-2.24,3.36-3.35q.4-.39.8,0s.08.08.11.11c1.07,1.07,2.15,2.15,3.23,3.22.24.24.33.22.55-.02.24-.27.49-.54.75-.79.29-.28.61-.53.94-.8ZM28.04,25.88c.05-.03.11-.05.14-.08.29-.27.58-.53.86-.82.93-.94,1.86-1.89,2.79-2.84.13-.13.24-.15.38-.01,1.2,1.22,2.41,2.43,3.61,3.65.15.16.24.17.39.02.51-.52,1.02-1.03,1.54-1.54.16-.16.16-.29,0-.46-1.84-1.83-3.67-3.66-5.5-5.5-.17-.17-.29-.15-.45,0-.84.83-1.69,1.64-2.52,2.47-.99.99-1.96,2.01-2.95,3-.21.21-.19.33.01.52.51.47,1.01.96,1.51,1.44.05.05.12.09.18.14Zm16.02,16.06c.39-.39.74-.74,1.1-1.09.89-.87,1.78-1.73,2.66-2.6.15-.15.28-.18.43-.02.1.1.22.18.31.27.6.59,1.19,1.19,1.79,1.79.48.48.97.97,1.45,1.45.11.11.23.21.38.05.57-.6,1.14-1.21,1.63-1.72-1.88-1.96-3.81-3.97-5.74-5.98-.81.78-1.58,1.51-2.32,2.25-1.07,1.08-2.13,2.17-3.19,3.25-.08.08-.16.17-.25.25-.17.15-.16.27,0,.42.33.31.64.63.96.94.25.24.51.48.79.73Zm-12.01-55.83c-.1.09-.2.16-.28.24-1.12,1.12-2.24,2.24-3.35,3.35-.68.68-1.36,1.36-2.04,2.04-.19.19-.22.32,0,.53.48.44.94.91,1.39,1.38.21.22.35.23.57,0,1.13-1.15,2.29-2.29,3.42-3.44.22-.22.35-.22.57,0,1.17,1.19,2.36,2.37,3.53,3.55.13.13.22.19.36.03.52-.55,1.05-1.1,1.58-1.64.12-.12.1-.21,0-.32-.36-.35-.7-.72-1.06-1.07-.44-.42-.91-.81-1.33-1.24-.36-.36-.66-.78-1.01-1.15-.37-.39-.76-.75-1.13-1.13-.32-.32-.65-.65-.97-.97-.06-.06-.13-.09-.22-.15ZM12.01,73.96c.08-.07.17-.14.24-.21,1.18-1.16,2.37-2.32,3.55-3.49.18-.18.32-.2.51,0,1.13,1.14,2.27,2.27,3.4,3.42.27.27.35.3.63.03.4-.38.78-.77,1.16-1.15q.48-.47,0-.95c-1.67-1.67-3.33-3.33-5-5q-.49-.49-.97.02s-.02.02-.02.02c-.79.8-1.57,1.62-2.38,2.41-.93.92-1.88,1.83-2.83,2.74-.17.16-.22.3-.03.48.52.51,1.03,1.03,1.55,1.54.05.05.11.09.19.16Zm8.02-32.02c.07-.05.13-.08.17-.13.55-.54,1.09-1.09,1.64-1.63.16-.16.08-.26-.04-.37-.49-.46-.98-.92-1.46-1.4-1.35-1.34-2.7-2.69-4.04-4.05-.21-.21-.34-.21-.54,0-.78.81-1.59,1.59-2.38,2.39-1.01,1.01-2.02,2.01-3.02,3.02-.11.11-.28.2-.09.39.53.54,1.06,1.09,1.58,1.64.11.11.2.13.32.01,1.16-1.16,2.32-2.3,3.47-3.47.32-.32.44-.35.75-.04,1.14,1.14,2.27,2.27,3.41,3.41.07.07.16.14.24.22Zm47.9-16c.1-.05.15-.06.18-.09.57-.56,1.13-1.13,1.71-1.7.15-.15.05-.24-.05-.35-.77-.79-1.53-1.59-2.31-2.36-.95-.95-1.91-1.87-2.87-2.81-.55-.54-.54-.54-1.1,0-1.05,1.04-2.11,2.06-3.15,3.11-.68.68-1.34,1.38-2.01,2.06-.15.15-.16.3,0,.45.52.52,1.04,1.05,1.57,1.56.05.05.23.04.28,0,.49-.47.95-.95,1.43-1.42.71-.71,1.42-1.42,2.13-2.13.27-.26.34-.27.61,0,.62.61,1.23,1.22,1.84,1.84.59.61,1.17,1.24,1.75,1.85ZM21.96,8.1c-2.03-2.04-4-4.01-5.97-5.99-.17.15-.36.31-.53.48-.84.85-1.67,1.72-2.51,2.57-.87.88-1.74,1.75-2.61,2.61-.2.19-.22.32,0,.52.47.42.91.87,1.37,1.3.35.33.35.33.69-.02,1.09-1.09,2.18-2.18,3.27-3.27q.36-.36.72,0c1.13,1.13,2.26,2.26,3.38,3.38.15.15.28.28.48.07.57-.56,1.15-1.12,1.72-1.66Zm63.98,63.93c-.09-.1-.17-.19-.25-.27-1.78-1.78-3.56-3.56-5.33-5.34-.05-.05-.09-.12-.14-.13-.11-.02-.25-.06-.32,0-.21.16-.38.37-.57.55-1.69,1.67-3.37,3.34-5.06,5.01-.14.14-.15.23,0,.37.5.49,1.01.99,1.5,1.5.21.21.36.21.58-.01,1.03-1.05,2.07-2.08,3.11-3.12q.61-.61,1.24.02c1.01,1.01,2.03,2.03,3.04,3.04.31.31.39.31.7,0,.46-.48.92-.96,1.38-1.43.05-.05.09-.11.15-.18Zm-11.81-63.97c.58.58,1.14,1.14,1.71,1.71.15.15.28.13.42-.01.06-.06.1-.14.16-.2,1.11-1.1,2.22-2.2,3.33-3.3.3-.3.32-.29.61,0,1.13,1.13,2.26,2.26,3.39,3.38.28.28.31.28.59,0,.42-.42.85-.85,1.27-1.27q.36-.36,0-.71c-1.71-1.71-3.42-3.42-5.13-5.13-.08-.08-.15-.15-.23-.22-.15-.12-.29-.12-.43.02-.97.95-1.94,1.9-2.91,2.86-.61.61-1.21,1.24-1.81,1.86-.32.33-.63.66-.97,1.02Zm-38.08,49.89c.06-.05.13-.09.18-.14.51-.5,1.01-1.01,1.52-1.51.18-.17.17-.31-.01-.48-.54-.53-1.08-1.07-1.61-1.61-1.24-1.24-2.48-2.48-3.72-3.73q-.37-.37-.75,0c-.8.81-1.6,1.63-2.41,2.43-.99.99-2,1.97-3,2.95-.14.13-.12.24,0,.35.54.52,1.08,1.03,1.61,1.56.13.12.24.12.36,0,.24-.24.49-.48.73-.72.95-.95,1.89-1.89,2.84-2.84.14-.15.26-.24.45-.04.88.91,1.76,1.81,2.65,2.71.32.32.64.63.97.94.05.05.12.08.19.13Zm-4.02-28c.08-.07.16-.12.23-.18.5-.5.99-1.01,1.5-1.49.2-.19.16-.33,0-.5-.51-.49-1.01-.99-1.51-1.49-.16-.16-.27-.15-.43,0-.5.51-1.01,1.02-1.52,1.52-.17.16-.18.28,0,.45.52.5,1.02,1.01,1.53,1.52.06.06.13.1.22.17Zm17.91-17.93c-.04-.06-.07-.12-.11-.16-.54-.54-1.08-1.07-1.61-1.61-.14-.15-.25-.1-.38.02-.51.52-1.02,1.04-1.55,1.54-.18.17-.15.29.01.45.51.49,1.01.99,1.5,1.5.16.16.28.2.45.02.52-.54,1.05-1.06,1.58-1.59.04-.04.07-.1.11-.16ZM17.94,76.05c-.06-.08-.11-.15-.17-.21-.5-.5-1-.99-1.49-1.5-.2-.21-.33-.18-.52.01-.46.48-.92.95-1.41,1.4-.24.22-.2.38,0,.58.44.44.88.88,1.32,1.32.31.31.39.32.71,0,.48-.46.94-.93,1.41-1.4.06-.06.1-.13.16-.21Zm30.1-33.91c-.07.05-.14.09-.19.14-.52.52-1.04,1.05-1.57,1.56-.16.16-.14.28.01.43.51.5,1.02,1,1.52,1.52.18.19.3.16.47-.02.5-.51,1-1.01,1.51-1.51.14-.14.17-.25.02-.4-.53-.52-1.06-1.06-1.59-1.58-.05-.05-.12-.08-.19-.13ZM16.04,10.12c-.07.05-.14.08-.19.13-.54.54-1.08,1.07-1.61,1.62-.06.06-.06.26,0,.32.52.53,1.06,1.03,1.58,1.55.19.19.32.16.5-.03.49-.51.99-1.01,1.49-1.5.17-.16.1-.27-.03-.4-.51-.51-1.02-1.01-1.52-1.52-.06-.06-.13-.11-.21-.17Zm33.86,65.9c-.06-.09-.11-.18-.19-.25-.47-.48-.96-.95-1.43-1.44-.19-.2-.32-.17-.5.01-.48.49-.96.98-1.46,1.45-.21.2-.2.33,0,.52.5.47.99.95,1.46,1.44.19.2.3.21.49.02.48-.5.98-.99,1.46-1.49.06-.07.09-.16.15-.27Zm16.06-48c-.05-.07-.08-.12-.13-.17-.53-.54-1.07-1.07-1.6-1.61-.13-.13-.23-.12-.35,0-.53.53-1.05,1.06-1.59,1.58-.15.15-.14.26,0,.4.53.52,1.05,1.04,1.56,1.56.15.15.25.13.4-.02.51-.54,1.04-1.07,1.56-1.6.05-.05.09-.11.14-.17Zm-.02-32.03c-.04-.06-.06-.12-.1-.16-.54-.54-1.07-1.08-1.62-1.61-.06-.05-.26-.05-.32,0-.56.53-1.1,1.08-1.64,1.64-.05.05-.06.24,0,.29.54.54,1.09,1.06,1.64,1.58.06.05.25.06.3.02.53-.49,1.05-1,1.57-1.51.07-.07.11-.16.17-.25ZM16.03,42.13c-.07.04-.13.07-.17.11-.54.53-1.07,1.07-1.61,1.6-.12.12-.1.21,0,.32.52.54,1.04,1.07,1.55,1.62.15.16.27.16.42,0,.51-.52,1.02-1.03,1.54-1.54.16-.16.16-.27,0-.43-.52-.51-1.03-1.03-1.54-1.54-.06-.06-.13-.1-.2-.16Zm65.91,1.87c-.05-.07-.08-.12-.13-.16-.52-.52-1.04-1.04-1.56-1.56-.17-.17-.28-.12-.42.02-.5.51-1.01,1.02-1.52,1.52-.17.17-.16.29,0,.45.51.49,1,.99,1.5,1.5.15.16.26.17.42,0,.51-.53,1.04-1.04,1.56-1.56.06-.06.1-.13.16-.2Zm-1.87,34.03c.63-.66,1.19-1.26,1.76-1.85.12-.12.1-.21-.01-.32-.53-.53-1.06-1.06-1.59-1.59-.13-.13-.23-.12-.35,0-.53.53-1.06,1.06-1.58,1.6-.05.05-.07.24-.02.29.57.61,1.15,1.2,1.8,1.88Zm1.86-66.05s-.05-.09-.08-.12c-.55-.55-1.1-1.11-1.66-1.65-.05-.05-.24-.04-.29,0-.55.53-1.1,1.08-1.63,1.63-.05.06-.05.25,0,.31.51.54,1.04,1.06,1.56,1.6.13.14.23.15.37,0,.53-.54,1.07-1.07,1.6-1.61.05-.05.08-.12.13-.18Zm-15.98,48.06c-.05-.07-.09-.14-.14-.19-.52-.52-1.05-1.04-1.56-1.57-.17-.17-.28-.13-.43.02-.46.47-.94.94-1.41,1.41-.29.3-.3.37,0,.65.46.45.95.87,1.38,1.35.19.21.3.22.48.04.52-.51,1.03-1.02,1.55-1.53.05-.05.08-.12.13-.19Zm-33.91,1.88c.6-.57,1.19-1.14,1.78-1.71.13-.13.1-.24-.02-.35-.53-.53-1.06-1.05-1.59-1.59-.13-.14-.24-.14-.38,0-.53.53-1.06,1.06-1.59,1.59-.14.14-.13.25,0,.38.58.55,1.16,1.1,1.78,1.68Zm.01-64.05c.08-.06.15-.11.21-.17.51-.51,1.02-1.03,1.53-1.55.13-.13.12-.22,0-.35-.53-.52-1.05-1.04-1.57-1.56-.13-.14-.24-.14-.38,0-.52.53-1.04,1.05-1.57,1.56-.12.12-.14.22,0,.35.53.52,1.04,1.04,1.57,1.56.06.06.13.1.21.15Z"/></g></g></svg>