<?xml version="1.0" encoding="UTF-8"?><svg id="b" xmlns="http://www.w3.org/2000/svg" xmlns:xlink="http://www.w3.org/1999/xlink" viewBox="0 0 96 64"><defs><style>.e,.f{fill:#22b373;}.e,.f,.g{opacity:.2;}.e,.h{stroke-width:0px;}.i{clip-path:url(#d);}.h{fill:#294c92;}</style><clipPath id="d"><rect class="e" width="96" height="64"/></clipPath></defs><g id="c"><rect class="f" width="96" height="64"/><g class="i"><g class="g"><path class="h" d="m18.79-.2c5.83.01,11.35,3.01,14.77,8.03,1.74,2.55,2.78,5.42,3.11,8.41.34-.29.69-.56,1.05-.83,3.02-2.18,6.6-3.34,10.36-3.34s7.34,1.15,10.36,3.34c.36.26.71.54,1.05.83.33-2.99,1.37-5.86,3.11-8.41C66.01,2.81,71.53-.19,77.36-.2c-1.9-4.32-6.23-7.29-10.86-7.29-2.39,0-4.87.79-7.13,2.59h0s0,0,0,0c-1.66-5.83-6.48-8.75-11.29-8.75s-9.64,2.92-11.29,8.75c-2.26-1.8-4.74-2.59-7.13-2.59-4.63,0-8.96,2.96-10.86,7.29Z"/><path class="h" d="m30.14,14.93c-1.49-5.11-6.25-8.75-11.39-8.75-2.39,0-4.87.79-7.13,2.59C9.97,2.94,5.15.02.33.02s-9.64,2.92-11.29,8.75c-2.26-1.8-4.74-2.59-7.13-2.59-6.2,0-11.85,5.31-11.87,12.08.32-.02.65-.03.97-.03,5.85,0,11.38,3,14.8,8.03.95,1.39,1.69,2.89,2.22,4.44.6-.59,1.25-1.13,1.93-1.63,3.02-2.18,6.6-3.34,10.36-3.34s7.34,1.15,10.36,3.34c.69.5,1.33,1.04,1.93,1.63.53-1.56,1.27-3.05,2.22-4.44,3.42-5.03,8.96-8.03,14.8-8.03.32,0,.65.01.97.03,0-1.16-.17-2.28-.48-3.33"/><path class="h" d="m126.11,18.26c-.02-6.78-5.67-12.08-11.87-12.08-2.39,0-4.87.79-7.13,2.59C105.45,2.94,100.64.02,95.82.02s-9.64,2.92-11.29,8.75h0c-2.26-1.8-4.74-2.59-7.13-2.59-6.2,0-11.85,5.31-11.87,12.08.32-.02.65-.03.97-.03,5.85,0,11.38,3,14.8,8.03.95,1.39,1.69,2.89,2.22,4.44.6-.59,1.25-1.13,1.93-1.63,3.02-2.18,6.6-3.34,10.36-3.34s7.34,1.15,10.36,3.34c.69.5,1.33,1.04,1.93,1.63.53-1.56,1.27-3.05,2.22-4.44,3.42-5.03,8.96-8.03,14.8-8.03.32,0,.65.01.97.03Z"/><path class="h" d="m18.79,31.89c5.83.01,11.35,3.01,14.77,8.03,1.74,2.55,2.78,5.42,3.11,8.41.34-.29.69-.56,1.05-.83,3.02-2.18,6.6-3.34,10.36-3.34s7.34,1.15,10.36,3.34c.36.26.71.54,1.05.83.33-2.99,1.37-5.86,3.11-8.41,3.42-5.02,8.93-8.01,14.77-8.03-1.9-4.32-6.23-7.29-10.86-7.29-2.39,0-4.87.79-7.13,2.59h0s0,0,0,0c-1.66-5.83-6.48-8.75-11.29-8.75s-9.64,2.92-11.29,8.75c-2.26-1.8-4.74-2.59-7.13-2.59-4.63,0-8.96,2.96-10.86,7.29Z"/><path class="h" d="m-29.96,50.35c.32-.02.65-.03.97-.03,5.85,0,11.38,3,14.8,8.03.95,1.39,1.69,2.89,2.22,4.44.6-.59,1.25-1.13,1.93-1.63,3.02-2.18,6.6-3.34,10.36-3.34s7.34,1.15,10.36,3.34c.69.5,1.33,1.04,1.93,1.63.53-1.56,1.27-3.05,2.22-4.44,3.42-5.03,8.96-8.03,14.8-8.03.32,0,.65.01.97.03-.02-6.78-5.67-12.08-11.87-12.08-2.39,0-4.87.79-7.13,2.59-1.66-5.83-6.48-8.75-11.29-8.75s-9.64,2.92-11.29,8.75c-2.26-1.8-4.74-2.59-7.13-2.59-6.2,0-11.85,5.31-11.87,12.08Z"/><path class="h" d="m126.11,50.35c-.02-6.78-5.67-12.08-11.87-12.08-2.39,0-4.87.79-7.13,2.59-1.66-5.83-6.48-8.75-11.29-8.75s-9.64,2.92-11.29,8.75h0c-2.26-1.8-4.74-2.59-7.13-2.59-6.2,0-11.85,5.31-11.87,12.08.32-.02.65-.03.97-.03,5.85,0,11.38,3,14.8,8.03.95,1.39,1.69,2.89,2.22,4.44.6-.59,1.25-1.13,1.93-1.63,3.02-2.18,6.6-3.34,10.36-3.34s7.34,1.15,10.36,3.34c.69.5,1.33,1.04,1.93,1.63.53-1.56,1.27-3.05,2.22-4.44,3.42-5.03,8.96-8.03,14.8-8.03.32,0,.65.01.97.03Z"/><path class="h" d="m18.79,63.99c5.83.01,11.35,3.01,14.77,8.03,1.74,2.55,2.78,5.42,3.11,8.41.34-.29.69-.56,1.05-.83,3.02-2.18,6.6-3.34,10.36-3.34s7.34,1.15,10.36,3.34c.36.26.71.54,1.05.83.33-2.99,1.37-5.86,3.11-8.41,3.42-5.02,8.93-8.01,14.77-8.03-1.9-4.32-6.23-7.29-10.86-7.29-2.39,0-4.87.79-7.13,2.59h0c-1.66-5.83-6.48-8.75-11.29-8.75s-9.64,2.92-11.29,8.75c-2.26-1.8-4.74-2.59-7.13-2.59-4.63,0-8.96,2.96-10.86,7.29Z"/></g></g></g></svg>