<?xml version="1.0" encoding="UTF-8"?><svg id="b" xmlns="http://www.w3.org/2000/svg" xmlns:xlink="http://www.w3.org/1999/xlink" viewBox="0 0 96 64"><defs><style>.e,.f{stroke-width:0px;}.e,.f,.g{fill:#294c92;}.e,.g{opacity:.5;}.h{clip-path:url(#d);}</style><clipPath id="d"><rect class="e" width="96" height="64"/></clipPath></defs><g id="c"><rect class="g" width="96" height="64"/><g class="h"><path class="f" d="m176.19-116.29v12.63l4.61,2.51v4.92l-9.08-4.95v-15.12h-7.27v15.12l-12.28,6.69v17.29l15.91,8.67c2.48-1.35,8.53-4.65,12.71-6.93v4.87l-10.82,5.9c-1.15.63-1.3.71-1.9.71h-.6l-19.78-10.78v-22.22l12.28-6.69v-12.63h-6.1v9.36l-9.81,5.35-9.81-5.35v-9.36h-6.1v12.63l12.28,6.69v22.22l-18.48,10.08c-1.15.63-1.3.71-1.9.71h-.6l-19.78-10.78v-22.22l12.28-6.69v-12.63h-6.1v9.36l-9.81,5.35-9.81-5.35v-9.36h-6.1v12.63l12.28,6.69v22.22l-18.48,10.08c-1.15.63-1.3.71-1.9.71h-.6l-19.78-10.78v-22.22l12.28-6.69v-12.63h-6.1v9.36l-9.81,5.35-9.81-5.35v-9.36h-6.1v12.63l12.28,6.69v22.22l-18.48,10.08c-1.15.63-1.3.71-1.9.71h-.6l-19.78-10.78v-22.22l12.28-6.69v-12.63h-6.1v9.36L-.02-101.59l-9.81-5.35v-9.36h-6.1v12.63l12.28,6.69v22.22l-18.48,10.08c-1.15.63-1.3.71-1.9.71h-.6l-19.78-10.78v-22.22l12.28-6.69v-12.63h-6.1v9.36l-9.81,5.35-9.81-5.35v-9.36h-6.1v12.63l12.28,6.69v22.22l-18.48,10.08c-1.15.63-1.3.71-1.9.71h-.6l-19.78-10.78v-22.22l12.28-6.69v-12.63h-6.1v9.36l-9.81,5.35-1.68-.92v32.91l1.68-.91,20.38,11.11v22.22l-12.28,6.69V-13.19l15.91,8.67c3.25-1.77,12.66-6.9,15.91-8.67v-17.29l-12.28-6.69v-22.22l20.38-11.11,20.38,11.11v22.22l-12.28,6.69V-13.19l15.91,8.67c3.25-1.77,12.66-6.9,15.91-8.67v-17.29l-12.28-6.69v-22.22L-.02-70.51l20.38,11.11v22.22l-12.28,6.69V-13.19l15.91,8.67c3.25-1.77,12.66-6.9,15.91-8.67v-17.29l-12.28-6.69v-22.22l20.38-11.11,20.38,11.11v22.22l-12.28,6.69V-13.19l15.91,8.67c3.25-1.77,12.66-6.9,15.91-8.67v-17.29l-12.28-6.69v-22.22l20.38-11.11,20.38,11.11v22.22l-12.28,6.69V-13.19l15.91,8.67c3.25-1.77,12.66-6.9,15.91-8.67v-17.29l-12.28-6.69v-22.22l20.38-11.11,20.38,11.11v22.22l-12.28,6.69V-13.19l15.91,8.67c2.48-1.35,8.53-4.65,12.71-6.93v4.87l-10.82,5.9c-1.15.63-1.3.71-1.9.71h-.6l-19.78-10.78v-22.22l12.28-6.69v-17.29l-15.91-8.67-15.91,8.67v17.29l12.28,6.69V-10.76L121.95-.68c-1.15.63-1.3.71-1.9.71h-.6l-19.78-10.78v-22.22l12.28-6.69v-17.29l-15.91-8.67-15.91,8.67v17.29l12.28,6.69V-10.76L73.92-.68c-1.15.63-1.3.71-1.9.71h-.6l-19.78-10.78v-22.22l12.28-6.69v-17.29l-15.91-8.67-15.91,8.67v17.29l12.28,6.69V-10.76L25.89-.68C24.74-.06,24.6.02,24,.02h-.6L3.62-10.76v-22.22l12.28-6.69v-17.29L-.02-65.64l-15.91,8.67v17.29l12.28,6.69V-10.76L-22.13-.68C-23.28-.06-23.43.02-24.03.02h-.6l-19.78-10.78v-22.22l12.28-6.69v-17.29l-15.91-8.67-15.91,8.67v17.29l12.28,6.69V-10.76L-70.16-.68c-1.15.63-1.3.71-1.9.71h-.6l-19.78-10.78v-22.22l12.28-6.69v-17.29l-15.91-8.67-1.68.92v6.66l1.68-.92,9.81,5.35v10.69l-9.81,5.35-1.68-.92V-5.61l1.68-.91,20.38,11.11v22.22l-12.28,6.69v17.29l15.91,8.67c3.25-1.77,12.66-6.9,15.91-8.67v-17.29l-12.28-6.69V4.59l20.38-11.11L-27.67,4.59v22.22l-12.28,6.69v17.29l15.91,8.67c3.25-1.77,12.66-6.9,15.91-8.67v-17.29l-12.28-6.69V4.59L-.02-6.52,20.36,4.59v22.22l-12.28,6.69v17.29l15.91,8.67c3.25-1.77,12.66-6.9,15.91-8.67v-17.29l-12.28-6.69V4.59l20.38-11.11,20.38,11.11v22.22l-12.28,6.69v17.29l15.91,8.67c3.25-1.77,12.66-6.9,15.91-8.67v-17.29l-12.28-6.69V4.59l20.38-11.11,20.38,11.11v22.22l-12.28,6.69v17.29l15.91,8.67c3.25-1.77,12.66-6.9,15.91-8.67v-17.29l-12.28-6.69V4.59l20.38-11.11,20.38,11.11v22.22l-12.28,6.69v17.29l15.91,8.67c2.48-1.35,8.53-4.65,12.71-6.93v4.87l-10.82,5.9c-1.15.63-1.3.71-1.9.71h-.6l-19.78-10.78v-22.22l12.28-6.69V7.03l-15.91-8.67-15.91,8.67v17.29l12.28,6.69v22.22l-18.48,10.08c-1.15.63-1.3.71-1.9.71h-.6l-19.78-10.78v-22.22l12.28-6.69V7.03l-15.91-8.67-15.91,8.67v17.29l12.28,6.69v22.22l-18.48,10.08c-1.15.63-1.3.71-1.9.71h-.6l-19.78-10.78v-22.22l12.28-6.69V7.03L48.01-1.65l-15.91,8.67v17.29l12.28,6.69v22.22l-18.48,10.08c-1.15.63-1.3.71-1.9.71h-.6L3.62,53.23v-22.22l12.28-6.69V7.03L-.02-1.65-15.93,7.03v17.29l12.28,6.69v22.22l-18.48,10.08c-1.15.63-1.3.71-1.9.71h-.6l-19.78-10.78v-22.22l12.28-6.69V7.03L-48.05-1.65l-15.91,8.67v17.29l12.28,6.69v22.22l-18.48,10.08c-1.15.63-1.3.71-1.9.71h-.6l-19.78-10.78v-22.22l12.28-6.69V7.03l-15.91-8.67-1.68.92v6.66l1.68-.92,9.81,5.35v10.69l-9.81,5.35-1.68-.92v32.91l1.68-.91,20.38,11.11v22.22l-12.28,6.69v17.29l15.91,8.67c3.25-1.77,12.66-6.9,15.91-8.67v-17.29l-12.28-6.69v-22.22l20.38-11.11,20.38,11.11v22.22l-12.28,6.69v17.29l15.91,8.67c3.25-1.77,12.66-6.9,15.91-8.67v-17.29l-12.28-6.69v-22.22L-.02,57.47l20.38,11.11v22.22l-12.28,6.69v17.29l15.91,8.67c3.25-1.77,12.66-6.9,15.91-8.67v-17.29l-12.28-6.69v-22.22l20.38-11.11,20.38,11.11v22.22l-12.28,6.69v17.29l15.91,8.67c3.25-1.77,12.66-6.9,15.91-8.67v-17.29l-12.28-6.69v-22.22l20.38-11.11,20.38,11.11v22.22l-12.28,6.69v17.29l15.91,8.67c3.25-1.77,12.66-6.9,15.91-8.67v-17.29l-12.28-6.69v-22.22l20.38-11.11,20.38,11.11v22.22l-12.28,6.69v17.29l15.91,8.67c2.48-1.35,8.53-4.65,12.71-6.93v4.87l-10.82,5.9c-1.15.63-1.3.71-1.9.71h-.6l-19.78-10.78v-22.22l12.28-6.69v-17.29l-15.91-8.67-15.91,8.67v17.29l12.28,6.69v22.22l-18.48,10.08c-1.15.63-1.3.71-1.9.71h-.6l-19.78-10.78v-22.22l12.28-6.69v-17.29l-15.91-8.67-15.91,8.67v17.29l12.28,6.69v22.22l-18.48,10.08c-1.15.63-1.3.71-1.9.71h-.6l-19.78-10.78v-22.22l12.28-6.69v-17.29l-15.91-8.67-15.91,8.67v17.29l12.28,6.69v22.22l-18.48,10.08c-1.15.63-1.3.71-1.9.71h-.6l-19.78-10.78v-22.22l12.28-6.69v-17.29L-.02,62.34l-15.91,8.67v17.29l12.28,6.69v22.22l-18.48,10.08c-1.15.63-1.3.71-1.9.71h-.6l-19.78-10.78v-22.22l12.28-6.69v-17.29l-15.91-8.67-15.91,8.67v17.29l12.28,6.69v22.22l-18.48,10.08c-1.15.63-1.3.71-1.9.71h-.6l-19.78-10.78v-22.22l12.28-6.69v-17.29l-15.91-8.67-1.68.92v6.66l1.68-.92,9.81,5.35v10.69l-9.81,5.35-1.68-.92v32.91l1.68-.91,20.38,11.11v14.14h7.27v-14.14l20.38-11.11,20.38,11.11v14.14h7.27v-14.14L-.02,121.46l20.38,11.11v14.14h7.27v-14.14l20.38-11.11,20.38,11.11v14.14h7.27v-14.14l20.38-11.11,20.38,11.11v14.14h7.27v-14.14l20.38-11.11,20.38,11.11v14.14h7.27v-14.14l9.08-4.95v4.87l-4.61,2.51v11.71h4.61V-116.29h-4.61Zm1.7,35.78l-9.81,5.35-9.81-5.35v-10.69l9.81-5.35,9.81,5.35v10.69ZM-62.25-27.21v10.69l-9.81,5.35h0l-9.81-5.35v-10.69l9.81-5.35h0s0,0,0,0l9.81,5.35Zm48.03,0v10.69l-9.81,5.35-9.81-5.35v-10.69l9.81-5.35,9.81,5.35Zm48.03,0v10.69l-9.81,5.35-9.81-5.35v-10.69l9.81-5.35,9.81,5.35Zm48.03,0v10.69l-9.81,5.35h0l-9.81-5.35v-10.69l9.81-5.35h0s0,0,0,0l9.81,5.35Zm48.03,0v10.69l-9.81,5.35h0l-9.81-5.35v-10.69l9.81-5.35h0s0,0,0,0l9.81,5.35ZM-62.25,36.77v10.69l-9.81,5.35h0l-9.81-5.35v-10.69l9.81-5.35h0s0,0,0,0l9.81,5.35Zm4.4-79.72v-10.69l9.81-5.35,9.81,5.35v10.69l-9.81,5.35-9.81-5.35ZM-14.22,36.77v10.69l-9.81,5.35-9.81-5.35v-10.69l9.81-5.35,9.81,5.35Zm4.4-79.72v-10.69L-.02-58.98l9.81,5.35v10.69L-.02-37.6l-9.81-5.35ZM33.8,36.77v10.69l-9.81,5.35-9.81-5.35v-10.69l9.81-5.35,9.81,5.35Zm4.4-79.72v-10.69l9.81-5.35,9.81,5.35v10.69l-9.81,5.35-9.81-5.35Zm43.63,79.72v10.69l-9.81,5.35h0l-9.81-5.35v-10.69l9.81-5.35h0s0,0,0,0l9.81,5.35Zm4.4-79.72v-10.69l9.81-5.35,9.81,5.35v10.69l-9.81,5.35-9.81-5.35Zm43.63,79.72v10.69l-9.81,5.35h0l-9.81-5.35v-10.69l9.81-5.35h0s0,0,0,0l9.81,5.35Zm4.4-79.72v-10.69l9.81-5.35,9.81,5.35v10.69l-9.81,5.35-9.81-5.35ZM-62.25,100.76v10.69l-9.81,5.35h0l-9.81-5.35v-10.69l9.81-5.35h0s0,0,0,0l9.81,5.35Zm4.4-79.72v-10.69l9.81-5.35,9.81,5.35v10.69l-9.81,5.35-9.81-5.35ZM-14.22,100.76v10.69l-9.81,5.35-9.81-5.35v-10.69l9.81-5.35,9.81,5.35ZM-9.82,21.04v-10.69L-.02,5.01l9.81,5.35v10.69L-.02,26.39l-9.81-5.35Zm43.63,79.72v10.69l-9.81,5.35-9.81-5.35v-10.69l9.81-5.35,9.81,5.35Zm4.4-79.72v-10.69l9.81-5.35,9.81,5.35v10.69l-9.81,5.35-9.81-5.35Zm43.63,79.72v10.69l-9.81,5.35h0l-9.81-5.35v-10.69l9.81-5.35h0s0,0,0,0l9.81,5.35Zm4.4-79.72v-10.69l9.81-5.35,9.81,5.35v10.69l-9.81,5.35-9.81-5.35Zm43.63,79.72v10.69l-9.81,5.35h0l-9.81-5.35v-10.69l9.81-5.35h0s0,0,0,0l9.81,5.35Zm4.4-79.72v-10.69l9.81-5.35,9.81,5.35v10.69l-9.81,5.35-9.81-5.35ZM-57.85,85.03v-10.69l9.81-5.35,9.81,5.35v10.69l-9.81,5.35-9.81-5.35Zm48.03,0v-10.69L-.02,69l9.81,5.35v10.69L-.02,90.38l-9.81-5.35Zm48.03,0v-10.69l9.81-5.35,9.81,5.35v10.69l-9.81,5.35-9.81-5.35Zm48.03,0v-10.69l9.81-5.35,9.81,5.35v10.69l-9.81,5.35-9.81-5.35Zm48.03,0v-10.69l9.81-5.35,9.81,5.35v10.69l-9.81,5.35-9.81-5.35Zm43.63,26.42l-9.81,5.35-9.81-5.35v-10.69l9.81-5.35,9.81,5.35v10.69Zm2.91-42.95l-4.61,2.51v17.29l4.61,2.51v4.92l-9.08-4.95v-22.22l9.08-4.95v4.87Zm-2.91-21.03l-9.81,5.35-9.81-5.35v-10.69l9.81-5.35,9.81,5.35v10.69Zm2.91-42.95l-4.61,2.51v17.29l4.61,2.51v4.92l-9.08-4.95V4.59l9.08-4.95v4.87Zm-2.91-21.03l-9.81,5.35-9.81-5.35v-10.69l9.81-5.35,9.81,5.35v10.69Zm2.91-42.95l-4.61,2.51v17.29l4.61,2.51v4.92l-9.08-4.95v-22.22l9.08-4.95v4.87Z"/><polygon class="f" points="-5.35 12.79 -5.35 18.61 -.02 21.52 5.32 18.61 5.32 12.79 -.02 9.88 -5.35 12.79"/><polygon class="f" points="42.67 12.79 42.67 18.61 48.01 21.52 53.35 18.61 53.35 12.79 48.01 9.88 42.67 12.79"/><polygon class="f" points="18.66 39.21 18.66 45.03 24 47.94 29.34 45.03 29.34 39.21 24 36.3 18.66 39.21"/><polygon class="f" points="66.69 39.21 66.69 45.03 72.03 47.94 77.36 45.03 77.36 39.21 72.03 36.3 66.69 39.21"/><polygon class="f" points="90.7 12.79 90.7 18.61 96.04 21.52 101.38 18.61 101.38 12.79 96.04 9.88 90.7 12.79"/></g></g></svg>