<?xml version="1.0" encoding="UTF-8"?><svg id="b" xmlns="http://www.w3.org/2000/svg" xmlns:xlink="http://www.w3.org/1999/xlink" viewBox="0 0 95.97 64"><defs><style>.e{fill:url(#d);}.f{fill:none;}.g{fill:#7eb7a9;}.h{fill:#d79f58;}.i{fill:#464645;}.j{fill:#3d4555;}.k{opacity:.21;}</style><pattern id="d" x="0" y="0" width="42.25" height="42.25" patternTransform="translate(3675.64 3972.22) scale(1.51)" patternUnits="userSpaceOnUse" viewBox="0 0 42.25 42.25"><rect class="f" width="42.25" height="42.25"/><polygon class="j" points="42.25 12.07 31.69 18.11 21.13 12.07 21.13 12.07 21.13 12.07 21.13 12.07 21.13 12.07 10.56 18.11 0 12.07 0 24.14 10.56 30.18 10.56 30.18 10.56 30.18 10.56 30.18 10.56 30.18 21.13 24.14 31.69 30.18 31.69 30.18 31.69 30.18 31.69 30.18 31.69 30.18 42.25 24.14 42.25 12.07"/><polygon class="h" points="0 24.14 0 36.21 10.56 30.18 0 24.14"/><polygon class="h" points="21.13 24.14 21.13 24.14 21.13 24.14 21.13 24.14 10.57 30.18 21.13 36.21 21.13 36.21 31.69 42.25 31.69 30.18 21.13 24.14 21.13 24.14"/><polygon class="h" points="31.69 30.18 42.25 36.21 42.25 24.14 31.69 30.18"/><polygon class="h" points="10.56 42.25 21.13 36.21 10.56 30.18 10.56 42.25"/><polygon class="h" points="31.69 42.25 42.25 36.21 31.69 30.18 31.69 42.25"/><polygon class="h" points="10.56 42.25 10.56 30.18 0 36.21 10.56 42.25"/><polygon class="g" points="31.69 6.04 42.25 12.07 42.25 0 31.69 6.04"/><polygon class="g" points="21.13 0 21.13 0 21.13 0 21.13 0 10.57 6.04 21.13 12.07 21.13 12.07 10.57 6.04 10.57 6.04 0 0 0 12.07 0 12.07 10.56 18.11 10.56 6.04 10.57 6.04 10.57 18.11 21.13 12.07 31.69 18.11 31.69 6.04 31.69 6.04 21.13 0 21.13 0"/><polygon class="g" points="31.69 18.11 42.25 12.07 31.69 6.04 31.69 18.11"/><g class="k"><polygon class="i" points="31.69 6.04 42.25 12.07 42.25 0 31.69 6.04"/><polygon class="i" points="21.13 0 21.13 0 21.13 0 21.13 0 10.57 6.04 21.13 12.07 21.13 12.07 10.57 6.04 10.57 6.04 0 0 0 12.07 0 12.07 10.56 18.11 10.56 6.04 10.57 6.04 10.57 18.11 21.13 12.07 31.69 18.11 31.69 6.04 31.69 6.04 21.13 0 21.13 0"/><polygon class="i" points="31.69 18.11 42.25 12.07 31.69 6.04 31.69 18.11"/></g><rect class="f" x="0" width="42.25" height="42.25"/></pattern></defs><g id="c"><rect class="e" width="95.97" height="64"/></g></svg>